G04 #@! TF.GenerationSoftware,KiCad,Pcbnew,(5.1.10)-1*
G04 #@! TF.CreationDate,2021-12-02T21:28:18-06:00*
G04 #@! TF.ProjectId,Kitty_Cannon_Schematic,4b697474-795f-4436-916e-6e6f6e5f5363,rev?*
G04 #@! TF.SameCoordinates,Original*
G04 #@! TF.FileFunction,Copper,L2,Bot*
G04 #@! TF.FilePolarity,Positive*
%FSLAX46Y46*%
G04 Gerber Fmt 4.6, Leading zero omitted, Abs format (unit mm)*
G04 Created by KiCad (PCBNEW (5.1.10)-1) date 2021-12-02 21:28:18*
%MOMM*%
%LPD*%
G01*
G04 APERTURE LIST*
G04 #@! TA.AperFunction,NonConductor*
%ADD10C,0.162560*%
G04 #@! TD*
G04 #@! TA.AperFunction,ComponentPad*
%ADD11R,4.500000X2.000000*%
G04 #@! TD*
G04 #@! TA.AperFunction,ComponentPad*
%ADD12R,2.000000X4.500000*%
G04 #@! TD*
G04 #@! TA.AperFunction,ComponentPad*
%ADD13R,2.250000X2.250000*%
G04 #@! TD*
G04 #@! TA.AperFunction,ComponentPad*
%ADD14C,2.250000*%
G04 #@! TD*
G04 #@! TA.AperFunction,ComponentPad*
%ADD15C,2.032000*%
G04 #@! TD*
G04 #@! TA.AperFunction,ComponentPad*
%ADD16C,1.120000*%
G04 #@! TD*
G04 #@! TA.AperFunction,ComponentPad*
%ADD17R,1.120000X1.120000*%
G04 #@! TD*
G04 #@! TA.AperFunction,ComponentPad*
%ADD18C,1.320800*%
G04 #@! TD*
G04 #@! TA.AperFunction,ComponentPad*
%ADD19O,1.676400X3.352800*%
G04 #@! TD*
G04 #@! TA.AperFunction,ComponentPad*
%ADD20R,1.308000X1.308000*%
G04 #@! TD*
G04 #@! TA.AperFunction,ComponentPad*
%ADD21C,4.000000*%
G04 #@! TD*
G04 #@! TA.AperFunction,ComponentPad*
%ADD22C,1.600000*%
G04 #@! TD*
G04 #@! TA.AperFunction,ComponentPad*
%ADD23C,1.270000*%
G04 #@! TD*
G04 #@! TA.AperFunction,ComponentPad*
%ADD24R,1.270000X1.270000*%
G04 #@! TD*
G04 #@! TA.AperFunction,ComponentPad*
%ADD25O,1.270000X2.540000*%
G04 #@! TD*
G04 #@! TA.AperFunction,ComponentPad*
%ADD26C,1.879600*%
G04 #@! TD*
G04 #@! TA.AperFunction,ViaPad*
%ADD27C,1.524000*%
G04 #@! TD*
G04 #@! TA.AperFunction,Conductor*
%ADD28C,2.540000*%
G04 #@! TD*
G04 #@! TA.AperFunction,Conductor*
%ADD29C,0.250000*%
G04 #@! TD*
G04 #@! TA.AperFunction,Conductor*
%ADD30C,2.032000*%
G04 #@! TD*
G04 #@! TA.AperFunction,Conductor*
%ADD31C,1.524000*%
G04 #@! TD*
G04 #@! TA.AperFunction,Conductor*
%ADD32C,2.286000*%
G04 #@! TD*
G04 #@! TA.AperFunction,Conductor*
%ADD33C,1.143000*%
G04 #@! TD*
G04 #@! TA.AperFunction,Conductor*
%ADD34C,0.127000*%
G04 #@! TD*
G04 #@! TA.AperFunction,Conductor*
%ADD35C,0.100000*%
G04 #@! TD*
G04 APERTURE END LIST*
D10*
X181933063Y-116468023D02*
X183863463Y-116468023D01*
X181933063Y-115364937D02*
X183036149Y-116192251D01*
X183863463Y-115364937D02*
X182760378Y-116468023D01*
X181933063Y-114537623D02*
X183219997Y-114537623D01*
X183863463Y-114537623D02*
X183771540Y-114629546D01*
X183679616Y-114537623D01*
X183771540Y-114445699D01*
X183863463Y-114537623D01*
X183679616Y-114537623D01*
X183219997Y-113894156D02*
X183219997Y-113158765D01*
X183863463Y-113618384D02*
X182208835Y-113618384D01*
X182024987Y-113526461D01*
X181933063Y-113342613D01*
X181933063Y-113158765D01*
X183219997Y-112791070D02*
X183219997Y-112055680D01*
X183863463Y-112515299D02*
X182208835Y-112515299D01*
X182024987Y-112423375D01*
X181933063Y-112239527D01*
X181933063Y-112055680D01*
X183219997Y-111596061D02*
X181933063Y-111136442D01*
X183219997Y-110676823D02*
X181933063Y-111136442D01*
X181473444Y-111320289D01*
X181381520Y-111412213D01*
X181289597Y-111596061D01*
X182116911Y-107367565D02*
X182024987Y-107459489D01*
X181933063Y-107735261D01*
X181933063Y-107919108D01*
X182024987Y-108194880D01*
X182208835Y-108378727D01*
X182392682Y-108470651D01*
X182760378Y-108562575D01*
X183036149Y-108562575D01*
X183403844Y-108470651D01*
X183587692Y-108378727D01*
X183771540Y-108194880D01*
X183863463Y-107919108D01*
X183863463Y-107735261D01*
X183771540Y-107459489D01*
X183679616Y-107367565D01*
X181933063Y-105712937D02*
X182944225Y-105712937D01*
X183128073Y-105804861D01*
X183219997Y-105988708D01*
X183219997Y-106356404D01*
X183128073Y-106540251D01*
X182024987Y-105712937D02*
X181933063Y-105896784D01*
X181933063Y-106356404D01*
X182024987Y-106540251D01*
X182208835Y-106632175D01*
X182392682Y-106632175D01*
X182576530Y-106540251D01*
X182668454Y-106356404D01*
X182668454Y-105896784D01*
X182760378Y-105712937D01*
X183219997Y-104793699D02*
X181933063Y-104793699D01*
X183036149Y-104793699D02*
X183128073Y-104701775D01*
X183219997Y-104517927D01*
X183219997Y-104242156D01*
X183128073Y-104058308D01*
X182944225Y-103966384D01*
X181933063Y-103966384D01*
X183219997Y-103047146D02*
X181933063Y-103047146D01*
X183036149Y-103047146D02*
X183128073Y-102955223D01*
X183219997Y-102771375D01*
X183219997Y-102495604D01*
X183128073Y-102311756D01*
X182944225Y-102219832D01*
X181933063Y-102219832D01*
X181933063Y-101024823D02*
X182024987Y-101208670D01*
X182116911Y-101300594D01*
X182300759Y-101392518D01*
X182852301Y-101392518D01*
X183036149Y-101300594D01*
X183128073Y-101208670D01*
X183219997Y-101024823D01*
X183219997Y-100749051D01*
X183128073Y-100565204D01*
X183036149Y-100473280D01*
X182852301Y-100381356D01*
X182300759Y-100381356D01*
X182116911Y-100473280D01*
X182024987Y-100565204D01*
X181933063Y-100749051D01*
X181933063Y-101024823D01*
X183219997Y-99554042D02*
X181933063Y-99554042D01*
X183036149Y-99554042D02*
X183128073Y-99462118D01*
X183219997Y-99278270D01*
X183219997Y-99002499D01*
X183128073Y-98818651D01*
X182944225Y-98726727D01*
X181933063Y-98726727D01*
X182208835Y-96152861D02*
X182760378Y-96612480D01*
X182208835Y-96980175D02*
X183495768Y-96980175D01*
X183495768Y-96428632D01*
X183403844Y-96244784D01*
X183219997Y-96152861D01*
X183036149Y-96152861D01*
X182852301Y-96244784D01*
X182760378Y-96428632D01*
X182760378Y-96980175D01*
X184139235Y-96612480D02*
X184047311Y-97072099D01*
X183771540Y-97531718D01*
X183311920Y-97807489D01*
X182852301Y-97899413D01*
X182392682Y-97807489D01*
X181933063Y-97531718D01*
X181657292Y-97072099D01*
X181565368Y-96612480D01*
X181657292Y-96152861D01*
X181933063Y-95693242D01*
X182392682Y-95417470D01*
X182852301Y-95325546D01*
X183311920Y-95417470D01*
X183771540Y-95693242D01*
X184047311Y-96152861D01*
X184139235Y-96612480D01*
X181933063Y-91924365D02*
X182852301Y-92567832D01*
X181933063Y-93027451D02*
X183863463Y-93027451D01*
X183863463Y-92292061D01*
X183771540Y-92108213D01*
X183679616Y-92016289D01*
X183495768Y-91924365D01*
X183219997Y-91924365D01*
X183036149Y-92016289D01*
X182944225Y-92108213D01*
X182852301Y-92292061D01*
X182852301Y-93027451D01*
X182024987Y-90361661D02*
X181933063Y-90545508D01*
X181933063Y-90913204D01*
X182024987Y-91097051D01*
X182208835Y-91188975D01*
X182944225Y-91188975D01*
X183128073Y-91097051D01*
X183219997Y-90913204D01*
X183219997Y-90545508D01*
X183128073Y-90361661D01*
X182944225Y-90269737D01*
X182760378Y-90269737D01*
X182576530Y-91188975D01*
X183219997Y-89626270D02*
X181933063Y-89166651D01*
X183219997Y-88707032D01*
X183863463Y-85673546D02*
X183863463Y-86041242D01*
X183771540Y-86225089D01*
X183679616Y-86317013D01*
X183403844Y-86500861D01*
X183036149Y-86592784D01*
X182300759Y-86592784D01*
X182116911Y-86500861D01*
X182024987Y-86408937D01*
X181933063Y-86225089D01*
X181933063Y-85857394D01*
X182024987Y-85673546D01*
X182116911Y-85581623D01*
X182300759Y-85489699D01*
X182760378Y-85489699D01*
X182944225Y-85581623D01*
X183036149Y-85673546D01*
X183128073Y-85857394D01*
X183128073Y-86225089D01*
X183036149Y-86408937D01*
X182944225Y-86500861D01*
X182760378Y-86592784D01*
D11*
X147231100Y-64613600D03*
D12*
X142431100Y-68013600D03*
D11*
X147231100Y-70913600D03*
X135801100Y-145393600D03*
D12*
X140601100Y-141993600D03*
D11*
X135801100Y-139093600D03*
X152311100Y-145393600D03*
D12*
X157111100Y-141993600D03*
D11*
X152311100Y-139093600D03*
D13*
X152311100Y-127863600D03*
D14*
X167551100Y-127863600D03*
D15*
X171894500Y-110083600D03*
X148501100Y-110083600D03*
D16*
X148501100Y-78603600D03*
D17*
X148501100Y-80603600D03*
D16*
X139341100Y-79603600D03*
D17*
X137341100Y-79603600D03*
D18*
X133261100Y-132943600D03*
X133261100Y-127863600D03*
X129451100Y-132943600D03*
X129451100Y-127863600D03*
D19*
X142151100Y-124053600D03*
X139611100Y-124053600D03*
X137071100Y-124053600D03*
D13*
X182846980Y-121246460D03*
X182846980Y-129446460D03*
D20*
X182846980Y-127346460D03*
X182846980Y-123346460D03*
X182846980Y-125346460D03*
D21*
X119291100Y-79823600D03*
X119291100Y-66683600D03*
D22*
X121691100Y-76753600D03*
X121691100Y-74253600D03*
X121691100Y-72253600D03*
X121691100Y-69753600D03*
D23*
X159931100Y-77774800D03*
D24*
X159931100Y-92303600D03*
D25*
X145917920Y-92339160D03*
X143865600Y-92313760D03*
X141745100Y-92303600D03*
X139512040Y-92344240D03*
X137320020Y-92293440D03*
D26*
X120561100Y-138023600D03*
X123101100Y-138023600D03*
X120561100Y-135483600D03*
X123101100Y-135483600D03*
X120561100Y-132943600D03*
X123101100Y-132943600D03*
X120561100Y-130403600D03*
X123101100Y-130403600D03*
X120561100Y-127863600D03*
X123101100Y-127863600D03*
X120561100Y-125323600D03*
X123101100Y-125323600D03*
X120561100Y-122783600D03*
X123101100Y-122783600D03*
X120561100Y-120243600D03*
X123101100Y-120243600D03*
X120561100Y-117703600D03*
X123101100Y-117703600D03*
X120561100Y-115163600D03*
X123101100Y-115163600D03*
X120561100Y-112623600D03*
X123101100Y-112623600D03*
X120561100Y-110083600D03*
X123101100Y-110083600D03*
X120561100Y-107543600D03*
X123101100Y-107543600D03*
X120561100Y-105003600D03*
X123101100Y-105003600D03*
X120561100Y-102463600D03*
X123101100Y-102463600D03*
X120561100Y-99923600D03*
X123101100Y-99923600D03*
X120561100Y-97383600D03*
X123101100Y-97383600D03*
X120561100Y-94843600D03*
X123101100Y-94843600D03*
X120561100Y-92303600D03*
X123101100Y-92303600D03*
X120561100Y-89763600D03*
X123101100Y-89763600D03*
G04 #@! TA.AperFunction,ComponentPad*
G36*
G01*
X175575240Y-72049320D02*
X181325240Y-72049320D01*
G75*
G02*
X181950240Y-72674320I0J-625000D01*
G01*
X181950240Y-73924320D01*
G75*
G02*
X181325240Y-74549320I-625000J0D01*
G01*
X175575240Y-74549320D01*
G75*
G02*
X174950240Y-73924320I0J625000D01*
G01*
X174950240Y-72674320D01*
G75*
G02*
X175575240Y-72049320I625000J0D01*
G01*
G37*
G04 #@! TD.AperFunction*
G04 #@! TA.AperFunction,ComponentPad*
G36*
G01*
X175575240Y-79149320D02*
X181325240Y-79149320D01*
G75*
G02*
X181950240Y-79774320I0J-625000D01*
G01*
X181950240Y-81024320D01*
G75*
G02*
X181325240Y-81649320I-625000J0D01*
G01*
X175575240Y-81649320D01*
G75*
G02*
X174950240Y-81024320I0J625000D01*
G01*
X174950240Y-79774320D01*
G75*
G02*
X175575240Y-79149320I625000J0D01*
G01*
G37*
G04 #@! TD.AperFunction*
D27*
X147231100Y-68173600D03*
X135826500Y-141970760D03*
X148501100Y-134213600D03*
X139611100Y-134213600D03*
X129451100Y-102463600D03*
D28*
X148501100Y-134213600D02*
X139611100Y-134213600D01*
X129451100Y-102463600D02*
X129451100Y-120243600D01*
X139611100Y-130403600D02*
X139611100Y-134213600D01*
X129423160Y-120230900D02*
X139583160Y-130390900D01*
D29*
X138341100Y-94843600D02*
X138336020Y-94843600D01*
D30*
X137320020Y-93827600D02*
X137320020Y-92293440D01*
X138336020Y-94843600D02*
X137320020Y-93827600D01*
D31*
X178442620Y-80391700D02*
X178450240Y-80399320D01*
D28*
X164223000Y-80391700D02*
X178442620Y-80391700D01*
X147231100Y-97383600D02*
X164223000Y-80391700D01*
D32*
X140881100Y-97383600D02*
X147231100Y-97383600D01*
D30*
X138341100Y-94843600D02*
X140881100Y-97383600D01*
D33*
X148501100Y-80603600D02*
X148501100Y-82227420D01*
X143865600Y-86862920D02*
X143865600Y-92313760D01*
X148501100Y-82227420D02*
X143865600Y-86862920D01*
D34*
X176453800Y-71832376D02*
X175575240Y-71832376D01*
X175410985Y-71848554D01*
X175253042Y-71896465D01*
X175107481Y-71974269D01*
X174979896Y-72078976D01*
X174875189Y-72206561D01*
X174797385Y-72352122D01*
X174749474Y-72510065D01*
X174733296Y-72674320D01*
X174733296Y-73924320D01*
X174749474Y-74088575D01*
X174797385Y-74246518D01*
X174875189Y-74392079D01*
X174979896Y-74519664D01*
X175107481Y-74624371D01*
X175253042Y-74702175D01*
X175410985Y-74750086D01*
X175575240Y-74766264D01*
X176453800Y-74766264D01*
X176453800Y-78905800D01*
X164295981Y-78905800D01*
X164222999Y-78898612D01*
X164150017Y-78905800D01*
X164150008Y-78905800D01*
X163931713Y-78927300D01*
X163651620Y-79012266D01*
X163393484Y-79150242D01*
X163393482Y-79150243D01*
X163393483Y-79150243D01*
X163223922Y-79289398D01*
X163223920Y-79289400D01*
X163167227Y-79335927D01*
X163120700Y-79392620D01*
X146488621Y-96024700D01*
X141264370Y-96024700D01*
X139169395Y-93929727D01*
X139141075Y-93906486D01*
X138551920Y-93317331D01*
X138551920Y-92232927D01*
X138534095Y-92051945D01*
X138463654Y-91819731D01*
X138382253Y-91667441D01*
X138661140Y-91667441D01*
X138661141Y-93021040D01*
X138673453Y-93146046D01*
X138722108Y-93306441D01*
X138801120Y-93454262D01*
X138907453Y-93583828D01*
X139037019Y-93690161D01*
X139184840Y-93769173D01*
X139345235Y-93817828D01*
X139512040Y-93834257D01*
X139678846Y-93817828D01*
X139839241Y-93769173D01*
X139987062Y-93690161D01*
X140116628Y-93583828D01*
X140222961Y-93454262D01*
X140301973Y-93306441D01*
X140350628Y-93146046D01*
X140362940Y-93021040D01*
X140362940Y-92341300D01*
X140844200Y-92341300D01*
X140844200Y-92976300D01*
X140868865Y-93151332D01*
X140927204Y-93318189D01*
X141016974Y-93470459D01*
X141134725Y-93602290D01*
X141275933Y-93708616D01*
X141435171Y-93785350D01*
X141567056Y-93821732D01*
X141707400Y-93772173D01*
X141707400Y-92341300D01*
X141782800Y-92341300D01*
X141782800Y-93772173D01*
X141923144Y-93821732D01*
X142055029Y-93785350D01*
X142214267Y-93708616D01*
X142355475Y-93602290D01*
X142473226Y-93470459D01*
X142562996Y-93318189D01*
X142621335Y-93151332D01*
X142646000Y-92976300D01*
X142646000Y-92341300D01*
X141782800Y-92341300D01*
X141707400Y-92341300D01*
X140844200Y-92341300D01*
X140362940Y-92341300D01*
X140362940Y-91667440D01*
X140359342Y-91630900D01*
X140844200Y-91630900D01*
X140844200Y-92265900D01*
X141707400Y-92265900D01*
X141707400Y-90835027D01*
X141782800Y-90835027D01*
X141782800Y-92265900D01*
X142646000Y-92265900D01*
X142646000Y-91636961D01*
X143014700Y-91636961D01*
X143014701Y-92990560D01*
X143027013Y-93115566D01*
X143075668Y-93275961D01*
X143154680Y-93423782D01*
X143261013Y-93553348D01*
X143390579Y-93659681D01*
X143538400Y-93738693D01*
X143698795Y-93787348D01*
X143865600Y-93803777D01*
X144032406Y-93787348D01*
X144192801Y-93738693D01*
X144340622Y-93659681D01*
X144470188Y-93553348D01*
X144576521Y-93423782D01*
X144655533Y-93275961D01*
X144704188Y-93115566D01*
X144716500Y-92990560D01*
X144716500Y-92376860D01*
X145017020Y-92376860D01*
X145017020Y-93011860D01*
X145041685Y-93186892D01*
X145100024Y-93353749D01*
X145189794Y-93506019D01*
X145307545Y-93637850D01*
X145448753Y-93744176D01*
X145607991Y-93820910D01*
X145739876Y-93857292D01*
X145880220Y-93807733D01*
X145880220Y-92376860D01*
X145955620Y-92376860D01*
X145955620Y-93807733D01*
X146095964Y-93857292D01*
X146227849Y-93820910D01*
X146387087Y-93744176D01*
X146528295Y-93637850D01*
X146646046Y-93506019D01*
X146735816Y-93353749D01*
X146794155Y-93186892D01*
X146818820Y-93011860D01*
X146818820Y-92376860D01*
X145955620Y-92376860D01*
X145880220Y-92376860D01*
X145017020Y-92376860D01*
X144716500Y-92376860D01*
X144716500Y-91666460D01*
X145017020Y-91666460D01*
X145017020Y-92301460D01*
X145880220Y-92301460D01*
X145880220Y-90870587D01*
X145955620Y-90870587D01*
X145955620Y-92301460D01*
X146818820Y-92301460D01*
X146818820Y-91666460D01*
X146794155Y-91491428D01*
X146735816Y-91324571D01*
X146646046Y-91172301D01*
X146528295Y-91040470D01*
X146387087Y-90934144D01*
X146227849Y-90857410D01*
X146095964Y-90821028D01*
X145955620Y-90870587D01*
X145880220Y-90870587D01*
X145739876Y-90821028D01*
X145607991Y-90857410D01*
X145448753Y-90934144D01*
X145307545Y-91040470D01*
X145189794Y-91172301D01*
X145100024Y-91324571D01*
X145041685Y-91491428D01*
X145017020Y-91666460D01*
X144716500Y-91666460D01*
X144716500Y-91636960D01*
X144704188Y-91511954D01*
X144655533Y-91351559D01*
X144653000Y-91346820D01*
X144653000Y-87189070D01*
X149030528Y-82811543D01*
X149060569Y-82786889D01*
X149108935Y-82727955D01*
X149158966Y-82666993D01*
X149232082Y-82530203D01*
X149277106Y-82381777D01*
X149288500Y-82266093D01*
X149288500Y-82266083D01*
X149292308Y-82227420D01*
X149288500Y-82188757D01*
X149288500Y-80564927D01*
X149278044Y-80458767D01*
X149278044Y-80043600D01*
X149273875Y-80001276D01*
X149261530Y-79960579D01*
X149241482Y-79923072D01*
X149214503Y-79890197D01*
X149181628Y-79863218D01*
X149144121Y-79843170D01*
X149103424Y-79830825D01*
X149061100Y-79826656D01*
X148645932Y-79826656D01*
X148501100Y-79812391D01*
X148356267Y-79826656D01*
X147941100Y-79826656D01*
X147898776Y-79830825D01*
X147858079Y-79843170D01*
X147820572Y-79863218D01*
X147787697Y-79890197D01*
X147760718Y-79923072D01*
X147740670Y-79960579D01*
X147728325Y-80001276D01*
X147724156Y-80043600D01*
X147724156Y-80458768D01*
X147713700Y-80564928D01*
X147713701Y-81901268D01*
X143336178Y-86278792D01*
X143306131Y-86303451D01*
X143207734Y-86423349D01*
X143134618Y-86560138D01*
X143089594Y-86708564D01*
X143078200Y-86824248D01*
X143078200Y-86824257D01*
X143074392Y-86862920D01*
X143078200Y-86901583D01*
X143078201Y-91346820D01*
X143075667Y-91351560D01*
X143027012Y-91511955D01*
X143014700Y-91636961D01*
X142646000Y-91636961D01*
X142646000Y-91630900D01*
X142621335Y-91455868D01*
X142562996Y-91289011D01*
X142473226Y-91136741D01*
X142355475Y-91004910D01*
X142214267Y-90898584D01*
X142055029Y-90821850D01*
X141923144Y-90785468D01*
X141782800Y-90835027D01*
X141707400Y-90835027D01*
X141567056Y-90785468D01*
X141435171Y-90821850D01*
X141275933Y-90898584D01*
X141134725Y-91004910D01*
X141016974Y-91136741D01*
X140927204Y-91289011D01*
X140868865Y-91455868D01*
X140844200Y-91630900D01*
X140359342Y-91630900D01*
X140350628Y-91542434D01*
X140301973Y-91382039D01*
X140222961Y-91234218D01*
X140116628Y-91104652D01*
X139987061Y-90998319D01*
X139839240Y-90919307D01*
X139678845Y-90870652D01*
X139512040Y-90854223D01*
X139345234Y-90870652D01*
X139184839Y-90919307D01*
X139037018Y-90998319D01*
X138907452Y-91104652D01*
X138801119Y-91234219D01*
X138722107Y-91382040D01*
X138673452Y-91542435D01*
X138661140Y-91667441D01*
X138382253Y-91667441D01*
X138349263Y-91605722D01*
X138195319Y-91418141D01*
X138116756Y-91353666D01*
X138109953Y-91331239D01*
X138030941Y-91183418D01*
X137924608Y-91053852D01*
X137795041Y-90947519D01*
X137647220Y-90868507D01*
X137486825Y-90819852D01*
X137320020Y-90803423D01*
X137153214Y-90819852D01*
X136992819Y-90868507D01*
X136844998Y-90947519D01*
X136715432Y-91053852D01*
X136609099Y-91183419D01*
X136530087Y-91331240D01*
X136523284Y-91353667D01*
X136444722Y-91418141D01*
X136290778Y-91605722D01*
X136176387Y-91819731D01*
X136105945Y-92051945D01*
X136088120Y-92232927D01*
X136088120Y-93767097D01*
X136082161Y-93827600D01*
X136088120Y-93888103D01*
X136088120Y-93888112D01*
X136105945Y-94069094D01*
X136176386Y-94301308D01*
X136290777Y-94515317D01*
X136444721Y-94702899D01*
X136491731Y-94741479D01*
X137507724Y-95757474D01*
X137536063Y-95780731D01*
X139601317Y-97845987D01*
X139619566Y-97906145D01*
X139745749Y-98142217D01*
X139915563Y-98349137D01*
X140122483Y-98518951D01*
X140358555Y-98645134D01*
X140614709Y-98722838D01*
X140814342Y-98742500D01*
X146621305Y-98742500D01*
X146659720Y-98763033D01*
X146939814Y-98847999D01*
X147231100Y-98876688D01*
X147522386Y-98847999D01*
X147802480Y-98763033D01*
X148060616Y-98625058D01*
X148230176Y-98485903D01*
X155047479Y-91668600D01*
X159079156Y-91668600D01*
X159079156Y-92938600D01*
X159083325Y-92980924D01*
X159095670Y-93021621D01*
X159115718Y-93059128D01*
X159142697Y-93092003D01*
X159175572Y-93118982D01*
X159213079Y-93139030D01*
X159253776Y-93151375D01*
X159296100Y-93155544D01*
X160566100Y-93155544D01*
X160608424Y-93151375D01*
X160649121Y-93139030D01*
X160686628Y-93118982D01*
X160719503Y-93092003D01*
X160746482Y-93059128D01*
X160766530Y-93021621D01*
X160778875Y-92980924D01*
X160783044Y-92938600D01*
X160783044Y-91668600D01*
X160778875Y-91626276D01*
X160766530Y-91585579D01*
X160746482Y-91548072D01*
X160719503Y-91515197D01*
X160686628Y-91488218D01*
X160649121Y-91468170D01*
X160608424Y-91455825D01*
X160566100Y-91451656D01*
X159296100Y-91451656D01*
X159253776Y-91455825D01*
X159213079Y-91468170D01*
X159175572Y-91488218D01*
X159142697Y-91515197D01*
X159115718Y-91548072D01*
X159095670Y-91585579D01*
X159083325Y-91626276D01*
X159079156Y-91668600D01*
X155047479Y-91668600D01*
X155876880Y-90839199D01*
X170546900Y-90839199D01*
X170546900Y-91177201D01*
X170612841Y-91508710D01*
X170742189Y-91820984D01*
X170929973Y-92102023D01*
X171168977Y-92341027D01*
X171450016Y-92528811D01*
X171762290Y-92658159D01*
X172093799Y-92724100D01*
X172431801Y-92724100D01*
X172763310Y-92658159D01*
X173075584Y-92528811D01*
X173356623Y-92341027D01*
X173595627Y-92102023D01*
X173783411Y-91820984D01*
X173912759Y-91508710D01*
X173978700Y-91177201D01*
X173978700Y-90839199D01*
X173912759Y-90507690D01*
X173783411Y-90195416D01*
X173595627Y-89914377D01*
X173356623Y-89675373D01*
X173075584Y-89487589D01*
X172763310Y-89358241D01*
X172431801Y-89292300D01*
X172093799Y-89292300D01*
X171762290Y-89358241D01*
X171450016Y-89487589D01*
X171168977Y-89675373D01*
X170929973Y-89914377D01*
X170742189Y-90195416D01*
X170612841Y-90507690D01*
X170546900Y-90839199D01*
X155876880Y-90839199D01*
X164838480Y-81877600D01*
X176453800Y-81877600D01*
X176453800Y-148196300D01*
X115468400Y-148196300D01*
X115468400Y-146393600D01*
X133283913Y-146393600D01*
X133289047Y-146445726D01*
X133304251Y-146495848D01*
X133328942Y-146542041D01*
X133362170Y-146582530D01*
X133402659Y-146615758D01*
X133448852Y-146640449D01*
X133498974Y-146655653D01*
X133551100Y-146660787D01*
X135696925Y-146659500D01*
X135763400Y-146593025D01*
X135763400Y-145431300D01*
X135838800Y-145431300D01*
X135838800Y-146593025D01*
X135905275Y-146659500D01*
X138051100Y-146660787D01*
X138103226Y-146655653D01*
X138153348Y-146640449D01*
X138199541Y-146615758D01*
X138240030Y-146582530D01*
X138273258Y-146542041D01*
X138297949Y-146495848D01*
X138313153Y-146445726D01*
X138318287Y-146393600D01*
X138317000Y-145497775D01*
X138250525Y-145431300D01*
X135838800Y-145431300D01*
X135763400Y-145431300D01*
X133351675Y-145431300D01*
X133285200Y-145497775D01*
X133283913Y-146393600D01*
X115468400Y-146393600D01*
X115468400Y-144393600D01*
X133283913Y-144393600D01*
X133285200Y-145289425D01*
X133351675Y-145355900D01*
X135763400Y-145355900D01*
X135763400Y-144194175D01*
X135838800Y-144194175D01*
X135838800Y-145355900D01*
X138250525Y-145355900D01*
X138317000Y-145289425D01*
X138318287Y-144393600D01*
X138313153Y-144341474D01*
X138297949Y-144291352D01*
X138273258Y-144245159D01*
X138271979Y-144243600D01*
X139333913Y-144243600D01*
X139339047Y-144295726D01*
X139354251Y-144345848D01*
X139378942Y-144392041D01*
X139412170Y-144432530D01*
X139452659Y-144465758D01*
X139498852Y-144490449D01*
X139548974Y-144505653D01*
X139601100Y-144510787D01*
X140496925Y-144509500D01*
X140563400Y-144443025D01*
X140563400Y-142031300D01*
X140638800Y-142031300D01*
X140638800Y-144443025D01*
X140705275Y-144509500D01*
X141601100Y-144510787D01*
X141653226Y-144505653D01*
X141703348Y-144490449D01*
X141749541Y-144465758D01*
X141790030Y-144432530D01*
X141821978Y-144393600D01*
X149844156Y-144393600D01*
X149844156Y-146393600D01*
X149848325Y-146435924D01*
X149860670Y-146476621D01*
X149880718Y-146514128D01*
X149907697Y-146547003D01*
X149940572Y-146573982D01*
X149978079Y-146594030D01*
X150018776Y-146606375D01*
X150061100Y-146610544D01*
X154561100Y-146610544D01*
X154603424Y-146606375D01*
X154644121Y-146594030D01*
X154681628Y-146573982D01*
X154714503Y-146547003D01*
X154741482Y-146514128D01*
X154761530Y-146476621D01*
X154773875Y-146435924D01*
X154778044Y-146393600D01*
X154778044Y-144393600D01*
X154773875Y-144351276D01*
X154761530Y-144310579D01*
X154741482Y-144273072D01*
X154714503Y-144240197D01*
X154681628Y-144213218D01*
X154644121Y-144193170D01*
X154603424Y-144180825D01*
X154561100Y-144176656D01*
X150061100Y-144176656D01*
X150018776Y-144180825D01*
X149978079Y-144193170D01*
X149940572Y-144213218D01*
X149907697Y-144240197D01*
X149880718Y-144273072D01*
X149860670Y-144310579D01*
X149848325Y-144351276D01*
X149844156Y-144393600D01*
X141821978Y-144393600D01*
X141823258Y-144392041D01*
X141847949Y-144345848D01*
X141863153Y-144295726D01*
X141868287Y-144243600D01*
X141867000Y-142097775D01*
X141800525Y-142031300D01*
X140638800Y-142031300D01*
X140563400Y-142031300D01*
X139401675Y-142031300D01*
X139335200Y-142097775D01*
X139333913Y-144243600D01*
X138271979Y-144243600D01*
X138240030Y-144204670D01*
X138199541Y-144171442D01*
X138153348Y-144146751D01*
X138103226Y-144131547D01*
X138051100Y-144126413D01*
X135905275Y-144127700D01*
X135838800Y-144194175D01*
X135763400Y-144194175D01*
X135696925Y-144127700D01*
X133551100Y-144126413D01*
X133498974Y-144131547D01*
X133448852Y-144146751D01*
X133402659Y-144171442D01*
X133362170Y-144204670D01*
X133328942Y-144245159D01*
X133304251Y-144291352D01*
X133289047Y-144341474D01*
X133283913Y-144393600D01*
X115468400Y-144393600D01*
X115468400Y-137909773D01*
X119405400Y-137909773D01*
X119405400Y-138137427D01*
X119449813Y-138360705D01*
X119536932Y-138571029D01*
X119663409Y-138760316D01*
X119824384Y-138921291D01*
X120013671Y-139047768D01*
X120223995Y-139134887D01*
X120447273Y-139179300D01*
X120674927Y-139179300D01*
X120898205Y-139134887D01*
X121108529Y-139047768D01*
X121297816Y-138921291D01*
X121359609Y-138859498D01*
X122318518Y-138859498D01*
X122419823Y-139025437D01*
X122628362Y-139139098D01*
X122855069Y-139209890D01*
X123091229Y-139235094D01*
X123327770Y-139213741D01*
X123555600Y-139146652D01*
X123765964Y-139036405D01*
X123782377Y-139025437D01*
X123883682Y-138859498D01*
X123101100Y-138076916D01*
X122318518Y-138859498D01*
X121359609Y-138859498D01*
X121458791Y-138760316D01*
X121585268Y-138571029D01*
X121672387Y-138360705D01*
X121716800Y-138137427D01*
X121716800Y-138013729D01*
X121889606Y-138013729D01*
X121910959Y-138250270D01*
X121978048Y-138478100D01*
X122088295Y-138688464D01*
X122099263Y-138704877D01*
X122265202Y-138806182D01*
X123047784Y-138023600D01*
X123154416Y-138023600D01*
X123936998Y-138806182D01*
X124102937Y-138704877D01*
X124216598Y-138496338D01*
X124287390Y-138269631D01*
X124306176Y-138093600D01*
X133334156Y-138093600D01*
X133334156Y-140093600D01*
X133338325Y-140135924D01*
X133350670Y-140176621D01*
X133370718Y-140214128D01*
X133397697Y-140247003D01*
X133430572Y-140273982D01*
X133468079Y-140294030D01*
X133508776Y-140306375D01*
X133551100Y-140310544D01*
X138051100Y-140310544D01*
X138093424Y-140306375D01*
X138134121Y-140294030D01*
X138171628Y-140273982D01*
X138204503Y-140247003D01*
X138231482Y-140214128D01*
X138251530Y-140176621D01*
X138263875Y-140135924D01*
X138268044Y-140093600D01*
X138268044Y-139743600D01*
X139333913Y-139743600D01*
X139335200Y-141889425D01*
X139401675Y-141955900D01*
X140563400Y-141955900D01*
X140563400Y-139544175D01*
X140638800Y-139544175D01*
X140638800Y-141955900D01*
X141800525Y-141955900D01*
X141867000Y-141889425D01*
X141868287Y-139743600D01*
X141863153Y-139691474D01*
X141847949Y-139641352D01*
X141823258Y-139595159D01*
X141790030Y-139554670D01*
X141749541Y-139521442D01*
X141703348Y-139496751D01*
X141653226Y-139481547D01*
X141601100Y-139476413D01*
X140705275Y-139477700D01*
X140638800Y-139544175D01*
X140563400Y-139544175D01*
X140496925Y-139477700D01*
X139601100Y-139476413D01*
X139548974Y-139481547D01*
X139498852Y-139496751D01*
X139452659Y-139521442D01*
X139412170Y-139554670D01*
X139378942Y-139595159D01*
X139354251Y-139641352D01*
X139339047Y-139691474D01*
X139333913Y-139743600D01*
X138268044Y-139743600D01*
X138268044Y-138093600D01*
X149844156Y-138093600D01*
X149844156Y-140093600D01*
X149848325Y-140135924D01*
X149860670Y-140176621D01*
X149880718Y-140214128D01*
X149907697Y-140247003D01*
X149940572Y-140273982D01*
X149978079Y-140294030D01*
X150018776Y-140306375D01*
X150061100Y-140310544D01*
X154561100Y-140310544D01*
X154603424Y-140306375D01*
X154644121Y-140294030D01*
X154681628Y-140273982D01*
X154714503Y-140247003D01*
X154741482Y-140214128D01*
X154761530Y-140176621D01*
X154773875Y-140135924D01*
X154778044Y-140093600D01*
X154778044Y-139743600D01*
X155894156Y-139743600D01*
X155894156Y-144243600D01*
X155898325Y-144285924D01*
X155910670Y-144326621D01*
X155930718Y-144364128D01*
X155957697Y-144397003D01*
X155990572Y-144423982D01*
X156028079Y-144444030D01*
X156068776Y-144456375D01*
X156111100Y-144460544D01*
X158111100Y-144460544D01*
X158153424Y-144456375D01*
X158194121Y-144444030D01*
X158231628Y-144423982D01*
X158264503Y-144397003D01*
X158291482Y-144364128D01*
X158311530Y-144326621D01*
X158323875Y-144285924D01*
X158328044Y-144243600D01*
X158328044Y-139749439D01*
X168646980Y-139749439D01*
X168646980Y-140087441D01*
X168712921Y-140418950D01*
X168842269Y-140731224D01*
X169030053Y-141012263D01*
X169269057Y-141251267D01*
X169550096Y-141439051D01*
X169862370Y-141568399D01*
X170193879Y-141634340D01*
X170531881Y-141634340D01*
X170863390Y-141568399D01*
X171175664Y-141439051D01*
X171456703Y-141251267D01*
X171695707Y-141012263D01*
X171883491Y-140731224D01*
X172012839Y-140418950D01*
X172078780Y-140087441D01*
X172078780Y-139749439D01*
X172012839Y-139417930D01*
X171883491Y-139105656D01*
X171695707Y-138824617D01*
X171456703Y-138585613D01*
X171175664Y-138397829D01*
X170863390Y-138268481D01*
X170531881Y-138202540D01*
X170193879Y-138202540D01*
X169862370Y-138268481D01*
X169550096Y-138397829D01*
X169269057Y-138585613D01*
X169030053Y-138824617D01*
X168842269Y-139105656D01*
X168712921Y-139417930D01*
X168646980Y-139749439D01*
X158328044Y-139749439D01*
X158328044Y-139743600D01*
X158323875Y-139701276D01*
X158311530Y-139660579D01*
X158291482Y-139623072D01*
X158264503Y-139590197D01*
X158231628Y-139563218D01*
X158194121Y-139543170D01*
X158153424Y-139530825D01*
X158111100Y-139526656D01*
X156111100Y-139526656D01*
X156068776Y-139530825D01*
X156028079Y-139543170D01*
X155990572Y-139563218D01*
X155957697Y-139590197D01*
X155930718Y-139623072D01*
X155910670Y-139660579D01*
X155898325Y-139701276D01*
X155894156Y-139743600D01*
X154778044Y-139743600D01*
X154778044Y-138093600D01*
X154773875Y-138051276D01*
X154761530Y-138010579D01*
X154741482Y-137973072D01*
X154714503Y-137940197D01*
X154681628Y-137913218D01*
X154644121Y-137893170D01*
X154603424Y-137880825D01*
X154561100Y-137876656D01*
X150061100Y-137876656D01*
X150018776Y-137880825D01*
X149978079Y-137893170D01*
X149940572Y-137913218D01*
X149907697Y-137940197D01*
X149880718Y-137973072D01*
X149860670Y-138010579D01*
X149848325Y-138051276D01*
X149844156Y-138093600D01*
X138268044Y-138093600D01*
X138263875Y-138051276D01*
X138251530Y-138010579D01*
X138231482Y-137973072D01*
X138204503Y-137940197D01*
X138171628Y-137913218D01*
X138134121Y-137893170D01*
X138093424Y-137880825D01*
X138051100Y-137876656D01*
X133551100Y-137876656D01*
X133508776Y-137880825D01*
X133468079Y-137893170D01*
X133430572Y-137913218D01*
X133397697Y-137940197D01*
X133370718Y-137973072D01*
X133350670Y-138010579D01*
X133338325Y-138051276D01*
X133334156Y-138093600D01*
X124306176Y-138093600D01*
X124312594Y-138033471D01*
X124291241Y-137796930D01*
X124224152Y-137569100D01*
X124113905Y-137358736D01*
X124102937Y-137342323D01*
X123936998Y-137241018D01*
X123154416Y-138023600D01*
X123047784Y-138023600D01*
X122265202Y-137241018D01*
X122099263Y-137342323D01*
X121985602Y-137550862D01*
X121914810Y-137777569D01*
X121889606Y-138013729D01*
X121716800Y-138013729D01*
X121716800Y-137909773D01*
X121672387Y-137686495D01*
X121585268Y-137476171D01*
X121458791Y-137286884D01*
X121359609Y-137187702D01*
X122318518Y-137187702D01*
X123101100Y-137970284D01*
X123883682Y-137187702D01*
X123782377Y-137021763D01*
X123573838Y-136908102D01*
X123347131Y-136837310D01*
X123110971Y-136812106D01*
X122874430Y-136833459D01*
X122646600Y-136900548D01*
X122436236Y-137010795D01*
X122419823Y-137021763D01*
X122318518Y-137187702D01*
X121359609Y-137187702D01*
X121297816Y-137125909D01*
X121108529Y-136999432D01*
X120898205Y-136912313D01*
X120674927Y-136867900D01*
X120447273Y-136867900D01*
X120223995Y-136912313D01*
X120013671Y-136999432D01*
X119824384Y-137125909D01*
X119663409Y-137286884D01*
X119536932Y-137476171D01*
X119449813Y-137686495D01*
X119405400Y-137909773D01*
X115468400Y-137909773D01*
X115468400Y-135369773D01*
X119405400Y-135369773D01*
X119405400Y-135597427D01*
X119449813Y-135820705D01*
X119536932Y-136031029D01*
X119663409Y-136220316D01*
X119824384Y-136381291D01*
X120013671Y-136507768D01*
X120223995Y-136594887D01*
X120447273Y-136639300D01*
X120674927Y-136639300D01*
X120898205Y-136594887D01*
X121108529Y-136507768D01*
X121297816Y-136381291D01*
X121458791Y-136220316D01*
X121585268Y-136031029D01*
X121672387Y-135820705D01*
X121716800Y-135597427D01*
X121716800Y-135369773D01*
X121945400Y-135369773D01*
X121945400Y-135597427D01*
X121989813Y-135820705D01*
X122076932Y-136031029D01*
X122203409Y-136220316D01*
X122364384Y-136381291D01*
X122553671Y-136507768D01*
X122763995Y-136594887D01*
X122987273Y-136639300D01*
X123214927Y-136639300D01*
X123438205Y-136594887D01*
X123648529Y-136507768D01*
X123837816Y-136381291D01*
X123998791Y-136220316D01*
X124125268Y-136031029D01*
X124212387Y-135820705D01*
X124256800Y-135597427D01*
X124256800Y-135369773D01*
X124212387Y-135146495D01*
X124125268Y-134936171D01*
X123998791Y-134746884D01*
X123837816Y-134585909D01*
X123648529Y-134459432D01*
X123438205Y-134372313D01*
X123214927Y-134327900D01*
X122987273Y-134327900D01*
X122763995Y-134372313D01*
X122553671Y-134459432D01*
X122364384Y-134585909D01*
X122203409Y-134746884D01*
X122076932Y-134936171D01*
X121989813Y-135146495D01*
X121945400Y-135369773D01*
X121716800Y-135369773D01*
X121672387Y-135146495D01*
X121585268Y-134936171D01*
X121458791Y-134746884D01*
X121297816Y-134585909D01*
X121108529Y-134459432D01*
X120898205Y-134372313D01*
X120674927Y-134327900D01*
X120447273Y-134327900D01*
X120223995Y-134372313D01*
X120013671Y-134459432D01*
X119824384Y-134585909D01*
X119663409Y-134746884D01*
X119536932Y-134936171D01*
X119449813Y-135146495D01*
X119405400Y-135369773D01*
X115468400Y-135369773D01*
X115468400Y-132829773D01*
X119405400Y-132829773D01*
X119405400Y-133057427D01*
X119449813Y-133280705D01*
X119536932Y-133491029D01*
X119663409Y-133680316D01*
X119824384Y-133841291D01*
X120013671Y-133967768D01*
X120223995Y-134054887D01*
X120447273Y-134099300D01*
X120674927Y-134099300D01*
X120898205Y-134054887D01*
X121108529Y-133967768D01*
X121297816Y-133841291D01*
X121458791Y-133680316D01*
X121585268Y-133491029D01*
X121672387Y-133280705D01*
X121716800Y-133057427D01*
X121716800Y-132829773D01*
X121945400Y-132829773D01*
X121945400Y-133057427D01*
X121989813Y-133280705D01*
X122076932Y-133491029D01*
X122203409Y-133680316D01*
X122364384Y-133841291D01*
X122553671Y-133967768D01*
X122763995Y-134054887D01*
X122987273Y-134099300D01*
X123214927Y-134099300D01*
X123438205Y-134054887D01*
X123648529Y-133967768D01*
X123837816Y-133841291D01*
X123998791Y-133680316D01*
X124125268Y-133491029D01*
X124212387Y-133280705D01*
X124256800Y-133057427D01*
X124256800Y-132857292D01*
X128574800Y-132857292D01*
X128574800Y-133029908D01*
X128608476Y-133199207D01*
X128674533Y-133358684D01*
X128770433Y-133502209D01*
X128892491Y-133624267D01*
X129036016Y-133720167D01*
X129195493Y-133786224D01*
X129364792Y-133819900D01*
X129537408Y-133819900D01*
X129706707Y-133786224D01*
X129866184Y-133720167D01*
X130009709Y-133624267D01*
X130053143Y-133580833D01*
X132677183Y-133580833D01*
X132744950Y-133718160D01*
X132905976Y-133803973D01*
X133080651Y-133856722D01*
X133262259Y-133874381D01*
X133443823Y-133856271D01*
X133618365Y-133803086D01*
X133777250Y-133718160D01*
X133845017Y-133580833D01*
X133261100Y-132996916D01*
X132677183Y-133580833D01*
X130053143Y-133580833D01*
X130131767Y-133502209D01*
X130227667Y-133358684D01*
X130293724Y-133199207D01*
X130327400Y-133029908D01*
X130327400Y-132944759D01*
X132330319Y-132944759D01*
X132348429Y-133126323D01*
X132401614Y-133300865D01*
X132486540Y-133459750D01*
X132623867Y-133527517D01*
X133207784Y-132943600D01*
X133314416Y-132943600D01*
X133898333Y-133527517D01*
X134035660Y-133459750D01*
X134121473Y-133298724D01*
X134174222Y-133124049D01*
X134191881Y-132942441D01*
X134173771Y-132760877D01*
X134120586Y-132586335D01*
X134035660Y-132427450D01*
X133898333Y-132359683D01*
X133314416Y-132943600D01*
X133207784Y-132943600D01*
X132623867Y-132359683D01*
X132486540Y-132427450D01*
X132400727Y-132588476D01*
X132347978Y-132763151D01*
X132330319Y-132944759D01*
X130327400Y-132944759D01*
X130327400Y-132857292D01*
X130293724Y-132687993D01*
X130227667Y-132528516D01*
X130131767Y-132384991D01*
X130053143Y-132306367D01*
X132677183Y-132306367D01*
X133261100Y-132890284D01*
X133845017Y-132306367D01*
X133777250Y-132169040D01*
X133616224Y-132083227D01*
X133441549Y-132030478D01*
X133259941Y-132012819D01*
X133078377Y-132030929D01*
X132903835Y-132084114D01*
X132744950Y-132169040D01*
X132677183Y-132306367D01*
X130053143Y-132306367D01*
X130009709Y-132262933D01*
X129866184Y-132167033D01*
X129706707Y-132100976D01*
X129537408Y-132067300D01*
X129364792Y-132067300D01*
X129195493Y-132100976D01*
X129036016Y-132167033D01*
X128892491Y-132262933D01*
X128770433Y-132384991D01*
X128674533Y-132528516D01*
X128608476Y-132687993D01*
X128574800Y-132857292D01*
X124256800Y-132857292D01*
X124256800Y-132829773D01*
X124212387Y-132606495D01*
X124125268Y-132396171D01*
X123998791Y-132206884D01*
X123837816Y-132045909D01*
X123648529Y-131919432D01*
X123438205Y-131832313D01*
X123214927Y-131787900D01*
X122987273Y-131787900D01*
X122763995Y-131832313D01*
X122553671Y-131919432D01*
X122364384Y-132045909D01*
X122203409Y-132206884D01*
X122076932Y-132396171D01*
X121989813Y-132606495D01*
X121945400Y-132829773D01*
X121716800Y-132829773D01*
X121672387Y-132606495D01*
X121585268Y-132396171D01*
X121458791Y-132206884D01*
X121297816Y-132045909D01*
X121108529Y-131919432D01*
X120898205Y-131832313D01*
X120674927Y-131787900D01*
X120447273Y-131787900D01*
X120223995Y-131832313D01*
X120013671Y-131919432D01*
X119824384Y-132045909D01*
X119663409Y-132206884D01*
X119536932Y-132396171D01*
X119449813Y-132606495D01*
X119405400Y-132829773D01*
X115468400Y-132829773D01*
X115468400Y-131239498D01*
X119778518Y-131239498D01*
X119879823Y-131405437D01*
X120088362Y-131519098D01*
X120315069Y-131589890D01*
X120551229Y-131615094D01*
X120787770Y-131593741D01*
X121015600Y-131526652D01*
X121225964Y-131416405D01*
X121242377Y-131405437D01*
X121343682Y-131239498D01*
X120561100Y-130456916D01*
X119778518Y-131239498D01*
X115468400Y-131239498D01*
X115468400Y-130393729D01*
X119349606Y-130393729D01*
X119370959Y-130630270D01*
X119438048Y-130858100D01*
X119548295Y-131068464D01*
X119559263Y-131084877D01*
X119725202Y-131186182D01*
X120507784Y-130403600D01*
X120614416Y-130403600D01*
X121396998Y-131186182D01*
X121562937Y-131084877D01*
X121676598Y-130876338D01*
X121747390Y-130649631D01*
X121772594Y-130413471D01*
X121761428Y-130289773D01*
X121945400Y-130289773D01*
X121945400Y-130517427D01*
X121989813Y-130740705D01*
X122076932Y-130951029D01*
X122203409Y-131140316D01*
X122364384Y-131301291D01*
X122553671Y-131427768D01*
X122763995Y-131514887D01*
X122987273Y-131559300D01*
X123214927Y-131559300D01*
X123438205Y-131514887D01*
X123648529Y-131427768D01*
X123837816Y-131301291D01*
X123998791Y-131140316D01*
X124125268Y-130951029D01*
X124212387Y-130740705D01*
X124256800Y-130517427D01*
X124256800Y-130289773D01*
X124212387Y-130066495D01*
X124125268Y-129856171D01*
X123998791Y-129666884D01*
X123837816Y-129505909D01*
X123648529Y-129379432D01*
X123438205Y-129292313D01*
X123214927Y-129247900D01*
X122987273Y-129247900D01*
X122763995Y-129292313D01*
X122553671Y-129379432D01*
X122364384Y-129505909D01*
X122203409Y-129666884D01*
X122076932Y-129856171D01*
X121989813Y-130066495D01*
X121945400Y-130289773D01*
X121761428Y-130289773D01*
X121751241Y-130176930D01*
X121684152Y-129949100D01*
X121573905Y-129738736D01*
X121562937Y-129722323D01*
X121396998Y-129621018D01*
X120614416Y-130403600D01*
X120507784Y-130403600D01*
X119725202Y-129621018D01*
X119559263Y-129722323D01*
X119445602Y-129930862D01*
X119374810Y-130157569D01*
X119349606Y-130393729D01*
X115468400Y-130393729D01*
X115468400Y-129567702D01*
X119778518Y-129567702D01*
X120561100Y-130350284D01*
X121343682Y-129567702D01*
X121242377Y-129401763D01*
X121033838Y-129288102D01*
X120807131Y-129217310D01*
X120570971Y-129192106D01*
X120334430Y-129213459D01*
X120106600Y-129280548D01*
X119896236Y-129390795D01*
X119879823Y-129401763D01*
X119778518Y-129567702D01*
X115468400Y-129567702D01*
X115468400Y-127749773D01*
X119405400Y-127749773D01*
X119405400Y-127977427D01*
X119449813Y-128200705D01*
X119536932Y-128411029D01*
X119663409Y-128600316D01*
X119824384Y-128761291D01*
X120013671Y-128887768D01*
X120223995Y-128974887D01*
X120447273Y-129019300D01*
X120674927Y-129019300D01*
X120898205Y-128974887D01*
X121108529Y-128887768D01*
X121297816Y-128761291D01*
X121458791Y-128600316D01*
X121585268Y-128411029D01*
X121672387Y-128200705D01*
X121716800Y-127977427D01*
X121716800Y-127749773D01*
X121945400Y-127749773D01*
X121945400Y-127977427D01*
X121989813Y-128200705D01*
X122076932Y-128411029D01*
X122203409Y-128600316D01*
X122364384Y-128761291D01*
X122553671Y-128887768D01*
X122763995Y-128974887D01*
X122987273Y-129019300D01*
X123214927Y-129019300D01*
X123438205Y-128974887D01*
X123648529Y-128887768D01*
X123837816Y-128761291D01*
X123998791Y-128600316D01*
X124125268Y-128411029D01*
X124212387Y-128200705D01*
X124256800Y-127977427D01*
X124256800Y-127777292D01*
X128574800Y-127777292D01*
X128574800Y-127949908D01*
X128608476Y-128119207D01*
X128674533Y-128278684D01*
X128770433Y-128422209D01*
X128892491Y-128544267D01*
X129036016Y-128640167D01*
X129195493Y-128706224D01*
X129364792Y-128739900D01*
X129537408Y-128739900D01*
X129706707Y-128706224D01*
X129866184Y-128640167D01*
X130009709Y-128544267D01*
X130131767Y-128422209D01*
X130227667Y-128278684D01*
X130293724Y-128119207D01*
X130327400Y-127949908D01*
X130327400Y-127777292D01*
X132384800Y-127777292D01*
X132384800Y-127949908D01*
X132418476Y-128119207D01*
X132484533Y-128278684D01*
X132580433Y-128422209D01*
X132702491Y-128544267D01*
X132846016Y-128640167D01*
X133005493Y-128706224D01*
X133174792Y-128739900D01*
X133347408Y-128739900D01*
X133516707Y-128706224D01*
X133676184Y-128640167D01*
X133819709Y-128544267D01*
X133941767Y-128422209D01*
X134037667Y-128278684D01*
X134103724Y-128119207D01*
X134137400Y-127949908D01*
X134137400Y-127777292D01*
X134103724Y-127607993D01*
X134037667Y-127448516D01*
X133941767Y-127304991D01*
X133819709Y-127182933D01*
X133676184Y-127087033D01*
X133516707Y-127020976D01*
X133347408Y-126987300D01*
X133174792Y-126987300D01*
X133005493Y-127020976D01*
X132846016Y-127087033D01*
X132702491Y-127182933D01*
X132580433Y-127304991D01*
X132484533Y-127448516D01*
X132418476Y-127607993D01*
X132384800Y-127777292D01*
X130327400Y-127777292D01*
X130293724Y-127607993D01*
X130227667Y-127448516D01*
X130131767Y-127304991D01*
X130009709Y-127182933D01*
X129866184Y-127087033D01*
X129706707Y-127020976D01*
X129537408Y-126987300D01*
X129364792Y-126987300D01*
X129195493Y-127020976D01*
X129036016Y-127087033D01*
X128892491Y-127182933D01*
X128770433Y-127304991D01*
X128674533Y-127448516D01*
X128608476Y-127607993D01*
X128574800Y-127777292D01*
X124256800Y-127777292D01*
X124256800Y-127749773D01*
X124212387Y-127526495D01*
X124125268Y-127316171D01*
X123998791Y-127126884D01*
X123837816Y-126965909D01*
X123648529Y-126839432D01*
X123438205Y-126752313D01*
X123214927Y-126707900D01*
X122987273Y-126707900D01*
X122763995Y-126752313D01*
X122553671Y-126839432D01*
X122364384Y-126965909D01*
X122203409Y-127126884D01*
X122076932Y-127316171D01*
X121989813Y-127526495D01*
X121945400Y-127749773D01*
X121716800Y-127749773D01*
X121672387Y-127526495D01*
X121585268Y-127316171D01*
X121458791Y-127126884D01*
X121297816Y-126965909D01*
X121108529Y-126839432D01*
X120898205Y-126752313D01*
X120674927Y-126707900D01*
X120447273Y-126707900D01*
X120223995Y-126752313D01*
X120013671Y-126839432D01*
X119824384Y-126965909D01*
X119663409Y-127126884D01*
X119536932Y-127316171D01*
X119449813Y-127526495D01*
X119405400Y-127749773D01*
X115468400Y-127749773D01*
X115468400Y-126159498D01*
X119778518Y-126159498D01*
X119879823Y-126325437D01*
X120088362Y-126439098D01*
X120315069Y-126509890D01*
X120551229Y-126535094D01*
X120787770Y-126513741D01*
X121015600Y-126446652D01*
X121225964Y-126336405D01*
X121242377Y-126325437D01*
X121343682Y-126159498D01*
X120561100Y-125376916D01*
X119778518Y-126159498D01*
X115468400Y-126159498D01*
X115468400Y-125313729D01*
X119349606Y-125313729D01*
X119370959Y-125550270D01*
X119438048Y-125778100D01*
X119548295Y-125988464D01*
X119559263Y-126004877D01*
X119725202Y-126106182D01*
X120507784Y-125323600D01*
X120614416Y-125323600D01*
X121396998Y-126106182D01*
X121562937Y-126004877D01*
X121676598Y-125796338D01*
X121747390Y-125569631D01*
X121772594Y-125333471D01*
X121761428Y-125209773D01*
X121945400Y-125209773D01*
X121945400Y-125437427D01*
X121989813Y-125660705D01*
X122076932Y-125871029D01*
X122203409Y-126060316D01*
X122364384Y-126221291D01*
X122553671Y-126347768D01*
X122763995Y-126434887D01*
X122987273Y-126479300D01*
X123214927Y-126479300D01*
X123438205Y-126434887D01*
X123648529Y-126347768D01*
X123837816Y-126221291D01*
X123998791Y-126060316D01*
X124125268Y-125871029D01*
X124212387Y-125660705D01*
X124256800Y-125437427D01*
X124256800Y-125209773D01*
X124212387Y-124986495D01*
X124125268Y-124776171D01*
X123998791Y-124586884D01*
X123837816Y-124425909D01*
X123648529Y-124299432D01*
X123438205Y-124212313D01*
X123214927Y-124167900D01*
X122987273Y-124167900D01*
X122763995Y-124212313D01*
X122553671Y-124299432D01*
X122364384Y-124425909D01*
X122203409Y-124586884D01*
X122076932Y-124776171D01*
X121989813Y-124986495D01*
X121945400Y-125209773D01*
X121761428Y-125209773D01*
X121751241Y-125096930D01*
X121684152Y-124869100D01*
X121573905Y-124658736D01*
X121562937Y-124642323D01*
X121396998Y-124541018D01*
X120614416Y-125323600D01*
X120507784Y-125323600D01*
X119725202Y-124541018D01*
X119559263Y-124642323D01*
X119445602Y-124850862D01*
X119374810Y-125077569D01*
X119349606Y-125313729D01*
X115468400Y-125313729D01*
X115468400Y-124487702D01*
X119778518Y-124487702D01*
X120561100Y-125270284D01*
X121343682Y-124487702D01*
X121242377Y-124321763D01*
X121033838Y-124208102D01*
X120807131Y-124137310D01*
X120570971Y-124112106D01*
X120334430Y-124133459D01*
X120106600Y-124200548D01*
X119896236Y-124310795D01*
X119879823Y-124321763D01*
X119778518Y-124487702D01*
X115468400Y-124487702D01*
X115468400Y-122669773D01*
X119405400Y-122669773D01*
X119405400Y-122897427D01*
X119449813Y-123120705D01*
X119536932Y-123331029D01*
X119663409Y-123520316D01*
X119824384Y-123681291D01*
X120013671Y-123807768D01*
X120223995Y-123894887D01*
X120447273Y-123939300D01*
X120674927Y-123939300D01*
X120898205Y-123894887D01*
X121108529Y-123807768D01*
X121297816Y-123681291D01*
X121458791Y-123520316D01*
X121585268Y-123331029D01*
X121672387Y-123120705D01*
X121716800Y-122897427D01*
X121716800Y-122669773D01*
X121945400Y-122669773D01*
X121945400Y-122897427D01*
X121989813Y-123120705D01*
X122076932Y-123331029D01*
X122203409Y-123520316D01*
X122364384Y-123681291D01*
X122553671Y-123807768D01*
X122763995Y-123894887D01*
X122987273Y-123939300D01*
X123214927Y-123939300D01*
X123438205Y-123894887D01*
X123648529Y-123807768D01*
X123837816Y-123681291D01*
X123998791Y-123520316D01*
X124125268Y-123331029D01*
X124212387Y-123120705D01*
X124256800Y-122897427D01*
X124256800Y-122669773D01*
X124212387Y-122446495D01*
X124125268Y-122236171D01*
X123998791Y-122046884D01*
X123837816Y-121885909D01*
X123648529Y-121759432D01*
X123438205Y-121672313D01*
X123214927Y-121627900D01*
X122987273Y-121627900D01*
X122763995Y-121672313D01*
X122553671Y-121759432D01*
X122364384Y-121885909D01*
X122203409Y-122046884D01*
X122076932Y-122236171D01*
X121989813Y-122446495D01*
X121945400Y-122669773D01*
X121716800Y-122669773D01*
X121672387Y-122446495D01*
X121585268Y-122236171D01*
X121458791Y-122046884D01*
X121297816Y-121885909D01*
X121108529Y-121759432D01*
X120898205Y-121672313D01*
X120674927Y-121627900D01*
X120447273Y-121627900D01*
X120223995Y-121672313D01*
X120013671Y-121759432D01*
X119824384Y-121885909D01*
X119663409Y-122046884D01*
X119536932Y-122236171D01*
X119449813Y-122446495D01*
X119405400Y-122669773D01*
X115468400Y-122669773D01*
X115468400Y-120129773D01*
X119405400Y-120129773D01*
X119405400Y-120357427D01*
X119449813Y-120580705D01*
X119536932Y-120791029D01*
X119663409Y-120980316D01*
X119824384Y-121141291D01*
X120013671Y-121267768D01*
X120223995Y-121354887D01*
X120447273Y-121399300D01*
X120674927Y-121399300D01*
X120898205Y-121354887D01*
X121108529Y-121267768D01*
X121297816Y-121141291D01*
X121359609Y-121079498D01*
X122318518Y-121079498D01*
X122419823Y-121245437D01*
X122628362Y-121359098D01*
X122855069Y-121429890D01*
X123091229Y-121455094D01*
X123327770Y-121433741D01*
X123555600Y-121366652D01*
X123765964Y-121256405D01*
X123782377Y-121245437D01*
X123883682Y-121079498D01*
X123101100Y-120296916D01*
X122318518Y-121079498D01*
X121359609Y-121079498D01*
X121458791Y-120980316D01*
X121585268Y-120791029D01*
X121672387Y-120580705D01*
X121716800Y-120357427D01*
X121716800Y-120233729D01*
X121889606Y-120233729D01*
X121910959Y-120470270D01*
X121978048Y-120698100D01*
X122088295Y-120908464D01*
X122099263Y-120924877D01*
X122265202Y-121026182D01*
X123047784Y-120243600D01*
X123154416Y-120243600D01*
X123936998Y-121026182D01*
X124102937Y-120924877D01*
X124216598Y-120716338D01*
X124287390Y-120489631D01*
X124312594Y-120253471D01*
X124310557Y-120230900D01*
X127930072Y-120230900D01*
X127958761Y-120522186D01*
X128043727Y-120802280D01*
X128181702Y-121060416D01*
X128320857Y-121229976D01*
X138125200Y-131034320D01*
X138125201Y-134140598D01*
X138118011Y-134213600D01*
X138146700Y-134504887D01*
X138231666Y-134784980D01*
X138369642Y-135043116D01*
X138555327Y-135269373D01*
X138781584Y-135455058D01*
X139039720Y-135593034D01*
X139319813Y-135678000D01*
X139538108Y-135699500D01*
X139611100Y-135706689D01*
X139684092Y-135699500D01*
X148574092Y-135699500D01*
X148792387Y-135678000D01*
X149072480Y-135593034D01*
X149330616Y-135455058D01*
X149556873Y-135269373D01*
X149742558Y-135043116D01*
X149880534Y-134784980D01*
X149965500Y-134504887D01*
X149994189Y-134213600D01*
X149965500Y-133922313D01*
X149880534Y-133642220D01*
X149742558Y-133384084D01*
X149556873Y-133157827D01*
X149330616Y-132972142D01*
X149072480Y-132834166D01*
X148792387Y-132749200D01*
X148574092Y-132727700D01*
X141097000Y-132727700D01*
X141097000Y-130330608D01*
X141075500Y-130112313D01*
X140990534Y-129832220D01*
X140852558Y-129574084D01*
X140666873Y-129347827D01*
X140525195Y-129231555D01*
X138032240Y-126738600D01*
X150969156Y-126738600D01*
X150969156Y-128988600D01*
X150973325Y-129030924D01*
X150985670Y-129071621D01*
X151005718Y-129109128D01*
X151032697Y-129142003D01*
X151065572Y-129168982D01*
X151103079Y-129189030D01*
X151143776Y-129201375D01*
X151186100Y-129205544D01*
X153436100Y-129205544D01*
X153478424Y-129201375D01*
X153519121Y-129189030D01*
X153556628Y-129168982D01*
X153589503Y-129142003D01*
X153616482Y-129109128D01*
X153636530Y-129071621D01*
X153648875Y-129030924D01*
X153653044Y-128988600D01*
X153653044Y-127731533D01*
X166210200Y-127731533D01*
X166210200Y-127995667D01*
X166261730Y-128254726D01*
X166362810Y-128498754D01*
X166509555Y-128718374D01*
X166696326Y-128905145D01*
X166915946Y-129051890D01*
X167159974Y-129152970D01*
X167419033Y-129204500D01*
X167683167Y-129204500D01*
X167942226Y-129152970D01*
X168186254Y-129051890D01*
X168405874Y-128905145D01*
X168592645Y-128718374D01*
X168739390Y-128498754D01*
X168840470Y-128254726D01*
X168892000Y-127995667D01*
X168892000Y-127731533D01*
X168840470Y-127472474D01*
X168739390Y-127228446D01*
X168592645Y-127008826D01*
X168405874Y-126822055D01*
X168186254Y-126675310D01*
X167942226Y-126574230D01*
X167683167Y-126522700D01*
X167419033Y-126522700D01*
X167159974Y-126574230D01*
X166915946Y-126675310D01*
X166696326Y-126822055D01*
X166509555Y-127008826D01*
X166362810Y-127228446D01*
X166261730Y-127472474D01*
X166210200Y-127731533D01*
X153653044Y-127731533D01*
X153653044Y-126738600D01*
X153648875Y-126696276D01*
X153636530Y-126655579D01*
X153616482Y-126618072D01*
X153589503Y-126585197D01*
X153556628Y-126558218D01*
X153519121Y-126538170D01*
X153478424Y-126525825D01*
X153436100Y-126521656D01*
X151186100Y-126521656D01*
X151143776Y-126525825D01*
X151103079Y-126538170D01*
X151065572Y-126558218D01*
X151032697Y-126585197D01*
X151005718Y-126618072D01*
X150985670Y-126655579D01*
X150973325Y-126696276D01*
X150969156Y-126738600D01*
X138032240Y-126738600D01*
X137229080Y-125935441D01*
X137277740Y-125930648D01*
X137476438Y-125870373D01*
X137659560Y-125772493D01*
X137820068Y-125640768D01*
X137951793Y-125480260D01*
X138049673Y-125297138D01*
X138109948Y-125098440D01*
X138125200Y-124943582D01*
X138125200Y-123163619D01*
X138557000Y-123163619D01*
X138557000Y-124943582D01*
X138572253Y-125098440D01*
X138632528Y-125297138D01*
X138730408Y-125480260D01*
X138862133Y-125640768D01*
X139022641Y-125772493D01*
X139205763Y-125870373D01*
X139404461Y-125930648D01*
X139611100Y-125951000D01*
X139817740Y-125930648D01*
X140016438Y-125870373D01*
X140199560Y-125772493D01*
X140360068Y-125640768D01*
X140491793Y-125480260D01*
X140589673Y-125297138D01*
X140649948Y-125098440D01*
X140665200Y-124943582D01*
X140665200Y-124091300D01*
X141047000Y-124091300D01*
X141047000Y-124929500D01*
X141075570Y-125144175D01*
X141145472Y-125349151D01*
X141254020Y-125536551D01*
X141397042Y-125699174D01*
X141569042Y-125830770D01*
X141763410Y-125926282D01*
X141941246Y-125975773D01*
X142113400Y-125928740D01*
X142113400Y-124091300D01*
X142188800Y-124091300D01*
X142188800Y-125928740D01*
X142360954Y-125975773D01*
X142538790Y-125926282D01*
X142733158Y-125830770D01*
X142905158Y-125699174D01*
X143048180Y-125536551D01*
X143156728Y-125349151D01*
X143226630Y-125144175D01*
X143255200Y-124929500D01*
X143255200Y-124091300D01*
X142188800Y-124091300D01*
X142113400Y-124091300D01*
X141047000Y-124091300D01*
X140665200Y-124091300D01*
X140665200Y-123177700D01*
X141047000Y-123177700D01*
X141047000Y-124015900D01*
X142113400Y-124015900D01*
X142113400Y-122178460D01*
X142188800Y-122178460D01*
X142188800Y-124015900D01*
X143255200Y-124015900D01*
X143255200Y-123177700D01*
X143226630Y-122963025D01*
X143156728Y-122758049D01*
X143048180Y-122570649D01*
X142905158Y-122408026D01*
X142733158Y-122276430D01*
X142538790Y-122180918D01*
X142360954Y-122131427D01*
X142188800Y-122178460D01*
X142113400Y-122178460D01*
X141941246Y-122131427D01*
X141763410Y-122180918D01*
X141569042Y-122276430D01*
X141397042Y-122408026D01*
X141254020Y-122570649D01*
X141145472Y-122758049D01*
X141075570Y-122963025D01*
X141047000Y-123177700D01*
X140665200Y-123177700D01*
X140665200Y-123163618D01*
X140649948Y-123008760D01*
X140589673Y-122810062D01*
X140491793Y-122626940D01*
X140360068Y-122466432D01*
X140199560Y-122334707D01*
X140016437Y-122236827D01*
X139817739Y-122176552D01*
X139611100Y-122156200D01*
X139404460Y-122176552D01*
X139205762Y-122236827D01*
X139022640Y-122334707D01*
X138862132Y-122466432D01*
X138730407Y-122626940D01*
X138632527Y-122810063D01*
X138572252Y-123008761D01*
X138557000Y-123163619D01*
X138125200Y-123163619D01*
X138125200Y-123163618D01*
X138109948Y-123008760D01*
X138049673Y-122810062D01*
X137951793Y-122626940D01*
X137820068Y-122466432D01*
X137659560Y-122334707D01*
X137476437Y-122236827D01*
X137277739Y-122176552D01*
X137071100Y-122156200D01*
X136864460Y-122176552D01*
X136665762Y-122236827D01*
X136482640Y-122334707D01*
X136322132Y-122466432D01*
X136190407Y-122626940D01*
X136092527Y-122810063D01*
X136032252Y-123008761D01*
X136017000Y-123163619D01*
X136017000Y-124723360D01*
X130937000Y-119643361D01*
X130937000Y-109962268D01*
X147269200Y-109962268D01*
X147269200Y-110204932D01*
X147316541Y-110442932D01*
X147409404Y-110667124D01*
X147544221Y-110868891D01*
X147715809Y-111040479D01*
X147917576Y-111175296D01*
X148141768Y-111268159D01*
X148379768Y-111315500D01*
X148622432Y-111315500D01*
X148860432Y-111268159D01*
X149084624Y-111175296D01*
X149286391Y-111040479D01*
X149457979Y-110868891D01*
X149592796Y-110667124D01*
X149685659Y-110442932D01*
X149733000Y-110204932D01*
X149733000Y-109962268D01*
X170662600Y-109962268D01*
X170662600Y-110204932D01*
X170709941Y-110442932D01*
X170802804Y-110667124D01*
X170937621Y-110868891D01*
X171109209Y-111040479D01*
X171310976Y-111175296D01*
X171535168Y-111268159D01*
X171773168Y-111315500D01*
X172015832Y-111315500D01*
X172253832Y-111268159D01*
X172478024Y-111175296D01*
X172679791Y-111040479D01*
X172851379Y-110868891D01*
X172986196Y-110667124D01*
X173079059Y-110442932D01*
X173126400Y-110204932D01*
X173126400Y-109962268D01*
X173079059Y-109724268D01*
X172986196Y-109500076D01*
X172851379Y-109298309D01*
X172679791Y-109126721D01*
X172478024Y-108991904D01*
X172253832Y-108899041D01*
X172015832Y-108851700D01*
X171773168Y-108851700D01*
X171535168Y-108899041D01*
X171310976Y-108991904D01*
X171109209Y-109126721D01*
X170937621Y-109298309D01*
X170802804Y-109500076D01*
X170709941Y-109724268D01*
X170662600Y-109962268D01*
X149733000Y-109962268D01*
X149685659Y-109724268D01*
X149592796Y-109500076D01*
X149457979Y-109298309D01*
X149286391Y-109126721D01*
X149084624Y-108991904D01*
X148860432Y-108899041D01*
X148622432Y-108851700D01*
X148379768Y-108851700D01*
X148141768Y-108899041D01*
X147917576Y-108991904D01*
X147715809Y-109126721D01*
X147544221Y-109298309D01*
X147409404Y-109500076D01*
X147316541Y-109724268D01*
X147269200Y-109962268D01*
X130937000Y-109962268D01*
X130937000Y-106343726D01*
X137744200Y-106343726D01*
X137744200Y-106711474D01*
X137815944Y-107072155D01*
X137956675Y-107411909D01*
X138160984Y-107717679D01*
X138421021Y-107977716D01*
X138726791Y-108182025D01*
X139066545Y-108322756D01*
X139427226Y-108394500D01*
X139794974Y-108394500D01*
X140155655Y-108322756D01*
X140495409Y-108182025D01*
X140801179Y-107977716D01*
X141061216Y-107717679D01*
X141265525Y-107411909D01*
X141406256Y-107072155D01*
X141478000Y-106711474D01*
X141478000Y-106343726D01*
X141406256Y-105983045D01*
X141265525Y-105643291D01*
X141061216Y-105337521D01*
X140801179Y-105077484D01*
X140495409Y-104873175D01*
X140155655Y-104732444D01*
X139794974Y-104660700D01*
X139427226Y-104660700D01*
X139066545Y-104732444D01*
X138726791Y-104873175D01*
X138421021Y-105077484D01*
X138160984Y-105337521D01*
X137956675Y-105643291D01*
X137815944Y-105983045D01*
X137744200Y-106343726D01*
X130937000Y-106343726D01*
X130937000Y-102390608D01*
X130915500Y-102172313D01*
X130830534Y-101892220D01*
X130692558Y-101634084D01*
X130506873Y-101407827D01*
X130280615Y-101222142D01*
X130022479Y-101084166D01*
X129742386Y-100999200D01*
X129451100Y-100970511D01*
X129159813Y-100999200D01*
X128879720Y-101084166D01*
X128621584Y-101222142D01*
X128395327Y-101407827D01*
X128209642Y-101634085D01*
X128071666Y-101892221D01*
X127986700Y-102172314D01*
X127965200Y-102390609D01*
X127965201Y-119918384D01*
X127958761Y-119939614D01*
X127930072Y-120230900D01*
X124310557Y-120230900D01*
X124291241Y-120016930D01*
X124224152Y-119789100D01*
X124113905Y-119578736D01*
X124102937Y-119562323D01*
X123936998Y-119461018D01*
X123154416Y-120243600D01*
X123047784Y-120243600D01*
X122265202Y-119461018D01*
X122099263Y-119562323D01*
X121985602Y-119770862D01*
X121914810Y-119997569D01*
X121889606Y-120233729D01*
X121716800Y-120233729D01*
X121716800Y-120129773D01*
X121672387Y-119906495D01*
X121585268Y-119696171D01*
X121458791Y-119506884D01*
X121359609Y-119407702D01*
X122318518Y-119407702D01*
X123101100Y-120190284D01*
X123883682Y-119407702D01*
X123782377Y-119241763D01*
X123573838Y-119128102D01*
X123347131Y-119057310D01*
X123110971Y-119032106D01*
X122874430Y-119053459D01*
X122646600Y-119120548D01*
X122436236Y-119230795D01*
X122419823Y-119241763D01*
X122318518Y-119407702D01*
X121359609Y-119407702D01*
X121297816Y-119345909D01*
X121108529Y-119219432D01*
X120898205Y-119132313D01*
X120674927Y-119087900D01*
X120447273Y-119087900D01*
X120223995Y-119132313D01*
X120013671Y-119219432D01*
X119824384Y-119345909D01*
X119663409Y-119506884D01*
X119536932Y-119696171D01*
X119449813Y-119906495D01*
X119405400Y-120129773D01*
X115468400Y-120129773D01*
X115468400Y-117589773D01*
X119405400Y-117589773D01*
X119405400Y-117817427D01*
X119449813Y-118040705D01*
X119536932Y-118251029D01*
X119663409Y-118440316D01*
X119824384Y-118601291D01*
X120013671Y-118727768D01*
X120223995Y-118814887D01*
X120447273Y-118859300D01*
X120674927Y-118859300D01*
X120898205Y-118814887D01*
X121108529Y-118727768D01*
X121297816Y-118601291D01*
X121458791Y-118440316D01*
X121585268Y-118251029D01*
X121672387Y-118040705D01*
X121716800Y-117817427D01*
X121716800Y-117589773D01*
X121945400Y-117589773D01*
X121945400Y-117817427D01*
X121989813Y-118040705D01*
X122076932Y-118251029D01*
X122203409Y-118440316D01*
X122364384Y-118601291D01*
X122553671Y-118727768D01*
X122763995Y-118814887D01*
X122987273Y-118859300D01*
X123214927Y-118859300D01*
X123438205Y-118814887D01*
X123648529Y-118727768D01*
X123837816Y-118601291D01*
X123998791Y-118440316D01*
X124125268Y-118251029D01*
X124212387Y-118040705D01*
X124256800Y-117817427D01*
X124256800Y-117589773D01*
X124212387Y-117366495D01*
X124125268Y-117156171D01*
X123998791Y-116966884D01*
X123837816Y-116805909D01*
X123648529Y-116679432D01*
X123438205Y-116592313D01*
X123214927Y-116547900D01*
X122987273Y-116547900D01*
X122763995Y-116592313D01*
X122553671Y-116679432D01*
X122364384Y-116805909D01*
X122203409Y-116966884D01*
X122076932Y-117156171D01*
X121989813Y-117366495D01*
X121945400Y-117589773D01*
X121716800Y-117589773D01*
X121672387Y-117366495D01*
X121585268Y-117156171D01*
X121458791Y-116966884D01*
X121297816Y-116805909D01*
X121108529Y-116679432D01*
X120898205Y-116592313D01*
X120674927Y-116547900D01*
X120447273Y-116547900D01*
X120223995Y-116592313D01*
X120013671Y-116679432D01*
X119824384Y-116805909D01*
X119663409Y-116966884D01*
X119536932Y-117156171D01*
X119449813Y-117366495D01*
X119405400Y-117589773D01*
X115468400Y-117589773D01*
X115468400Y-115049773D01*
X119405400Y-115049773D01*
X119405400Y-115277427D01*
X119449813Y-115500705D01*
X119536932Y-115711029D01*
X119663409Y-115900316D01*
X119824384Y-116061291D01*
X120013671Y-116187768D01*
X120223995Y-116274887D01*
X120447273Y-116319300D01*
X120674927Y-116319300D01*
X120898205Y-116274887D01*
X121108529Y-116187768D01*
X121297816Y-116061291D01*
X121458791Y-115900316D01*
X121585268Y-115711029D01*
X121672387Y-115500705D01*
X121716800Y-115277427D01*
X121716800Y-115049773D01*
X121945400Y-115049773D01*
X121945400Y-115277427D01*
X121989813Y-115500705D01*
X122076932Y-115711029D01*
X122203409Y-115900316D01*
X122364384Y-116061291D01*
X122553671Y-116187768D01*
X122763995Y-116274887D01*
X122987273Y-116319300D01*
X123214927Y-116319300D01*
X123438205Y-116274887D01*
X123648529Y-116187768D01*
X123837816Y-116061291D01*
X123998791Y-115900316D01*
X124125268Y-115711029D01*
X124212387Y-115500705D01*
X124256800Y-115277427D01*
X124256800Y-115049773D01*
X124212387Y-114826495D01*
X124125268Y-114616171D01*
X123998791Y-114426884D01*
X123837816Y-114265909D01*
X123648529Y-114139432D01*
X123438205Y-114052313D01*
X123214927Y-114007900D01*
X122987273Y-114007900D01*
X122763995Y-114052313D01*
X122553671Y-114139432D01*
X122364384Y-114265909D01*
X122203409Y-114426884D01*
X122076932Y-114616171D01*
X121989813Y-114826495D01*
X121945400Y-115049773D01*
X121716800Y-115049773D01*
X121672387Y-114826495D01*
X121585268Y-114616171D01*
X121458791Y-114426884D01*
X121297816Y-114265909D01*
X121108529Y-114139432D01*
X120898205Y-114052313D01*
X120674927Y-114007900D01*
X120447273Y-114007900D01*
X120223995Y-114052313D01*
X120013671Y-114139432D01*
X119824384Y-114265909D01*
X119663409Y-114426884D01*
X119536932Y-114616171D01*
X119449813Y-114826495D01*
X119405400Y-115049773D01*
X115468400Y-115049773D01*
X115468400Y-113459498D01*
X119778518Y-113459498D01*
X119879823Y-113625437D01*
X120088362Y-113739098D01*
X120315069Y-113809890D01*
X120551229Y-113835094D01*
X120787770Y-113813741D01*
X121015600Y-113746652D01*
X121225964Y-113636405D01*
X121242377Y-113625437D01*
X121343682Y-113459498D01*
X120561100Y-112676916D01*
X119778518Y-113459498D01*
X115468400Y-113459498D01*
X115468400Y-112613729D01*
X119349606Y-112613729D01*
X119370959Y-112850270D01*
X119438048Y-113078100D01*
X119548295Y-113288464D01*
X119559263Y-113304877D01*
X119725202Y-113406182D01*
X120507784Y-112623600D01*
X120614416Y-112623600D01*
X121396998Y-113406182D01*
X121562937Y-113304877D01*
X121676598Y-113096338D01*
X121747390Y-112869631D01*
X121772594Y-112633471D01*
X121761428Y-112509773D01*
X121945400Y-112509773D01*
X121945400Y-112737427D01*
X121989813Y-112960705D01*
X122076932Y-113171029D01*
X122203409Y-113360316D01*
X122364384Y-113521291D01*
X122553671Y-113647768D01*
X122763995Y-113734887D01*
X122987273Y-113779300D01*
X123214927Y-113779300D01*
X123438205Y-113734887D01*
X123648529Y-113647768D01*
X123837816Y-113521291D01*
X123998791Y-113360316D01*
X124125268Y-113171029D01*
X124212387Y-112960705D01*
X124256800Y-112737427D01*
X124256800Y-112509773D01*
X124212387Y-112286495D01*
X124125268Y-112076171D01*
X123998791Y-111886884D01*
X123837816Y-111725909D01*
X123648529Y-111599432D01*
X123438205Y-111512313D01*
X123214927Y-111467900D01*
X122987273Y-111467900D01*
X122763995Y-111512313D01*
X122553671Y-111599432D01*
X122364384Y-111725909D01*
X122203409Y-111886884D01*
X122076932Y-112076171D01*
X121989813Y-112286495D01*
X121945400Y-112509773D01*
X121761428Y-112509773D01*
X121751241Y-112396930D01*
X121684152Y-112169100D01*
X121573905Y-111958736D01*
X121562937Y-111942323D01*
X121396998Y-111841018D01*
X120614416Y-112623600D01*
X120507784Y-112623600D01*
X119725202Y-111841018D01*
X119559263Y-111942323D01*
X119445602Y-112150862D01*
X119374810Y-112377569D01*
X119349606Y-112613729D01*
X115468400Y-112613729D01*
X115468400Y-111787702D01*
X119778518Y-111787702D01*
X120561100Y-112570284D01*
X121343682Y-111787702D01*
X121242377Y-111621763D01*
X121033838Y-111508102D01*
X120807131Y-111437310D01*
X120570971Y-111412106D01*
X120334430Y-111433459D01*
X120106600Y-111500548D01*
X119896236Y-111610795D01*
X119879823Y-111621763D01*
X119778518Y-111787702D01*
X115468400Y-111787702D01*
X115468400Y-109969773D01*
X119405400Y-109969773D01*
X119405400Y-110197427D01*
X119449813Y-110420705D01*
X119536932Y-110631029D01*
X119663409Y-110820316D01*
X119824384Y-110981291D01*
X120013671Y-111107768D01*
X120223995Y-111194887D01*
X120447273Y-111239300D01*
X120674927Y-111239300D01*
X120898205Y-111194887D01*
X121108529Y-111107768D01*
X121297816Y-110981291D01*
X121458791Y-110820316D01*
X121585268Y-110631029D01*
X121672387Y-110420705D01*
X121716800Y-110197427D01*
X121716800Y-109969773D01*
X121945400Y-109969773D01*
X121945400Y-110197427D01*
X121989813Y-110420705D01*
X122076932Y-110631029D01*
X122203409Y-110820316D01*
X122364384Y-110981291D01*
X122553671Y-111107768D01*
X122763995Y-111194887D01*
X122987273Y-111239300D01*
X123214927Y-111239300D01*
X123438205Y-111194887D01*
X123648529Y-111107768D01*
X123837816Y-110981291D01*
X123998791Y-110820316D01*
X124125268Y-110631029D01*
X124212387Y-110420705D01*
X124256800Y-110197427D01*
X124256800Y-109969773D01*
X124212387Y-109746495D01*
X124125268Y-109536171D01*
X123998791Y-109346884D01*
X123837816Y-109185909D01*
X123648529Y-109059432D01*
X123438205Y-108972313D01*
X123214927Y-108927900D01*
X122987273Y-108927900D01*
X122763995Y-108972313D01*
X122553671Y-109059432D01*
X122364384Y-109185909D01*
X122203409Y-109346884D01*
X122076932Y-109536171D01*
X121989813Y-109746495D01*
X121945400Y-109969773D01*
X121716800Y-109969773D01*
X121672387Y-109746495D01*
X121585268Y-109536171D01*
X121458791Y-109346884D01*
X121297816Y-109185909D01*
X121108529Y-109059432D01*
X120898205Y-108972313D01*
X120674927Y-108927900D01*
X120447273Y-108927900D01*
X120223995Y-108972313D01*
X120013671Y-109059432D01*
X119824384Y-109185909D01*
X119663409Y-109346884D01*
X119536932Y-109536171D01*
X119449813Y-109746495D01*
X119405400Y-109969773D01*
X115468400Y-109969773D01*
X115468400Y-107429773D01*
X119405400Y-107429773D01*
X119405400Y-107657427D01*
X119449813Y-107880705D01*
X119536932Y-108091029D01*
X119663409Y-108280316D01*
X119824384Y-108441291D01*
X120013671Y-108567768D01*
X120223995Y-108654887D01*
X120447273Y-108699300D01*
X120674927Y-108699300D01*
X120898205Y-108654887D01*
X121108529Y-108567768D01*
X121297816Y-108441291D01*
X121458791Y-108280316D01*
X121585268Y-108091029D01*
X121672387Y-107880705D01*
X121716800Y-107657427D01*
X121716800Y-107429773D01*
X121945400Y-107429773D01*
X121945400Y-107657427D01*
X121989813Y-107880705D01*
X122076932Y-108091029D01*
X122203409Y-108280316D01*
X122364384Y-108441291D01*
X122553671Y-108567768D01*
X122763995Y-108654887D01*
X122987273Y-108699300D01*
X123214927Y-108699300D01*
X123438205Y-108654887D01*
X123648529Y-108567768D01*
X123837816Y-108441291D01*
X123998791Y-108280316D01*
X124125268Y-108091029D01*
X124212387Y-107880705D01*
X124256800Y-107657427D01*
X124256800Y-107429773D01*
X124212387Y-107206495D01*
X124125268Y-106996171D01*
X123998791Y-106806884D01*
X123837816Y-106645909D01*
X123648529Y-106519432D01*
X123438205Y-106432313D01*
X123214927Y-106387900D01*
X122987273Y-106387900D01*
X122763995Y-106432313D01*
X122553671Y-106519432D01*
X122364384Y-106645909D01*
X122203409Y-106806884D01*
X122076932Y-106996171D01*
X121989813Y-107206495D01*
X121945400Y-107429773D01*
X121716800Y-107429773D01*
X121672387Y-107206495D01*
X121585268Y-106996171D01*
X121458791Y-106806884D01*
X121297816Y-106645909D01*
X121108529Y-106519432D01*
X120898205Y-106432313D01*
X120674927Y-106387900D01*
X120447273Y-106387900D01*
X120223995Y-106432313D01*
X120013671Y-106519432D01*
X119824384Y-106645909D01*
X119663409Y-106806884D01*
X119536932Y-106996171D01*
X119449813Y-107206495D01*
X119405400Y-107429773D01*
X115468400Y-107429773D01*
X115468400Y-105839498D01*
X119778518Y-105839498D01*
X119879823Y-106005437D01*
X120088362Y-106119098D01*
X120315069Y-106189890D01*
X120551229Y-106215094D01*
X120787770Y-106193741D01*
X121015600Y-106126652D01*
X121225964Y-106016405D01*
X121242377Y-106005437D01*
X121343682Y-105839498D01*
X120561100Y-105056916D01*
X119778518Y-105839498D01*
X115468400Y-105839498D01*
X115468400Y-104993729D01*
X119349606Y-104993729D01*
X119370959Y-105230270D01*
X119438048Y-105458100D01*
X119548295Y-105668464D01*
X119559263Y-105684877D01*
X119725202Y-105786182D01*
X120507784Y-105003600D01*
X120614416Y-105003600D01*
X121396998Y-105786182D01*
X121562937Y-105684877D01*
X121676598Y-105476338D01*
X121747390Y-105249631D01*
X121772594Y-105013471D01*
X121761428Y-104889773D01*
X121945400Y-104889773D01*
X121945400Y-105117427D01*
X121989813Y-105340705D01*
X122076932Y-105551029D01*
X122203409Y-105740316D01*
X122364384Y-105901291D01*
X122553671Y-106027768D01*
X122763995Y-106114887D01*
X122987273Y-106159300D01*
X123214927Y-106159300D01*
X123438205Y-106114887D01*
X123648529Y-106027768D01*
X123837816Y-105901291D01*
X123998791Y-105740316D01*
X124125268Y-105551029D01*
X124212387Y-105340705D01*
X124256800Y-105117427D01*
X124256800Y-104889773D01*
X124212387Y-104666495D01*
X124125268Y-104456171D01*
X123998791Y-104266884D01*
X123837816Y-104105909D01*
X123648529Y-103979432D01*
X123438205Y-103892313D01*
X123214927Y-103847900D01*
X122987273Y-103847900D01*
X122763995Y-103892313D01*
X122553671Y-103979432D01*
X122364384Y-104105909D01*
X122203409Y-104266884D01*
X122076932Y-104456171D01*
X121989813Y-104666495D01*
X121945400Y-104889773D01*
X121761428Y-104889773D01*
X121751241Y-104776930D01*
X121684152Y-104549100D01*
X121573905Y-104338736D01*
X121562937Y-104322323D01*
X121396998Y-104221018D01*
X120614416Y-105003600D01*
X120507784Y-105003600D01*
X119725202Y-104221018D01*
X119559263Y-104322323D01*
X119445602Y-104530862D01*
X119374810Y-104757569D01*
X119349606Y-104993729D01*
X115468400Y-104993729D01*
X115468400Y-104167702D01*
X119778518Y-104167702D01*
X120561100Y-104950284D01*
X121343682Y-104167702D01*
X121242377Y-104001763D01*
X121033838Y-103888102D01*
X120807131Y-103817310D01*
X120570971Y-103792106D01*
X120334430Y-103813459D01*
X120106600Y-103880548D01*
X119896236Y-103990795D01*
X119879823Y-104001763D01*
X119778518Y-104167702D01*
X115468400Y-104167702D01*
X115468400Y-102349773D01*
X119405400Y-102349773D01*
X119405400Y-102577427D01*
X119449813Y-102800705D01*
X119536932Y-103011029D01*
X119663409Y-103200316D01*
X119824384Y-103361291D01*
X120013671Y-103487768D01*
X120223995Y-103574887D01*
X120447273Y-103619300D01*
X120674927Y-103619300D01*
X120898205Y-103574887D01*
X121108529Y-103487768D01*
X121297816Y-103361291D01*
X121458791Y-103200316D01*
X121585268Y-103011029D01*
X121672387Y-102800705D01*
X121716800Y-102577427D01*
X121716800Y-102349773D01*
X121945400Y-102349773D01*
X121945400Y-102577427D01*
X121989813Y-102800705D01*
X122076932Y-103011029D01*
X122203409Y-103200316D01*
X122364384Y-103361291D01*
X122553671Y-103487768D01*
X122763995Y-103574887D01*
X122987273Y-103619300D01*
X123214927Y-103619300D01*
X123438205Y-103574887D01*
X123648529Y-103487768D01*
X123837816Y-103361291D01*
X123998791Y-103200316D01*
X124125268Y-103011029D01*
X124212387Y-102800705D01*
X124256800Y-102577427D01*
X124256800Y-102349773D01*
X124212387Y-102126495D01*
X124125268Y-101916171D01*
X123998791Y-101726884D01*
X123837816Y-101565909D01*
X123648529Y-101439432D01*
X123438205Y-101352313D01*
X123214927Y-101307900D01*
X122987273Y-101307900D01*
X122763995Y-101352313D01*
X122553671Y-101439432D01*
X122364384Y-101565909D01*
X122203409Y-101726884D01*
X122076932Y-101916171D01*
X121989813Y-102126495D01*
X121945400Y-102349773D01*
X121716800Y-102349773D01*
X121672387Y-102126495D01*
X121585268Y-101916171D01*
X121458791Y-101726884D01*
X121297816Y-101565909D01*
X121108529Y-101439432D01*
X120898205Y-101352313D01*
X120674927Y-101307900D01*
X120447273Y-101307900D01*
X120223995Y-101352313D01*
X120013671Y-101439432D01*
X119824384Y-101565909D01*
X119663409Y-101726884D01*
X119536932Y-101916171D01*
X119449813Y-102126495D01*
X119405400Y-102349773D01*
X115468400Y-102349773D01*
X115468400Y-99809773D01*
X119405400Y-99809773D01*
X119405400Y-100037427D01*
X119449813Y-100260705D01*
X119536932Y-100471029D01*
X119663409Y-100660316D01*
X119824384Y-100821291D01*
X120013671Y-100947768D01*
X120223995Y-101034887D01*
X120447273Y-101079300D01*
X120674927Y-101079300D01*
X120898205Y-101034887D01*
X121108529Y-100947768D01*
X121297816Y-100821291D01*
X121359609Y-100759498D01*
X122318518Y-100759498D01*
X122419823Y-100925437D01*
X122628362Y-101039098D01*
X122855069Y-101109890D01*
X123091229Y-101135094D01*
X123327770Y-101113741D01*
X123555600Y-101046652D01*
X123765964Y-100936405D01*
X123782377Y-100925437D01*
X123883682Y-100759498D01*
X123101100Y-99976916D01*
X122318518Y-100759498D01*
X121359609Y-100759498D01*
X121458791Y-100660316D01*
X121585268Y-100471029D01*
X121672387Y-100260705D01*
X121716800Y-100037427D01*
X121716800Y-99913729D01*
X121889606Y-99913729D01*
X121910959Y-100150270D01*
X121978048Y-100378100D01*
X122088295Y-100588464D01*
X122099263Y-100604877D01*
X122265202Y-100706182D01*
X123047784Y-99923600D01*
X123154416Y-99923600D01*
X123936998Y-100706182D01*
X124102937Y-100604877D01*
X124216598Y-100396338D01*
X124287390Y-100169631D01*
X124312594Y-99933471D01*
X124291241Y-99696930D01*
X124224152Y-99469100D01*
X124113905Y-99258736D01*
X124102937Y-99242323D01*
X123936998Y-99141018D01*
X123154416Y-99923600D01*
X123047784Y-99923600D01*
X122265202Y-99141018D01*
X122099263Y-99242323D01*
X121985602Y-99450862D01*
X121914810Y-99677569D01*
X121889606Y-99913729D01*
X121716800Y-99913729D01*
X121716800Y-99809773D01*
X121672387Y-99586495D01*
X121585268Y-99376171D01*
X121458791Y-99186884D01*
X121359609Y-99087702D01*
X122318518Y-99087702D01*
X123101100Y-99870284D01*
X123883682Y-99087702D01*
X123782377Y-98921763D01*
X123573838Y-98808102D01*
X123347131Y-98737310D01*
X123110971Y-98712106D01*
X122874430Y-98733459D01*
X122646600Y-98800548D01*
X122436236Y-98910795D01*
X122419823Y-98921763D01*
X122318518Y-99087702D01*
X121359609Y-99087702D01*
X121297816Y-99025909D01*
X121108529Y-98899432D01*
X120898205Y-98812313D01*
X120674927Y-98767900D01*
X120447273Y-98767900D01*
X120223995Y-98812313D01*
X120013671Y-98899432D01*
X119824384Y-99025909D01*
X119663409Y-99186884D01*
X119536932Y-99376171D01*
X119449813Y-99586495D01*
X119405400Y-99809773D01*
X115468400Y-99809773D01*
X115468400Y-97269773D01*
X119405400Y-97269773D01*
X119405400Y-97497427D01*
X119449813Y-97720705D01*
X119536932Y-97931029D01*
X119663409Y-98120316D01*
X119824384Y-98281291D01*
X120013671Y-98407768D01*
X120223995Y-98494887D01*
X120447273Y-98539300D01*
X120674927Y-98539300D01*
X120898205Y-98494887D01*
X121108529Y-98407768D01*
X121297816Y-98281291D01*
X121458791Y-98120316D01*
X121585268Y-97931029D01*
X121672387Y-97720705D01*
X121716800Y-97497427D01*
X121716800Y-97269773D01*
X121945400Y-97269773D01*
X121945400Y-97497427D01*
X121989813Y-97720705D01*
X122076932Y-97931029D01*
X122203409Y-98120316D01*
X122364384Y-98281291D01*
X122553671Y-98407768D01*
X122763995Y-98494887D01*
X122987273Y-98539300D01*
X123214927Y-98539300D01*
X123438205Y-98494887D01*
X123648529Y-98407768D01*
X123837816Y-98281291D01*
X123998791Y-98120316D01*
X124125268Y-97931029D01*
X124212387Y-97720705D01*
X124256800Y-97497427D01*
X124256800Y-97269773D01*
X124212387Y-97046495D01*
X124125268Y-96836171D01*
X123998791Y-96646884D01*
X123837816Y-96485909D01*
X123648529Y-96359432D01*
X123438205Y-96272313D01*
X123214927Y-96227900D01*
X122987273Y-96227900D01*
X122763995Y-96272313D01*
X122553671Y-96359432D01*
X122364384Y-96485909D01*
X122203409Y-96646884D01*
X122076932Y-96836171D01*
X121989813Y-97046495D01*
X121945400Y-97269773D01*
X121716800Y-97269773D01*
X121672387Y-97046495D01*
X121585268Y-96836171D01*
X121458791Y-96646884D01*
X121297816Y-96485909D01*
X121108529Y-96359432D01*
X120898205Y-96272313D01*
X120674927Y-96227900D01*
X120447273Y-96227900D01*
X120223995Y-96272313D01*
X120013671Y-96359432D01*
X119824384Y-96485909D01*
X119663409Y-96646884D01*
X119536932Y-96836171D01*
X119449813Y-97046495D01*
X119405400Y-97269773D01*
X115468400Y-97269773D01*
X115468400Y-95679498D01*
X119778518Y-95679498D01*
X119879823Y-95845437D01*
X120088362Y-95959098D01*
X120315069Y-96029890D01*
X120551229Y-96055094D01*
X120787770Y-96033741D01*
X121015600Y-95966652D01*
X121225964Y-95856405D01*
X121242377Y-95845437D01*
X121343682Y-95679498D01*
X120561100Y-94896916D01*
X119778518Y-95679498D01*
X115468400Y-95679498D01*
X115468400Y-94833729D01*
X119349606Y-94833729D01*
X119370959Y-95070270D01*
X119438048Y-95298100D01*
X119548295Y-95508464D01*
X119559263Y-95524877D01*
X119725202Y-95626182D01*
X120507784Y-94843600D01*
X120614416Y-94843600D01*
X121396998Y-95626182D01*
X121562937Y-95524877D01*
X121676598Y-95316338D01*
X121747390Y-95089631D01*
X121772594Y-94853471D01*
X121761428Y-94729773D01*
X121945400Y-94729773D01*
X121945400Y-94957427D01*
X121989813Y-95180705D01*
X122076932Y-95391029D01*
X122203409Y-95580316D01*
X122364384Y-95741291D01*
X122553671Y-95867768D01*
X122763995Y-95954887D01*
X122987273Y-95999300D01*
X123214927Y-95999300D01*
X123438205Y-95954887D01*
X123648529Y-95867768D01*
X123837816Y-95741291D01*
X123998791Y-95580316D01*
X124125268Y-95391029D01*
X124212387Y-95180705D01*
X124256800Y-94957427D01*
X124256800Y-94729773D01*
X124212387Y-94506495D01*
X124125268Y-94296171D01*
X123998791Y-94106884D01*
X123837816Y-93945909D01*
X123648529Y-93819432D01*
X123438205Y-93732313D01*
X123214927Y-93687900D01*
X122987273Y-93687900D01*
X122763995Y-93732313D01*
X122553671Y-93819432D01*
X122364384Y-93945909D01*
X122203409Y-94106884D01*
X122076932Y-94296171D01*
X121989813Y-94506495D01*
X121945400Y-94729773D01*
X121761428Y-94729773D01*
X121751241Y-94616930D01*
X121684152Y-94389100D01*
X121573905Y-94178736D01*
X121562937Y-94162323D01*
X121396998Y-94061018D01*
X120614416Y-94843600D01*
X120507784Y-94843600D01*
X119725202Y-94061018D01*
X119559263Y-94162323D01*
X119445602Y-94370862D01*
X119374810Y-94597569D01*
X119349606Y-94833729D01*
X115468400Y-94833729D01*
X115468400Y-94007702D01*
X119778518Y-94007702D01*
X120561100Y-94790284D01*
X121343682Y-94007702D01*
X121242377Y-93841763D01*
X121033838Y-93728102D01*
X120807131Y-93657310D01*
X120570971Y-93632106D01*
X120334430Y-93653459D01*
X120106600Y-93720548D01*
X119896236Y-93830795D01*
X119879823Y-93841763D01*
X119778518Y-94007702D01*
X115468400Y-94007702D01*
X115468400Y-92189773D01*
X119405400Y-92189773D01*
X119405400Y-92417427D01*
X119449813Y-92640705D01*
X119536932Y-92851029D01*
X119663409Y-93040316D01*
X119824384Y-93201291D01*
X120013671Y-93327768D01*
X120223995Y-93414887D01*
X120447273Y-93459300D01*
X120674927Y-93459300D01*
X120898205Y-93414887D01*
X121108529Y-93327768D01*
X121297816Y-93201291D01*
X121458791Y-93040316D01*
X121585268Y-92851029D01*
X121672387Y-92640705D01*
X121716800Y-92417427D01*
X121716800Y-92189773D01*
X121945400Y-92189773D01*
X121945400Y-92417427D01*
X121989813Y-92640705D01*
X122076932Y-92851029D01*
X122203409Y-93040316D01*
X122364384Y-93201291D01*
X122553671Y-93327768D01*
X122763995Y-93414887D01*
X122987273Y-93459300D01*
X123214927Y-93459300D01*
X123438205Y-93414887D01*
X123648529Y-93327768D01*
X123837816Y-93201291D01*
X123998791Y-93040316D01*
X124125268Y-92851029D01*
X124212387Y-92640705D01*
X124256800Y-92417427D01*
X124256800Y-92189773D01*
X124212387Y-91966495D01*
X124125268Y-91756171D01*
X123998791Y-91566884D01*
X123837816Y-91405909D01*
X123648529Y-91279432D01*
X123438205Y-91192313D01*
X123214927Y-91147900D01*
X122987273Y-91147900D01*
X122763995Y-91192313D01*
X122553671Y-91279432D01*
X122364384Y-91405909D01*
X122203409Y-91566884D01*
X122076932Y-91756171D01*
X121989813Y-91966495D01*
X121945400Y-92189773D01*
X121716800Y-92189773D01*
X121672387Y-91966495D01*
X121585268Y-91756171D01*
X121458791Y-91566884D01*
X121297816Y-91405909D01*
X121108529Y-91279432D01*
X120898205Y-91192313D01*
X120674927Y-91147900D01*
X120447273Y-91147900D01*
X120223995Y-91192313D01*
X120013671Y-91279432D01*
X119824384Y-91405909D01*
X119663409Y-91566884D01*
X119536932Y-91756171D01*
X119449813Y-91966495D01*
X119405400Y-92189773D01*
X115468400Y-92189773D01*
X115468400Y-89649773D01*
X119405400Y-89649773D01*
X119405400Y-89877427D01*
X119449813Y-90100705D01*
X119536932Y-90311029D01*
X119663409Y-90500316D01*
X119824384Y-90661291D01*
X120013671Y-90787768D01*
X120223995Y-90874887D01*
X120447273Y-90919300D01*
X120674927Y-90919300D01*
X120898205Y-90874887D01*
X121108529Y-90787768D01*
X121297816Y-90661291D01*
X121458791Y-90500316D01*
X121585268Y-90311029D01*
X121672387Y-90100705D01*
X121716800Y-89877427D01*
X121716800Y-89649773D01*
X121945400Y-89649773D01*
X121945400Y-89877427D01*
X121989813Y-90100705D01*
X122076932Y-90311029D01*
X122203409Y-90500316D01*
X122364384Y-90661291D01*
X122553671Y-90787768D01*
X122763995Y-90874887D01*
X122987273Y-90919300D01*
X123214927Y-90919300D01*
X123438205Y-90874887D01*
X123648529Y-90787768D01*
X123837816Y-90661291D01*
X123998791Y-90500316D01*
X124125268Y-90311029D01*
X124212387Y-90100705D01*
X124256800Y-89877427D01*
X124256800Y-89649773D01*
X124212387Y-89426495D01*
X124125268Y-89216171D01*
X123998791Y-89026884D01*
X123837816Y-88865909D01*
X123648529Y-88739432D01*
X123438205Y-88652313D01*
X123214927Y-88607900D01*
X122987273Y-88607900D01*
X122763995Y-88652313D01*
X122553671Y-88739432D01*
X122364384Y-88865909D01*
X122203409Y-89026884D01*
X122076932Y-89216171D01*
X121989813Y-89426495D01*
X121945400Y-89649773D01*
X121716800Y-89649773D01*
X121672387Y-89426495D01*
X121585268Y-89216171D01*
X121458791Y-89026884D01*
X121297816Y-88865909D01*
X121108529Y-88739432D01*
X120898205Y-88652313D01*
X120674927Y-88607900D01*
X120447273Y-88607900D01*
X120223995Y-88652313D01*
X120013671Y-88739432D01*
X119824384Y-88865909D01*
X119663409Y-89026884D01*
X119536932Y-89216171D01*
X119449813Y-89426495D01*
X119405400Y-89649773D01*
X115468400Y-89649773D01*
X115468400Y-79605353D01*
X117075200Y-79605353D01*
X117075200Y-80041847D01*
X117160356Y-80469954D01*
X117327395Y-80873222D01*
X117569898Y-81236154D01*
X117878546Y-81544802D01*
X118241478Y-81787305D01*
X118644746Y-81954344D01*
X119072853Y-82039500D01*
X119509347Y-82039500D01*
X119937454Y-81954344D01*
X120340722Y-81787305D01*
X120703654Y-81544802D01*
X121012302Y-81236154D01*
X121254805Y-80873222D01*
X121421844Y-80469954D01*
X121507000Y-80041847D01*
X121507000Y-79605353D01*
X121421844Y-79177246D01*
X121366487Y-79043600D01*
X136564156Y-79043600D01*
X136564156Y-80163600D01*
X136568325Y-80205924D01*
X136580670Y-80246621D01*
X136600718Y-80284128D01*
X136627697Y-80317003D01*
X136660572Y-80343982D01*
X136698079Y-80364030D01*
X136738776Y-80376375D01*
X136781100Y-80380544D01*
X137901100Y-80380544D01*
X137943424Y-80376375D01*
X137984121Y-80364030D01*
X138021628Y-80343982D01*
X138054503Y-80317003D01*
X138081482Y-80284128D01*
X138101530Y-80246621D01*
X138113875Y-80205924D01*
X138117470Y-80169420D01*
X138828596Y-80169420D01*
X138884303Y-80296466D01*
X139028251Y-80372270D01*
X139184223Y-80418533D01*
X139346223Y-80433480D01*
X139508026Y-80416535D01*
X139663414Y-80368348D01*
X139797897Y-80296466D01*
X139853604Y-80169420D01*
X139341100Y-79656916D01*
X138828596Y-80169420D01*
X138117470Y-80169420D01*
X138118044Y-80163600D01*
X138118044Y-79608723D01*
X138511220Y-79608723D01*
X138528165Y-79770526D01*
X138576352Y-79925914D01*
X138648234Y-80060397D01*
X138775280Y-80116104D01*
X139287784Y-79603600D01*
X139394416Y-79603600D01*
X139906920Y-80116104D01*
X140033966Y-80060397D01*
X140109770Y-79916449D01*
X140156033Y-79760477D01*
X140170980Y-79598477D01*
X140154035Y-79436674D01*
X140105848Y-79281286D01*
X140046055Y-79169420D01*
X147988596Y-79169420D01*
X148044303Y-79296466D01*
X148188251Y-79372270D01*
X148344223Y-79418533D01*
X148506223Y-79433480D01*
X148668026Y-79416535D01*
X148823414Y-79368348D01*
X148957897Y-79296466D01*
X149013604Y-79169420D01*
X148501100Y-78656916D01*
X147988596Y-79169420D01*
X140046055Y-79169420D01*
X140033966Y-79146803D01*
X139906920Y-79091096D01*
X139394416Y-79603600D01*
X139287784Y-79603600D01*
X138775280Y-79091096D01*
X138648234Y-79146803D01*
X138572430Y-79290751D01*
X138526167Y-79446723D01*
X138511220Y-79608723D01*
X138118044Y-79608723D01*
X138118044Y-79043600D01*
X138117471Y-79037780D01*
X138828596Y-79037780D01*
X139341100Y-79550284D01*
X139853604Y-79037780D01*
X139797897Y-78910734D01*
X139653949Y-78834930D01*
X139497977Y-78788667D01*
X139335977Y-78773720D01*
X139174174Y-78790665D01*
X139018786Y-78838852D01*
X138884303Y-78910734D01*
X138828596Y-79037780D01*
X138117471Y-79037780D01*
X138113875Y-79001276D01*
X138101530Y-78960579D01*
X138081482Y-78923072D01*
X138054503Y-78890197D01*
X138021628Y-78863218D01*
X137984121Y-78843170D01*
X137943424Y-78830825D01*
X137901100Y-78826656D01*
X136781100Y-78826656D01*
X136738776Y-78830825D01*
X136698079Y-78843170D01*
X136660572Y-78863218D01*
X136627697Y-78890197D01*
X136600718Y-78923072D01*
X136580670Y-78960579D01*
X136568325Y-79001276D01*
X136564156Y-79043600D01*
X121366487Y-79043600D01*
X121254805Y-78773978D01*
X121144386Y-78608723D01*
X147671220Y-78608723D01*
X147688165Y-78770526D01*
X147736352Y-78925914D01*
X147808234Y-79060397D01*
X147935280Y-79116104D01*
X148447784Y-78603600D01*
X148554416Y-78603600D01*
X149066920Y-79116104D01*
X149193966Y-79060397D01*
X149269770Y-78916449D01*
X149316033Y-78760477D01*
X149330980Y-78598477D01*
X149314035Y-78436674D01*
X149300792Y-78393968D01*
X159365248Y-78393968D01*
X159429964Y-78528695D01*
X159586670Y-78611976D01*
X159756613Y-78663085D01*
X159933262Y-78680057D01*
X160109827Y-78662242D01*
X160279524Y-78610322D01*
X160432236Y-78528695D01*
X160496952Y-78393968D01*
X159931100Y-77828116D01*
X159365248Y-78393968D01*
X149300792Y-78393968D01*
X149265848Y-78281286D01*
X149193966Y-78146803D01*
X149066920Y-78091096D01*
X148554416Y-78603600D01*
X148447784Y-78603600D01*
X147935280Y-78091096D01*
X147808234Y-78146803D01*
X147732430Y-78290751D01*
X147686167Y-78446723D01*
X147671220Y-78608723D01*
X121144386Y-78608723D01*
X121012302Y-78411046D01*
X120703654Y-78102398D01*
X120606947Y-78037780D01*
X147988596Y-78037780D01*
X148501100Y-78550284D01*
X149013604Y-78037780D01*
X148957897Y-77910734D01*
X148813949Y-77834930D01*
X148657977Y-77788667D01*
X148531115Y-77776962D01*
X159025843Y-77776962D01*
X159043658Y-77953527D01*
X159095578Y-78123224D01*
X159177205Y-78275936D01*
X159311932Y-78340652D01*
X159877784Y-77774800D01*
X159984416Y-77774800D01*
X160550268Y-78340652D01*
X160684995Y-78275936D01*
X160768276Y-78119230D01*
X160819385Y-77949287D01*
X160836357Y-77772638D01*
X160818542Y-77596073D01*
X160766622Y-77426376D01*
X160684995Y-77273664D01*
X160550268Y-77208948D01*
X159984416Y-77774800D01*
X159877784Y-77774800D01*
X159311932Y-77208948D01*
X159177205Y-77273664D01*
X159093924Y-77430370D01*
X159042815Y-77600313D01*
X159025843Y-77776962D01*
X148531115Y-77776962D01*
X148495977Y-77773720D01*
X148334174Y-77790665D01*
X148178786Y-77838852D01*
X148044303Y-77910734D01*
X147988596Y-78037780D01*
X120606947Y-78037780D01*
X120340722Y-77859895D01*
X119937454Y-77692856D01*
X119509347Y-77607700D01*
X119072853Y-77607700D01*
X118644746Y-77692856D01*
X118241478Y-77859895D01*
X117878546Y-78102398D01*
X117569898Y-78411046D01*
X117327395Y-78773978D01*
X117160356Y-79177246D01*
X117075200Y-79605353D01*
X115468400Y-79605353D01*
X115468400Y-77490104D01*
X121007912Y-77490104D01*
X121092439Y-77641725D01*
X121277206Y-77741454D01*
X121477880Y-77803219D01*
X121686747Y-77824648D01*
X121895782Y-77804916D01*
X122096951Y-77744784D01*
X122282523Y-77646561D01*
X122289761Y-77641725D01*
X122374288Y-77490104D01*
X121691100Y-76806916D01*
X121007912Y-77490104D01*
X115468400Y-77490104D01*
X115468400Y-76749247D01*
X120620052Y-76749247D01*
X120639784Y-76958282D01*
X120699916Y-77159451D01*
X120798139Y-77345023D01*
X120802975Y-77352261D01*
X120954596Y-77436788D01*
X121637784Y-76753600D01*
X121744416Y-76753600D01*
X122427604Y-77436788D01*
X122579225Y-77352261D01*
X122678954Y-77167494D01*
X122740719Y-76966820D01*
X122762148Y-76757953D01*
X122742416Y-76548918D01*
X122682284Y-76347749D01*
X122584061Y-76162177D01*
X122579225Y-76154939D01*
X122427604Y-76070412D01*
X121744416Y-76753600D01*
X121637784Y-76753600D01*
X120954596Y-76070412D01*
X120802975Y-76154939D01*
X120703246Y-76339706D01*
X120641481Y-76540380D01*
X120620052Y-76749247D01*
X115468400Y-76749247D01*
X115468400Y-76017096D01*
X121007912Y-76017096D01*
X121691100Y-76700284D01*
X122374288Y-76017096D01*
X122289761Y-75865475D01*
X122104994Y-75765746D01*
X121904320Y-75703981D01*
X121695453Y-75682552D01*
X121486418Y-75702284D01*
X121285249Y-75762416D01*
X121099677Y-75860639D01*
X121092439Y-75865475D01*
X121007912Y-76017096D01*
X115468400Y-76017096D01*
X115468400Y-75507759D01*
X127326260Y-75507759D01*
X127326260Y-75845761D01*
X127392201Y-76177270D01*
X127521549Y-76489544D01*
X127709333Y-76770583D01*
X127948337Y-77009587D01*
X128229376Y-77197371D01*
X128541650Y-77326719D01*
X128873159Y-77392660D01*
X129211161Y-77392660D01*
X129542670Y-77326719D01*
X129854944Y-77197371D01*
X129917410Y-77155632D01*
X159365248Y-77155632D01*
X159931100Y-77721484D01*
X160496952Y-77155632D01*
X160432236Y-77020905D01*
X160275530Y-76937624D01*
X160105587Y-76886515D01*
X159928938Y-76869543D01*
X159752373Y-76887358D01*
X159582676Y-76939278D01*
X159429964Y-77020905D01*
X159365248Y-77155632D01*
X129917410Y-77155632D01*
X130135983Y-77009587D01*
X130374987Y-76770583D01*
X130562771Y-76489544D01*
X130692119Y-76177270D01*
X130758060Y-75845761D01*
X130758060Y-75507759D01*
X130692119Y-75176250D01*
X130562771Y-74863976D01*
X130374987Y-74582937D01*
X130135983Y-74343933D01*
X129854944Y-74156149D01*
X129542670Y-74026801D01*
X129211161Y-73960860D01*
X128873159Y-73960860D01*
X128541650Y-74026801D01*
X128229376Y-74156149D01*
X127948337Y-74343933D01*
X127709333Y-74582937D01*
X127521549Y-74863976D01*
X127392201Y-75176250D01*
X127326260Y-75507759D01*
X115468400Y-75507759D01*
X115468400Y-72153543D01*
X120675200Y-72153543D01*
X120675200Y-72353657D01*
X120714240Y-72549927D01*
X120790821Y-72734809D01*
X120901999Y-72901199D01*
X121043501Y-73042701D01*
X121209891Y-73153879D01*
X121394773Y-73230460D01*
X121511107Y-73253600D01*
X121394773Y-73276740D01*
X121209891Y-73353321D01*
X121043501Y-73464499D01*
X120901999Y-73606001D01*
X120790821Y-73772391D01*
X120714240Y-73957273D01*
X120675200Y-74153543D01*
X120675200Y-74353657D01*
X120714240Y-74549927D01*
X120790821Y-74734809D01*
X120901999Y-74901199D01*
X121043501Y-75042701D01*
X121209891Y-75153879D01*
X121394773Y-75230460D01*
X121591043Y-75269500D01*
X121791157Y-75269500D01*
X121987427Y-75230460D01*
X122172309Y-75153879D01*
X122338699Y-75042701D01*
X122480201Y-74901199D01*
X122591379Y-74734809D01*
X122667960Y-74549927D01*
X122707000Y-74353657D01*
X122707000Y-74153543D01*
X122667960Y-73957273D01*
X122591379Y-73772391D01*
X122480201Y-73606001D01*
X122338699Y-73464499D01*
X122172309Y-73353321D01*
X121987427Y-73276740D01*
X121871093Y-73253600D01*
X121987427Y-73230460D01*
X122172309Y-73153879D01*
X122338699Y-73042701D01*
X122480201Y-72901199D01*
X122591379Y-72734809D01*
X122667960Y-72549927D01*
X122707000Y-72353657D01*
X122707000Y-72153543D01*
X122667960Y-71957273D01*
X122591379Y-71772391D01*
X122480201Y-71606001D01*
X122338699Y-71464499D01*
X122172309Y-71353321D01*
X121987427Y-71276740D01*
X121791157Y-71237700D01*
X121591043Y-71237700D01*
X121394773Y-71276740D01*
X121209891Y-71353321D01*
X121043501Y-71464499D01*
X120901999Y-71606001D01*
X120790821Y-71772391D01*
X120714240Y-71957273D01*
X120675200Y-72153543D01*
X115468400Y-72153543D01*
X115468400Y-69653543D01*
X120675200Y-69653543D01*
X120675200Y-69853657D01*
X120714240Y-70049927D01*
X120790821Y-70234809D01*
X120901999Y-70401199D01*
X121043501Y-70542701D01*
X121209891Y-70653879D01*
X121394773Y-70730460D01*
X121591043Y-70769500D01*
X121791157Y-70769500D01*
X121987427Y-70730460D01*
X122172309Y-70653879D01*
X122338699Y-70542701D01*
X122480201Y-70401199D01*
X122572141Y-70263600D01*
X141163913Y-70263600D01*
X141169047Y-70315726D01*
X141184251Y-70365848D01*
X141208942Y-70412041D01*
X141242170Y-70452530D01*
X141282659Y-70485758D01*
X141328852Y-70510449D01*
X141378974Y-70525653D01*
X141431100Y-70530787D01*
X142326925Y-70529500D01*
X142393400Y-70463025D01*
X142393400Y-68051300D01*
X142468800Y-68051300D01*
X142468800Y-70463025D01*
X142535275Y-70529500D01*
X143431100Y-70530787D01*
X143483226Y-70525653D01*
X143533348Y-70510449D01*
X143579541Y-70485758D01*
X143620030Y-70452530D01*
X143653258Y-70412041D01*
X143677949Y-70365848D01*
X143693153Y-70315726D01*
X143698287Y-70263600D01*
X143698078Y-69913600D01*
X144764156Y-69913600D01*
X144764156Y-71913600D01*
X144768325Y-71955924D01*
X144780670Y-71996621D01*
X144800718Y-72034128D01*
X144827697Y-72067003D01*
X144860572Y-72093982D01*
X144898079Y-72114030D01*
X144938776Y-72126375D01*
X144981100Y-72130544D01*
X149481100Y-72130544D01*
X149523424Y-72126375D01*
X149564121Y-72114030D01*
X149601628Y-72093982D01*
X149634503Y-72067003D01*
X149661482Y-72034128D01*
X149681530Y-71996621D01*
X149693875Y-71955924D01*
X149698044Y-71913600D01*
X149698044Y-69913600D01*
X149693875Y-69871276D01*
X149681530Y-69830579D01*
X149661482Y-69793072D01*
X149634503Y-69760197D01*
X149601628Y-69733218D01*
X149564121Y-69713170D01*
X149523424Y-69700825D01*
X149481100Y-69696656D01*
X144981100Y-69696656D01*
X144938776Y-69700825D01*
X144898079Y-69713170D01*
X144860572Y-69733218D01*
X144827697Y-69760197D01*
X144800718Y-69793072D01*
X144780670Y-69830579D01*
X144768325Y-69871276D01*
X144764156Y-69913600D01*
X143698078Y-69913600D01*
X143697000Y-68117775D01*
X143630525Y-68051300D01*
X142468800Y-68051300D01*
X142393400Y-68051300D01*
X141231675Y-68051300D01*
X141165200Y-68117775D01*
X141163913Y-70263600D01*
X122572141Y-70263600D01*
X122591379Y-70234809D01*
X122667960Y-70049927D01*
X122707000Y-69853657D01*
X122707000Y-69653543D01*
X122667960Y-69457273D01*
X122591379Y-69272391D01*
X122480201Y-69106001D01*
X122338699Y-68964499D01*
X122172309Y-68853321D01*
X121987427Y-68776740D01*
X121791157Y-68737700D01*
X121591043Y-68737700D01*
X121394773Y-68776740D01*
X121209891Y-68853321D01*
X121043501Y-68964499D01*
X120901999Y-69106001D01*
X120790821Y-69272391D01*
X120714240Y-69457273D01*
X120675200Y-69653543D01*
X115468400Y-69653543D01*
X115468400Y-66465353D01*
X117075200Y-66465353D01*
X117075200Y-66901847D01*
X117160356Y-67329954D01*
X117327395Y-67733222D01*
X117569898Y-68096154D01*
X117878546Y-68404802D01*
X118241478Y-68647305D01*
X118644746Y-68814344D01*
X119072853Y-68899500D01*
X119509347Y-68899500D01*
X119937454Y-68814344D01*
X120340722Y-68647305D01*
X120703654Y-68404802D01*
X121012302Y-68096154D01*
X121254805Y-67733222D01*
X121421844Y-67329954D01*
X121507000Y-66901847D01*
X121507000Y-66465353D01*
X121421844Y-66037246D01*
X121308497Y-65763600D01*
X141163913Y-65763600D01*
X141165200Y-67909425D01*
X141231675Y-67975900D01*
X142393400Y-67975900D01*
X142393400Y-65564175D01*
X142468800Y-65564175D01*
X142468800Y-67975900D01*
X143630525Y-67975900D01*
X143697000Y-67909425D01*
X143698287Y-65763600D01*
X143693153Y-65711474D01*
X143677949Y-65661352D01*
X143653258Y-65615159D01*
X143651979Y-65613600D01*
X144713913Y-65613600D01*
X144719047Y-65665726D01*
X144734251Y-65715848D01*
X144758942Y-65762041D01*
X144792170Y-65802530D01*
X144832659Y-65835758D01*
X144878852Y-65860449D01*
X144928974Y-65875653D01*
X144981100Y-65880787D01*
X147126925Y-65879500D01*
X147193400Y-65813025D01*
X147193400Y-64651300D01*
X147268800Y-64651300D01*
X147268800Y-65813025D01*
X147335275Y-65879500D01*
X149481100Y-65880787D01*
X149533226Y-65875653D01*
X149583348Y-65860449D01*
X149629541Y-65835758D01*
X149670030Y-65802530D01*
X149703258Y-65762041D01*
X149727949Y-65715848D01*
X149743153Y-65665726D01*
X149748287Y-65613600D01*
X149747000Y-64717775D01*
X149680525Y-64651300D01*
X147268800Y-64651300D01*
X147193400Y-64651300D01*
X144781675Y-64651300D01*
X144715200Y-64717775D01*
X144713913Y-65613600D01*
X143651979Y-65613600D01*
X143620030Y-65574670D01*
X143579541Y-65541442D01*
X143533348Y-65516751D01*
X143483226Y-65501547D01*
X143431100Y-65496413D01*
X142535275Y-65497700D01*
X142468800Y-65564175D01*
X142393400Y-65564175D01*
X142326925Y-65497700D01*
X141431100Y-65496413D01*
X141378974Y-65501547D01*
X141328852Y-65516751D01*
X141282659Y-65541442D01*
X141242170Y-65574670D01*
X141208942Y-65615159D01*
X141184251Y-65661352D01*
X141169047Y-65711474D01*
X141163913Y-65763600D01*
X121308497Y-65763600D01*
X121254805Y-65633978D01*
X121012302Y-65271046D01*
X120703654Y-64962398D01*
X120340722Y-64719895D01*
X119937454Y-64552856D01*
X119509347Y-64467700D01*
X119072853Y-64467700D01*
X118644746Y-64552856D01*
X118241478Y-64719895D01*
X117878546Y-64962398D01*
X117569898Y-65271046D01*
X117327395Y-65633978D01*
X117160356Y-66037246D01*
X117075200Y-66465353D01*
X115468400Y-66465353D01*
X115468400Y-63613600D01*
X144713913Y-63613600D01*
X144715200Y-64509425D01*
X144781675Y-64575900D01*
X147193400Y-64575900D01*
X147193400Y-63414175D01*
X147268800Y-63414175D01*
X147268800Y-64575900D01*
X149680525Y-64575900D01*
X149747000Y-64509425D01*
X149748287Y-63613600D01*
X149743153Y-63561474D01*
X149727949Y-63511352D01*
X149703258Y-63465159D01*
X149670030Y-63424670D01*
X149629541Y-63391442D01*
X149583348Y-63366751D01*
X149533226Y-63351547D01*
X149481100Y-63346413D01*
X147335275Y-63347700D01*
X147268800Y-63414175D01*
X147193400Y-63414175D01*
X147126925Y-63347700D01*
X144981100Y-63346413D01*
X144928974Y-63351547D01*
X144878852Y-63366751D01*
X144832659Y-63391442D01*
X144792170Y-63424670D01*
X144758942Y-63465159D01*
X144734251Y-63511352D01*
X144719047Y-63561474D01*
X144713913Y-63613600D01*
X115468400Y-63613600D01*
X115468400Y-61861701D01*
X176453800Y-61861701D01*
X176453800Y-71832376D01*
G04 #@! TA.AperFunction,Conductor*
D35*
G36*
X176453800Y-71832376D02*
G01*
X175575240Y-71832376D01*
X175410985Y-71848554D01*
X175253042Y-71896465D01*
X175107481Y-71974269D01*
X174979896Y-72078976D01*
X174875189Y-72206561D01*
X174797385Y-72352122D01*
X174749474Y-72510065D01*
X174733296Y-72674320D01*
X174733296Y-73924320D01*
X174749474Y-74088575D01*
X174797385Y-74246518D01*
X174875189Y-74392079D01*
X174979896Y-74519664D01*
X175107481Y-74624371D01*
X175253042Y-74702175D01*
X175410985Y-74750086D01*
X175575240Y-74766264D01*
X176453800Y-74766264D01*
X176453800Y-78905800D01*
X164295981Y-78905800D01*
X164222999Y-78898612D01*
X164150017Y-78905800D01*
X164150008Y-78905800D01*
X163931713Y-78927300D01*
X163651620Y-79012266D01*
X163393484Y-79150242D01*
X163393482Y-79150243D01*
X163393483Y-79150243D01*
X163223922Y-79289398D01*
X163223920Y-79289400D01*
X163167227Y-79335927D01*
X163120700Y-79392620D01*
X146488621Y-96024700D01*
X141264370Y-96024700D01*
X139169395Y-93929727D01*
X139141075Y-93906486D01*
X138551920Y-93317331D01*
X138551920Y-92232927D01*
X138534095Y-92051945D01*
X138463654Y-91819731D01*
X138382253Y-91667441D01*
X138661140Y-91667441D01*
X138661141Y-93021040D01*
X138673453Y-93146046D01*
X138722108Y-93306441D01*
X138801120Y-93454262D01*
X138907453Y-93583828D01*
X139037019Y-93690161D01*
X139184840Y-93769173D01*
X139345235Y-93817828D01*
X139512040Y-93834257D01*
X139678846Y-93817828D01*
X139839241Y-93769173D01*
X139987062Y-93690161D01*
X140116628Y-93583828D01*
X140222961Y-93454262D01*
X140301973Y-93306441D01*
X140350628Y-93146046D01*
X140362940Y-93021040D01*
X140362940Y-92341300D01*
X140844200Y-92341300D01*
X140844200Y-92976300D01*
X140868865Y-93151332D01*
X140927204Y-93318189D01*
X141016974Y-93470459D01*
X141134725Y-93602290D01*
X141275933Y-93708616D01*
X141435171Y-93785350D01*
X141567056Y-93821732D01*
X141707400Y-93772173D01*
X141707400Y-92341300D01*
X141782800Y-92341300D01*
X141782800Y-93772173D01*
X141923144Y-93821732D01*
X142055029Y-93785350D01*
X142214267Y-93708616D01*
X142355475Y-93602290D01*
X142473226Y-93470459D01*
X142562996Y-93318189D01*
X142621335Y-93151332D01*
X142646000Y-92976300D01*
X142646000Y-92341300D01*
X141782800Y-92341300D01*
X141707400Y-92341300D01*
X140844200Y-92341300D01*
X140362940Y-92341300D01*
X140362940Y-91667440D01*
X140359342Y-91630900D01*
X140844200Y-91630900D01*
X140844200Y-92265900D01*
X141707400Y-92265900D01*
X141707400Y-90835027D01*
X141782800Y-90835027D01*
X141782800Y-92265900D01*
X142646000Y-92265900D01*
X142646000Y-91636961D01*
X143014700Y-91636961D01*
X143014701Y-92990560D01*
X143027013Y-93115566D01*
X143075668Y-93275961D01*
X143154680Y-93423782D01*
X143261013Y-93553348D01*
X143390579Y-93659681D01*
X143538400Y-93738693D01*
X143698795Y-93787348D01*
X143865600Y-93803777D01*
X144032406Y-93787348D01*
X144192801Y-93738693D01*
X144340622Y-93659681D01*
X144470188Y-93553348D01*
X144576521Y-93423782D01*
X144655533Y-93275961D01*
X144704188Y-93115566D01*
X144716500Y-92990560D01*
X144716500Y-92376860D01*
X145017020Y-92376860D01*
X145017020Y-93011860D01*
X145041685Y-93186892D01*
X145100024Y-93353749D01*
X145189794Y-93506019D01*
X145307545Y-93637850D01*
X145448753Y-93744176D01*
X145607991Y-93820910D01*
X145739876Y-93857292D01*
X145880220Y-93807733D01*
X145880220Y-92376860D01*
X145955620Y-92376860D01*
X145955620Y-93807733D01*
X146095964Y-93857292D01*
X146227849Y-93820910D01*
X146387087Y-93744176D01*
X146528295Y-93637850D01*
X146646046Y-93506019D01*
X146735816Y-93353749D01*
X146794155Y-93186892D01*
X146818820Y-93011860D01*
X146818820Y-92376860D01*
X145955620Y-92376860D01*
X145880220Y-92376860D01*
X145017020Y-92376860D01*
X144716500Y-92376860D01*
X144716500Y-91666460D01*
X145017020Y-91666460D01*
X145017020Y-92301460D01*
X145880220Y-92301460D01*
X145880220Y-90870587D01*
X145955620Y-90870587D01*
X145955620Y-92301460D01*
X146818820Y-92301460D01*
X146818820Y-91666460D01*
X146794155Y-91491428D01*
X146735816Y-91324571D01*
X146646046Y-91172301D01*
X146528295Y-91040470D01*
X146387087Y-90934144D01*
X146227849Y-90857410D01*
X146095964Y-90821028D01*
X145955620Y-90870587D01*
X145880220Y-90870587D01*
X145739876Y-90821028D01*
X145607991Y-90857410D01*
X145448753Y-90934144D01*
X145307545Y-91040470D01*
X145189794Y-91172301D01*
X145100024Y-91324571D01*
X145041685Y-91491428D01*
X145017020Y-91666460D01*
X144716500Y-91666460D01*
X144716500Y-91636960D01*
X144704188Y-91511954D01*
X144655533Y-91351559D01*
X144653000Y-91346820D01*
X144653000Y-87189070D01*
X149030528Y-82811543D01*
X149060569Y-82786889D01*
X149108935Y-82727955D01*
X149158966Y-82666993D01*
X149232082Y-82530203D01*
X149277106Y-82381777D01*
X149288500Y-82266093D01*
X149288500Y-82266083D01*
X149292308Y-82227420D01*
X149288500Y-82188757D01*
X149288500Y-80564927D01*
X149278044Y-80458767D01*
X149278044Y-80043600D01*
X149273875Y-80001276D01*
X149261530Y-79960579D01*
X149241482Y-79923072D01*
X149214503Y-79890197D01*
X149181628Y-79863218D01*
X149144121Y-79843170D01*
X149103424Y-79830825D01*
X149061100Y-79826656D01*
X148645932Y-79826656D01*
X148501100Y-79812391D01*
X148356267Y-79826656D01*
X147941100Y-79826656D01*
X147898776Y-79830825D01*
X147858079Y-79843170D01*
X147820572Y-79863218D01*
X147787697Y-79890197D01*
X147760718Y-79923072D01*
X147740670Y-79960579D01*
X147728325Y-80001276D01*
X147724156Y-80043600D01*
X147724156Y-80458768D01*
X147713700Y-80564928D01*
X147713701Y-81901268D01*
X143336178Y-86278792D01*
X143306131Y-86303451D01*
X143207734Y-86423349D01*
X143134618Y-86560138D01*
X143089594Y-86708564D01*
X143078200Y-86824248D01*
X143078200Y-86824257D01*
X143074392Y-86862920D01*
X143078200Y-86901583D01*
X143078201Y-91346820D01*
X143075667Y-91351560D01*
X143027012Y-91511955D01*
X143014700Y-91636961D01*
X142646000Y-91636961D01*
X142646000Y-91630900D01*
X142621335Y-91455868D01*
X142562996Y-91289011D01*
X142473226Y-91136741D01*
X142355475Y-91004910D01*
X142214267Y-90898584D01*
X142055029Y-90821850D01*
X141923144Y-90785468D01*
X141782800Y-90835027D01*
X141707400Y-90835027D01*
X141567056Y-90785468D01*
X141435171Y-90821850D01*
X141275933Y-90898584D01*
X141134725Y-91004910D01*
X141016974Y-91136741D01*
X140927204Y-91289011D01*
X140868865Y-91455868D01*
X140844200Y-91630900D01*
X140359342Y-91630900D01*
X140350628Y-91542434D01*
X140301973Y-91382039D01*
X140222961Y-91234218D01*
X140116628Y-91104652D01*
X139987061Y-90998319D01*
X139839240Y-90919307D01*
X139678845Y-90870652D01*
X139512040Y-90854223D01*
X139345234Y-90870652D01*
X139184839Y-90919307D01*
X139037018Y-90998319D01*
X138907452Y-91104652D01*
X138801119Y-91234219D01*
X138722107Y-91382040D01*
X138673452Y-91542435D01*
X138661140Y-91667441D01*
X138382253Y-91667441D01*
X138349263Y-91605722D01*
X138195319Y-91418141D01*
X138116756Y-91353666D01*
X138109953Y-91331239D01*
X138030941Y-91183418D01*
X137924608Y-91053852D01*
X137795041Y-90947519D01*
X137647220Y-90868507D01*
X137486825Y-90819852D01*
X137320020Y-90803423D01*
X137153214Y-90819852D01*
X136992819Y-90868507D01*
X136844998Y-90947519D01*
X136715432Y-91053852D01*
X136609099Y-91183419D01*
X136530087Y-91331240D01*
X136523284Y-91353667D01*
X136444722Y-91418141D01*
X136290778Y-91605722D01*
X136176387Y-91819731D01*
X136105945Y-92051945D01*
X136088120Y-92232927D01*
X136088120Y-93767097D01*
X136082161Y-93827600D01*
X136088120Y-93888103D01*
X136088120Y-93888112D01*
X136105945Y-94069094D01*
X136176386Y-94301308D01*
X136290777Y-94515317D01*
X136444721Y-94702899D01*
X136491731Y-94741479D01*
X137507724Y-95757474D01*
X137536063Y-95780731D01*
X139601317Y-97845987D01*
X139619566Y-97906145D01*
X139745749Y-98142217D01*
X139915563Y-98349137D01*
X140122483Y-98518951D01*
X140358555Y-98645134D01*
X140614709Y-98722838D01*
X140814342Y-98742500D01*
X146621305Y-98742500D01*
X146659720Y-98763033D01*
X146939814Y-98847999D01*
X147231100Y-98876688D01*
X147522386Y-98847999D01*
X147802480Y-98763033D01*
X148060616Y-98625058D01*
X148230176Y-98485903D01*
X155047479Y-91668600D01*
X159079156Y-91668600D01*
X159079156Y-92938600D01*
X159083325Y-92980924D01*
X159095670Y-93021621D01*
X159115718Y-93059128D01*
X159142697Y-93092003D01*
X159175572Y-93118982D01*
X159213079Y-93139030D01*
X159253776Y-93151375D01*
X159296100Y-93155544D01*
X160566100Y-93155544D01*
X160608424Y-93151375D01*
X160649121Y-93139030D01*
X160686628Y-93118982D01*
X160719503Y-93092003D01*
X160746482Y-93059128D01*
X160766530Y-93021621D01*
X160778875Y-92980924D01*
X160783044Y-92938600D01*
X160783044Y-91668600D01*
X160778875Y-91626276D01*
X160766530Y-91585579D01*
X160746482Y-91548072D01*
X160719503Y-91515197D01*
X160686628Y-91488218D01*
X160649121Y-91468170D01*
X160608424Y-91455825D01*
X160566100Y-91451656D01*
X159296100Y-91451656D01*
X159253776Y-91455825D01*
X159213079Y-91468170D01*
X159175572Y-91488218D01*
X159142697Y-91515197D01*
X159115718Y-91548072D01*
X159095670Y-91585579D01*
X159083325Y-91626276D01*
X159079156Y-91668600D01*
X155047479Y-91668600D01*
X155876880Y-90839199D01*
X170546900Y-90839199D01*
X170546900Y-91177201D01*
X170612841Y-91508710D01*
X170742189Y-91820984D01*
X170929973Y-92102023D01*
X171168977Y-92341027D01*
X171450016Y-92528811D01*
X171762290Y-92658159D01*
X172093799Y-92724100D01*
X172431801Y-92724100D01*
X172763310Y-92658159D01*
X173075584Y-92528811D01*
X173356623Y-92341027D01*
X173595627Y-92102023D01*
X173783411Y-91820984D01*
X173912759Y-91508710D01*
X173978700Y-91177201D01*
X173978700Y-90839199D01*
X173912759Y-90507690D01*
X173783411Y-90195416D01*
X173595627Y-89914377D01*
X173356623Y-89675373D01*
X173075584Y-89487589D01*
X172763310Y-89358241D01*
X172431801Y-89292300D01*
X172093799Y-89292300D01*
X171762290Y-89358241D01*
X171450016Y-89487589D01*
X171168977Y-89675373D01*
X170929973Y-89914377D01*
X170742189Y-90195416D01*
X170612841Y-90507690D01*
X170546900Y-90839199D01*
X155876880Y-90839199D01*
X164838480Y-81877600D01*
X176453800Y-81877600D01*
X176453800Y-148196300D01*
X115468400Y-148196300D01*
X115468400Y-146393600D01*
X133283913Y-146393600D01*
X133289047Y-146445726D01*
X133304251Y-146495848D01*
X133328942Y-146542041D01*
X133362170Y-146582530D01*
X133402659Y-146615758D01*
X133448852Y-146640449D01*
X133498974Y-146655653D01*
X133551100Y-146660787D01*
X135696925Y-146659500D01*
X135763400Y-146593025D01*
X135763400Y-145431300D01*
X135838800Y-145431300D01*
X135838800Y-146593025D01*
X135905275Y-146659500D01*
X138051100Y-146660787D01*
X138103226Y-146655653D01*
X138153348Y-146640449D01*
X138199541Y-146615758D01*
X138240030Y-146582530D01*
X138273258Y-146542041D01*
X138297949Y-146495848D01*
X138313153Y-146445726D01*
X138318287Y-146393600D01*
X138317000Y-145497775D01*
X138250525Y-145431300D01*
X135838800Y-145431300D01*
X135763400Y-145431300D01*
X133351675Y-145431300D01*
X133285200Y-145497775D01*
X133283913Y-146393600D01*
X115468400Y-146393600D01*
X115468400Y-144393600D01*
X133283913Y-144393600D01*
X133285200Y-145289425D01*
X133351675Y-145355900D01*
X135763400Y-145355900D01*
X135763400Y-144194175D01*
X135838800Y-144194175D01*
X135838800Y-145355900D01*
X138250525Y-145355900D01*
X138317000Y-145289425D01*
X138318287Y-144393600D01*
X138313153Y-144341474D01*
X138297949Y-144291352D01*
X138273258Y-144245159D01*
X138271979Y-144243600D01*
X139333913Y-144243600D01*
X139339047Y-144295726D01*
X139354251Y-144345848D01*
X139378942Y-144392041D01*
X139412170Y-144432530D01*
X139452659Y-144465758D01*
X139498852Y-144490449D01*
X139548974Y-144505653D01*
X139601100Y-144510787D01*
X140496925Y-144509500D01*
X140563400Y-144443025D01*
X140563400Y-142031300D01*
X140638800Y-142031300D01*
X140638800Y-144443025D01*
X140705275Y-144509500D01*
X141601100Y-144510787D01*
X141653226Y-144505653D01*
X141703348Y-144490449D01*
X141749541Y-144465758D01*
X141790030Y-144432530D01*
X141821978Y-144393600D01*
X149844156Y-144393600D01*
X149844156Y-146393600D01*
X149848325Y-146435924D01*
X149860670Y-146476621D01*
X149880718Y-146514128D01*
X149907697Y-146547003D01*
X149940572Y-146573982D01*
X149978079Y-146594030D01*
X150018776Y-146606375D01*
X150061100Y-146610544D01*
X154561100Y-146610544D01*
X154603424Y-146606375D01*
X154644121Y-146594030D01*
X154681628Y-146573982D01*
X154714503Y-146547003D01*
X154741482Y-146514128D01*
X154761530Y-146476621D01*
X154773875Y-146435924D01*
X154778044Y-146393600D01*
X154778044Y-144393600D01*
X154773875Y-144351276D01*
X154761530Y-144310579D01*
X154741482Y-144273072D01*
X154714503Y-144240197D01*
X154681628Y-144213218D01*
X154644121Y-144193170D01*
X154603424Y-144180825D01*
X154561100Y-144176656D01*
X150061100Y-144176656D01*
X150018776Y-144180825D01*
X149978079Y-144193170D01*
X149940572Y-144213218D01*
X149907697Y-144240197D01*
X149880718Y-144273072D01*
X149860670Y-144310579D01*
X149848325Y-144351276D01*
X149844156Y-144393600D01*
X141821978Y-144393600D01*
X141823258Y-144392041D01*
X141847949Y-144345848D01*
X141863153Y-144295726D01*
X141868287Y-144243600D01*
X141867000Y-142097775D01*
X141800525Y-142031300D01*
X140638800Y-142031300D01*
X140563400Y-142031300D01*
X139401675Y-142031300D01*
X139335200Y-142097775D01*
X139333913Y-144243600D01*
X138271979Y-144243600D01*
X138240030Y-144204670D01*
X138199541Y-144171442D01*
X138153348Y-144146751D01*
X138103226Y-144131547D01*
X138051100Y-144126413D01*
X135905275Y-144127700D01*
X135838800Y-144194175D01*
X135763400Y-144194175D01*
X135696925Y-144127700D01*
X133551100Y-144126413D01*
X133498974Y-144131547D01*
X133448852Y-144146751D01*
X133402659Y-144171442D01*
X133362170Y-144204670D01*
X133328942Y-144245159D01*
X133304251Y-144291352D01*
X133289047Y-144341474D01*
X133283913Y-144393600D01*
X115468400Y-144393600D01*
X115468400Y-137909773D01*
X119405400Y-137909773D01*
X119405400Y-138137427D01*
X119449813Y-138360705D01*
X119536932Y-138571029D01*
X119663409Y-138760316D01*
X119824384Y-138921291D01*
X120013671Y-139047768D01*
X120223995Y-139134887D01*
X120447273Y-139179300D01*
X120674927Y-139179300D01*
X120898205Y-139134887D01*
X121108529Y-139047768D01*
X121297816Y-138921291D01*
X121359609Y-138859498D01*
X122318518Y-138859498D01*
X122419823Y-139025437D01*
X122628362Y-139139098D01*
X122855069Y-139209890D01*
X123091229Y-139235094D01*
X123327770Y-139213741D01*
X123555600Y-139146652D01*
X123765964Y-139036405D01*
X123782377Y-139025437D01*
X123883682Y-138859498D01*
X123101100Y-138076916D01*
X122318518Y-138859498D01*
X121359609Y-138859498D01*
X121458791Y-138760316D01*
X121585268Y-138571029D01*
X121672387Y-138360705D01*
X121716800Y-138137427D01*
X121716800Y-138013729D01*
X121889606Y-138013729D01*
X121910959Y-138250270D01*
X121978048Y-138478100D01*
X122088295Y-138688464D01*
X122099263Y-138704877D01*
X122265202Y-138806182D01*
X123047784Y-138023600D01*
X123154416Y-138023600D01*
X123936998Y-138806182D01*
X124102937Y-138704877D01*
X124216598Y-138496338D01*
X124287390Y-138269631D01*
X124306176Y-138093600D01*
X133334156Y-138093600D01*
X133334156Y-140093600D01*
X133338325Y-140135924D01*
X133350670Y-140176621D01*
X133370718Y-140214128D01*
X133397697Y-140247003D01*
X133430572Y-140273982D01*
X133468079Y-140294030D01*
X133508776Y-140306375D01*
X133551100Y-140310544D01*
X138051100Y-140310544D01*
X138093424Y-140306375D01*
X138134121Y-140294030D01*
X138171628Y-140273982D01*
X138204503Y-140247003D01*
X138231482Y-140214128D01*
X138251530Y-140176621D01*
X138263875Y-140135924D01*
X138268044Y-140093600D01*
X138268044Y-139743600D01*
X139333913Y-139743600D01*
X139335200Y-141889425D01*
X139401675Y-141955900D01*
X140563400Y-141955900D01*
X140563400Y-139544175D01*
X140638800Y-139544175D01*
X140638800Y-141955900D01*
X141800525Y-141955900D01*
X141867000Y-141889425D01*
X141868287Y-139743600D01*
X141863153Y-139691474D01*
X141847949Y-139641352D01*
X141823258Y-139595159D01*
X141790030Y-139554670D01*
X141749541Y-139521442D01*
X141703348Y-139496751D01*
X141653226Y-139481547D01*
X141601100Y-139476413D01*
X140705275Y-139477700D01*
X140638800Y-139544175D01*
X140563400Y-139544175D01*
X140496925Y-139477700D01*
X139601100Y-139476413D01*
X139548974Y-139481547D01*
X139498852Y-139496751D01*
X139452659Y-139521442D01*
X139412170Y-139554670D01*
X139378942Y-139595159D01*
X139354251Y-139641352D01*
X139339047Y-139691474D01*
X139333913Y-139743600D01*
X138268044Y-139743600D01*
X138268044Y-138093600D01*
X149844156Y-138093600D01*
X149844156Y-140093600D01*
X149848325Y-140135924D01*
X149860670Y-140176621D01*
X149880718Y-140214128D01*
X149907697Y-140247003D01*
X149940572Y-140273982D01*
X149978079Y-140294030D01*
X150018776Y-140306375D01*
X150061100Y-140310544D01*
X154561100Y-140310544D01*
X154603424Y-140306375D01*
X154644121Y-140294030D01*
X154681628Y-140273982D01*
X154714503Y-140247003D01*
X154741482Y-140214128D01*
X154761530Y-140176621D01*
X154773875Y-140135924D01*
X154778044Y-140093600D01*
X154778044Y-139743600D01*
X155894156Y-139743600D01*
X155894156Y-144243600D01*
X155898325Y-144285924D01*
X155910670Y-144326621D01*
X155930718Y-144364128D01*
X155957697Y-144397003D01*
X155990572Y-144423982D01*
X156028079Y-144444030D01*
X156068776Y-144456375D01*
X156111100Y-144460544D01*
X158111100Y-144460544D01*
X158153424Y-144456375D01*
X158194121Y-144444030D01*
X158231628Y-144423982D01*
X158264503Y-144397003D01*
X158291482Y-144364128D01*
X158311530Y-144326621D01*
X158323875Y-144285924D01*
X158328044Y-144243600D01*
X158328044Y-139749439D01*
X168646980Y-139749439D01*
X168646980Y-140087441D01*
X168712921Y-140418950D01*
X168842269Y-140731224D01*
X169030053Y-141012263D01*
X169269057Y-141251267D01*
X169550096Y-141439051D01*
X169862370Y-141568399D01*
X170193879Y-141634340D01*
X170531881Y-141634340D01*
X170863390Y-141568399D01*
X171175664Y-141439051D01*
X171456703Y-141251267D01*
X171695707Y-141012263D01*
X171883491Y-140731224D01*
X172012839Y-140418950D01*
X172078780Y-140087441D01*
X172078780Y-139749439D01*
X172012839Y-139417930D01*
X171883491Y-139105656D01*
X171695707Y-138824617D01*
X171456703Y-138585613D01*
X171175664Y-138397829D01*
X170863390Y-138268481D01*
X170531881Y-138202540D01*
X170193879Y-138202540D01*
X169862370Y-138268481D01*
X169550096Y-138397829D01*
X169269057Y-138585613D01*
X169030053Y-138824617D01*
X168842269Y-139105656D01*
X168712921Y-139417930D01*
X168646980Y-139749439D01*
X158328044Y-139749439D01*
X158328044Y-139743600D01*
X158323875Y-139701276D01*
X158311530Y-139660579D01*
X158291482Y-139623072D01*
X158264503Y-139590197D01*
X158231628Y-139563218D01*
X158194121Y-139543170D01*
X158153424Y-139530825D01*
X158111100Y-139526656D01*
X156111100Y-139526656D01*
X156068776Y-139530825D01*
X156028079Y-139543170D01*
X155990572Y-139563218D01*
X155957697Y-139590197D01*
X155930718Y-139623072D01*
X155910670Y-139660579D01*
X155898325Y-139701276D01*
X155894156Y-139743600D01*
X154778044Y-139743600D01*
X154778044Y-138093600D01*
X154773875Y-138051276D01*
X154761530Y-138010579D01*
X154741482Y-137973072D01*
X154714503Y-137940197D01*
X154681628Y-137913218D01*
X154644121Y-137893170D01*
X154603424Y-137880825D01*
X154561100Y-137876656D01*
X150061100Y-137876656D01*
X150018776Y-137880825D01*
X149978079Y-137893170D01*
X149940572Y-137913218D01*
X149907697Y-137940197D01*
X149880718Y-137973072D01*
X149860670Y-138010579D01*
X149848325Y-138051276D01*
X149844156Y-138093600D01*
X138268044Y-138093600D01*
X138263875Y-138051276D01*
X138251530Y-138010579D01*
X138231482Y-137973072D01*
X138204503Y-137940197D01*
X138171628Y-137913218D01*
X138134121Y-137893170D01*
X138093424Y-137880825D01*
X138051100Y-137876656D01*
X133551100Y-137876656D01*
X133508776Y-137880825D01*
X133468079Y-137893170D01*
X133430572Y-137913218D01*
X133397697Y-137940197D01*
X133370718Y-137973072D01*
X133350670Y-138010579D01*
X133338325Y-138051276D01*
X133334156Y-138093600D01*
X124306176Y-138093600D01*
X124312594Y-138033471D01*
X124291241Y-137796930D01*
X124224152Y-137569100D01*
X124113905Y-137358736D01*
X124102937Y-137342323D01*
X123936998Y-137241018D01*
X123154416Y-138023600D01*
X123047784Y-138023600D01*
X122265202Y-137241018D01*
X122099263Y-137342323D01*
X121985602Y-137550862D01*
X121914810Y-137777569D01*
X121889606Y-138013729D01*
X121716800Y-138013729D01*
X121716800Y-137909773D01*
X121672387Y-137686495D01*
X121585268Y-137476171D01*
X121458791Y-137286884D01*
X121359609Y-137187702D01*
X122318518Y-137187702D01*
X123101100Y-137970284D01*
X123883682Y-137187702D01*
X123782377Y-137021763D01*
X123573838Y-136908102D01*
X123347131Y-136837310D01*
X123110971Y-136812106D01*
X122874430Y-136833459D01*
X122646600Y-136900548D01*
X122436236Y-137010795D01*
X122419823Y-137021763D01*
X122318518Y-137187702D01*
X121359609Y-137187702D01*
X121297816Y-137125909D01*
X121108529Y-136999432D01*
X120898205Y-136912313D01*
X120674927Y-136867900D01*
X120447273Y-136867900D01*
X120223995Y-136912313D01*
X120013671Y-136999432D01*
X119824384Y-137125909D01*
X119663409Y-137286884D01*
X119536932Y-137476171D01*
X119449813Y-137686495D01*
X119405400Y-137909773D01*
X115468400Y-137909773D01*
X115468400Y-135369773D01*
X119405400Y-135369773D01*
X119405400Y-135597427D01*
X119449813Y-135820705D01*
X119536932Y-136031029D01*
X119663409Y-136220316D01*
X119824384Y-136381291D01*
X120013671Y-136507768D01*
X120223995Y-136594887D01*
X120447273Y-136639300D01*
X120674927Y-136639300D01*
X120898205Y-136594887D01*
X121108529Y-136507768D01*
X121297816Y-136381291D01*
X121458791Y-136220316D01*
X121585268Y-136031029D01*
X121672387Y-135820705D01*
X121716800Y-135597427D01*
X121716800Y-135369773D01*
X121945400Y-135369773D01*
X121945400Y-135597427D01*
X121989813Y-135820705D01*
X122076932Y-136031029D01*
X122203409Y-136220316D01*
X122364384Y-136381291D01*
X122553671Y-136507768D01*
X122763995Y-136594887D01*
X122987273Y-136639300D01*
X123214927Y-136639300D01*
X123438205Y-136594887D01*
X123648529Y-136507768D01*
X123837816Y-136381291D01*
X123998791Y-136220316D01*
X124125268Y-136031029D01*
X124212387Y-135820705D01*
X124256800Y-135597427D01*
X124256800Y-135369773D01*
X124212387Y-135146495D01*
X124125268Y-134936171D01*
X123998791Y-134746884D01*
X123837816Y-134585909D01*
X123648529Y-134459432D01*
X123438205Y-134372313D01*
X123214927Y-134327900D01*
X122987273Y-134327900D01*
X122763995Y-134372313D01*
X122553671Y-134459432D01*
X122364384Y-134585909D01*
X122203409Y-134746884D01*
X122076932Y-134936171D01*
X121989813Y-135146495D01*
X121945400Y-135369773D01*
X121716800Y-135369773D01*
X121672387Y-135146495D01*
X121585268Y-134936171D01*
X121458791Y-134746884D01*
X121297816Y-134585909D01*
X121108529Y-134459432D01*
X120898205Y-134372313D01*
X120674927Y-134327900D01*
X120447273Y-134327900D01*
X120223995Y-134372313D01*
X120013671Y-134459432D01*
X119824384Y-134585909D01*
X119663409Y-134746884D01*
X119536932Y-134936171D01*
X119449813Y-135146495D01*
X119405400Y-135369773D01*
X115468400Y-135369773D01*
X115468400Y-132829773D01*
X119405400Y-132829773D01*
X119405400Y-133057427D01*
X119449813Y-133280705D01*
X119536932Y-133491029D01*
X119663409Y-133680316D01*
X119824384Y-133841291D01*
X120013671Y-133967768D01*
X120223995Y-134054887D01*
X120447273Y-134099300D01*
X120674927Y-134099300D01*
X120898205Y-134054887D01*
X121108529Y-133967768D01*
X121297816Y-133841291D01*
X121458791Y-133680316D01*
X121585268Y-133491029D01*
X121672387Y-133280705D01*
X121716800Y-133057427D01*
X121716800Y-132829773D01*
X121945400Y-132829773D01*
X121945400Y-133057427D01*
X121989813Y-133280705D01*
X122076932Y-133491029D01*
X122203409Y-133680316D01*
X122364384Y-133841291D01*
X122553671Y-133967768D01*
X122763995Y-134054887D01*
X122987273Y-134099300D01*
X123214927Y-134099300D01*
X123438205Y-134054887D01*
X123648529Y-133967768D01*
X123837816Y-133841291D01*
X123998791Y-133680316D01*
X124125268Y-133491029D01*
X124212387Y-133280705D01*
X124256800Y-133057427D01*
X124256800Y-132857292D01*
X128574800Y-132857292D01*
X128574800Y-133029908D01*
X128608476Y-133199207D01*
X128674533Y-133358684D01*
X128770433Y-133502209D01*
X128892491Y-133624267D01*
X129036016Y-133720167D01*
X129195493Y-133786224D01*
X129364792Y-133819900D01*
X129537408Y-133819900D01*
X129706707Y-133786224D01*
X129866184Y-133720167D01*
X130009709Y-133624267D01*
X130053143Y-133580833D01*
X132677183Y-133580833D01*
X132744950Y-133718160D01*
X132905976Y-133803973D01*
X133080651Y-133856722D01*
X133262259Y-133874381D01*
X133443823Y-133856271D01*
X133618365Y-133803086D01*
X133777250Y-133718160D01*
X133845017Y-133580833D01*
X133261100Y-132996916D01*
X132677183Y-133580833D01*
X130053143Y-133580833D01*
X130131767Y-133502209D01*
X130227667Y-133358684D01*
X130293724Y-133199207D01*
X130327400Y-133029908D01*
X130327400Y-132944759D01*
X132330319Y-132944759D01*
X132348429Y-133126323D01*
X132401614Y-133300865D01*
X132486540Y-133459750D01*
X132623867Y-133527517D01*
X133207784Y-132943600D01*
X133314416Y-132943600D01*
X133898333Y-133527517D01*
X134035660Y-133459750D01*
X134121473Y-133298724D01*
X134174222Y-133124049D01*
X134191881Y-132942441D01*
X134173771Y-132760877D01*
X134120586Y-132586335D01*
X134035660Y-132427450D01*
X133898333Y-132359683D01*
X133314416Y-132943600D01*
X133207784Y-132943600D01*
X132623867Y-132359683D01*
X132486540Y-132427450D01*
X132400727Y-132588476D01*
X132347978Y-132763151D01*
X132330319Y-132944759D01*
X130327400Y-132944759D01*
X130327400Y-132857292D01*
X130293724Y-132687993D01*
X130227667Y-132528516D01*
X130131767Y-132384991D01*
X130053143Y-132306367D01*
X132677183Y-132306367D01*
X133261100Y-132890284D01*
X133845017Y-132306367D01*
X133777250Y-132169040D01*
X133616224Y-132083227D01*
X133441549Y-132030478D01*
X133259941Y-132012819D01*
X133078377Y-132030929D01*
X132903835Y-132084114D01*
X132744950Y-132169040D01*
X132677183Y-132306367D01*
X130053143Y-132306367D01*
X130009709Y-132262933D01*
X129866184Y-132167033D01*
X129706707Y-132100976D01*
X129537408Y-132067300D01*
X129364792Y-132067300D01*
X129195493Y-132100976D01*
X129036016Y-132167033D01*
X128892491Y-132262933D01*
X128770433Y-132384991D01*
X128674533Y-132528516D01*
X128608476Y-132687993D01*
X128574800Y-132857292D01*
X124256800Y-132857292D01*
X124256800Y-132829773D01*
X124212387Y-132606495D01*
X124125268Y-132396171D01*
X123998791Y-132206884D01*
X123837816Y-132045909D01*
X123648529Y-131919432D01*
X123438205Y-131832313D01*
X123214927Y-131787900D01*
X122987273Y-131787900D01*
X122763995Y-131832313D01*
X122553671Y-131919432D01*
X122364384Y-132045909D01*
X122203409Y-132206884D01*
X122076932Y-132396171D01*
X121989813Y-132606495D01*
X121945400Y-132829773D01*
X121716800Y-132829773D01*
X121672387Y-132606495D01*
X121585268Y-132396171D01*
X121458791Y-132206884D01*
X121297816Y-132045909D01*
X121108529Y-131919432D01*
X120898205Y-131832313D01*
X120674927Y-131787900D01*
X120447273Y-131787900D01*
X120223995Y-131832313D01*
X120013671Y-131919432D01*
X119824384Y-132045909D01*
X119663409Y-132206884D01*
X119536932Y-132396171D01*
X119449813Y-132606495D01*
X119405400Y-132829773D01*
X115468400Y-132829773D01*
X115468400Y-131239498D01*
X119778518Y-131239498D01*
X119879823Y-131405437D01*
X120088362Y-131519098D01*
X120315069Y-131589890D01*
X120551229Y-131615094D01*
X120787770Y-131593741D01*
X121015600Y-131526652D01*
X121225964Y-131416405D01*
X121242377Y-131405437D01*
X121343682Y-131239498D01*
X120561100Y-130456916D01*
X119778518Y-131239498D01*
X115468400Y-131239498D01*
X115468400Y-130393729D01*
X119349606Y-130393729D01*
X119370959Y-130630270D01*
X119438048Y-130858100D01*
X119548295Y-131068464D01*
X119559263Y-131084877D01*
X119725202Y-131186182D01*
X120507784Y-130403600D01*
X120614416Y-130403600D01*
X121396998Y-131186182D01*
X121562937Y-131084877D01*
X121676598Y-130876338D01*
X121747390Y-130649631D01*
X121772594Y-130413471D01*
X121761428Y-130289773D01*
X121945400Y-130289773D01*
X121945400Y-130517427D01*
X121989813Y-130740705D01*
X122076932Y-130951029D01*
X122203409Y-131140316D01*
X122364384Y-131301291D01*
X122553671Y-131427768D01*
X122763995Y-131514887D01*
X122987273Y-131559300D01*
X123214927Y-131559300D01*
X123438205Y-131514887D01*
X123648529Y-131427768D01*
X123837816Y-131301291D01*
X123998791Y-131140316D01*
X124125268Y-130951029D01*
X124212387Y-130740705D01*
X124256800Y-130517427D01*
X124256800Y-130289773D01*
X124212387Y-130066495D01*
X124125268Y-129856171D01*
X123998791Y-129666884D01*
X123837816Y-129505909D01*
X123648529Y-129379432D01*
X123438205Y-129292313D01*
X123214927Y-129247900D01*
X122987273Y-129247900D01*
X122763995Y-129292313D01*
X122553671Y-129379432D01*
X122364384Y-129505909D01*
X122203409Y-129666884D01*
X122076932Y-129856171D01*
X121989813Y-130066495D01*
X121945400Y-130289773D01*
X121761428Y-130289773D01*
X121751241Y-130176930D01*
X121684152Y-129949100D01*
X121573905Y-129738736D01*
X121562937Y-129722323D01*
X121396998Y-129621018D01*
X120614416Y-130403600D01*
X120507784Y-130403600D01*
X119725202Y-129621018D01*
X119559263Y-129722323D01*
X119445602Y-129930862D01*
X119374810Y-130157569D01*
X119349606Y-130393729D01*
X115468400Y-130393729D01*
X115468400Y-129567702D01*
X119778518Y-129567702D01*
X120561100Y-130350284D01*
X121343682Y-129567702D01*
X121242377Y-129401763D01*
X121033838Y-129288102D01*
X120807131Y-129217310D01*
X120570971Y-129192106D01*
X120334430Y-129213459D01*
X120106600Y-129280548D01*
X119896236Y-129390795D01*
X119879823Y-129401763D01*
X119778518Y-129567702D01*
X115468400Y-129567702D01*
X115468400Y-127749773D01*
X119405400Y-127749773D01*
X119405400Y-127977427D01*
X119449813Y-128200705D01*
X119536932Y-128411029D01*
X119663409Y-128600316D01*
X119824384Y-128761291D01*
X120013671Y-128887768D01*
X120223995Y-128974887D01*
X120447273Y-129019300D01*
X120674927Y-129019300D01*
X120898205Y-128974887D01*
X121108529Y-128887768D01*
X121297816Y-128761291D01*
X121458791Y-128600316D01*
X121585268Y-128411029D01*
X121672387Y-128200705D01*
X121716800Y-127977427D01*
X121716800Y-127749773D01*
X121945400Y-127749773D01*
X121945400Y-127977427D01*
X121989813Y-128200705D01*
X122076932Y-128411029D01*
X122203409Y-128600316D01*
X122364384Y-128761291D01*
X122553671Y-128887768D01*
X122763995Y-128974887D01*
X122987273Y-129019300D01*
X123214927Y-129019300D01*
X123438205Y-128974887D01*
X123648529Y-128887768D01*
X123837816Y-128761291D01*
X123998791Y-128600316D01*
X124125268Y-128411029D01*
X124212387Y-128200705D01*
X124256800Y-127977427D01*
X124256800Y-127777292D01*
X128574800Y-127777292D01*
X128574800Y-127949908D01*
X128608476Y-128119207D01*
X128674533Y-128278684D01*
X128770433Y-128422209D01*
X128892491Y-128544267D01*
X129036016Y-128640167D01*
X129195493Y-128706224D01*
X129364792Y-128739900D01*
X129537408Y-128739900D01*
X129706707Y-128706224D01*
X129866184Y-128640167D01*
X130009709Y-128544267D01*
X130131767Y-128422209D01*
X130227667Y-128278684D01*
X130293724Y-128119207D01*
X130327400Y-127949908D01*
X130327400Y-127777292D01*
X132384800Y-127777292D01*
X132384800Y-127949908D01*
X132418476Y-128119207D01*
X132484533Y-128278684D01*
X132580433Y-128422209D01*
X132702491Y-128544267D01*
X132846016Y-128640167D01*
X133005493Y-128706224D01*
X133174792Y-128739900D01*
X133347408Y-128739900D01*
X133516707Y-128706224D01*
X133676184Y-128640167D01*
X133819709Y-128544267D01*
X133941767Y-128422209D01*
X134037667Y-128278684D01*
X134103724Y-128119207D01*
X134137400Y-127949908D01*
X134137400Y-127777292D01*
X134103724Y-127607993D01*
X134037667Y-127448516D01*
X133941767Y-127304991D01*
X133819709Y-127182933D01*
X133676184Y-127087033D01*
X133516707Y-127020976D01*
X133347408Y-126987300D01*
X133174792Y-126987300D01*
X133005493Y-127020976D01*
X132846016Y-127087033D01*
X132702491Y-127182933D01*
X132580433Y-127304991D01*
X132484533Y-127448516D01*
X132418476Y-127607993D01*
X132384800Y-127777292D01*
X130327400Y-127777292D01*
X130293724Y-127607993D01*
X130227667Y-127448516D01*
X130131767Y-127304991D01*
X130009709Y-127182933D01*
X129866184Y-127087033D01*
X129706707Y-127020976D01*
X129537408Y-126987300D01*
X129364792Y-126987300D01*
X129195493Y-127020976D01*
X129036016Y-127087033D01*
X128892491Y-127182933D01*
X128770433Y-127304991D01*
X128674533Y-127448516D01*
X128608476Y-127607993D01*
X128574800Y-127777292D01*
X124256800Y-127777292D01*
X124256800Y-127749773D01*
X124212387Y-127526495D01*
X124125268Y-127316171D01*
X123998791Y-127126884D01*
X123837816Y-126965909D01*
X123648529Y-126839432D01*
X123438205Y-126752313D01*
X123214927Y-126707900D01*
X122987273Y-126707900D01*
X122763995Y-126752313D01*
X122553671Y-126839432D01*
X122364384Y-126965909D01*
X122203409Y-127126884D01*
X122076932Y-127316171D01*
X121989813Y-127526495D01*
X121945400Y-127749773D01*
X121716800Y-127749773D01*
X121672387Y-127526495D01*
X121585268Y-127316171D01*
X121458791Y-127126884D01*
X121297816Y-126965909D01*
X121108529Y-126839432D01*
X120898205Y-126752313D01*
X120674927Y-126707900D01*
X120447273Y-126707900D01*
X120223995Y-126752313D01*
X120013671Y-126839432D01*
X119824384Y-126965909D01*
X119663409Y-127126884D01*
X119536932Y-127316171D01*
X119449813Y-127526495D01*
X119405400Y-127749773D01*
X115468400Y-127749773D01*
X115468400Y-126159498D01*
X119778518Y-126159498D01*
X119879823Y-126325437D01*
X120088362Y-126439098D01*
X120315069Y-126509890D01*
X120551229Y-126535094D01*
X120787770Y-126513741D01*
X121015600Y-126446652D01*
X121225964Y-126336405D01*
X121242377Y-126325437D01*
X121343682Y-126159498D01*
X120561100Y-125376916D01*
X119778518Y-126159498D01*
X115468400Y-126159498D01*
X115468400Y-125313729D01*
X119349606Y-125313729D01*
X119370959Y-125550270D01*
X119438048Y-125778100D01*
X119548295Y-125988464D01*
X119559263Y-126004877D01*
X119725202Y-126106182D01*
X120507784Y-125323600D01*
X120614416Y-125323600D01*
X121396998Y-126106182D01*
X121562937Y-126004877D01*
X121676598Y-125796338D01*
X121747390Y-125569631D01*
X121772594Y-125333471D01*
X121761428Y-125209773D01*
X121945400Y-125209773D01*
X121945400Y-125437427D01*
X121989813Y-125660705D01*
X122076932Y-125871029D01*
X122203409Y-126060316D01*
X122364384Y-126221291D01*
X122553671Y-126347768D01*
X122763995Y-126434887D01*
X122987273Y-126479300D01*
X123214927Y-126479300D01*
X123438205Y-126434887D01*
X123648529Y-126347768D01*
X123837816Y-126221291D01*
X123998791Y-126060316D01*
X124125268Y-125871029D01*
X124212387Y-125660705D01*
X124256800Y-125437427D01*
X124256800Y-125209773D01*
X124212387Y-124986495D01*
X124125268Y-124776171D01*
X123998791Y-124586884D01*
X123837816Y-124425909D01*
X123648529Y-124299432D01*
X123438205Y-124212313D01*
X123214927Y-124167900D01*
X122987273Y-124167900D01*
X122763995Y-124212313D01*
X122553671Y-124299432D01*
X122364384Y-124425909D01*
X122203409Y-124586884D01*
X122076932Y-124776171D01*
X121989813Y-124986495D01*
X121945400Y-125209773D01*
X121761428Y-125209773D01*
X121751241Y-125096930D01*
X121684152Y-124869100D01*
X121573905Y-124658736D01*
X121562937Y-124642323D01*
X121396998Y-124541018D01*
X120614416Y-125323600D01*
X120507784Y-125323600D01*
X119725202Y-124541018D01*
X119559263Y-124642323D01*
X119445602Y-124850862D01*
X119374810Y-125077569D01*
X119349606Y-125313729D01*
X115468400Y-125313729D01*
X115468400Y-124487702D01*
X119778518Y-124487702D01*
X120561100Y-125270284D01*
X121343682Y-124487702D01*
X121242377Y-124321763D01*
X121033838Y-124208102D01*
X120807131Y-124137310D01*
X120570971Y-124112106D01*
X120334430Y-124133459D01*
X120106600Y-124200548D01*
X119896236Y-124310795D01*
X119879823Y-124321763D01*
X119778518Y-124487702D01*
X115468400Y-124487702D01*
X115468400Y-122669773D01*
X119405400Y-122669773D01*
X119405400Y-122897427D01*
X119449813Y-123120705D01*
X119536932Y-123331029D01*
X119663409Y-123520316D01*
X119824384Y-123681291D01*
X120013671Y-123807768D01*
X120223995Y-123894887D01*
X120447273Y-123939300D01*
X120674927Y-123939300D01*
X120898205Y-123894887D01*
X121108529Y-123807768D01*
X121297816Y-123681291D01*
X121458791Y-123520316D01*
X121585268Y-123331029D01*
X121672387Y-123120705D01*
X121716800Y-122897427D01*
X121716800Y-122669773D01*
X121945400Y-122669773D01*
X121945400Y-122897427D01*
X121989813Y-123120705D01*
X122076932Y-123331029D01*
X122203409Y-123520316D01*
X122364384Y-123681291D01*
X122553671Y-123807768D01*
X122763995Y-123894887D01*
X122987273Y-123939300D01*
X123214927Y-123939300D01*
X123438205Y-123894887D01*
X123648529Y-123807768D01*
X123837816Y-123681291D01*
X123998791Y-123520316D01*
X124125268Y-123331029D01*
X124212387Y-123120705D01*
X124256800Y-122897427D01*
X124256800Y-122669773D01*
X124212387Y-122446495D01*
X124125268Y-122236171D01*
X123998791Y-122046884D01*
X123837816Y-121885909D01*
X123648529Y-121759432D01*
X123438205Y-121672313D01*
X123214927Y-121627900D01*
X122987273Y-121627900D01*
X122763995Y-121672313D01*
X122553671Y-121759432D01*
X122364384Y-121885909D01*
X122203409Y-122046884D01*
X122076932Y-122236171D01*
X121989813Y-122446495D01*
X121945400Y-122669773D01*
X121716800Y-122669773D01*
X121672387Y-122446495D01*
X121585268Y-122236171D01*
X121458791Y-122046884D01*
X121297816Y-121885909D01*
X121108529Y-121759432D01*
X120898205Y-121672313D01*
X120674927Y-121627900D01*
X120447273Y-121627900D01*
X120223995Y-121672313D01*
X120013671Y-121759432D01*
X119824384Y-121885909D01*
X119663409Y-122046884D01*
X119536932Y-122236171D01*
X119449813Y-122446495D01*
X119405400Y-122669773D01*
X115468400Y-122669773D01*
X115468400Y-120129773D01*
X119405400Y-120129773D01*
X119405400Y-120357427D01*
X119449813Y-120580705D01*
X119536932Y-120791029D01*
X119663409Y-120980316D01*
X119824384Y-121141291D01*
X120013671Y-121267768D01*
X120223995Y-121354887D01*
X120447273Y-121399300D01*
X120674927Y-121399300D01*
X120898205Y-121354887D01*
X121108529Y-121267768D01*
X121297816Y-121141291D01*
X121359609Y-121079498D01*
X122318518Y-121079498D01*
X122419823Y-121245437D01*
X122628362Y-121359098D01*
X122855069Y-121429890D01*
X123091229Y-121455094D01*
X123327770Y-121433741D01*
X123555600Y-121366652D01*
X123765964Y-121256405D01*
X123782377Y-121245437D01*
X123883682Y-121079498D01*
X123101100Y-120296916D01*
X122318518Y-121079498D01*
X121359609Y-121079498D01*
X121458791Y-120980316D01*
X121585268Y-120791029D01*
X121672387Y-120580705D01*
X121716800Y-120357427D01*
X121716800Y-120233729D01*
X121889606Y-120233729D01*
X121910959Y-120470270D01*
X121978048Y-120698100D01*
X122088295Y-120908464D01*
X122099263Y-120924877D01*
X122265202Y-121026182D01*
X123047784Y-120243600D01*
X123154416Y-120243600D01*
X123936998Y-121026182D01*
X124102937Y-120924877D01*
X124216598Y-120716338D01*
X124287390Y-120489631D01*
X124312594Y-120253471D01*
X124310557Y-120230900D01*
X127930072Y-120230900D01*
X127958761Y-120522186D01*
X128043727Y-120802280D01*
X128181702Y-121060416D01*
X128320857Y-121229976D01*
X138125200Y-131034320D01*
X138125201Y-134140598D01*
X138118011Y-134213600D01*
X138146700Y-134504887D01*
X138231666Y-134784980D01*
X138369642Y-135043116D01*
X138555327Y-135269373D01*
X138781584Y-135455058D01*
X139039720Y-135593034D01*
X139319813Y-135678000D01*
X139538108Y-135699500D01*
X139611100Y-135706689D01*
X139684092Y-135699500D01*
X148574092Y-135699500D01*
X148792387Y-135678000D01*
X149072480Y-135593034D01*
X149330616Y-135455058D01*
X149556873Y-135269373D01*
X149742558Y-135043116D01*
X149880534Y-134784980D01*
X149965500Y-134504887D01*
X149994189Y-134213600D01*
X149965500Y-133922313D01*
X149880534Y-133642220D01*
X149742558Y-133384084D01*
X149556873Y-133157827D01*
X149330616Y-132972142D01*
X149072480Y-132834166D01*
X148792387Y-132749200D01*
X148574092Y-132727700D01*
X141097000Y-132727700D01*
X141097000Y-130330608D01*
X141075500Y-130112313D01*
X140990534Y-129832220D01*
X140852558Y-129574084D01*
X140666873Y-129347827D01*
X140525195Y-129231555D01*
X138032240Y-126738600D01*
X150969156Y-126738600D01*
X150969156Y-128988600D01*
X150973325Y-129030924D01*
X150985670Y-129071621D01*
X151005718Y-129109128D01*
X151032697Y-129142003D01*
X151065572Y-129168982D01*
X151103079Y-129189030D01*
X151143776Y-129201375D01*
X151186100Y-129205544D01*
X153436100Y-129205544D01*
X153478424Y-129201375D01*
X153519121Y-129189030D01*
X153556628Y-129168982D01*
X153589503Y-129142003D01*
X153616482Y-129109128D01*
X153636530Y-129071621D01*
X153648875Y-129030924D01*
X153653044Y-128988600D01*
X153653044Y-127731533D01*
X166210200Y-127731533D01*
X166210200Y-127995667D01*
X166261730Y-128254726D01*
X166362810Y-128498754D01*
X166509555Y-128718374D01*
X166696326Y-128905145D01*
X166915946Y-129051890D01*
X167159974Y-129152970D01*
X167419033Y-129204500D01*
X167683167Y-129204500D01*
X167942226Y-129152970D01*
X168186254Y-129051890D01*
X168405874Y-128905145D01*
X168592645Y-128718374D01*
X168739390Y-128498754D01*
X168840470Y-128254726D01*
X168892000Y-127995667D01*
X168892000Y-127731533D01*
X168840470Y-127472474D01*
X168739390Y-127228446D01*
X168592645Y-127008826D01*
X168405874Y-126822055D01*
X168186254Y-126675310D01*
X167942226Y-126574230D01*
X167683167Y-126522700D01*
X167419033Y-126522700D01*
X167159974Y-126574230D01*
X166915946Y-126675310D01*
X166696326Y-126822055D01*
X166509555Y-127008826D01*
X166362810Y-127228446D01*
X166261730Y-127472474D01*
X166210200Y-127731533D01*
X153653044Y-127731533D01*
X153653044Y-126738600D01*
X153648875Y-126696276D01*
X153636530Y-126655579D01*
X153616482Y-126618072D01*
X153589503Y-126585197D01*
X153556628Y-126558218D01*
X153519121Y-126538170D01*
X153478424Y-126525825D01*
X153436100Y-126521656D01*
X151186100Y-126521656D01*
X151143776Y-126525825D01*
X151103079Y-126538170D01*
X151065572Y-126558218D01*
X151032697Y-126585197D01*
X151005718Y-126618072D01*
X150985670Y-126655579D01*
X150973325Y-126696276D01*
X150969156Y-126738600D01*
X138032240Y-126738600D01*
X137229080Y-125935441D01*
X137277740Y-125930648D01*
X137476438Y-125870373D01*
X137659560Y-125772493D01*
X137820068Y-125640768D01*
X137951793Y-125480260D01*
X138049673Y-125297138D01*
X138109948Y-125098440D01*
X138125200Y-124943582D01*
X138125200Y-123163619D01*
X138557000Y-123163619D01*
X138557000Y-124943582D01*
X138572253Y-125098440D01*
X138632528Y-125297138D01*
X138730408Y-125480260D01*
X138862133Y-125640768D01*
X139022641Y-125772493D01*
X139205763Y-125870373D01*
X139404461Y-125930648D01*
X139611100Y-125951000D01*
X139817740Y-125930648D01*
X140016438Y-125870373D01*
X140199560Y-125772493D01*
X140360068Y-125640768D01*
X140491793Y-125480260D01*
X140589673Y-125297138D01*
X140649948Y-125098440D01*
X140665200Y-124943582D01*
X140665200Y-124091300D01*
X141047000Y-124091300D01*
X141047000Y-124929500D01*
X141075570Y-125144175D01*
X141145472Y-125349151D01*
X141254020Y-125536551D01*
X141397042Y-125699174D01*
X141569042Y-125830770D01*
X141763410Y-125926282D01*
X141941246Y-125975773D01*
X142113400Y-125928740D01*
X142113400Y-124091300D01*
X142188800Y-124091300D01*
X142188800Y-125928740D01*
X142360954Y-125975773D01*
X142538790Y-125926282D01*
X142733158Y-125830770D01*
X142905158Y-125699174D01*
X143048180Y-125536551D01*
X143156728Y-125349151D01*
X143226630Y-125144175D01*
X143255200Y-124929500D01*
X143255200Y-124091300D01*
X142188800Y-124091300D01*
X142113400Y-124091300D01*
X141047000Y-124091300D01*
X140665200Y-124091300D01*
X140665200Y-123177700D01*
X141047000Y-123177700D01*
X141047000Y-124015900D01*
X142113400Y-124015900D01*
X142113400Y-122178460D01*
X142188800Y-122178460D01*
X142188800Y-124015900D01*
X143255200Y-124015900D01*
X143255200Y-123177700D01*
X143226630Y-122963025D01*
X143156728Y-122758049D01*
X143048180Y-122570649D01*
X142905158Y-122408026D01*
X142733158Y-122276430D01*
X142538790Y-122180918D01*
X142360954Y-122131427D01*
X142188800Y-122178460D01*
X142113400Y-122178460D01*
X141941246Y-122131427D01*
X141763410Y-122180918D01*
X141569042Y-122276430D01*
X141397042Y-122408026D01*
X141254020Y-122570649D01*
X141145472Y-122758049D01*
X141075570Y-122963025D01*
X141047000Y-123177700D01*
X140665200Y-123177700D01*
X140665200Y-123163618D01*
X140649948Y-123008760D01*
X140589673Y-122810062D01*
X140491793Y-122626940D01*
X140360068Y-122466432D01*
X140199560Y-122334707D01*
X140016437Y-122236827D01*
X139817739Y-122176552D01*
X139611100Y-122156200D01*
X139404460Y-122176552D01*
X139205762Y-122236827D01*
X139022640Y-122334707D01*
X138862132Y-122466432D01*
X138730407Y-122626940D01*
X138632527Y-122810063D01*
X138572252Y-123008761D01*
X138557000Y-123163619D01*
X138125200Y-123163619D01*
X138125200Y-123163618D01*
X138109948Y-123008760D01*
X138049673Y-122810062D01*
X137951793Y-122626940D01*
X137820068Y-122466432D01*
X137659560Y-122334707D01*
X137476437Y-122236827D01*
X137277739Y-122176552D01*
X137071100Y-122156200D01*
X136864460Y-122176552D01*
X136665762Y-122236827D01*
X136482640Y-122334707D01*
X136322132Y-122466432D01*
X136190407Y-122626940D01*
X136092527Y-122810063D01*
X136032252Y-123008761D01*
X136017000Y-123163619D01*
X136017000Y-124723360D01*
X130937000Y-119643361D01*
X130937000Y-109962268D01*
X147269200Y-109962268D01*
X147269200Y-110204932D01*
X147316541Y-110442932D01*
X147409404Y-110667124D01*
X147544221Y-110868891D01*
X147715809Y-111040479D01*
X147917576Y-111175296D01*
X148141768Y-111268159D01*
X148379768Y-111315500D01*
X148622432Y-111315500D01*
X148860432Y-111268159D01*
X149084624Y-111175296D01*
X149286391Y-111040479D01*
X149457979Y-110868891D01*
X149592796Y-110667124D01*
X149685659Y-110442932D01*
X149733000Y-110204932D01*
X149733000Y-109962268D01*
X170662600Y-109962268D01*
X170662600Y-110204932D01*
X170709941Y-110442932D01*
X170802804Y-110667124D01*
X170937621Y-110868891D01*
X171109209Y-111040479D01*
X171310976Y-111175296D01*
X171535168Y-111268159D01*
X171773168Y-111315500D01*
X172015832Y-111315500D01*
X172253832Y-111268159D01*
X172478024Y-111175296D01*
X172679791Y-111040479D01*
X172851379Y-110868891D01*
X172986196Y-110667124D01*
X173079059Y-110442932D01*
X173126400Y-110204932D01*
X173126400Y-109962268D01*
X173079059Y-109724268D01*
X172986196Y-109500076D01*
X172851379Y-109298309D01*
X172679791Y-109126721D01*
X172478024Y-108991904D01*
X172253832Y-108899041D01*
X172015832Y-108851700D01*
X171773168Y-108851700D01*
X171535168Y-108899041D01*
X171310976Y-108991904D01*
X171109209Y-109126721D01*
X170937621Y-109298309D01*
X170802804Y-109500076D01*
X170709941Y-109724268D01*
X170662600Y-109962268D01*
X149733000Y-109962268D01*
X149685659Y-109724268D01*
X149592796Y-109500076D01*
X149457979Y-109298309D01*
X149286391Y-109126721D01*
X149084624Y-108991904D01*
X148860432Y-108899041D01*
X148622432Y-108851700D01*
X148379768Y-108851700D01*
X148141768Y-108899041D01*
X147917576Y-108991904D01*
X147715809Y-109126721D01*
X147544221Y-109298309D01*
X147409404Y-109500076D01*
X147316541Y-109724268D01*
X147269200Y-109962268D01*
X130937000Y-109962268D01*
X130937000Y-106343726D01*
X137744200Y-106343726D01*
X137744200Y-106711474D01*
X137815944Y-107072155D01*
X137956675Y-107411909D01*
X138160984Y-107717679D01*
X138421021Y-107977716D01*
X138726791Y-108182025D01*
X139066545Y-108322756D01*
X139427226Y-108394500D01*
X139794974Y-108394500D01*
X140155655Y-108322756D01*
X140495409Y-108182025D01*
X140801179Y-107977716D01*
X141061216Y-107717679D01*
X141265525Y-107411909D01*
X141406256Y-107072155D01*
X141478000Y-106711474D01*
X141478000Y-106343726D01*
X141406256Y-105983045D01*
X141265525Y-105643291D01*
X141061216Y-105337521D01*
X140801179Y-105077484D01*
X140495409Y-104873175D01*
X140155655Y-104732444D01*
X139794974Y-104660700D01*
X139427226Y-104660700D01*
X139066545Y-104732444D01*
X138726791Y-104873175D01*
X138421021Y-105077484D01*
X138160984Y-105337521D01*
X137956675Y-105643291D01*
X137815944Y-105983045D01*
X137744200Y-106343726D01*
X130937000Y-106343726D01*
X130937000Y-102390608D01*
X130915500Y-102172313D01*
X130830534Y-101892220D01*
X130692558Y-101634084D01*
X130506873Y-101407827D01*
X130280615Y-101222142D01*
X130022479Y-101084166D01*
X129742386Y-100999200D01*
X129451100Y-100970511D01*
X129159813Y-100999200D01*
X128879720Y-101084166D01*
X128621584Y-101222142D01*
X128395327Y-101407827D01*
X128209642Y-101634085D01*
X128071666Y-101892221D01*
X127986700Y-102172314D01*
X127965200Y-102390609D01*
X127965201Y-119918384D01*
X127958761Y-119939614D01*
X127930072Y-120230900D01*
X124310557Y-120230900D01*
X124291241Y-120016930D01*
X124224152Y-119789100D01*
X124113905Y-119578736D01*
X124102937Y-119562323D01*
X123936998Y-119461018D01*
X123154416Y-120243600D01*
X123047784Y-120243600D01*
X122265202Y-119461018D01*
X122099263Y-119562323D01*
X121985602Y-119770862D01*
X121914810Y-119997569D01*
X121889606Y-120233729D01*
X121716800Y-120233729D01*
X121716800Y-120129773D01*
X121672387Y-119906495D01*
X121585268Y-119696171D01*
X121458791Y-119506884D01*
X121359609Y-119407702D01*
X122318518Y-119407702D01*
X123101100Y-120190284D01*
X123883682Y-119407702D01*
X123782377Y-119241763D01*
X123573838Y-119128102D01*
X123347131Y-119057310D01*
X123110971Y-119032106D01*
X122874430Y-119053459D01*
X122646600Y-119120548D01*
X122436236Y-119230795D01*
X122419823Y-119241763D01*
X122318518Y-119407702D01*
X121359609Y-119407702D01*
X121297816Y-119345909D01*
X121108529Y-119219432D01*
X120898205Y-119132313D01*
X120674927Y-119087900D01*
X120447273Y-119087900D01*
X120223995Y-119132313D01*
X120013671Y-119219432D01*
X119824384Y-119345909D01*
X119663409Y-119506884D01*
X119536932Y-119696171D01*
X119449813Y-119906495D01*
X119405400Y-120129773D01*
X115468400Y-120129773D01*
X115468400Y-117589773D01*
X119405400Y-117589773D01*
X119405400Y-117817427D01*
X119449813Y-118040705D01*
X119536932Y-118251029D01*
X119663409Y-118440316D01*
X119824384Y-118601291D01*
X120013671Y-118727768D01*
X120223995Y-118814887D01*
X120447273Y-118859300D01*
X120674927Y-118859300D01*
X120898205Y-118814887D01*
X121108529Y-118727768D01*
X121297816Y-118601291D01*
X121458791Y-118440316D01*
X121585268Y-118251029D01*
X121672387Y-118040705D01*
X121716800Y-117817427D01*
X121716800Y-117589773D01*
X121945400Y-117589773D01*
X121945400Y-117817427D01*
X121989813Y-118040705D01*
X122076932Y-118251029D01*
X122203409Y-118440316D01*
X122364384Y-118601291D01*
X122553671Y-118727768D01*
X122763995Y-118814887D01*
X122987273Y-118859300D01*
X123214927Y-118859300D01*
X123438205Y-118814887D01*
X123648529Y-118727768D01*
X123837816Y-118601291D01*
X123998791Y-118440316D01*
X124125268Y-118251029D01*
X124212387Y-118040705D01*
X124256800Y-117817427D01*
X124256800Y-117589773D01*
X124212387Y-117366495D01*
X124125268Y-117156171D01*
X123998791Y-116966884D01*
X123837816Y-116805909D01*
X123648529Y-116679432D01*
X123438205Y-116592313D01*
X123214927Y-116547900D01*
X122987273Y-116547900D01*
X122763995Y-116592313D01*
X122553671Y-116679432D01*
X122364384Y-116805909D01*
X122203409Y-116966884D01*
X122076932Y-117156171D01*
X121989813Y-117366495D01*
X121945400Y-117589773D01*
X121716800Y-117589773D01*
X121672387Y-117366495D01*
X121585268Y-117156171D01*
X121458791Y-116966884D01*
X121297816Y-116805909D01*
X121108529Y-116679432D01*
X120898205Y-116592313D01*
X120674927Y-116547900D01*
X120447273Y-116547900D01*
X120223995Y-116592313D01*
X120013671Y-116679432D01*
X119824384Y-116805909D01*
X119663409Y-116966884D01*
X119536932Y-117156171D01*
X119449813Y-117366495D01*
X119405400Y-117589773D01*
X115468400Y-117589773D01*
X115468400Y-115049773D01*
X119405400Y-115049773D01*
X119405400Y-115277427D01*
X119449813Y-115500705D01*
X119536932Y-115711029D01*
X119663409Y-115900316D01*
X119824384Y-116061291D01*
X120013671Y-116187768D01*
X120223995Y-116274887D01*
X120447273Y-116319300D01*
X120674927Y-116319300D01*
X120898205Y-116274887D01*
X121108529Y-116187768D01*
X121297816Y-116061291D01*
X121458791Y-115900316D01*
X121585268Y-115711029D01*
X121672387Y-115500705D01*
X121716800Y-115277427D01*
X121716800Y-115049773D01*
X121945400Y-115049773D01*
X121945400Y-115277427D01*
X121989813Y-115500705D01*
X122076932Y-115711029D01*
X122203409Y-115900316D01*
X122364384Y-116061291D01*
X122553671Y-116187768D01*
X122763995Y-116274887D01*
X122987273Y-116319300D01*
X123214927Y-116319300D01*
X123438205Y-116274887D01*
X123648529Y-116187768D01*
X123837816Y-116061291D01*
X123998791Y-115900316D01*
X124125268Y-115711029D01*
X124212387Y-115500705D01*
X124256800Y-115277427D01*
X124256800Y-115049773D01*
X124212387Y-114826495D01*
X124125268Y-114616171D01*
X123998791Y-114426884D01*
X123837816Y-114265909D01*
X123648529Y-114139432D01*
X123438205Y-114052313D01*
X123214927Y-114007900D01*
X122987273Y-114007900D01*
X122763995Y-114052313D01*
X122553671Y-114139432D01*
X122364384Y-114265909D01*
X122203409Y-114426884D01*
X122076932Y-114616171D01*
X121989813Y-114826495D01*
X121945400Y-115049773D01*
X121716800Y-115049773D01*
X121672387Y-114826495D01*
X121585268Y-114616171D01*
X121458791Y-114426884D01*
X121297816Y-114265909D01*
X121108529Y-114139432D01*
X120898205Y-114052313D01*
X120674927Y-114007900D01*
X120447273Y-114007900D01*
X120223995Y-114052313D01*
X120013671Y-114139432D01*
X119824384Y-114265909D01*
X119663409Y-114426884D01*
X119536932Y-114616171D01*
X119449813Y-114826495D01*
X119405400Y-115049773D01*
X115468400Y-115049773D01*
X115468400Y-113459498D01*
X119778518Y-113459498D01*
X119879823Y-113625437D01*
X120088362Y-113739098D01*
X120315069Y-113809890D01*
X120551229Y-113835094D01*
X120787770Y-113813741D01*
X121015600Y-113746652D01*
X121225964Y-113636405D01*
X121242377Y-113625437D01*
X121343682Y-113459498D01*
X120561100Y-112676916D01*
X119778518Y-113459498D01*
X115468400Y-113459498D01*
X115468400Y-112613729D01*
X119349606Y-112613729D01*
X119370959Y-112850270D01*
X119438048Y-113078100D01*
X119548295Y-113288464D01*
X119559263Y-113304877D01*
X119725202Y-113406182D01*
X120507784Y-112623600D01*
X120614416Y-112623600D01*
X121396998Y-113406182D01*
X121562937Y-113304877D01*
X121676598Y-113096338D01*
X121747390Y-112869631D01*
X121772594Y-112633471D01*
X121761428Y-112509773D01*
X121945400Y-112509773D01*
X121945400Y-112737427D01*
X121989813Y-112960705D01*
X122076932Y-113171029D01*
X122203409Y-113360316D01*
X122364384Y-113521291D01*
X122553671Y-113647768D01*
X122763995Y-113734887D01*
X122987273Y-113779300D01*
X123214927Y-113779300D01*
X123438205Y-113734887D01*
X123648529Y-113647768D01*
X123837816Y-113521291D01*
X123998791Y-113360316D01*
X124125268Y-113171029D01*
X124212387Y-112960705D01*
X124256800Y-112737427D01*
X124256800Y-112509773D01*
X124212387Y-112286495D01*
X124125268Y-112076171D01*
X123998791Y-111886884D01*
X123837816Y-111725909D01*
X123648529Y-111599432D01*
X123438205Y-111512313D01*
X123214927Y-111467900D01*
X122987273Y-111467900D01*
X122763995Y-111512313D01*
X122553671Y-111599432D01*
X122364384Y-111725909D01*
X122203409Y-111886884D01*
X122076932Y-112076171D01*
X121989813Y-112286495D01*
X121945400Y-112509773D01*
X121761428Y-112509773D01*
X121751241Y-112396930D01*
X121684152Y-112169100D01*
X121573905Y-111958736D01*
X121562937Y-111942323D01*
X121396998Y-111841018D01*
X120614416Y-112623600D01*
X120507784Y-112623600D01*
X119725202Y-111841018D01*
X119559263Y-111942323D01*
X119445602Y-112150862D01*
X119374810Y-112377569D01*
X119349606Y-112613729D01*
X115468400Y-112613729D01*
X115468400Y-111787702D01*
X119778518Y-111787702D01*
X120561100Y-112570284D01*
X121343682Y-111787702D01*
X121242377Y-111621763D01*
X121033838Y-111508102D01*
X120807131Y-111437310D01*
X120570971Y-111412106D01*
X120334430Y-111433459D01*
X120106600Y-111500548D01*
X119896236Y-111610795D01*
X119879823Y-111621763D01*
X119778518Y-111787702D01*
X115468400Y-111787702D01*
X115468400Y-109969773D01*
X119405400Y-109969773D01*
X119405400Y-110197427D01*
X119449813Y-110420705D01*
X119536932Y-110631029D01*
X119663409Y-110820316D01*
X119824384Y-110981291D01*
X120013671Y-111107768D01*
X120223995Y-111194887D01*
X120447273Y-111239300D01*
X120674927Y-111239300D01*
X120898205Y-111194887D01*
X121108529Y-111107768D01*
X121297816Y-110981291D01*
X121458791Y-110820316D01*
X121585268Y-110631029D01*
X121672387Y-110420705D01*
X121716800Y-110197427D01*
X121716800Y-109969773D01*
X121945400Y-109969773D01*
X121945400Y-110197427D01*
X121989813Y-110420705D01*
X122076932Y-110631029D01*
X122203409Y-110820316D01*
X122364384Y-110981291D01*
X122553671Y-111107768D01*
X122763995Y-111194887D01*
X122987273Y-111239300D01*
X123214927Y-111239300D01*
X123438205Y-111194887D01*
X123648529Y-111107768D01*
X123837816Y-110981291D01*
X123998791Y-110820316D01*
X124125268Y-110631029D01*
X124212387Y-110420705D01*
X124256800Y-110197427D01*
X124256800Y-109969773D01*
X124212387Y-109746495D01*
X124125268Y-109536171D01*
X123998791Y-109346884D01*
X123837816Y-109185909D01*
X123648529Y-109059432D01*
X123438205Y-108972313D01*
X123214927Y-108927900D01*
X122987273Y-108927900D01*
X122763995Y-108972313D01*
X122553671Y-109059432D01*
X122364384Y-109185909D01*
X122203409Y-109346884D01*
X122076932Y-109536171D01*
X121989813Y-109746495D01*
X121945400Y-109969773D01*
X121716800Y-109969773D01*
X121672387Y-109746495D01*
X121585268Y-109536171D01*
X121458791Y-109346884D01*
X121297816Y-109185909D01*
X121108529Y-109059432D01*
X120898205Y-108972313D01*
X120674927Y-108927900D01*
X120447273Y-108927900D01*
X120223995Y-108972313D01*
X120013671Y-109059432D01*
X119824384Y-109185909D01*
X119663409Y-109346884D01*
X119536932Y-109536171D01*
X119449813Y-109746495D01*
X119405400Y-109969773D01*
X115468400Y-109969773D01*
X115468400Y-107429773D01*
X119405400Y-107429773D01*
X119405400Y-107657427D01*
X119449813Y-107880705D01*
X119536932Y-108091029D01*
X119663409Y-108280316D01*
X119824384Y-108441291D01*
X120013671Y-108567768D01*
X120223995Y-108654887D01*
X120447273Y-108699300D01*
X120674927Y-108699300D01*
X120898205Y-108654887D01*
X121108529Y-108567768D01*
X121297816Y-108441291D01*
X121458791Y-108280316D01*
X121585268Y-108091029D01*
X121672387Y-107880705D01*
X121716800Y-107657427D01*
X121716800Y-107429773D01*
X121945400Y-107429773D01*
X121945400Y-107657427D01*
X121989813Y-107880705D01*
X122076932Y-108091029D01*
X122203409Y-108280316D01*
X122364384Y-108441291D01*
X122553671Y-108567768D01*
X122763995Y-108654887D01*
X122987273Y-108699300D01*
X123214927Y-108699300D01*
X123438205Y-108654887D01*
X123648529Y-108567768D01*
X123837816Y-108441291D01*
X123998791Y-108280316D01*
X124125268Y-108091029D01*
X124212387Y-107880705D01*
X124256800Y-107657427D01*
X124256800Y-107429773D01*
X124212387Y-107206495D01*
X124125268Y-106996171D01*
X123998791Y-106806884D01*
X123837816Y-106645909D01*
X123648529Y-106519432D01*
X123438205Y-106432313D01*
X123214927Y-106387900D01*
X122987273Y-106387900D01*
X122763995Y-106432313D01*
X122553671Y-106519432D01*
X122364384Y-106645909D01*
X122203409Y-106806884D01*
X122076932Y-106996171D01*
X121989813Y-107206495D01*
X121945400Y-107429773D01*
X121716800Y-107429773D01*
X121672387Y-107206495D01*
X121585268Y-106996171D01*
X121458791Y-106806884D01*
X121297816Y-106645909D01*
X121108529Y-106519432D01*
X120898205Y-106432313D01*
X120674927Y-106387900D01*
X120447273Y-106387900D01*
X120223995Y-106432313D01*
X120013671Y-106519432D01*
X119824384Y-106645909D01*
X119663409Y-106806884D01*
X119536932Y-106996171D01*
X119449813Y-107206495D01*
X119405400Y-107429773D01*
X115468400Y-107429773D01*
X115468400Y-105839498D01*
X119778518Y-105839498D01*
X119879823Y-106005437D01*
X120088362Y-106119098D01*
X120315069Y-106189890D01*
X120551229Y-106215094D01*
X120787770Y-106193741D01*
X121015600Y-106126652D01*
X121225964Y-106016405D01*
X121242377Y-106005437D01*
X121343682Y-105839498D01*
X120561100Y-105056916D01*
X119778518Y-105839498D01*
X115468400Y-105839498D01*
X115468400Y-104993729D01*
X119349606Y-104993729D01*
X119370959Y-105230270D01*
X119438048Y-105458100D01*
X119548295Y-105668464D01*
X119559263Y-105684877D01*
X119725202Y-105786182D01*
X120507784Y-105003600D01*
X120614416Y-105003600D01*
X121396998Y-105786182D01*
X121562937Y-105684877D01*
X121676598Y-105476338D01*
X121747390Y-105249631D01*
X121772594Y-105013471D01*
X121761428Y-104889773D01*
X121945400Y-104889773D01*
X121945400Y-105117427D01*
X121989813Y-105340705D01*
X122076932Y-105551029D01*
X122203409Y-105740316D01*
X122364384Y-105901291D01*
X122553671Y-106027768D01*
X122763995Y-106114887D01*
X122987273Y-106159300D01*
X123214927Y-106159300D01*
X123438205Y-106114887D01*
X123648529Y-106027768D01*
X123837816Y-105901291D01*
X123998791Y-105740316D01*
X124125268Y-105551029D01*
X124212387Y-105340705D01*
X124256800Y-105117427D01*
X124256800Y-104889773D01*
X124212387Y-104666495D01*
X124125268Y-104456171D01*
X123998791Y-104266884D01*
X123837816Y-104105909D01*
X123648529Y-103979432D01*
X123438205Y-103892313D01*
X123214927Y-103847900D01*
X122987273Y-103847900D01*
X122763995Y-103892313D01*
X122553671Y-103979432D01*
X122364384Y-104105909D01*
X122203409Y-104266884D01*
X122076932Y-104456171D01*
X121989813Y-104666495D01*
X121945400Y-104889773D01*
X121761428Y-104889773D01*
X121751241Y-104776930D01*
X121684152Y-104549100D01*
X121573905Y-104338736D01*
X121562937Y-104322323D01*
X121396998Y-104221018D01*
X120614416Y-105003600D01*
X120507784Y-105003600D01*
X119725202Y-104221018D01*
X119559263Y-104322323D01*
X119445602Y-104530862D01*
X119374810Y-104757569D01*
X119349606Y-104993729D01*
X115468400Y-104993729D01*
X115468400Y-104167702D01*
X119778518Y-104167702D01*
X120561100Y-104950284D01*
X121343682Y-104167702D01*
X121242377Y-104001763D01*
X121033838Y-103888102D01*
X120807131Y-103817310D01*
X120570971Y-103792106D01*
X120334430Y-103813459D01*
X120106600Y-103880548D01*
X119896236Y-103990795D01*
X119879823Y-104001763D01*
X119778518Y-104167702D01*
X115468400Y-104167702D01*
X115468400Y-102349773D01*
X119405400Y-102349773D01*
X119405400Y-102577427D01*
X119449813Y-102800705D01*
X119536932Y-103011029D01*
X119663409Y-103200316D01*
X119824384Y-103361291D01*
X120013671Y-103487768D01*
X120223995Y-103574887D01*
X120447273Y-103619300D01*
X120674927Y-103619300D01*
X120898205Y-103574887D01*
X121108529Y-103487768D01*
X121297816Y-103361291D01*
X121458791Y-103200316D01*
X121585268Y-103011029D01*
X121672387Y-102800705D01*
X121716800Y-102577427D01*
X121716800Y-102349773D01*
X121945400Y-102349773D01*
X121945400Y-102577427D01*
X121989813Y-102800705D01*
X122076932Y-103011029D01*
X122203409Y-103200316D01*
X122364384Y-103361291D01*
X122553671Y-103487768D01*
X122763995Y-103574887D01*
X122987273Y-103619300D01*
X123214927Y-103619300D01*
X123438205Y-103574887D01*
X123648529Y-103487768D01*
X123837816Y-103361291D01*
X123998791Y-103200316D01*
X124125268Y-103011029D01*
X124212387Y-102800705D01*
X124256800Y-102577427D01*
X124256800Y-102349773D01*
X124212387Y-102126495D01*
X124125268Y-101916171D01*
X123998791Y-101726884D01*
X123837816Y-101565909D01*
X123648529Y-101439432D01*
X123438205Y-101352313D01*
X123214927Y-101307900D01*
X122987273Y-101307900D01*
X122763995Y-101352313D01*
X122553671Y-101439432D01*
X122364384Y-101565909D01*
X122203409Y-101726884D01*
X122076932Y-101916171D01*
X121989813Y-102126495D01*
X121945400Y-102349773D01*
X121716800Y-102349773D01*
X121672387Y-102126495D01*
X121585268Y-101916171D01*
X121458791Y-101726884D01*
X121297816Y-101565909D01*
X121108529Y-101439432D01*
X120898205Y-101352313D01*
X120674927Y-101307900D01*
X120447273Y-101307900D01*
X120223995Y-101352313D01*
X120013671Y-101439432D01*
X119824384Y-101565909D01*
X119663409Y-101726884D01*
X119536932Y-101916171D01*
X119449813Y-102126495D01*
X119405400Y-102349773D01*
X115468400Y-102349773D01*
X115468400Y-99809773D01*
X119405400Y-99809773D01*
X119405400Y-100037427D01*
X119449813Y-100260705D01*
X119536932Y-100471029D01*
X119663409Y-100660316D01*
X119824384Y-100821291D01*
X120013671Y-100947768D01*
X120223995Y-101034887D01*
X120447273Y-101079300D01*
X120674927Y-101079300D01*
X120898205Y-101034887D01*
X121108529Y-100947768D01*
X121297816Y-100821291D01*
X121359609Y-100759498D01*
X122318518Y-100759498D01*
X122419823Y-100925437D01*
X122628362Y-101039098D01*
X122855069Y-101109890D01*
X123091229Y-101135094D01*
X123327770Y-101113741D01*
X123555600Y-101046652D01*
X123765964Y-100936405D01*
X123782377Y-100925437D01*
X123883682Y-100759498D01*
X123101100Y-99976916D01*
X122318518Y-100759498D01*
X121359609Y-100759498D01*
X121458791Y-100660316D01*
X121585268Y-100471029D01*
X121672387Y-100260705D01*
X121716800Y-100037427D01*
X121716800Y-99913729D01*
X121889606Y-99913729D01*
X121910959Y-100150270D01*
X121978048Y-100378100D01*
X122088295Y-100588464D01*
X122099263Y-100604877D01*
X122265202Y-100706182D01*
X123047784Y-99923600D01*
X123154416Y-99923600D01*
X123936998Y-100706182D01*
X124102937Y-100604877D01*
X124216598Y-100396338D01*
X124287390Y-100169631D01*
X124312594Y-99933471D01*
X124291241Y-99696930D01*
X124224152Y-99469100D01*
X124113905Y-99258736D01*
X124102937Y-99242323D01*
X123936998Y-99141018D01*
X123154416Y-99923600D01*
X123047784Y-99923600D01*
X122265202Y-99141018D01*
X122099263Y-99242323D01*
X121985602Y-99450862D01*
X121914810Y-99677569D01*
X121889606Y-99913729D01*
X121716800Y-99913729D01*
X121716800Y-99809773D01*
X121672387Y-99586495D01*
X121585268Y-99376171D01*
X121458791Y-99186884D01*
X121359609Y-99087702D01*
X122318518Y-99087702D01*
X123101100Y-99870284D01*
X123883682Y-99087702D01*
X123782377Y-98921763D01*
X123573838Y-98808102D01*
X123347131Y-98737310D01*
X123110971Y-98712106D01*
X122874430Y-98733459D01*
X122646600Y-98800548D01*
X122436236Y-98910795D01*
X122419823Y-98921763D01*
X122318518Y-99087702D01*
X121359609Y-99087702D01*
X121297816Y-99025909D01*
X121108529Y-98899432D01*
X120898205Y-98812313D01*
X120674927Y-98767900D01*
X120447273Y-98767900D01*
X120223995Y-98812313D01*
X120013671Y-98899432D01*
X119824384Y-99025909D01*
X119663409Y-99186884D01*
X119536932Y-99376171D01*
X119449813Y-99586495D01*
X119405400Y-99809773D01*
X115468400Y-99809773D01*
X115468400Y-97269773D01*
X119405400Y-97269773D01*
X119405400Y-97497427D01*
X119449813Y-97720705D01*
X119536932Y-97931029D01*
X119663409Y-98120316D01*
X119824384Y-98281291D01*
X120013671Y-98407768D01*
X120223995Y-98494887D01*
X120447273Y-98539300D01*
X120674927Y-98539300D01*
X120898205Y-98494887D01*
X121108529Y-98407768D01*
X121297816Y-98281291D01*
X121458791Y-98120316D01*
X121585268Y-97931029D01*
X121672387Y-97720705D01*
X121716800Y-97497427D01*
X121716800Y-97269773D01*
X121945400Y-97269773D01*
X121945400Y-97497427D01*
X121989813Y-97720705D01*
X122076932Y-97931029D01*
X122203409Y-98120316D01*
X122364384Y-98281291D01*
X122553671Y-98407768D01*
X122763995Y-98494887D01*
X122987273Y-98539300D01*
X123214927Y-98539300D01*
X123438205Y-98494887D01*
X123648529Y-98407768D01*
X123837816Y-98281291D01*
X123998791Y-98120316D01*
X124125268Y-97931029D01*
X124212387Y-97720705D01*
X124256800Y-97497427D01*
X124256800Y-97269773D01*
X124212387Y-97046495D01*
X124125268Y-96836171D01*
X123998791Y-96646884D01*
X123837816Y-96485909D01*
X123648529Y-96359432D01*
X123438205Y-96272313D01*
X123214927Y-96227900D01*
X122987273Y-96227900D01*
X122763995Y-96272313D01*
X122553671Y-96359432D01*
X122364384Y-96485909D01*
X122203409Y-96646884D01*
X122076932Y-96836171D01*
X121989813Y-97046495D01*
X121945400Y-97269773D01*
X121716800Y-97269773D01*
X121672387Y-97046495D01*
X121585268Y-96836171D01*
X121458791Y-96646884D01*
X121297816Y-96485909D01*
X121108529Y-96359432D01*
X120898205Y-96272313D01*
X120674927Y-96227900D01*
X120447273Y-96227900D01*
X120223995Y-96272313D01*
X120013671Y-96359432D01*
X119824384Y-96485909D01*
X119663409Y-96646884D01*
X119536932Y-96836171D01*
X119449813Y-97046495D01*
X119405400Y-97269773D01*
X115468400Y-97269773D01*
X115468400Y-95679498D01*
X119778518Y-95679498D01*
X119879823Y-95845437D01*
X120088362Y-95959098D01*
X120315069Y-96029890D01*
X120551229Y-96055094D01*
X120787770Y-96033741D01*
X121015600Y-95966652D01*
X121225964Y-95856405D01*
X121242377Y-95845437D01*
X121343682Y-95679498D01*
X120561100Y-94896916D01*
X119778518Y-95679498D01*
X115468400Y-95679498D01*
X115468400Y-94833729D01*
X119349606Y-94833729D01*
X119370959Y-95070270D01*
X119438048Y-95298100D01*
X119548295Y-95508464D01*
X119559263Y-95524877D01*
X119725202Y-95626182D01*
X120507784Y-94843600D01*
X120614416Y-94843600D01*
X121396998Y-95626182D01*
X121562937Y-95524877D01*
X121676598Y-95316338D01*
X121747390Y-95089631D01*
X121772594Y-94853471D01*
X121761428Y-94729773D01*
X121945400Y-94729773D01*
X121945400Y-94957427D01*
X121989813Y-95180705D01*
X122076932Y-95391029D01*
X122203409Y-95580316D01*
X122364384Y-95741291D01*
X122553671Y-95867768D01*
X122763995Y-95954887D01*
X122987273Y-95999300D01*
X123214927Y-95999300D01*
X123438205Y-95954887D01*
X123648529Y-95867768D01*
X123837816Y-95741291D01*
X123998791Y-95580316D01*
X124125268Y-95391029D01*
X124212387Y-95180705D01*
X124256800Y-94957427D01*
X124256800Y-94729773D01*
X124212387Y-94506495D01*
X124125268Y-94296171D01*
X123998791Y-94106884D01*
X123837816Y-93945909D01*
X123648529Y-93819432D01*
X123438205Y-93732313D01*
X123214927Y-93687900D01*
X122987273Y-93687900D01*
X122763995Y-93732313D01*
X122553671Y-93819432D01*
X122364384Y-93945909D01*
X122203409Y-94106884D01*
X122076932Y-94296171D01*
X121989813Y-94506495D01*
X121945400Y-94729773D01*
X121761428Y-94729773D01*
X121751241Y-94616930D01*
X121684152Y-94389100D01*
X121573905Y-94178736D01*
X121562937Y-94162323D01*
X121396998Y-94061018D01*
X120614416Y-94843600D01*
X120507784Y-94843600D01*
X119725202Y-94061018D01*
X119559263Y-94162323D01*
X119445602Y-94370862D01*
X119374810Y-94597569D01*
X119349606Y-94833729D01*
X115468400Y-94833729D01*
X115468400Y-94007702D01*
X119778518Y-94007702D01*
X120561100Y-94790284D01*
X121343682Y-94007702D01*
X121242377Y-93841763D01*
X121033838Y-93728102D01*
X120807131Y-93657310D01*
X120570971Y-93632106D01*
X120334430Y-93653459D01*
X120106600Y-93720548D01*
X119896236Y-93830795D01*
X119879823Y-93841763D01*
X119778518Y-94007702D01*
X115468400Y-94007702D01*
X115468400Y-92189773D01*
X119405400Y-92189773D01*
X119405400Y-92417427D01*
X119449813Y-92640705D01*
X119536932Y-92851029D01*
X119663409Y-93040316D01*
X119824384Y-93201291D01*
X120013671Y-93327768D01*
X120223995Y-93414887D01*
X120447273Y-93459300D01*
X120674927Y-93459300D01*
X120898205Y-93414887D01*
X121108529Y-93327768D01*
X121297816Y-93201291D01*
X121458791Y-93040316D01*
X121585268Y-92851029D01*
X121672387Y-92640705D01*
X121716800Y-92417427D01*
X121716800Y-92189773D01*
X121945400Y-92189773D01*
X121945400Y-92417427D01*
X121989813Y-92640705D01*
X122076932Y-92851029D01*
X122203409Y-93040316D01*
X122364384Y-93201291D01*
X122553671Y-93327768D01*
X122763995Y-93414887D01*
X122987273Y-93459300D01*
X123214927Y-93459300D01*
X123438205Y-93414887D01*
X123648529Y-93327768D01*
X123837816Y-93201291D01*
X123998791Y-93040316D01*
X124125268Y-92851029D01*
X124212387Y-92640705D01*
X124256800Y-92417427D01*
X124256800Y-92189773D01*
X124212387Y-91966495D01*
X124125268Y-91756171D01*
X123998791Y-91566884D01*
X123837816Y-91405909D01*
X123648529Y-91279432D01*
X123438205Y-91192313D01*
X123214927Y-91147900D01*
X122987273Y-91147900D01*
X122763995Y-91192313D01*
X122553671Y-91279432D01*
X122364384Y-91405909D01*
X122203409Y-91566884D01*
X122076932Y-91756171D01*
X121989813Y-91966495D01*
X121945400Y-92189773D01*
X121716800Y-92189773D01*
X121672387Y-91966495D01*
X121585268Y-91756171D01*
X121458791Y-91566884D01*
X121297816Y-91405909D01*
X121108529Y-91279432D01*
X120898205Y-91192313D01*
X120674927Y-91147900D01*
X120447273Y-91147900D01*
X120223995Y-91192313D01*
X120013671Y-91279432D01*
X119824384Y-91405909D01*
X119663409Y-91566884D01*
X119536932Y-91756171D01*
X119449813Y-91966495D01*
X119405400Y-92189773D01*
X115468400Y-92189773D01*
X115468400Y-89649773D01*
X119405400Y-89649773D01*
X119405400Y-89877427D01*
X119449813Y-90100705D01*
X119536932Y-90311029D01*
X119663409Y-90500316D01*
X119824384Y-90661291D01*
X120013671Y-90787768D01*
X120223995Y-90874887D01*
X120447273Y-90919300D01*
X120674927Y-90919300D01*
X120898205Y-90874887D01*
X121108529Y-90787768D01*
X121297816Y-90661291D01*
X121458791Y-90500316D01*
X121585268Y-90311029D01*
X121672387Y-90100705D01*
X121716800Y-89877427D01*
X121716800Y-89649773D01*
X121945400Y-89649773D01*
X121945400Y-89877427D01*
X121989813Y-90100705D01*
X122076932Y-90311029D01*
X122203409Y-90500316D01*
X122364384Y-90661291D01*
X122553671Y-90787768D01*
X122763995Y-90874887D01*
X122987273Y-90919300D01*
X123214927Y-90919300D01*
X123438205Y-90874887D01*
X123648529Y-90787768D01*
X123837816Y-90661291D01*
X123998791Y-90500316D01*
X124125268Y-90311029D01*
X124212387Y-90100705D01*
X124256800Y-89877427D01*
X124256800Y-89649773D01*
X124212387Y-89426495D01*
X124125268Y-89216171D01*
X123998791Y-89026884D01*
X123837816Y-88865909D01*
X123648529Y-88739432D01*
X123438205Y-88652313D01*
X123214927Y-88607900D01*
X122987273Y-88607900D01*
X122763995Y-88652313D01*
X122553671Y-88739432D01*
X122364384Y-88865909D01*
X122203409Y-89026884D01*
X122076932Y-89216171D01*
X121989813Y-89426495D01*
X121945400Y-89649773D01*
X121716800Y-89649773D01*
X121672387Y-89426495D01*
X121585268Y-89216171D01*
X121458791Y-89026884D01*
X121297816Y-88865909D01*
X121108529Y-88739432D01*
X120898205Y-88652313D01*
X120674927Y-88607900D01*
X120447273Y-88607900D01*
X120223995Y-88652313D01*
X120013671Y-88739432D01*
X119824384Y-88865909D01*
X119663409Y-89026884D01*
X119536932Y-89216171D01*
X119449813Y-89426495D01*
X119405400Y-89649773D01*
X115468400Y-89649773D01*
X115468400Y-79605353D01*
X117075200Y-79605353D01*
X117075200Y-80041847D01*
X117160356Y-80469954D01*
X117327395Y-80873222D01*
X117569898Y-81236154D01*
X117878546Y-81544802D01*
X118241478Y-81787305D01*
X118644746Y-81954344D01*
X119072853Y-82039500D01*
X119509347Y-82039500D01*
X119937454Y-81954344D01*
X120340722Y-81787305D01*
X120703654Y-81544802D01*
X121012302Y-81236154D01*
X121254805Y-80873222D01*
X121421844Y-80469954D01*
X121507000Y-80041847D01*
X121507000Y-79605353D01*
X121421844Y-79177246D01*
X121366487Y-79043600D01*
X136564156Y-79043600D01*
X136564156Y-80163600D01*
X136568325Y-80205924D01*
X136580670Y-80246621D01*
X136600718Y-80284128D01*
X136627697Y-80317003D01*
X136660572Y-80343982D01*
X136698079Y-80364030D01*
X136738776Y-80376375D01*
X136781100Y-80380544D01*
X137901100Y-80380544D01*
X137943424Y-80376375D01*
X137984121Y-80364030D01*
X138021628Y-80343982D01*
X138054503Y-80317003D01*
X138081482Y-80284128D01*
X138101530Y-80246621D01*
X138113875Y-80205924D01*
X138117470Y-80169420D01*
X138828596Y-80169420D01*
X138884303Y-80296466D01*
X139028251Y-80372270D01*
X139184223Y-80418533D01*
X139346223Y-80433480D01*
X139508026Y-80416535D01*
X139663414Y-80368348D01*
X139797897Y-80296466D01*
X139853604Y-80169420D01*
X139341100Y-79656916D01*
X138828596Y-80169420D01*
X138117470Y-80169420D01*
X138118044Y-80163600D01*
X138118044Y-79608723D01*
X138511220Y-79608723D01*
X138528165Y-79770526D01*
X138576352Y-79925914D01*
X138648234Y-80060397D01*
X138775280Y-80116104D01*
X139287784Y-79603600D01*
X139394416Y-79603600D01*
X139906920Y-80116104D01*
X140033966Y-80060397D01*
X140109770Y-79916449D01*
X140156033Y-79760477D01*
X140170980Y-79598477D01*
X140154035Y-79436674D01*
X140105848Y-79281286D01*
X140046055Y-79169420D01*
X147988596Y-79169420D01*
X148044303Y-79296466D01*
X148188251Y-79372270D01*
X148344223Y-79418533D01*
X148506223Y-79433480D01*
X148668026Y-79416535D01*
X148823414Y-79368348D01*
X148957897Y-79296466D01*
X149013604Y-79169420D01*
X148501100Y-78656916D01*
X147988596Y-79169420D01*
X140046055Y-79169420D01*
X140033966Y-79146803D01*
X139906920Y-79091096D01*
X139394416Y-79603600D01*
X139287784Y-79603600D01*
X138775280Y-79091096D01*
X138648234Y-79146803D01*
X138572430Y-79290751D01*
X138526167Y-79446723D01*
X138511220Y-79608723D01*
X138118044Y-79608723D01*
X138118044Y-79043600D01*
X138117471Y-79037780D01*
X138828596Y-79037780D01*
X139341100Y-79550284D01*
X139853604Y-79037780D01*
X139797897Y-78910734D01*
X139653949Y-78834930D01*
X139497977Y-78788667D01*
X139335977Y-78773720D01*
X139174174Y-78790665D01*
X139018786Y-78838852D01*
X138884303Y-78910734D01*
X138828596Y-79037780D01*
X138117471Y-79037780D01*
X138113875Y-79001276D01*
X138101530Y-78960579D01*
X138081482Y-78923072D01*
X138054503Y-78890197D01*
X138021628Y-78863218D01*
X137984121Y-78843170D01*
X137943424Y-78830825D01*
X137901100Y-78826656D01*
X136781100Y-78826656D01*
X136738776Y-78830825D01*
X136698079Y-78843170D01*
X136660572Y-78863218D01*
X136627697Y-78890197D01*
X136600718Y-78923072D01*
X136580670Y-78960579D01*
X136568325Y-79001276D01*
X136564156Y-79043600D01*
X121366487Y-79043600D01*
X121254805Y-78773978D01*
X121144386Y-78608723D01*
X147671220Y-78608723D01*
X147688165Y-78770526D01*
X147736352Y-78925914D01*
X147808234Y-79060397D01*
X147935280Y-79116104D01*
X148447784Y-78603600D01*
X148554416Y-78603600D01*
X149066920Y-79116104D01*
X149193966Y-79060397D01*
X149269770Y-78916449D01*
X149316033Y-78760477D01*
X149330980Y-78598477D01*
X149314035Y-78436674D01*
X149300792Y-78393968D01*
X159365248Y-78393968D01*
X159429964Y-78528695D01*
X159586670Y-78611976D01*
X159756613Y-78663085D01*
X159933262Y-78680057D01*
X160109827Y-78662242D01*
X160279524Y-78610322D01*
X160432236Y-78528695D01*
X160496952Y-78393968D01*
X159931100Y-77828116D01*
X159365248Y-78393968D01*
X149300792Y-78393968D01*
X149265848Y-78281286D01*
X149193966Y-78146803D01*
X149066920Y-78091096D01*
X148554416Y-78603600D01*
X148447784Y-78603600D01*
X147935280Y-78091096D01*
X147808234Y-78146803D01*
X147732430Y-78290751D01*
X147686167Y-78446723D01*
X147671220Y-78608723D01*
X121144386Y-78608723D01*
X121012302Y-78411046D01*
X120703654Y-78102398D01*
X120606947Y-78037780D01*
X147988596Y-78037780D01*
X148501100Y-78550284D01*
X149013604Y-78037780D01*
X148957897Y-77910734D01*
X148813949Y-77834930D01*
X148657977Y-77788667D01*
X148531115Y-77776962D01*
X159025843Y-77776962D01*
X159043658Y-77953527D01*
X159095578Y-78123224D01*
X159177205Y-78275936D01*
X159311932Y-78340652D01*
X159877784Y-77774800D01*
X159984416Y-77774800D01*
X160550268Y-78340652D01*
X160684995Y-78275936D01*
X160768276Y-78119230D01*
X160819385Y-77949287D01*
X160836357Y-77772638D01*
X160818542Y-77596073D01*
X160766622Y-77426376D01*
X160684995Y-77273664D01*
X160550268Y-77208948D01*
X159984416Y-77774800D01*
X159877784Y-77774800D01*
X159311932Y-77208948D01*
X159177205Y-77273664D01*
X159093924Y-77430370D01*
X159042815Y-77600313D01*
X159025843Y-77776962D01*
X148531115Y-77776962D01*
X148495977Y-77773720D01*
X148334174Y-77790665D01*
X148178786Y-77838852D01*
X148044303Y-77910734D01*
X147988596Y-78037780D01*
X120606947Y-78037780D01*
X120340722Y-77859895D01*
X119937454Y-77692856D01*
X119509347Y-77607700D01*
X119072853Y-77607700D01*
X118644746Y-77692856D01*
X118241478Y-77859895D01*
X117878546Y-78102398D01*
X117569898Y-78411046D01*
X117327395Y-78773978D01*
X117160356Y-79177246D01*
X117075200Y-79605353D01*
X115468400Y-79605353D01*
X115468400Y-77490104D01*
X121007912Y-77490104D01*
X121092439Y-77641725D01*
X121277206Y-77741454D01*
X121477880Y-77803219D01*
X121686747Y-77824648D01*
X121895782Y-77804916D01*
X122096951Y-77744784D01*
X122282523Y-77646561D01*
X122289761Y-77641725D01*
X122374288Y-77490104D01*
X121691100Y-76806916D01*
X121007912Y-77490104D01*
X115468400Y-77490104D01*
X115468400Y-76749247D01*
X120620052Y-76749247D01*
X120639784Y-76958282D01*
X120699916Y-77159451D01*
X120798139Y-77345023D01*
X120802975Y-77352261D01*
X120954596Y-77436788D01*
X121637784Y-76753600D01*
X121744416Y-76753600D01*
X122427604Y-77436788D01*
X122579225Y-77352261D01*
X122678954Y-77167494D01*
X122740719Y-76966820D01*
X122762148Y-76757953D01*
X122742416Y-76548918D01*
X122682284Y-76347749D01*
X122584061Y-76162177D01*
X122579225Y-76154939D01*
X122427604Y-76070412D01*
X121744416Y-76753600D01*
X121637784Y-76753600D01*
X120954596Y-76070412D01*
X120802975Y-76154939D01*
X120703246Y-76339706D01*
X120641481Y-76540380D01*
X120620052Y-76749247D01*
X115468400Y-76749247D01*
X115468400Y-76017096D01*
X121007912Y-76017096D01*
X121691100Y-76700284D01*
X122374288Y-76017096D01*
X122289761Y-75865475D01*
X122104994Y-75765746D01*
X121904320Y-75703981D01*
X121695453Y-75682552D01*
X121486418Y-75702284D01*
X121285249Y-75762416D01*
X121099677Y-75860639D01*
X121092439Y-75865475D01*
X121007912Y-76017096D01*
X115468400Y-76017096D01*
X115468400Y-75507759D01*
X127326260Y-75507759D01*
X127326260Y-75845761D01*
X127392201Y-76177270D01*
X127521549Y-76489544D01*
X127709333Y-76770583D01*
X127948337Y-77009587D01*
X128229376Y-77197371D01*
X128541650Y-77326719D01*
X128873159Y-77392660D01*
X129211161Y-77392660D01*
X129542670Y-77326719D01*
X129854944Y-77197371D01*
X129917410Y-77155632D01*
X159365248Y-77155632D01*
X159931100Y-77721484D01*
X160496952Y-77155632D01*
X160432236Y-77020905D01*
X160275530Y-76937624D01*
X160105587Y-76886515D01*
X159928938Y-76869543D01*
X159752373Y-76887358D01*
X159582676Y-76939278D01*
X159429964Y-77020905D01*
X159365248Y-77155632D01*
X129917410Y-77155632D01*
X130135983Y-77009587D01*
X130374987Y-76770583D01*
X130562771Y-76489544D01*
X130692119Y-76177270D01*
X130758060Y-75845761D01*
X130758060Y-75507759D01*
X130692119Y-75176250D01*
X130562771Y-74863976D01*
X130374987Y-74582937D01*
X130135983Y-74343933D01*
X129854944Y-74156149D01*
X129542670Y-74026801D01*
X129211161Y-73960860D01*
X128873159Y-73960860D01*
X128541650Y-74026801D01*
X128229376Y-74156149D01*
X127948337Y-74343933D01*
X127709333Y-74582937D01*
X127521549Y-74863976D01*
X127392201Y-75176250D01*
X127326260Y-75507759D01*
X115468400Y-75507759D01*
X115468400Y-72153543D01*
X120675200Y-72153543D01*
X120675200Y-72353657D01*
X120714240Y-72549927D01*
X120790821Y-72734809D01*
X120901999Y-72901199D01*
X121043501Y-73042701D01*
X121209891Y-73153879D01*
X121394773Y-73230460D01*
X121511107Y-73253600D01*
X121394773Y-73276740D01*
X121209891Y-73353321D01*
X121043501Y-73464499D01*
X120901999Y-73606001D01*
X120790821Y-73772391D01*
X120714240Y-73957273D01*
X120675200Y-74153543D01*
X120675200Y-74353657D01*
X120714240Y-74549927D01*
X120790821Y-74734809D01*
X120901999Y-74901199D01*
X121043501Y-75042701D01*
X121209891Y-75153879D01*
X121394773Y-75230460D01*
X121591043Y-75269500D01*
X121791157Y-75269500D01*
X121987427Y-75230460D01*
X122172309Y-75153879D01*
X122338699Y-75042701D01*
X122480201Y-74901199D01*
X122591379Y-74734809D01*
X122667960Y-74549927D01*
X122707000Y-74353657D01*
X122707000Y-74153543D01*
X122667960Y-73957273D01*
X122591379Y-73772391D01*
X122480201Y-73606001D01*
X122338699Y-73464499D01*
X122172309Y-73353321D01*
X121987427Y-73276740D01*
X121871093Y-73253600D01*
X121987427Y-73230460D01*
X122172309Y-73153879D01*
X122338699Y-73042701D01*
X122480201Y-72901199D01*
X122591379Y-72734809D01*
X122667960Y-72549927D01*
X122707000Y-72353657D01*
X122707000Y-72153543D01*
X122667960Y-71957273D01*
X122591379Y-71772391D01*
X122480201Y-71606001D01*
X122338699Y-71464499D01*
X122172309Y-71353321D01*
X121987427Y-71276740D01*
X121791157Y-71237700D01*
X121591043Y-71237700D01*
X121394773Y-71276740D01*
X121209891Y-71353321D01*
X121043501Y-71464499D01*
X120901999Y-71606001D01*
X120790821Y-71772391D01*
X120714240Y-71957273D01*
X120675200Y-72153543D01*
X115468400Y-72153543D01*
X115468400Y-69653543D01*
X120675200Y-69653543D01*
X120675200Y-69853657D01*
X120714240Y-70049927D01*
X120790821Y-70234809D01*
X120901999Y-70401199D01*
X121043501Y-70542701D01*
X121209891Y-70653879D01*
X121394773Y-70730460D01*
X121591043Y-70769500D01*
X121791157Y-70769500D01*
X121987427Y-70730460D01*
X122172309Y-70653879D01*
X122338699Y-70542701D01*
X122480201Y-70401199D01*
X122572141Y-70263600D01*
X141163913Y-70263600D01*
X141169047Y-70315726D01*
X141184251Y-70365848D01*
X141208942Y-70412041D01*
X141242170Y-70452530D01*
X141282659Y-70485758D01*
X141328852Y-70510449D01*
X141378974Y-70525653D01*
X141431100Y-70530787D01*
X142326925Y-70529500D01*
X142393400Y-70463025D01*
X142393400Y-68051300D01*
X142468800Y-68051300D01*
X142468800Y-70463025D01*
X142535275Y-70529500D01*
X143431100Y-70530787D01*
X143483226Y-70525653D01*
X143533348Y-70510449D01*
X143579541Y-70485758D01*
X143620030Y-70452530D01*
X143653258Y-70412041D01*
X143677949Y-70365848D01*
X143693153Y-70315726D01*
X143698287Y-70263600D01*
X143698078Y-69913600D01*
X144764156Y-69913600D01*
X144764156Y-71913600D01*
X144768325Y-71955924D01*
X144780670Y-71996621D01*
X144800718Y-72034128D01*
X144827697Y-72067003D01*
X144860572Y-72093982D01*
X144898079Y-72114030D01*
X144938776Y-72126375D01*
X144981100Y-72130544D01*
X149481100Y-72130544D01*
X149523424Y-72126375D01*
X149564121Y-72114030D01*
X149601628Y-72093982D01*
X149634503Y-72067003D01*
X149661482Y-72034128D01*
X149681530Y-71996621D01*
X149693875Y-71955924D01*
X149698044Y-71913600D01*
X149698044Y-69913600D01*
X149693875Y-69871276D01*
X149681530Y-69830579D01*
X149661482Y-69793072D01*
X149634503Y-69760197D01*
X149601628Y-69733218D01*
X149564121Y-69713170D01*
X149523424Y-69700825D01*
X149481100Y-69696656D01*
X144981100Y-69696656D01*
X144938776Y-69700825D01*
X144898079Y-69713170D01*
X144860572Y-69733218D01*
X144827697Y-69760197D01*
X144800718Y-69793072D01*
X144780670Y-69830579D01*
X144768325Y-69871276D01*
X144764156Y-69913600D01*
X143698078Y-69913600D01*
X143697000Y-68117775D01*
X143630525Y-68051300D01*
X142468800Y-68051300D01*
X142393400Y-68051300D01*
X141231675Y-68051300D01*
X141165200Y-68117775D01*
X141163913Y-70263600D01*
X122572141Y-70263600D01*
X122591379Y-70234809D01*
X122667960Y-70049927D01*
X122707000Y-69853657D01*
X122707000Y-69653543D01*
X122667960Y-69457273D01*
X122591379Y-69272391D01*
X122480201Y-69106001D01*
X122338699Y-68964499D01*
X122172309Y-68853321D01*
X121987427Y-68776740D01*
X121791157Y-68737700D01*
X121591043Y-68737700D01*
X121394773Y-68776740D01*
X121209891Y-68853321D01*
X121043501Y-68964499D01*
X120901999Y-69106001D01*
X120790821Y-69272391D01*
X120714240Y-69457273D01*
X120675200Y-69653543D01*
X115468400Y-69653543D01*
X115468400Y-66465353D01*
X117075200Y-66465353D01*
X117075200Y-66901847D01*
X117160356Y-67329954D01*
X117327395Y-67733222D01*
X117569898Y-68096154D01*
X117878546Y-68404802D01*
X118241478Y-68647305D01*
X118644746Y-68814344D01*
X119072853Y-68899500D01*
X119509347Y-68899500D01*
X119937454Y-68814344D01*
X120340722Y-68647305D01*
X120703654Y-68404802D01*
X121012302Y-68096154D01*
X121254805Y-67733222D01*
X121421844Y-67329954D01*
X121507000Y-66901847D01*
X121507000Y-66465353D01*
X121421844Y-66037246D01*
X121308497Y-65763600D01*
X141163913Y-65763600D01*
X141165200Y-67909425D01*
X141231675Y-67975900D01*
X142393400Y-67975900D01*
X142393400Y-65564175D01*
X142468800Y-65564175D01*
X142468800Y-67975900D01*
X143630525Y-67975900D01*
X143697000Y-67909425D01*
X143698287Y-65763600D01*
X143693153Y-65711474D01*
X143677949Y-65661352D01*
X143653258Y-65615159D01*
X143651979Y-65613600D01*
X144713913Y-65613600D01*
X144719047Y-65665726D01*
X144734251Y-65715848D01*
X144758942Y-65762041D01*
X144792170Y-65802530D01*
X144832659Y-65835758D01*
X144878852Y-65860449D01*
X144928974Y-65875653D01*
X144981100Y-65880787D01*
X147126925Y-65879500D01*
X147193400Y-65813025D01*
X147193400Y-64651300D01*
X147268800Y-64651300D01*
X147268800Y-65813025D01*
X147335275Y-65879500D01*
X149481100Y-65880787D01*
X149533226Y-65875653D01*
X149583348Y-65860449D01*
X149629541Y-65835758D01*
X149670030Y-65802530D01*
X149703258Y-65762041D01*
X149727949Y-65715848D01*
X149743153Y-65665726D01*
X149748287Y-65613600D01*
X149747000Y-64717775D01*
X149680525Y-64651300D01*
X147268800Y-64651300D01*
X147193400Y-64651300D01*
X144781675Y-64651300D01*
X144715200Y-64717775D01*
X144713913Y-65613600D01*
X143651979Y-65613600D01*
X143620030Y-65574670D01*
X143579541Y-65541442D01*
X143533348Y-65516751D01*
X143483226Y-65501547D01*
X143431100Y-65496413D01*
X142535275Y-65497700D01*
X142468800Y-65564175D01*
X142393400Y-65564175D01*
X142326925Y-65497700D01*
X141431100Y-65496413D01*
X141378974Y-65501547D01*
X141328852Y-65516751D01*
X141282659Y-65541442D01*
X141242170Y-65574670D01*
X141208942Y-65615159D01*
X141184251Y-65661352D01*
X141169047Y-65711474D01*
X141163913Y-65763600D01*
X121308497Y-65763600D01*
X121254805Y-65633978D01*
X121012302Y-65271046D01*
X120703654Y-64962398D01*
X120340722Y-64719895D01*
X119937454Y-64552856D01*
X119509347Y-64467700D01*
X119072853Y-64467700D01*
X118644746Y-64552856D01*
X118241478Y-64719895D01*
X117878546Y-64962398D01*
X117569898Y-65271046D01*
X117327395Y-65633978D01*
X117160356Y-66037246D01*
X117075200Y-66465353D01*
X115468400Y-66465353D01*
X115468400Y-63613600D01*
X144713913Y-63613600D01*
X144715200Y-64509425D01*
X144781675Y-64575900D01*
X147193400Y-64575900D01*
X147193400Y-63414175D01*
X147268800Y-63414175D01*
X147268800Y-64575900D01*
X149680525Y-64575900D01*
X149747000Y-64509425D01*
X149748287Y-63613600D01*
X149743153Y-63561474D01*
X149727949Y-63511352D01*
X149703258Y-63465159D01*
X149670030Y-63424670D01*
X149629541Y-63391442D01*
X149583348Y-63366751D01*
X149533226Y-63351547D01*
X149481100Y-63346413D01*
X147335275Y-63347700D01*
X147268800Y-63414175D01*
X147193400Y-63414175D01*
X147126925Y-63347700D01*
X144981100Y-63346413D01*
X144928974Y-63351547D01*
X144878852Y-63366751D01*
X144832659Y-63391442D01*
X144792170Y-63424670D01*
X144758942Y-63465159D01*
X144734251Y-63511352D01*
X144719047Y-63561474D01*
X144713913Y-63613600D01*
X115468400Y-63613600D01*
X115468400Y-61861701D01*
X176453800Y-61861701D01*
X176453800Y-71832376D01*
G37*
G04 #@! TD.AperFunction*
M02*
