G04 #@! TF.GenerationSoftware,KiCad,Pcbnew,(5.1.10)-1*
G04 #@! TF.CreationDate,2021-12-02T21:28:18-06:00*
G04 #@! TF.ProjectId,Kitty_Cannon_Schematic,4b697474-795f-4436-916e-6e6f6e5f5363,rev?*
G04 #@! TF.SameCoordinates,Original*
G04 #@! TF.FileFunction,Soldermask,Bot*
G04 #@! TF.FilePolarity,Negative*
%FSLAX46Y46*%
G04 Gerber Fmt 4.6, Leading zero omitted, Abs format (unit mm)*
G04 Created by KiCad (PCBNEW (5.1.10)-1) date 2021-12-02 21:28:18*
%MOMM*%
%LPD*%
G01*
G04 APERTURE LIST*
%ADD10R,4.500000X2.000000*%
%ADD11R,2.000000X4.500000*%
%ADD12C,3.000000*%
%ADD13C,2.453200*%
%ADD14C,2.235200*%
%ADD15C,1.323200*%
%ADD16C,1.524000*%
%ADD17C,3.302000*%
%ADD18O,1.879600X3.556000*%
%ADD19C,4.203200*%
%ADD20C,1.803200*%
%ADD21C,1.473200*%
%ADD22O,1.473200X2.743200*%
%ADD23C,2.082800*%
G04 APERTURE END LIST*
D10*
X147231100Y-64613600D03*
D11*
X142431100Y-68013600D03*
D10*
X147231100Y-70913600D03*
X135801100Y-145393600D03*
D11*
X140601100Y-141993600D03*
D10*
X135801100Y-139093600D03*
X152311100Y-145393600D03*
D11*
X157111100Y-141993600D03*
D10*
X152311100Y-139093600D03*
D12*
X170362880Y-139918440D03*
X172262800Y-91008200D03*
X129042160Y-75676760D03*
G36*
G01*
X151084500Y-128988600D02*
X151084500Y-126738600D01*
G75*
G02*
X151186100Y-126637000I101600J0D01*
G01*
X153436100Y-126637000D01*
G75*
G02*
X153537700Y-126738600I0J-101600D01*
G01*
X153537700Y-128988600D01*
G75*
G02*
X153436100Y-129090200I-101600J0D01*
G01*
X151186100Y-129090200D01*
G75*
G02*
X151084500Y-128988600I0J101600D01*
G01*
G37*
D13*
X167551100Y-127863600D03*
D14*
X171894500Y-110083600D03*
X148501100Y-110083600D03*
D15*
X148501100Y-78603600D03*
G36*
G01*
X149061101Y-81265200D02*
X147941099Y-81265200D01*
G75*
G02*
X147839500Y-81163601I0J101599D01*
G01*
X147839500Y-80043599D01*
G75*
G02*
X147941099Y-79942000I101599J0D01*
G01*
X149061101Y-79942000D01*
G75*
G02*
X149162700Y-80043599I0J-101599D01*
G01*
X149162700Y-81163601D01*
G75*
G02*
X149061101Y-81265200I-101599J0D01*
G01*
G37*
X139341100Y-79603600D03*
G36*
G01*
X136679500Y-80163601D02*
X136679500Y-79043599D01*
G75*
G02*
X136781099Y-78942000I101599J0D01*
G01*
X137901101Y-78942000D01*
G75*
G02*
X138002700Y-79043599I0J-101599D01*
G01*
X138002700Y-80163601D01*
G75*
G02*
X137901101Y-80265200I-101599J0D01*
G01*
X136781099Y-80265200D01*
G75*
G02*
X136679500Y-80163601I0J101599D01*
G01*
G37*
D16*
X133261100Y-132943600D03*
X133261100Y-127863600D03*
X129451100Y-132943600D03*
X129451100Y-127863600D03*
D17*
X139611100Y-106527600D03*
D18*
X142151100Y-124053600D03*
X139611100Y-124053600D03*
X137071100Y-124053600D03*
G36*
G01*
X181721980Y-120019860D02*
X183971980Y-120019860D01*
G75*
G02*
X184073580Y-120121460I0J-101600D01*
G01*
X184073580Y-122371460D01*
G75*
G02*
X183971980Y-122473060I-101600J0D01*
G01*
X181721980Y-122473060D01*
G75*
G02*
X181620380Y-122371460I0J101600D01*
G01*
X181620380Y-120121460D01*
G75*
G02*
X181721980Y-120019860I101600J0D01*
G01*
G37*
G36*
G01*
X181721980Y-128219860D02*
X183971980Y-128219860D01*
G75*
G02*
X184073580Y-128321460I0J-101600D01*
G01*
X184073580Y-130571460D01*
G75*
G02*
X183971980Y-130673060I-101600J0D01*
G01*
X181721980Y-130673060D01*
G75*
G02*
X181620380Y-130571460I0J101600D01*
G01*
X181620380Y-128321460D01*
G75*
G02*
X181721980Y-128219860I101600J0D01*
G01*
G37*
G36*
G01*
X182192980Y-126590860D02*
X183500980Y-126590860D01*
G75*
G02*
X183602580Y-126692460I0J-101600D01*
G01*
X183602580Y-128000460D01*
G75*
G02*
X183500980Y-128102060I-101600J0D01*
G01*
X182192980Y-128102060D01*
G75*
G02*
X182091380Y-128000460I0J101600D01*
G01*
X182091380Y-126692460D01*
G75*
G02*
X182192980Y-126590860I101600J0D01*
G01*
G37*
G36*
G01*
X182192980Y-122590860D02*
X183500980Y-122590860D01*
G75*
G02*
X183602580Y-122692460I0J-101600D01*
G01*
X183602580Y-124000460D01*
G75*
G02*
X183500980Y-124102060I-101600J0D01*
G01*
X182192980Y-124102060D01*
G75*
G02*
X182091380Y-124000460I0J101600D01*
G01*
X182091380Y-122692460D01*
G75*
G02*
X182192980Y-122590860I101600J0D01*
G01*
G37*
G36*
G01*
X182192980Y-124590860D02*
X183500980Y-124590860D01*
G75*
G02*
X183602580Y-124692460I0J-101600D01*
G01*
X183602580Y-126000460D01*
G75*
G02*
X183500980Y-126102060I-101600J0D01*
G01*
X182192980Y-126102060D01*
G75*
G02*
X182091380Y-126000460I0J101600D01*
G01*
X182091380Y-124692460D01*
G75*
G02*
X182192980Y-124590860I101600J0D01*
G01*
G37*
D19*
X119291100Y-79823600D03*
X119291100Y-66683600D03*
D20*
X121691100Y-76753600D03*
X121691100Y-74253600D03*
X121691100Y-72253600D03*
X121691100Y-69753600D03*
D21*
X159931100Y-77774800D03*
G36*
G01*
X160566100Y-93040200D02*
X159296100Y-93040200D01*
G75*
G02*
X159194500Y-92938600I0J101600D01*
G01*
X159194500Y-91668600D01*
G75*
G02*
X159296100Y-91567000I101600J0D01*
G01*
X160566100Y-91567000D01*
G75*
G02*
X160667700Y-91668600I0J-101600D01*
G01*
X160667700Y-92938600D01*
G75*
G02*
X160566100Y-93040200I-101600J0D01*
G01*
G37*
D22*
X145917920Y-92339160D03*
X143865600Y-92313760D03*
X141745100Y-92303600D03*
X139512040Y-92344240D03*
X137320020Y-92293440D03*
D23*
X120561100Y-138023600D03*
X123101100Y-138023600D03*
X120561100Y-135483600D03*
X123101100Y-135483600D03*
X120561100Y-132943600D03*
X123101100Y-132943600D03*
X120561100Y-130403600D03*
X123101100Y-130403600D03*
X120561100Y-127863600D03*
X123101100Y-127863600D03*
X120561100Y-125323600D03*
X123101100Y-125323600D03*
X120561100Y-122783600D03*
X123101100Y-122783600D03*
X120561100Y-120243600D03*
X123101100Y-120243600D03*
X120561100Y-117703600D03*
X123101100Y-117703600D03*
X120561100Y-115163600D03*
X123101100Y-115163600D03*
X120561100Y-112623600D03*
X123101100Y-112623600D03*
X120561100Y-110083600D03*
X123101100Y-110083600D03*
X120561100Y-107543600D03*
X123101100Y-107543600D03*
X120561100Y-105003600D03*
X123101100Y-105003600D03*
X120561100Y-102463600D03*
X123101100Y-102463600D03*
X120561100Y-99923600D03*
X123101100Y-99923600D03*
X120561100Y-97383600D03*
X123101100Y-97383600D03*
X120561100Y-94843600D03*
X123101100Y-94843600D03*
X120561100Y-92303600D03*
X123101100Y-92303600D03*
X120561100Y-89763600D03*
X123101100Y-89763600D03*
G36*
G01*
X175575240Y-72049320D02*
X181325240Y-72049320D01*
G75*
G02*
X181950240Y-72674320I0J-625000D01*
G01*
X181950240Y-73924320D01*
G75*
G02*
X181325240Y-74549320I-625000J0D01*
G01*
X175575240Y-74549320D01*
G75*
G02*
X174950240Y-73924320I0J625000D01*
G01*
X174950240Y-72674320D01*
G75*
G02*
X175575240Y-72049320I625000J0D01*
G01*
G37*
G36*
G01*
X175575240Y-79149320D02*
X181325240Y-79149320D01*
G75*
G02*
X181950240Y-79774320I0J-625000D01*
G01*
X181950240Y-81024320D01*
G75*
G02*
X181325240Y-81649320I-625000J0D01*
G01*
X175575240Y-81649320D01*
G75*
G02*
X174950240Y-81024320I0J625000D01*
G01*
X174950240Y-79774320D01*
G75*
G02*
X175575240Y-79149320I625000J0D01*
G01*
G37*
M02*
