G04 #@! TF.GenerationSoftware,KiCad,Pcbnew,(5.1.10)-1*
G04 #@! TF.CreationDate,2021-12-02T21:28:18-06:00*
G04 #@! TF.ProjectId,Kitty_Cannon_Schematic,4b697474-795f-4436-916e-6e6f6e5f5363,rev?*
G04 #@! TF.SameCoordinates,Original*
G04 #@! TF.FileFunction,Copper,L1,Top*
G04 #@! TF.FilePolarity,Positive*
%FSLAX46Y46*%
G04 Gerber Fmt 4.6, Leading zero omitted, Abs format (unit mm)*
G04 Created by KiCad (PCBNEW (5.1.10)-1) date 2021-12-02 21:28:18*
%MOMM*%
%LPD*%
G01*
G04 APERTURE LIST*
G04 #@! TA.AperFunction,NonConductor*
%ADD10C,0.203200*%
G04 #@! TD*
G04 #@! TA.AperFunction,NonConductor*
%ADD11C,0.142240*%
G04 #@! TD*
G04 #@! TA.AperFunction,ComponentPad*
%ADD12R,4.500000X2.000000*%
G04 #@! TD*
G04 #@! TA.AperFunction,ComponentPad*
%ADD13R,2.000000X4.500000*%
G04 #@! TD*
G04 #@! TA.AperFunction,ComponentPad*
%ADD14R,2.250000X2.250000*%
G04 #@! TD*
G04 #@! TA.AperFunction,ComponentPad*
%ADD15C,2.250000*%
G04 #@! TD*
G04 #@! TA.AperFunction,ComponentPad*
%ADD16C,2.032000*%
G04 #@! TD*
G04 #@! TA.AperFunction,ComponentPad*
%ADD17C,1.120000*%
G04 #@! TD*
G04 #@! TA.AperFunction,ComponentPad*
%ADD18R,1.120000X1.120000*%
G04 #@! TD*
G04 #@! TA.AperFunction,ComponentPad*
%ADD19C,1.320800*%
G04 #@! TD*
G04 #@! TA.AperFunction,ComponentPad*
%ADD20O,1.676400X3.352800*%
G04 #@! TD*
G04 #@! TA.AperFunction,ComponentPad*
%ADD21R,1.308000X1.308000*%
G04 #@! TD*
G04 #@! TA.AperFunction,ComponentPad*
%ADD22C,4.000000*%
G04 #@! TD*
G04 #@! TA.AperFunction,ComponentPad*
%ADD23C,1.600000*%
G04 #@! TD*
G04 #@! TA.AperFunction,ComponentPad*
%ADD24C,1.270000*%
G04 #@! TD*
G04 #@! TA.AperFunction,ComponentPad*
%ADD25R,1.270000X1.270000*%
G04 #@! TD*
G04 #@! TA.AperFunction,ComponentPad*
%ADD26O,1.270000X2.540000*%
G04 #@! TD*
G04 #@! TA.AperFunction,ComponentPad*
%ADD27C,1.879600*%
G04 #@! TD*
G04 #@! TA.AperFunction,ViaPad*
%ADD28C,1.524000*%
G04 #@! TD*
G04 #@! TA.AperFunction,Conductor*
%ADD29C,1.524000*%
G04 #@! TD*
G04 #@! TA.AperFunction,Conductor*
%ADD30C,0.406400*%
G04 #@! TD*
G04 #@! TA.AperFunction,Conductor*
%ADD31C,0.250000*%
G04 #@! TD*
G04 #@! TA.AperFunction,Conductor*
%ADD32C,2.540000*%
G04 #@! TD*
G04 #@! TA.AperFunction,Conductor*
%ADD33C,0.762000*%
G04 #@! TD*
G04 #@! TA.AperFunction,Conductor*
%ADD34C,2.032000*%
G04 #@! TD*
G04 #@! TA.AperFunction,Conductor*
%ADD35C,0.152400*%
G04 #@! TD*
G04 #@! TA.AperFunction,Conductor*
%ADD36C,1.143000*%
G04 #@! TD*
G04 APERTURE END LIST*
D10*
X184322115Y-138434596D02*
X181909115Y-138434596D01*
X183632686Y-137630262D01*
X181909115Y-136825929D01*
X184322115Y-136825929D01*
X183632686Y-135791786D02*
X183632686Y-134642739D01*
X184322115Y-136021596D02*
X181909115Y-135217262D01*
X184322115Y-134412929D01*
X184322115Y-133608596D02*
X181909115Y-133608596D01*
X184322115Y-132229739D01*
X181909115Y-132229739D01*
X183132306Y-117622440D02*
X183132306Y-116473393D01*
X183821735Y-117852250D02*
X181408735Y-117047917D01*
X183821735Y-116243583D01*
X181408735Y-115439250D02*
X183362116Y-115439250D01*
X183591925Y-115324345D01*
X183706830Y-115209440D01*
X183821735Y-114979631D01*
X183821735Y-114520012D01*
X183706830Y-114290202D01*
X183591925Y-114175298D01*
X183362116Y-114060393D01*
X181408735Y-114060393D01*
X181408735Y-113256060D02*
X181408735Y-111877202D01*
X183821735Y-112566631D02*
X181408735Y-112566631D01*
X181408735Y-110613250D02*
X181408735Y-110153631D01*
X181523640Y-109923821D01*
X181753449Y-109694012D01*
X182213068Y-109579107D01*
X183017401Y-109579107D01*
X183477020Y-109694012D01*
X183706830Y-109923821D01*
X183821735Y-110153631D01*
X183821735Y-110613250D01*
X183706830Y-110843060D01*
X183477020Y-111072869D01*
X183017401Y-111187774D01*
X182213068Y-111187774D01*
X181753449Y-111072869D01*
X181523640Y-110843060D01*
X181408735Y-110613250D01*
D11*
X153919766Y-71953289D02*
X152230666Y-71953289D01*
X152230666Y-71309822D01*
X152311100Y-71148956D01*
X152391533Y-71068522D01*
X152552400Y-70988089D01*
X152793700Y-70988089D01*
X152954566Y-71068522D01*
X153035000Y-71148956D01*
X153115433Y-71309822D01*
X153115433Y-71953289D01*
X152230666Y-70425056D02*
X153919766Y-70022889D01*
X152713266Y-69701156D01*
X153919766Y-69379422D01*
X152230666Y-68977256D01*
X153919766Y-67368589D02*
X153115433Y-67931622D01*
X153919766Y-68333789D02*
X152230666Y-68333789D01*
X152230666Y-67690322D01*
X152311100Y-67529456D01*
X152391533Y-67449022D01*
X152552400Y-67368589D01*
X152793700Y-67368589D01*
X152954566Y-67449022D01*
X153035000Y-67529456D01*
X153115433Y-67690322D01*
X153115433Y-68333789D01*
X153919766Y-65357756D02*
X152230666Y-65357756D01*
X153919766Y-64553422D02*
X152230666Y-64553422D01*
X153919766Y-63588222D01*
X152230666Y-63588222D01*
X160189333Y-146354122D02*
X160269766Y-146112822D01*
X160269766Y-145710656D01*
X160189333Y-145549789D01*
X160108900Y-145469356D01*
X159948033Y-145388922D01*
X159787166Y-145388922D01*
X159626300Y-145469356D01*
X159545866Y-145549789D01*
X159465433Y-145710656D01*
X159385000Y-146032389D01*
X159304566Y-146193256D01*
X159224133Y-146273689D01*
X159063266Y-146354122D01*
X158902400Y-146354122D01*
X158741533Y-146273689D01*
X158661100Y-146193256D01*
X158580666Y-146032389D01*
X158580666Y-145630222D01*
X158661100Y-145388922D01*
X160269766Y-144665022D02*
X158580666Y-144665022D01*
X158580666Y-144021556D01*
X158661100Y-143860689D01*
X158741533Y-143780256D01*
X158902400Y-143699822D01*
X159143700Y-143699822D01*
X159304566Y-143780256D01*
X159385000Y-143860689D01*
X159465433Y-144021556D01*
X159465433Y-144665022D01*
X160269766Y-142010722D02*
X159465433Y-142573756D01*
X160269766Y-142975922D02*
X158580666Y-142975922D01*
X158580666Y-142332456D01*
X158661100Y-142171589D01*
X158741533Y-142091156D01*
X158902400Y-142010722D01*
X159143700Y-142010722D01*
X159304566Y-142091156D01*
X159385000Y-142171589D01*
X159465433Y-142332456D01*
X159465433Y-142975922D01*
X159787166Y-141367256D02*
X159787166Y-140562922D01*
X160269766Y-141528122D02*
X158580666Y-140965089D01*
X160269766Y-140402056D01*
X159465433Y-139517289D02*
X160269766Y-139517289D01*
X158580666Y-140080322D02*
X159465433Y-139517289D01*
X158580666Y-138954256D01*
X159385000Y-138391222D02*
X159385000Y-137828189D01*
X160269766Y-137586889D02*
X160269766Y-138391222D01*
X158580666Y-138391222D01*
X158580666Y-137586889D01*
X160269766Y-135897789D02*
X159465433Y-136460822D01*
X160269766Y-136862989D02*
X158580666Y-136862989D01*
X158580666Y-136219522D01*
X158661100Y-136058656D01*
X158741533Y-135978222D01*
X158902400Y-135897789D01*
X159143700Y-135897789D01*
X159304566Y-135978222D01*
X159385000Y-136058656D01*
X159465433Y-136219522D01*
X159465433Y-136862989D01*
X143759766Y-143826822D02*
X143759766Y-144631156D01*
X142070666Y-144631156D01*
X143759766Y-143263789D02*
X142070666Y-143263789D01*
X142151100Y-141574689D02*
X142070666Y-141735556D01*
X142070666Y-141976856D01*
X142151100Y-142218156D01*
X142311966Y-142379022D01*
X142472833Y-142459456D01*
X142794566Y-142539889D01*
X143035866Y-142539889D01*
X143357600Y-142459456D01*
X143518466Y-142379022D01*
X143679333Y-142218156D01*
X143759766Y-141976856D01*
X143759766Y-141815989D01*
X143679333Y-141574689D01*
X143598900Y-141494256D01*
X143035866Y-141494256D01*
X143035866Y-141815989D01*
X143759766Y-140770356D02*
X142070666Y-140770356D01*
X142875000Y-140770356D02*
X142875000Y-139805156D01*
X143759766Y-139805156D02*
X142070666Y-139805156D01*
X142070666Y-139242122D02*
X142070666Y-138276922D01*
X143759766Y-138759522D02*
X142070666Y-138759522D01*
D12*
X147231100Y-64613600D03*
D13*
X142431100Y-68013600D03*
D12*
X147231100Y-70913600D03*
X135801100Y-145393600D03*
D13*
X140601100Y-141993600D03*
D12*
X135801100Y-139093600D03*
X152311100Y-145393600D03*
D13*
X157111100Y-141993600D03*
D12*
X152311100Y-139093600D03*
D14*
X152311100Y-127863600D03*
D15*
X167551100Y-127863600D03*
D16*
X171894500Y-110083600D03*
X148501100Y-110083600D03*
D17*
X148501100Y-78603600D03*
D18*
X148501100Y-80603600D03*
D17*
X139341100Y-79603600D03*
D18*
X137341100Y-79603600D03*
D19*
X133261100Y-132943600D03*
X133261100Y-127863600D03*
X129451100Y-132943600D03*
X129451100Y-127863600D03*
D20*
X142151100Y-124053600D03*
X139611100Y-124053600D03*
X137071100Y-124053600D03*
D14*
X182846980Y-121246460D03*
X182846980Y-129446460D03*
D21*
X182846980Y-127346460D03*
X182846980Y-123346460D03*
X182846980Y-125346460D03*
D22*
X119291100Y-79823600D03*
X119291100Y-66683600D03*
D23*
X121691100Y-76753600D03*
X121691100Y-74253600D03*
X121691100Y-72253600D03*
X121691100Y-69753600D03*
D24*
X159931100Y-77774800D03*
D25*
X159931100Y-92303600D03*
D26*
X145917920Y-92339160D03*
X143865600Y-92313760D03*
X141745100Y-92303600D03*
X139512040Y-92344240D03*
X137320020Y-92293440D03*
D27*
X120561100Y-138023600D03*
X123101100Y-138023600D03*
X120561100Y-135483600D03*
X123101100Y-135483600D03*
X120561100Y-132943600D03*
X123101100Y-132943600D03*
X120561100Y-130403600D03*
X123101100Y-130403600D03*
X120561100Y-127863600D03*
X123101100Y-127863600D03*
X120561100Y-125323600D03*
X123101100Y-125323600D03*
X120561100Y-122783600D03*
X123101100Y-122783600D03*
X120561100Y-120243600D03*
X123101100Y-120243600D03*
X120561100Y-117703600D03*
X123101100Y-117703600D03*
X120561100Y-115163600D03*
X123101100Y-115163600D03*
X120561100Y-112623600D03*
X123101100Y-112623600D03*
X120561100Y-110083600D03*
X123101100Y-110083600D03*
X120561100Y-107543600D03*
X123101100Y-107543600D03*
X120561100Y-105003600D03*
X123101100Y-105003600D03*
X120561100Y-102463600D03*
X123101100Y-102463600D03*
X120561100Y-99923600D03*
X123101100Y-99923600D03*
X120561100Y-97383600D03*
X123101100Y-97383600D03*
X120561100Y-94843600D03*
X123101100Y-94843600D03*
X120561100Y-92303600D03*
X123101100Y-92303600D03*
X120561100Y-89763600D03*
X123101100Y-89763600D03*
G04 #@! TA.AperFunction,ComponentPad*
G36*
G01*
X175575240Y-72049320D02*
X181325240Y-72049320D01*
G75*
G02*
X181950240Y-72674320I0J-625000D01*
G01*
X181950240Y-73924320D01*
G75*
G02*
X181325240Y-74549320I-625000J0D01*
G01*
X175575240Y-74549320D01*
G75*
G02*
X174950240Y-73924320I0J625000D01*
G01*
X174950240Y-72674320D01*
G75*
G02*
X175575240Y-72049320I625000J0D01*
G01*
G37*
G04 #@! TD.AperFunction*
G04 #@! TA.AperFunction,ComponentPad*
G36*
G01*
X175575240Y-79149320D02*
X181325240Y-79149320D01*
G75*
G02*
X181950240Y-79774320I0J-625000D01*
G01*
X181950240Y-81024320D01*
G75*
G02*
X181325240Y-81649320I-625000J0D01*
G01*
X175575240Y-81649320D01*
G75*
G02*
X174950240Y-81024320I0J625000D01*
G01*
X174950240Y-79774320D01*
G75*
G02*
X175575240Y-79149320I625000J0D01*
G01*
G37*
G04 #@! TD.AperFunction*
D28*
X147231100Y-68173600D03*
X135826500Y-141970760D03*
X148501100Y-134213600D03*
X139611100Y-134213600D03*
X129451100Y-102463600D03*
D29*
X147231100Y-68173600D02*
X147231100Y-65263600D01*
X147231100Y-68173600D02*
X143191100Y-68173600D01*
D30*
X143031100Y-68013600D02*
X143191100Y-68173600D01*
D31*
X139775850Y-141970760D02*
X139798690Y-141993600D01*
D32*
X135826500Y-141970760D02*
X139775850Y-141970760D01*
D31*
X135826500Y-144565790D02*
X135801100Y-144591190D01*
D32*
X135826500Y-141970760D02*
X135826500Y-144565790D01*
D33*
X129451100Y-132943600D02*
X129451100Y-137708099D01*
X120561100Y-138023600D02*
X120561100Y-139611100D01*
X120561100Y-139611100D02*
X121920000Y-140970000D01*
X126189199Y-140970000D02*
X129451100Y-137708099D01*
X121920000Y-140970000D02*
X126189199Y-140970000D01*
X182824120Y-127323600D02*
X182846980Y-127346460D01*
X170821100Y-127323600D02*
X182824120Y-127323600D01*
X166281100Y-122783600D02*
X170821100Y-127323600D01*
X151041100Y-122783600D02*
X166281100Y-122783600D01*
X144691100Y-116433600D02*
X151041100Y-122783600D01*
X137071100Y-116433600D02*
X144691100Y-116433600D01*
X135801100Y-115163600D02*
X137071100Y-116433600D01*
X132943600Y-115163600D02*
X135801100Y-115163600D01*
X125323600Y-107543600D02*
X132943600Y-115163600D01*
X123101100Y-107543600D02*
X125323600Y-107543600D01*
X182824120Y-125323600D02*
X182846980Y-125346460D01*
X166281100Y-120243600D02*
X171361100Y-125323600D01*
X144691100Y-113893600D02*
X151041100Y-120243600D01*
X137071100Y-113893600D02*
X144691100Y-113893600D01*
X133261100Y-110083600D02*
X137071100Y-113893600D01*
X151041100Y-120243600D02*
X166281100Y-120243600D01*
X130403600Y-110083600D02*
X133261100Y-110083600D01*
X125323600Y-105003600D02*
X130403600Y-110083600D01*
X171361100Y-125323600D02*
X182824120Y-125323600D01*
X123101100Y-105003600D02*
X125323600Y-105003600D01*
X182824120Y-123323600D02*
X182846980Y-123346460D01*
X151041100Y-117703600D02*
X166281100Y-117703600D01*
X166281100Y-117703600D02*
X171901100Y-123323600D01*
X144691100Y-111353600D02*
X151041100Y-117703600D01*
X171901100Y-123323600D02*
X182824120Y-123323600D01*
X137071100Y-111353600D02*
X144691100Y-111353600D01*
X133261100Y-107543600D02*
X137071100Y-111353600D01*
X130403600Y-107543600D02*
X133261100Y-107543600D01*
X125323600Y-102463600D02*
X130403600Y-107543600D01*
X123101100Y-102463600D02*
X125323600Y-102463600D01*
D29*
X178442620Y-73291700D02*
X178450240Y-73299320D01*
D32*
X148806790Y-73291700D02*
X178442620Y-73291700D01*
X147231100Y-71716010D02*
X148806790Y-73291700D01*
D34*
X137341100Y-79603600D02*
X137341100Y-91303600D01*
D32*
X129451100Y-102463600D02*
X129451100Y-99923600D01*
X129451100Y-99923600D02*
X129451100Y-99169220D01*
D34*
X136326880Y-92293440D02*
X137320020Y-92293440D01*
D32*
X129451100Y-99169220D02*
X136326880Y-92293440D01*
D31*
X152311100Y-138023600D02*
X152311100Y-138291190D01*
X152313510Y-138291190D02*
X152311100Y-138291190D01*
D29*
X135801100Y-138023600D02*
X135801100Y-138291190D01*
D32*
X139611100Y-134213600D02*
X135801100Y-138023600D01*
X162840510Y-132574190D02*
X167551100Y-127863600D01*
X152311100Y-137654190D02*
X157391100Y-132574190D01*
X157391100Y-132574190D02*
X162840510Y-132574190D01*
D29*
X151941690Y-137654190D02*
X152311100Y-137654190D01*
D32*
X148501100Y-134213600D02*
X151941690Y-137654190D01*
D35*
X156511100Y-141993600D02*
X156351100Y-141833600D01*
D34*
X148501100Y-141833600D02*
X145961100Y-139293600D01*
X145961100Y-139293600D02*
X145961100Y-132943600D01*
X145961100Y-132943600D02*
X139611100Y-126593600D01*
X139611100Y-126593600D02*
X139611100Y-124053600D01*
X148501100Y-141833600D02*
X152267920Y-141833600D01*
D31*
X156201100Y-141833600D02*
X156308690Y-141941190D01*
D34*
X152267920Y-141833600D02*
X156201100Y-141833600D01*
D29*
X152267920Y-144591190D02*
X152311100Y-144591190D01*
D34*
X152267920Y-141833600D02*
X152267920Y-144591190D01*
X145961100Y-132943600D02*
X145961100Y-130268980D01*
X148366480Y-127863600D02*
X152311100Y-127863600D01*
X145961100Y-130268980D02*
X148366480Y-127863600D01*
D36*
X148501100Y-110083600D02*
X148501100Y-101193600D01*
X121691100Y-69753600D02*
X134841100Y-69753600D01*
X145691100Y-80603600D02*
X148501100Y-80603600D01*
X134841100Y-69753600D02*
X145691100Y-80603600D01*
X148501100Y-101193600D02*
X148501100Y-100296980D01*
X143865600Y-95661480D02*
X143865600Y-92313760D01*
X148501100Y-100296980D02*
X143865600Y-95661480D01*
D33*
X129451100Y-127863600D02*
X133261100Y-124053600D01*
X133261100Y-124053600D02*
X137071100Y-124053600D01*
X133261100Y-127863600D02*
X129451100Y-127863600D01*
D36*
X171894500Y-110083600D02*
X159931100Y-98120200D01*
X159931100Y-98120200D02*
X159931100Y-92303600D01*
X140881100Y-85953600D02*
X149771100Y-85953600D01*
X156121100Y-92303600D02*
X159931100Y-92303600D01*
X149771100Y-85953600D02*
X156121100Y-92303600D01*
X140881100Y-85953600D02*
X140553440Y-85953600D01*
X139512040Y-86995000D02*
X139512040Y-92344240D01*
X140553440Y-85953600D02*
X139512040Y-86995000D01*
M02*
