G04 #@! TF.GenerationSoftware,KiCad,Pcbnew,(5.1.10)-1*
G04 #@! TF.CreationDate,2021-11-03T22:51:16-05:00*
G04 #@! TF.ProjectId,Kitty_Cannon_Schematic,4b697474-795f-4436-916e-6e6f6e5f5363,rev?*
G04 #@! TF.SameCoordinates,Original*
G04 #@! TF.FileFunction,Legend,Top*
G04 #@! TF.FilePolarity,Positive*
%FSLAX46Y46*%
G04 Gerber Fmt 4.6, Leading zero omitted, Abs format (unit mm)*
G04 Created by KiCad (PCBNEW (5.1.10)-1) date 2021-11-03 22:51:16*
%MOMM*%
%LPD*%
G01*
G04 APERTURE LIST*
%ADD10C,0.203200*%
%ADD11C,0.300000*%
%ADD12C,0.127000*%
%ADD13C,0.152400*%
%ADD14C,0.200000*%
%ADD15C,0.400000*%
%ADD16C,0.100000*%
%ADD17C,0.050800*%
%ADD18C,0.115824*%
%ADD19C,0.096520*%
%ADD20C,0.076200*%
%ADD21C,0.198073*%
%ADD22C,0.251068*%
%ADD23C,0.251324*%
%ADD24C,0.168910*%
%ADD25C,0.101600*%
%ADD26C,0.094107*%
%ADD27C,0.135128*%
%ADD28C,2.082800*%
%ADD29O,1.473200X2.743200*%
%ADD30C,1.473200*%
%ADD31C,1.981200*%
%ADD32C,1.000000*%
%ADD33C,4.203200*%
%ADD34C,1.803200*%
%ADD35C,3.302000*%
%ADD36O,1.879600X3.556000*%
%ADD37C,1.524000*%
%ADD38C,1.323200*%
%ADD39C,2.235200*%
G04 APERTURE END LIST*
D10*
X118831100Y-111693600D02*
X118831100Y-116093600D01*
X118831100Y-116093600D02*
X117331100Y-116093600D01*
X117331100Y-111693600D02*
X118831100Y-111693600D01*
X126331100Y-143043600D02*
X117331100Y-143043600D01*
X117331100Y-84743600D02*
X126231100Y-84743600D01*
X117331100Y-143043600D02*
X117331100Y-84743600D01*
X126331100Y-84743600D02*
X126331100Y-143043600D01*
X119056100Y-89128600D02*
X119056100Y-90398600D01*
D11*
X138441100Y-89093600D02*
G75*
G03*
X138441100Y-89093600I-100000J0D01*
G01*
D12*
X147071100Y-89553600D02*
X136411100Y-89553600D01*
X147071100Y-94373600D02*
X147071100Y-89553600D01*
X136411100Y-94373600D02*
X147071100Y-94373600D01*
X136411100Y-89553600D02*
X136411100Y-94373600D01*
D13*
X158026100Y-88976200D02*
X161836100Y-88976200D01*
X158026100Y-81102200D02*
X158026100Y-88976200D01*
X161836100Y-81102200D02*
X158026100Y-81102200D01*
X161836100Y-88976200D02*
X161836100Y-81102200D01*
X159296100Y-84861400D02*
X160566100Y-84861400D01*
X159931100Y-85623400D02*
X160058100Y-84861400D01*
X159931100Y-85623400D02*
X160185100Y-84861400D01*
X159931100Y-85623400D02*
X160312100Y-84861400D01*
X159931100Y-85623400D02*
X160439100Y-84861400D01*
X159931100Y-85623400D02*
X160566100Y-84861400D01*
X159931100Y-85623400D02*
X159804100Y-84861400D01*
X159931100Y-85623400D02*
X159677100Y-84861400D01*
X159931100Y-85623400D02*
X159550100Y-84861400D01*
X159931100Y-85623400D02*
X159423100Y-84861400D01*
X159931100Y-85623400D02*
X159296100Y-84861400D01*
X159931100Y-85623400D02*
X160566100Y-85623400D01*
X159296100Y-85623400D02*
X159931100Y-85623400D01*
X159931100Y-85623400D02*
X159931100Y-85877400D01*
X159931100Y-84607400D02*
X159931100Y-85623400D01*
X162217100Y-128828800D02*
X162217100Y-126898400D01*
X157645100Y-128828800D02*
X162217100Y-128828800D01*
X157645100Y-126898400D02*
X157645100Y-128828800D01*
X162217100Y-126898400D02*
X157645100Y-126898400D01*
X159372300Y-130606800D02*
X159372300Y-129336800D01*
X160134300Y-129971800D02*
X159372300Y-129844800D01*
X160134300Y-129971800D02*
X159372300Y-129717800D01*
X160134300Y-129971800D02*
X159372300Y-129590800D01*
X160134300Y-129971800D02*
X159372300Y-129463800D01*
X160134300Y-129971800D02*
X159372300Y-129336800D01*
X160134300Y-129971800D02*
X159372300Y-130098800D01*
X160134300Y-129971800D02*
X159372300Y-130225800D01*
X160134300Y-129971800D02*
X159372300Y-130352800D01*
X160134300Y-129971800D02*
X159372300Y-130479800D01*
X160134300Y-129971800D02*
X159372300Y-130606800D01*
X160134300Y-129971800D02*
X160134300Y-129336800D01*
X160134300Y-130606800D02*
X160134300Y-129971800D01*
X160134300Y-129971800D02*
X160388300Y-129971800D01*
X159118300Y-129971800D02*
X160134300Y-129971800D01*
D14*
X142731100Y-71513600D02*
X142731100Y-70263600D01*
X144781100Y-71513600D02*
X142731100Y-71513600D01*
X142731100Y-57213600D02*
X142731100Y-65763600D01*
X151731100Y-57213600D02*
X142731100Y-57213600D01*
X151731100Y-71513600D02*
X151731100Y-57213600D01*
X149681100Y-71513600D02*
X151731100Y-71513600D01*
X140301100Y-138493600D02*
X140301100Y-139743600D01*
X138251100Y-138493600D02*
X140301100Y-138493600D01*
X140301100Y-152793600D02*
X140301100Y-144243600D01*
X131301100Y-152793600D02*
X140301100Y-152793600D01*
X131301100Y-138493600D02*
X131301100Y-152793600D01*
X133351100Y-138493600D02*
X131301100Y-138493600D01*
X156811100Y-138493600D02*
X156811100Y-139743600D01*
X154761100Y-138493600D02*
X156811100Y-138493600D01*
X156811100Y-152793600D02*
X156811100Y-144243600D01*
X147811100Y-152793600D02*
X156811100Y-152793600D01*
X147811100Y-138493600D02*
X147811100Y-152793600D01*
X149861100Y-138493600D02*
X147811100Y-138493600D01*
X121577100Y-66141600D02*
X124066300Y-66141600D01*
X121577100Y-80365600D02*
X124066300Y-80365600D01*
X124066300Y-66141600D02*
X124066300Y-80365600D01*
X116928900Y-66141600D02*
X117030500Y-66141600D01*
X116928900Y-80365600D02*
X117030500Y-80365600D01*
X116928900Y-66141600D02*
X116928900Y-80365600D01*
D15*
X122989740Y-68630800D02*
G75*
G03*
X122989740Y-68630800I-193440J0D01*
G01*
D12*
X178081100Y-127323600D02*
G75*
G03*
X178081100Y-127323600I-100000J0D01*
G01*
X176781100Y-119023600D02*
X181181100Y-119023600D01*
X176781100Y-131623600D02*
X176781100Y-119023600D01*
X181181100Y-131623600D02*
X176781100Y-131623600D01*
X181181100Y-119023600D02*
X181181100Y-131623600D01*
X180081100Y-80143600D02*
G75*
G03*
X180081100Y-80143600I-100000J0D01*
G01*
X181181100Y-88443600D02*
X176781100Y-88443600D01*
X181181100Y-75843600D02*
X181181100Y-88443600D01*
X176781100Y-75843600D02*
X181181100Y-75843600D01*
X176781100Y-88443600D02*
X176781100Y-75843600D01*
D16*
G36*
X141516100Y-121767600D02*
G01*
X142786100Y-121767600D01*
X142786100Y-118973600D01*
X141516100Y-118973600D01*
X141516100Y-121767600D01*
G37*
G36*
X138976100Y-121767600D02*
G01*
X140246100Y-121767600D01*
X140246100Y-118973600D01*
X138976100Y-118973600D01*
X138976100Y-121767600D01*
G37*
G36*
X136436100Y-121767600D02*
G01*
X137706100Y-121767600D01*
X137706100Y-118973600D01*
X136436100Y-118973600D01*
X136436100Y-121767600D01*
G37*
G36*
X136690100Y-122402600D02*
G01*
X137452100Y-122402600D01*
X137452100Y-121767600D01*
X136690100Y-121767600D01*
X136690100Y-122402600D01*
G37*
G36*
X139230100Y-122402600D02*
G01*
X139992100Y-122402600D01*
X139992100Y-121767600D01*
X139230100Y-121767600D01*
X139230100Y-122402600D01*
G37*
G36*
X141770100Y-122402600D02*
G01*
X142532100Y-122402600D01*
X142532100Y-121767600D01*
X141770100Y-121767600D01*
X141770100Y-122402600D01*
G37*
D13*
X141414500Y-106527600D02*
G75*
G03*
X141414500Y-106527600I-1803400J0D01*
G01*
D17*
X135039100Y-118338600D02*
X135039100Y-110083600D01*
X144183100Y-110083600D02*
X135039100Y-110083600D01*
X144183100Y-110083600D02*
X144183100Y-118338600D01*
X135039100Y-118338600D02*
X144183100Y-118338600D01*
D13*
X134404100Y-105003600D02*
X134404100Y-103098600D01*
X135293100Y-105003600D02*
X134404100Y-105003600D01*
X135293100Y-106527600D02*
X135293100Y-105003600D01*
X134404100Y-106527600D02*
X135293100Y-106527600D01*
X134404100Y-118973600D02*
X134404100Y-106527600D01*
X144818100Y-105003600D02*
X144818100Y-103098600D01*
X143929100Y-105003600D02*
X144818100Y-105003600D01*
X143929100Y-106527600D02*
X143929100Y-105003600D01*
X144818100Y-106527600D02*
X143929100Y-106527600D01*
X144818100Y-118973600D02*
X144818100Y-106527600D01*
X144818100Y-103098600D02*
X134404100Y-103098600D01*
X134404100Y-118973600D02*
X144818100Y-118973600D01*
X128562100Y-131927600D02*
X128562100Y-131673600D01*
X130340100Y-131927600D02*
X130340100Y-131673600D01*
X128689100Y-131546600D02*
X128689100Y-129260600D01*
X128689100Y-131546600D02*
X128562100Y-131673600D01*
X130213100Y-131546600D02*
X130213100Y-129260600D01*
X130213100Y-131546600D02*
X130340100Y-131673600D01*
X128689100Y-129260600D02*
X128562100Y-129133600D01*
X128562100Y-128879600D02*
X128562100Y-129133600D01*
X130213100Y-129260600D02*
X130340100Y-129133600D01*
X130340100Y-128879600D02*
X130340100Y-129133600D01*
X130086100Y-132181600D02*
G75*
G03*
X130340100Y-131927600I0J254000D01*
G01*
X128816100Y-132181600D02*
G75*
G02*
X128562100Y-131927600I0J254000D01*
G01*
X128562100Y-128879600D02*
G75*
G02*
X128816100Y-128625600I254000J0D01*
G01*
X130340100Y-128879600D02*
G75*
G03*
X130086100Y-128625600I-254000J0D01*
G01*
X132372100Y-131927600D02*
X132372100Y-131673600D01*
X134150100Y-131927600D02*
X134150100Y-131673600D01*
X132499100Y-131546600D02*
X132499100Y-129260600D01*
X132499100Y-131546600D02*
X132372100Y-131673600D01*
X134023100Y-131546600D02*
X134023100Y-129260600D01*
X134023100Y-131546600D02*
X134150100Y-131673600D01*
X132499100Y-129260600D02*
X132372100Y-129133600D01*
X132372100Y-128879600D02*
X132372100Y-129133600D01*
X134023100Y-129260600D02*
X134150100Y-129133600D01*
X134150100Y-128879600D02*
X134150100Y-129133600D01*
X133896100Y-132181600D02*
G75*
G03*
X134150100Y-131927600I0J254000D01*
G01*
X132626100Y-132181600D02*
G75*
G02*
X132372100Y-131927600I0J254000D01*
G01*
X132372100Y-128879600D02*
G75*
G02*
X132626100Y-128625600I254000J0D01*
G01*
X134150100Y-128879600D02*
G75*
G03*
X133896100Y-128625600I-254000J0D01*
G01*
D14*
X135441100Y-79603600D02*
G75*
G03*
X135441100Y-79603600I-100000J0D01*
G01*
D12*
X140841100Y-79603600D02*
G75*
G03*
X140841100Y-79603600I-2500000J0D01*
G01*
D14*
X148601100Y-82603600D02*
G75*
G03*
X148601100Y-82603600I-100000J0D01*
G01*
D12*
X151001100Y-79603600D02*
G75*
G03*
X151001100Y-79603600I-2500000J0D01*
G01*
D13*
X147942300Y-111302802D02*
G75*
G03*
X172478700Y-111302800I12268200J1289441D01*
G01*
X163080700Y-110083600D02*
G75*
G03*
X157314900Y-110083600I-2882900J0D01*
G01*
X157314900Y-110083600D02*
G75*
G03*
X163080700Y-110083600I2882900J0D01*
G01*
X172478700Y-108864398D02*
G75*
G03*
X147942300Y-108864400I-12268200J-1289441D01*
G01*
X146596100Y-109448600D02*
X146596100Y-110718600D01*
X145961100Y-110083600D02*
X147154900Y-110083600D01*
D18*
X117764734Y-83822902D02*
X117764734Y-84236560D01*
X117737157Y-84319291D01*
X117682002Y-84374445D01*
X117599271Y-84402022D01*
X117544117Y-84402022D01*
X118012928Y-83878057D02*
X118040505Y-83850480D01*
X118095659Y-83822902D01*
X118233545Y-83822902D01*
X118288699Y-83850480D01*
X118316277Y-83878057D01*
X118343854Y-83933211D01*
X118343854Y-83988365D01*
X118316277Y-84071097D01*
X117985351Y-84402022D01*
X118343854Y-84402022D01*
D19*
X137421099Y-87229647D02*
X137421099Y-88206338D01*
X137478552Y-88321242D01*
X137536004Y-88378695D01*
X137650909Y-88436147D01*
X137880718Y-88436147D01*
X137995623Y-88378695D01*
X138053076Y-88321242D01*
X138110528Y-88206338D01*
X138110528Y-87229647D01*
X138627599Y-88378695D02*
X138799957Y-88436147D01*
X139087218Y-88436147D01*
X139202123Y-88378695D01*
X139259576Y-88321242D01*
X139317028Y-88206338D01*
X139317028Y-88091433D01*
X139259576Y-87976528D01*
X139202123Y-87919076D01*
X139087218Y-87861623D01*
X138857409Y-87804171D01*
X138742504Y-87746719D01*
X138685052Y-87689266D01*
X138627599Y-87574361D01*
X138627599Y-87459457D01*
X138685052Y-87344552D01*
X138742504Y-87287100D01*
X138857409Y-87229647D01*
X139144671Y-87229647D01*
X139317028Y-87287100D01*
X138972314Y-87057290D02*
X138972314Y-88608504D01*
X140466076Y-88436147D02*
X139776647Y-88436147D01*
X140121361Y-88436147D02*
X140121361Y-87229647D01*
X140006457Y-87402004D01*
X139891552Y-87516909D01*
X139776647Y-87574361D01*
D20*
X157164314Y-87979008D02*
X157509028Y-87059770D01*
X157853742Y-87979008D01*
X157968647Y-86485246D02*
X156762147Y-86485246D01*
X157968647Y-85795817D01*
X156762147Y-85795817D01*
X157968647Y-84704222D02*
X157336671Y-84704222D01*
X157221766Y-84761674D01*
X157164314Y-84876579D01*
X157164314Y-85106389D01*
X157221766Y-85221293D01*
X157911195Y-84704222D02*
X157968647Y-84819127D01*
X157968647Y-85106389D01*
X157911195Y-85221293D01*
X157796290Y-85278746D01*
X157681385Y-85278746D01*
X157566480Y-85221293D01*
X157509028Y-85106389D01*
X157509028Y-84819127D01*
X157451576Y-84704222D01*
X157968647Y-84129698D02*
X157164314Y-84129698D01*
X157279219Y-84129698D02*
X157221766Y-84072246D01*
X157164314Y-83957341D01*
X157164314Y-83784984D01*
X157221766Y-83670079D01*
X157336671Y-83612627D01*
X157968647Y-83612627D01*
X157336671Y-83612627D02*
X157221766Y-83555174D01*
X157164314Y-83440270D01*
X157164314Y-83267912D01*
X157221766Y-83153008D01*
X157336671Y-83095555D01*
X157968647Y-83095555D01*
X157911195Y-82061412D02*
X157968647Y-82176317D01*
X157968647Y-82406127D01*
X157911195Y-82521031D01*
X157796290Y-82578484D01*
X157336671Y-82578484D01*
X157221766Y-82521031D01*
X157164314Y-82406127D01*
X157164314Y-82176317D01*
X157221766Y-82061412D01*
X157336671Y-82003960D01*
X157451576Y-82003960D01*
X157566480Y-82578484D01*
D21*
X158362190Y-126546139D02*
X158362190Y-124565408D01*
X158833792Y-124565408D01*
X159116754Y-124659729D01*
X159305395Y-124848370D01*
X159399715Y-125037011D01*
X159494036Y-125414293D01*
X159494036Y-125697254D01*
X159399715Y-126074536D01*
X159305395Y-126263177D01*
X159116754Y-126451818D01*
X158833792Y-126546139D01*
X158362190Y-126546139D01*
X161380446Y-126546139D02*
X160248600Y-126546139D01*
X160814523Y-126546139D02*
X160814523Y-124565408D01*
X160625882Y-124848370D01*
X160437241Y-125037011D01*
X160248600Y-125131331D01*
D22*
X144923723Y-72366750D02*
X144923723Y-73746245D01*
X144831757Y-74022144D01*
X144647824Y-74206077D01*
X144371925Y-74298043D01*
X144187993Y-74298043D01*
X146855016Y-74298043D02*
X145751420Y-74298043D01*
X146303218Y-74298043D02*
X146303218Y-72366750D01*
X146119286Y-72642649D01*
X145935353Y-72826582D01*
X145751420Y-72918548D01*
X132223723Y-135866750D02*
X132223723Y-137246245D01*
X132131757Y-137522144D01*
X131947824Y-137706077D01*
X131671925Y-137798043D01*
X131487993Y-137798043D01*
X132959454Y-135866750D02*
X134155016Y-135866750D01*
X133511252Y-136602481D01*
X133787151Y-136602481D01*
X133971084Y-136694447D01*
X134063050Y-136786414D01*
X134155016Y-136970346D01*
X134155016Y-137430178D01*
X134063050Y-137614111D01*
X133971084Y-137706077D01*
X133787151Y-137798043D01*
X133235353Y-137798043D01*
X133051420Y-137706077D01*
X132959454Y-137614111D01*
X156114823Y-135866750D02*
X156114823Y-137246245D01*
X156022857Y-137522144D01*
X155838924Y-137706077D01*
X155563025Y-137798043D01*
X155379093Y-137798043D01*
X157862184Y-136510515D02*
X157862184Y-137798043D01*
X157402352Y-135774784D02*
X156942520Y-137154279D01*
X158138083Y-137154279D01*
D23*
X125636024Y-66554672D02*
X125636024Y-67935577D01*
X125543963Y-68211758D01*
X125359843Y-68395879D01*
X125083662Y-68487939D01*
X124899541Y-68487939D01*
X127477230Y-66554672D02*
X126556627Y-66554672D01*
X126464567Y-67475276D01*
X126556627Y-67383215D01*
X126740748Y-67291155D01*
X127201049Y-67291155D01*
X127385170Y-67383215D01*
X127477230Y-67475276D01*
X127569291Y-67659396D01*
X127569291Y-68119698D01*
X127477230Y-68303819D01*
X127385170Y-68395879D01*
X127201049Y-68487939D01*
X126740748Y-68487939D01*
X126556627Y-68395879D01*
X126464567Y-68303819D01*
D19*
X174816467Y-131178820D02*
X175793158Y-131178820D01*
X175908062Y-131121367D01*
X175965515Y-131063915D01*
X176022967Y-130949010D01*
X176022967Y-130719201D01*
X175965515Y-130604296D01*
X175908062Y-130546843D01*
X175793158Y-130489391D01*
X174816467Y-130489391D01*
X175965515Y-129972320D02*
X176022967Y-129799962D01*
X176022967Y-129512701D01*
X175965515Y-129397796D01*
X175908062Y-129340343D01*
X175793158Y-129282891D01*
X175678253Y-129282891D01*
X175563348Y-129340343D01*
X175505896Y-129397796D01*
X175448443Y-129512701D01*
X175390991Y-129742510D01*
X175333539Y-129857415D01*
X175276086Y-129914867D01*
X175161181Y-129972320D01*
X175046277Y-129972320D01*
X174931372Y-129914867D01*
X174873920Y-129857415D01*
X174816467Y-129742510D01*
X174816467Y-129455248D01*
X174873920Y-129282891D01*
X174644110Y-129627605D02*
X176195324Y-129627605D01*
X174931372Y-128823272D02*
X174873920Y-128765820D01*
X174816467Y-128650915D01*
X174816467Y-128363653D01*
X174873920Y-128248748D01*
X174931372Y-128191296D01*
X175046277Y-128133843D01*
X175161181Y-128133843D01*
X175333539Y-128191296D01*
X176022967Y-128880724D01*
X176022967Y-128133843D01*
X174034147Y-75443600D02*
X175010838Y-75443600D01*
X175125742Y-75386147D01*
X175183195Y-75328695D01*
X175240647Y-75213790D01*
X175240647Y-74983981D01*
X175183195Y-74869076D01*
X175125742Y-74811623D01*
X175010838Y-74754171D01*
X174034147Y-74754171D01*
X175183195Y-74237100D02*
X175240647Y-74064742D01*
X175240647Y-73777481D01*
X175183195Y-73662576D01*
X175125742Y-73605123D01*
X175010838Y-73547671D01*
X174895933Y-73547671D01*
X174781028Y-73605123D01*
X174723576Y-73662576D01*
X174666123Y-73777481D01*
X174608671Y-74007290D01*
X174551219Y-74122195D01*
X174493766Y-74179647D01*
X174378861Y-74237100D01*
X174263957Y-74237100D01*
X174149052Y-74179647D01*
X174091600Y-74122195D01*
X174034147Y-74007290D01*
X174034147Y-73720028D01*
X174091600Y-73547671D01*
X173861790Y-73892385D02*
X175413004Y-73892385D01*
X174436314Y-72513528D02*
X175240647Y-72513528D01*
X173976695Y-72800790D02*
X174838480Y-73088052D01*
X174838480Y-72341171D01*
D24*
X137439124Y-112577033D02*
X137278258Y-112496600D01*
X137117391Y-112335733D01*
X136876091Y-112094433D01*
X136715224Y-112014000D01*
X136554358Y-112014000D01*
X136634791Y-112416166D02*
X136473924Y-112335733D01*
X136313058Y-112174866D01*
X136232624Y-111853133D01*
X136232624Y-111290100D01*
X136313058Y-110968366D01*
X136473924Y-110807500D01*
X136634791Y-110727066D01*
X136956524Y-110727066D01*
X137117391Y-110807500D01*
X137278258Y-110968366D01*
X137358691Y-111290100D01*
X137358691Y-111853133D01*
X137278258Y-112174866D01*
X137117391Y-112335733D01*
X136956524Y-112416166D01*
X136634791Y-112416166D01*
X138967358Y-112416166D02*
X138002158Y-112416166D01*
X138484758Y-112416166D02*
X138484758Y-110727066D01*
X138323891Y-110968366D01*
X138163024Y-111129233D01*
X138002158Y-111209666D01*
D25*
X135415987Y-109507866D02*
X135875606Y-109507866D01*
X135324063Y-109783638D02*
X135645797Y-108818438D01*
X135967530Y-109783638D01*
X136794844Y-109783638D02*
X136243301Y-109783638D01*
X136519073Y-109783638D02*
X136519073Y-108818438D01*
X136427149Y-108956323D01*
X136335225Y-109048247D01*
X136243301Y-109094209D01*
X137116578Y-108818438D02*
X137760044Y-108818438D01*
X137346387Y-109783638D01*
X138173701Y-109737676D02*
X138173701Y-109783638D01*
X138127740Y-109875561D01*
X138081778Y-109921523D01*
X139046978Y-108818438D02*
X138587359Y-108818438D01*
X138541397Y-109278057D01*
X138587359Y-109232095D01*
X138679282Y-109186133D01*
X138909092Y-109186133D01*
X139001016Y-109232095D01*
X139046978Y-109278057D01*
X139092940Y-109369980D01*
X139092940Y-109599790D01*
X139046978Y-109691714D01*
X139001016Y-109737676D01*
X138909092Y-109783638D01*
X138679282Y-109783638D01*
X138587359Y-109737676D01*
X138541397Y-109691714D01*
X139506597Y-109783638D02*
X139506597Y-109140171D01*
X139506597Y-109232095D02*
X139552559Y-109186133D01*
X139644482Y-109140171D01*
X139782368Y-109140171D01*
X139874292Y-109186133D01*
X139920254Y-109278057D01*
X139920254Y-109783638D01*
X139920254Y-109278057D02*
X139966216Y-109186133D01*
X140058140Y-109140171D01*
X140196025Y-109140171D01*
X140287949Y-109186133D01*
X140333911Y-109278057D01*
X140333911Y-109783638D01*
X140793530Y-109783638D02*
X140793530Y-109140171D01*
X140793530Y-109232095D02*
X140839492Y-109186133D01*
X140931416Y-109140171D01*
X141069301Y-109140171D01*
X141161225Y-109186133D01*
X141207187Y-109278057D01*
X141207187Y-109783638D01*
X141207187Y-109278057D02*
X141253149Y-109186133D01*
X141345073Y-109140171D01*
X141482959Y-109140171D01*
X141574882Y-109186133D01*
X141620844Y-109278057D01*
X141620844Y-109783638D01*
D26*
X130168287Y-130723611D02*
X129720158Y-131037301D01*
X130168287Y-131261366D02*
X129227217Y-131261366D01*
X129227217Y-130902863D01*
X129272030Y-130813237D01*
X129316842Y-130768424D01*
X129406468Y-130723611D01*
X129540907Y-130723611D01*
X129630532Y-130768424D01*
X129675345Y-130813237D01*
X129720158Y-130902863D01*
X129720158Y-131261366D01*
X130168287Y-129827354D02*
X130168287Y-130365109D01*
X130168287Y-130096231D02*
X129227217Y-130096231D01*
X129361655Y-130185857D01*
X129451281Y-130275483D01*
X129496094Y-130365109D01*
X133978287Y-130723611D02*
X133530158Y-131037301D01*
X133978287Y-131261366D02*
X133037217Y-131261366D01*
X133037217Y-130902863D01*
X133082030Y-130813237D01*
X133126842Y-130768424D01*
X133216468Y-130723611D01*
X133350907Y-130723611D01*
X133440532Y-130768424D01*
X133485345Y-130813237D01*
X133530158Y-130902863D01*
X133530158Y-131261366D01*
X133126842Y-130365109D02*
X133082030Y-130320296D01*
X133037217Y-130230670D01*
X133037217Y-130006606D01*
X133082030Y-129916980D01*
X133126842Y-129872167D01*
X133216468Y-129827354D01*
X133306094Y-129827354D01*
X133440532Y-129872167D01*
X133978287Y-130409921D01*
X133978287Y-129827354D01*
D27*
X136796299Y-76362300D02*
X136715866Y-76442733D01*
X136474566Y-76523166D01*
X136313699Y-76523166D01*
X136072399Y-76442733D01*
X135911533Y-76281866D01*
X135831099Y-76121000D01*
X135750666Y-75799266D01*
X135750666Y-75557966D01*
X135831099Y-75236233D01*
X135911533Y-75075366D01*
X136072399Y-74914500D01*
X136313699Y-74834066D01*
X136474566Y-74834066D01*
X136715866Y-74914500D01*
X136796299Y-74994933D01*
X138404966Y-76523166D02*
X137439766Y-76523166D01*
X137922366Y-76523166D02*
X137922366Y-74834066D01*
X137761499Y-75075366D01*
X137600633Y-75236233D01*
X137439766Y-75316666D01*
X145808700Y-77284800D02*
X145889133Y-77365233D01*
X145969566Y-77606533D01*
X145969566Y-77767400D01*
X145889133Y-78008700D01*
X145728266Y-78169566D01*
X145567400Y-78250000D01*
X145245666Y-78330433D01*
X145004366Y-78330433D01*
X144682633Y-78250000D01*
X144521766Y-78169566D01*
X144360900Y-78008700D01*
X144280466Y-77767400D01*
X144280466Y-77606533D01*
X144360900Y-77365233D01*
X144441333Y-77284800D01*
X144441333Y-76641333D02*
X144360900Y-76560900D01*
X144280466Y-76400033D01*
X144280466Y-75997866D01*
X144360900Y-75837000D01*
X144441333Y-75756566D01*
X144602200Y-75676133D01*
X144763066Y-75676133D01*
X145004366Y-75756566D01*
X145969566Y-76721766D01*
X145969566Y-75676133D01*
D20*
X157270691Y-109856814D02*
X158189930Y-110201528D01*
X157270691Y-110546242D01*
X158764453Y-110661147D02*
X158764453Y-109454647D01*
X159453882Y-110661147D01*
X159453882Y-109454647D01*
X160545477Y-110661147D02*
X160545477Y-110029171D01*
X160488025Y-109914266D01*
X160373120Y-109856814D01*
X160143310Y-109856814D01*
X160028406Y-109914266D01*
X160545477Y-110603695D02*
X160430572Y-110661147D01*
X160143310Y-110661147D01*
X160028406Y-110603695D01*
X159970953Y-110488790D01*
X159970953Y-110373885D01*
X160028406Y-110258980D01*
X160143310Y-110201528D01*
X160430572Y-110201528D01*
X160545477Y-110144076D01*
X161120001Y-110661147D02*
X161120001Y-109856814D01*
X161120001Y-109971719D02*
X161177453Y-109914266D01*
X161292358Y-109856814D01*
X161464715Y-109856814D01*
X161579620Y-109914266D01*
X161637072Y-110029171D01*
X161637072Y-110661147D01*
X161637072Y-110029171D02*
X161694525Y-109914266D01*
X161809430Y-109856814D01*
X161981787Y-109856814D01*
X162096691Y-109914266D01*
X162154144Y-110029171D01*
X162154144Y-110661147D01*
X163188287Y-110603695D02*
X163073382Y-110661147D01*
X162843572Y-110661147D01*
X162728668Y-110603695D01*
X162671215Y-110488790D01*
X162671215Y-110029171D01*
X162728668Y-109914266D01*
X162843572Y-109856814D01*
X163073382Y-109856814D01*
X163188287Y-109914266D01*
X163245739Y-110029171D01*
X163245739Y-110144076D01*
X162671215Y-110258980D01*
%LPC*%
D16*
G36*
X149383440Y-70069790D02*
G01*
X145081100Y-70069790D01*
X145081100Y-71763600D01*
X149383440Y-71763600D01*
X149383440Y-70069790D01*
G37*
G36*
X141581059Y-66068100D02*
G01*
X141581059Y-69963560D01*
X143276600Y-69963560D01*
X143276600Y-66068100D01*
X141581059Y-66068100D01*
G37*
G36*
X149182440Y-63763188D02*
G01*
X145281100Y-63763188D01*
X145281100Y-65463600D01*
X149182440Y-65463600D01*
X149182440Y-63763188D01*
G37*
G36*
X133648760Y-139937410D02*
G01*
X137951100Y-139937410D01*
X137951100Y-138243600D01*
X133648760Y-138243600D01*
X133648760Y-139937410D01*
G37*
G36*
X141451141Y-143939100D02*
G01*
X141451141Y-140043640D01*
X139755600Y-140043640D01*
X139755600Y-143939100D01*
X141451141Y-143939100D01*
G37*
G36*
X133849760Y-146244012D02*
G01*
X137751100Y-146244012D01*
X137751100Y-144543600D01*
X133849760Y-144543600D01*
X133849760Y-146244012D01*
G37*
G36*
X150158760Y-139937410D02*
G01*
X154461100Y-139937410D01*
X154461100Y-138243600D01*
X150158760Y-138243600D01*
X150158760Y-139937410D01*
G37*
G36*
X157961141Y-143939100D02*
G01*
X157961141Y-140043640D01*
X156265600Y-140043640D01*
X156265600Y-143939100D01*
X157961141Y-143939100D01*
G37*
G36*
X150359760Y-146244012D02*
G01*
X154261100Y-146244012D01*
X154261100Y-144543600D01*
X150359760Y-144543600D01*
X150359760Y-146244012D01*
G37*
D28*
X120561100Y-138023600D03*
X123101100Y-138023600D03*
X120561100Y-135483600D03*
X123101100Y-135483600D03*
X120561100Y-132943600D03*
X123101100Y-132943600D03*
X120561100Y-130403600D03*
X123101100Y-130403600D03*
X120561100Y-127863600D03*
X123101100Y-127863600D03*
X120561100Y-125323600D03*
X123101100Y-125323600D03*
X120561100Y-122783600D03*
X123101100Y-122783600D03*
X120561100Y-120243600D03*
X123101100Y-120243600D03*
X120561100Y-117703600D03*
X123101100Y-117703600D03*
X120561100Y-115163600D03*
X123101100Y-115163600D03*
X120561100Y-112623600D03*
X123101100Y-112623600D03*
X120561100Y-110083600D03*
X123101100Y-110083600D03*
X120561100Y-107543600D03*
X123101100Y-107543600D03*
X120561100Y-105003600D03*
X123101100Y-105003600D03*
X120561100Y-102463600D03*
X123101100Y-102463600D03*
X120561100Y-99923600D03*
X123101100Y-99923600D03*
X120561100Y-97383600D03*
X123101100Y-97383600D03*
X120561100Y-94843600D03*
X123101100Y-94843600D03*
X120561100Y-92303600D03*
X123101100Y-92303600D03*
X120561100Y-89763600D03*
X123101100Y-89763600D03*
D29*
X145917920Y-92339160D03*
X143865600Y-92313760D03*
X141745100Y-92303600D03*
X139512040Y-92344240D03*
X137320020Y-92293440D03*
D30*
X159931100Y-77774800D03*
G36*
G01*
X160566100Y-93040200D02*
X159296100Y-93040200D01*
G75*
G02*
X159194500Y-92938600I0J101600D01*
G01*
X159194500Y-91668600D01*
G75*
G02*
X159296100Y-91567000I101600J0D01*
G01*
X160566100Y-91567000D01*
G75*
G02*
X160667700Y-91668600I0J-101600D01*
G01*
X160667700Y-92938600D01*
G75*
G02*
X160566100Y-93040200I-101600J0D01*
G01*
G37*
G36*
G01*
X153860500Y-128752600D02*
X153860500Y-126974600D01*
G75*
G02*
X153962100Y-126873000I101600J0D01*
G01*
X155740100Y-126873000D01*
G75*
G02*
X155841700Y-126974600I0J-101600D01*
G01*
X155841700Y-128752600D01*
G75*
G02*
X155740100Y-128854200I-101600J0D01*
G01*
X153962100Y-128854200D01*
G75*
G02*
X153860500Y-128752600I0J101600D01*
G01*
G37*
D31*
X165011100Y-127863600D03*
G36*
G01*
X143182700Y-67963600D02*
X143182700Y-68063600D01*
G75*
G02*
X143081100Y-68165200I-101600J0D01*
G01*
X142981100Y-68165200D01*
G75*
G02*
X142879500Y-68063600I0J101600D01*
G01*
X142879500Y-67963600D01*
G75*
G02*
X142981100Y-67862000I101600J0D01*
G01*
X143081100Y-67862000D01*
G75*
G02*
X143182700Y-67963600I0J-101600D01*
G01*
G37*
G36*
G01*
X147382700Y-65213600D02*
X147382700Y-65313600D01*
G75*
G02*
X147281100Y-65415200I-101600J0D01*
G01*
X147181100Y-65415200D01*
G75*
G02*
X147079500Y-65313600I0J101600D01*
G01*
X147079500Y-65213600D01*
G75*
G02*
X147181100Y-65112000I101600J0D01*
G01*
X147281100Y-65112000D01*
G75*
G02*
X147382700Y-65213600I0J-101600D01*
G01*
G37*
G36*
G01*
X147382700Y-70263600D02*
X147382700Y-70363600D01*
G75*
G02*
X147281100Y-70465200I-101600J0D01*
G01*
X147181100Y-70465200D01*
G75*
G02*
X147079500Y-70363600I0J101600D01*
G01*
X147079500Y-70263600D01*
G75*
G02*
X147181100Y-70162000I101600J0D01*
G01*
X147281100Y-70162000D01*
G75*
G02*
X147382700Y-70263600I0J-101600D01*
G01*
G37*
D32*
X147231100Y-70913600D03*
X142431100Y-68013600D03*
X147231100Y-64613600D03*
G36*
G01*
X139849500Y-142043600D02*
X139849500Y-141943600D01*
G75*
G02*
X139951100Y-141842000I101600J0D01*
G01*
X140051100Y-141842000D01*
G75*
G02*
X140152700Y-141943600I0J-101600D01*
G01*
X140152700Y-142043600D01*
G75*
G02*
X140051100Y-142145200I-101600J0D01*
G01*
X139951100Y-142145200D01*
G75*
G02*
X139849500Y-142043600I0J101600D01*
G01*
G37*
G36*
G01*
X135649500Y-144793600D02*
X135649500Y-144693600D01*
G75*
G02*
X135751100Y-144592000I101600J0D01*
G01*
X135851100Y-144592000D01*
G75*
G02*
X135952700Y-144693600I0J-101600D01*
G01*
X135952700Y-144793600D01*
G75*
G02*
X135851100Y-144895200I-101600J0D01*
G01*
X135751100Y-144895200D01*
G75*
G02*
X135649500Y-144793600I0J101600D01*
G01*
G37*
G36*
G01*
X135649500Y-139743600D02*
X135649500Y-139643600D01*
G75*
G02*
X135751100Y-139542000I101600J0D01*
G01*
X135851100Y-139542000D01*
G75*
G02*
X135952700Y-139643600I0J-101600D01*
G01*
X135952700Y-139743600D01*
G75*
G02*
X135851100Y-139845200I-101600J0D01*
G01*
X135751100Y-139845200D01*
G75*
G02*
X135649500Y-139743600I0J101600D01*
G01*
G37*
X135801100Y-139093600D03*
X140601100Y-141993600D03*
X135801100Y-145393600D03*
G36*
G01*
X156359500Y-142043600D02*
X156359500Y-141943600D01*
G75*
G02*
X156461100Y-141842000I101600J0D01*
G01*
X156561100Y-141842000D01*
G75*
G02*
X156662700Y-141943600I0J-101600D01*
G01*
X156662700Y-142043600D01*
G75*
G02*
X156561100Y-142145200I-101600J0D01*
G01*
X156461100Y-142145200D01*
G75*
G02*
X156359500Y-142043600I0J101600D01*
G01*
G37*
G36*
G01*
X152159500Y-144793600D02*
X152159500Y-144693600D01*
G75*
G02*
X152261100Y-144592000I101600J0D01*
G01*
X152361100Y-144592000D01*
G75*
G02*
X152462700Y-144693600I0J-101600D01*
G01*
X152462700Y-144793600D01*
G75*
G02*
X152361100Y-144895200I-101600J0D01*
G01*
X152261100Y-144895200D01*
G75*
G02*
X152159500Y-144793600I0J101600D01*
G01*
G37*
G36*
G01*
X152159500Y-139743600D02*
X152159500Y-139643600D01*
G75*
G02*
X152261100Y-139542000I101600J0D01*
G01*
X152361100Y-139542000D01*
G75*
G02*
X152462700Y-139643600I0J-101600D01*
G01*
X152462700Y-139743600D01*
G75*
G02*
X152361100Y-139845200I-101600J0D01*
G01*
X152261100Y-139845200D01*
G75*
G02*
X152159500Y-139743600I0J101600D01*
G01*
G37*
X152311100Y-139093600D03*
X157111100Y-141993600D03*
X152311100Y-145393600D03*
D33*
X119291100Y-79823600D03*
X119291100Y-66683600D03*
D34*
X121691100Y-76753600D03*
X121691100Y-74253600D03*
X121691100Y-72253600D03*
X121691100Y-69753600D03*
G36*
G01*
X180106100Y-130650200D02*
X177856100Y-130650200D01*
G75*
G02*
X177754500Y-130548600I0J101600D01*
G01*
X177754500Y-128298600D01*
G75*
G02*
X177856100Y-128197000I101600J0D01*
G01*
X180106100Y-128197000D01*
G75*
G02*
X180207700Y-128298600I0J-101600D01*
G01*
X180207700Y-130548600D01*
G75*
G02*
X180106100Y-130650200I-101600J0D01*
G01*
G37*
G36*
G01*
X180106100Y-122450200D02*
X177856100Y-122450200D01*
G75*
G02*
X177754500Y-122348600I0J101600D01*
G01*
X177754500Y-120098600D01*
G75*
G02*
X177856100Y-119997000I101600J0D01*
G01*
X180106100Y-119997000D01*
G75*
G02*
X180207700Y-120098600I0J-101600D01*
G01*
X180207700Y-122348600D01*
G75*
G02*
X180106100Y-122450200I-101600J0D01*
G01*
G37*
G36*
G01*
X179635100Y-124079200D02*
X178327100Y-124079200D01*
G75*
G02*
X178225500Y-123977600I0J101600D01*
G01*
X178225500Y-122669600D01*
G75*
G02*
X178327100Y-122568000I101600J0D01*
G01*
X179635100Y-122568000D01*
G75*
G02*
X179736700Y-122669600I0J-101600D01*
G01*
X179736700Y-123977600D01*
G75*
G02*
X179635100Y-124079200I-101600J0D01*
G01*
G37*
G36*
G01*
X179635100Y-128079200D02*
X178327100Y-128079200D01*
G75*
G02*
X178225500Y-127977600I0J101600D01*
G01*
X178225500Y-126669600D01*
G75*
G02*
X178327100Y-126568000I101600J0D01*
G01*
X179635100Y-126568000D01*
G75*
G02*
X179736700Y-126669600I0J-101600D01*
G01*
X179736700Y-127977600D01*
G75*
G02*
X179635100Y-128079200I-101600J0D01*
G01*
G37*
G36*
G01*
X179635100Y-126079200D02*
X178327100Y-126079200D01*
G75*
G02*
X178225500Y-125977600I0J101600D01*
G01*
X178225500Y-124669600D01*
G75*
G02*
X178327100Y-124568000I101600J0D01*
G01*
X179635100Y-124568000D01*
G75*
G02*
X179736700Y-124669600I0J-101600D01*
G01*
X179736700Y-125977600D01*
G75*
G02*
X179635100Y-126079200I-101600J0D01*
G01*
G37*
G36*
G01*
X177856100Y-76817000D02*
X180106100Y-76817000D01*
G75*
G02*
X180207700Y-76918600I0J-101600D01*
G01*
X180207700Y-79168600D01*
G75*
G02*
X180106100Y-79270200I-101600J0D01*
G01*
X177856100Y-79270200D01*
G75*
G02*
X177754500Y-79168600I0J101600D01*
G01*
X177754500Y-76918600D01*
G75*
G02*
X177856100Y-76817000I101600J0D01*
G01*
G37*
G36*
G01*
X177856100Y-85017000D02*
X180106100Y-85017000D01*
G75*
G02*
X180207700Y-85118600I0J-101600D01*
G01*
X180207700Y-87368600D01*
G75*
G02*
X180106100Y-87470200I-101600J0D01*
G01*
X177856100Y-87470200D01*
G75*
G02*
X177754500Y-87368600I0J101600D01*
G01*
X177754500Y-85118600D01*
G75*
G02*
X177856100Y-85017000I101600J0D01*
G01*
G37*
G36*
G01*
X178327100Y-83388000D02*
X179635100Y-83388000D01*
G75*
G02*
X179736700Y-83489600I0J-101600D01*
G01*
X179736700Y-84797600D01*
G75*
G02*
X179635100Y-84899200I-101600J0D01*
G01*
X178327100Y-84899200D01*
G75*
G02*
X178225500Y-84797600I0J101600D01*
G01*
X178225500Y-83489600D01*
G75*
G02*
X178327100Y-83388000I101600J0D01*
G01*
G37*
G36*
G01*
X178327100Y-79388000D02*
X179635100Y-79388000D01*
G75*
G02*
X179736700Y-79489600I0J-101600D01*
G01*
X179736700Y-80797600D01*
G75*
G02*
X179635100Y-80899200I-101600J0D01*
G01*
X178327100Y-80899200D01*
G75*
G02*
X178225500Y-80797600I0J101600D01*
G01*
X178225500Y-79489600D01*
G75*
G02*
X178327100Y-79388000I101600J0D01*
G01*
G37*
G36*
G01*
X178327100Y-81388000D02*
X179635100Y-81388000D01*
G75*
G02*
X179736700Y-81489600I0J-101600D01*
G01*
X179736700Y-82797600D01*
G75*
G02*
X179635100Y-82899200I-101600J0D01*
G01*
X178327100Y-82899200D01*
G75*
G02*
X178225500Y-82797600I0J101600D01*
G01*
X178225500Y-81489600D01*
G75*
G02*
X178327100Y-81388000I101600J0D01*
G01*
G37*
D35*
X139611100Y-106527600D03*
D36*
X142151100Y-124053600D03*
X139611100Y-124053600D03*
X137071100Y-124053600D03*
D37*
X129451100Y-132943600D03*
X129451100Y-127863600D03*
X133261100Y-132943600D03*
X133261100Y-127863600D03*
D38*
X139341100Y-79603600D03*
G36*
G01*
X136679500Y-80163601D02*
X136679500Y-79043599D01*
G75*
G02*
X136781099Y-78942000I101599J0D01*
G01*
X137901101Y-78942000D01*
G75*
G02*
X138002700Y-79043599I0J-101599D01*
G01*
X138002700Y-80163601D01*
G75*
G02*
X137901101Y-80265200I-101599J0D01*
G01*
X136781099Y-80265200D01*
G75*
G02*
X136679500Y-80163601I0J101599D01*
G01*
G37*
X148501100Y-78603600D03*
G36*
G01*
X149061101Y-81265200D02*
X147941099Y-81265200D01*
G75*
G02*
X147839500Y-81163601I0J101599D01*
G01*
X147839500Y-80043599D01*
G75*
G02*
X147941099Y-79942000I101599J0D01*
G01*
X149061101Y-79942000D01*
G75*
G02*
X149162700Y-80043599I0J-101599D01*
G01*
X149162700Y-81163601D01*
G75*
G02*
X149061101Y-81265200I-101599J0D01*
G01*
G37*
D39*
X171894500Y-110083600D03*
X148501100Y-110083600D03*
M02*
