%FSLAX45Y45*%
G04 Gerber Fmt 4.5, Leading zero omitted, Abs format (unit mm)*
G04 Created by KiCad (PCBNEW (5.1.10)-1) date 2021-11-03 22:51:22*
%MOMM*%
%LPD*%
G01*
G04 APERTURE LIST*
%TA.AperFunction,Profile*%
%ADD10C,0.152400*%
%TD*%
%ADD11C,0.200000*%
%ADD12C,0.300000*%
G04 APERTURE END LIST*
D10*
X18161000Y-6172200D02*
X18161000Y-14859000D01*
X11531600Y-6172200D02*
X18161000Y-6172200D01*
X11531600Y-14859000D02*
X11531600Y-6172200D01*
X18161000Y-14859000D02*
X11531600Y-14859000D01*
D11*
X13530110Y-13859360D02*
X13630110Y-13959360D01*
X13630110Y-13859360D02*
X13530110Y-13959360D01*
X13530110Y-14489360D02*
X13630110Y-14589360D01*
X13630110Y-14489360D02*
X13530110Y-14589360D01*
X14010110Y-14149360D02*
X14110110Y-14249360D01*
X14110110Y-14149360D02*
X14010110Y-14249360D01*
X14193110Y-6751360D02*
X14293110Y-6851360D01*
X14293110Y-6751360D02*
X14193110Y-6851360D01*
X14673110Y-6411360D02*
X14773110Y-6511360D01*
X14773110Y-6411360D02*
X14673110Y-6511360D01*
X14673110Y-7041360D02*
X14773110Y-7141360D01*
X14773110Y-7041360D02*
X14673110Y-7141360D01*
X15181110Y-13859360D02*
X15281110Y-13959360D01*
X15281110Y-13859360D02*
X15181110Y-13959360D01*
X15181110Y-14489360D02*
X15281110Y-14589360D01*
X15281110Y-14489360D02*
X15181110Y-14589360D01*
X15661110Y-14149360D02*
X15761110Y-14249360D01*
X15761110Y-14149360D02*
X15661110Y-14249360D01*
X14126210Y-10652760D02*
G75*
G03*
X14126210Y-10652760I-165100J0D01*
G01*
D12*
X11810408Y-15332334D02*
X11810408Y-15032334D01*
X11881837Y-15032334D01*
X11924694Y-15046620D01*
X11953266Y-15075191D01*
X11967551Y-15103763D01*
X11981837Y-15160906D01*
X11981837Y-15203763D01*
X11967551Y-15260906D01*
X11953266Y-15289477D01*
X11924694Y-15318049D01*
X11881837Y-15332334D01*
X11810408Y-15332334D01*
X12110408Y-15332334D02*
X12110408Y-15132334D01*
X12110408Y-15189477D02*
X12124694Y-15160906D01*
X12138980Y-15146620D01*
X12167551Y-15132334D01*
X12196123Y-15132334D01*
X12296123Y-15332334D02*
X12296123Y-15132334D01*
X12296123Y-15032334D02*
X12281837Y-15046620D01*
X12296123Y-15060906D01*
X12310408Y-15046620D01*
X12296123Y-15032334D01*
X12296123Y-15060906D01*
X12481837Y-15332334D02*
X12453266Y-15318049D01*
X12438980Y-15289477D01*
X12438980Y-15032334D01*
X12638980Y-15332334D02*
X12610408Y-15318049D01*
X12596123Y-15289477D01*
X12596123Y-15032334D01*
X12981837Y-15332334D02*
X12981837Y-15032334D01*
X13081837Y-15246620D01*
X13181837Y-15032334D01*
X13181837Y-15332334D01*
X13453266Y-15332334D02*
X13453266Y-15175191D01*
X13438980Y-15146620D01*
X13410408Y-15132334D01*
X13353266Y-15132334D01*
X13324694Y-15146620D01*
X13453266Y-15318049D02*
X13424694Y-15332334D01*
X13353266Y-15332334D01*
X13324694Y-15318049D01*
X13310408Y-15289477D01*
X13310408Y-15260906D01*
X13324694Y-15232334D01*
X13353266Y-15218049D01*
X13424694Y-15218049D01*
X13453266Y-15203763D01*
X13596123Y-15132334D02*
X13596123Y-15432334D01*
X13596123Y-15146620D02*
X13624694Y-15132334D01*
X13681837Y-15132334D01*
X13710408Y-15146620D01*
X13724694Y-15160906D01*
X13738980Y-15189477D01*
X13738980Y-15275191D01*
X13724694Y-15303763D01*
X13710408Y-15318049D01*
X13681837Y-15332334D01*
X13624694Y-15332334D01*
X13596123Y-15318049D01*
X13867551Y-15303763D02*
X13881837Y-15318049D01*
X13867551Y-15332334D01*
X13853266Y-15318049D01*
X13867551Y-15303763D01*
X13867551Y-15332334D01*
X13867551Y-15146620D02*
X13881837Y-15160906D01*
X13867551Y-15175191D01*
X13853266Y-15160906D01*
X13867551Y-15146620D01*
X13867551Y-15175191D01*
X11423980Y-15776620D02*
X11523980Y-15876620D01*
X11523980Y-15776620D02*
X11423980Y-15876620D01*
X11967551Y-15962334D02*
X11796123Y-15962334D01*
X11881837Y-15962334D02*
X11881837Y-15662334D01*
X11853266Y-15705191D01*
X11824694Y-15733763D01*
X11796123Y-15748049D01*
X12096123Y-15933763D02*
X12110408Y-15948049D01*
X12096123Y-15962334D01*
X12081837Y-15948049D01*
X12096123Y-15933763D01*
X12096123Y-15962334D01*
X12296123Y-15662334D02*
X12324694Y-15662334D01*
X12353266Y-15676620D01*
X12367551Y-15690906D01*
X12381837Y-15719477D01*
X12396123Y-15776620D01*
X12396123Y-15848049D01*
X12381837Y-15905191D01*
X12367551Y-15933763D01*
X12353266Y-15948049D01*
X12324694Y-15962334D01*
X12296123Y-15962334D01*
X12267551Y-15948049D01*
X12253266Y-15933763D01*
X12238980Y-15905191D01*
X12224694Y-15848049D01*
X12224694Y-15776620D01*
X12238980Y-15719477D01*
X12253266Y-15690906D01*
X12267551Y-15676620D01*
X12296123Y-15662334D01*
X12581837Y-15662334D02*
X12610408Y-15662334D01*
X12638980Y-15676620D01*
X12653266Y-15690906D01*
X12667551Y-15719477D01*
X12681837Y-15776620D01*
X12681837Y-15848049D01*
X12667551Y-15905191D01*
X12653266Y-15933763D01*
X12638980Y-15948049D01*
X12610408Y-15962334D01*
X12581837Y-15962334D01*
X12553266Y-15948049D01*
X12538980Y-15933763D01*
X12524694Y-15905191D01*
X12510408Y-15848049D01*
X12510408Y-15776620D01*
X12524694Y-15719477D01*
X12538980Y-15690906D01*
X12553266Y-15676620D01*
X12581837Y-15662334D01*
X12867551Y-15662334D02*
X12896123Y-15662334D01*
X12924694Y-15676620D01*
X12938980Y-15690906D01*
X12953266Y-15719477D01*
X12967551Y-15776620D01*
X12967551Y-15848049D01*
X12953266Y-15905191D01*
X12938980Y-15933763D01*
X12924694Y-15948049D01*
X12896123Y-15962334D01*
X12867551Y-15962334D01*
X12838980Y-15948049D01*
X12824694Y-15933763D01*
X12810408Y-15905191D01*
X12796123Y-15848049D01*
X12796123Y-15776620D01*
X12810408Y-15719477D01*
X12824694Y-15690906D01*
X12838980Y-15676620D01*
X12867551Y-15662334D01*
X13096123Y-15962334D02*
X13096123Y-15762334D01*
X13096123Y-15790906D02*
X13110408Y-15776620D01*
X13138980Y-15762334D01*
X13181837Y-15762334D01*
X13210408Y-15776620D01*
X13224694Y-15805191D01*
X13224694Y-15962334D01*
X13224694Y-15805191D02*
X13238980Y-15776620D01*
X13267551Y-15762334D01*
X13310408Y-15762334D01*
X13338980Y-15776620D01*
X13353266Y-15805191D01*
X13353266Y-15962334D01*
X13496123Y-15962334D02*
X13496123Y-15762334D01*
X13496123Y-15790906D02*
X13510408Y-15776620D01*
X13538980Y-15762334D01*
X13581837Y-15762334D01*
X13610408Y-15776620D01*
X13624694Y-15805191D01*
X13624694Y-15962334D01*
X13624694Y-15805191D02*
X13638980Y-15776620D01*
X13667551Y-15762334D01*
X13710408Y-15762334D01*
X13738980Y-15776620D01*
X13753266Y-15805191D01*
X13753266Y-15962334D01*
X14338980Y-15648049D02*
X14081837Y-16033763D01*
X14724694Y-15662334D02*
X14753266Y-15662334D01*
X14781837Y-15676620D01*
X14796123Y-15690906D01*
X14810408Y-15719477D01*
X14824694Y-15776620D01*
X14824694Y-15848049D01*
X14810408Y-15905191D01*
X14796123Y-15933763D01*
X14781837Y-15948049D01*
X14753266Y-15962334D01*
X14724694Y-15962334D01*
X14696123Y-15948049D01*
X14681837Y-15933763D01*
X14667551Y-15905191D01*
X14653266Y-15848049D01*
X14653266Y-15776620D01*
X14667551Y-15719477D01*
X14681837Y-15690906D01*
X14696123Y-15676620D01*
X14724694Y-15662334D01*
X14953266Y-15933763D02*
X14967551Y-15948049D01*
X14953266Y-15962334D01*
X14938980Y-15948049D01*
X14953266Y-15933763D01*
X14953266Y-15962334D01*
X15153266Y-15662334D02*
X15181837Y-15662334D01*
X15210408Y-15676620D01*
X15224694Y-15690906D01*
X15238980Y-15719477D01*
X15253266Y-15776620D01*
X15253266Y-15848049D01*
X15238980Y-15905191D01*
X15224694Y-15933763D01*
X15210408Y-15948049D01*
X15181837Y-15962334D01*
X15153266Y-15962334D01*
X15124694Y-15948049D01*
X15110408Y-15933763D01*
X15096123Y-15905191D01*
X15081837Y-15848049D01*
X15081837Y-15776620D01*
X15096123Y-15719477D01*
X15110408Y-15690906D01*
X15124694Y-15676620D01*
X15153266Y-15662334D01*
X15353266Y-15662334D02*
X15538980Y-15662334D01*
X15438980Y-15776620D01*
X15481837Y-15776620D01*
X15510408Y-15790906D01*
X15524694Y-15805191D01*
X15538980Y-15833763D01*
X15538980Y-15905191D01*
X15524694Y-15933763D01*
X15510408Y-15948049D01*
X15481837Y-15962334D01*
X15396123Y-15962334D01*
X15367551Y-15948049D01*
X15353266Y-15933763D01*
X15681837Y-15962334D02*
X15738980Y-15962334D01*
X15767551Y-15948049D01*
X15781837Y-15933763D01*
X15810408Y-15890906D01*
X15824694Y-15833763D01*
X15824694Y-15719477D01*
X15810408Y-15690906D01*
X15796123Y-15676620D01*
X15767551Y-15662334D01*
X15710408Y-15662334D01*
X15681837Y-15676620D01*
X15667551Y-15690906D01*
X15653266Y-15719477D01*
X15653266Y-15790906D01*
X15667551Y-15819477D01*
X15681837Y-15833763D01*
X15710408Y-15848049D01*
X15767551Y-15848049D01*
X15796123Y-15833763D01*
X15810408Y-15819477D01*
X15824694Y-15790906D01*
X16081837Y-15762334D02*
X16081837Y-15962334D01*
X16010408Y-15648049D02*
X15938980Y-15862334D01*
X16124694Y-15862334D01*
X16224694Y-15662334D02*
X16224694Y-15719477D01*
X16338980Y-15662334D02*
X16338980Y-15719477D01*
X16781837Y-16076620D02*
X16767551Y-16062334D01*
X16738980Y-16019477D01*
X16724694Y-15990906D01*
X16710408Y-15948049D01*
X16696123Y-15876620D01*
X16696123Y-15819477D01*
X16710408Y-15748049D01*
X16724694Y-15705191D01*
X16738980Y-15676620D01*
X16767551Y-15633763D01*
X16781837Y-15619477D01*
X16910408Y-15962334D02*
X16967551Y-15962334D01*
X16996123Y-15948049D01*
X17010408Y-15933763D01*
X17038980Y-15890906D01*
X17053266Y-15833763D01*
X17053266Y-15719477D01*
X17038980Y-15690906D01*
X17024694Y-15676620D01*
X16996123Y-15662334D01*
X16938980Y-15662334D01*
X16910408Y-15676620D01*
X16896123Y-15690906D01*
X16881837Y-15719477D01*
X16881837Y-15790906D01*
X16896123Y-15819477D01*
X16910408Y-15833763D01*
X16938980Y-15848049D01*
X16996123Y-15848049D01*
X17024694Y-15833763D01*
X17038980Y-15819477D01*
X17053266Y-15790906D01*
X17410408Y-15962334D02*
X17410408Y-15662334D01*
X17538980Y-15962334D02*
X17538980Y-15805191D01*
X17524694Y-15776620D01*
X17496123Y-15762334D01*
X17453266Y-15762334D01*
X17424694Y-15776620D01*
X17410408Y-15790906D01*
X17724694Y-15962334D02*
X17696123Y-15948049D01*
X17681837Y-15933763D01*
X17667551Y-15905191D01*
X17667551Y-15819477D01*
X17681837Y-15790906D01*
X17696123Y-15776620D01*
X17724694Y-15762334D01*
X17767551Y-15762334D01*
X17796123Y-15776620D01*
X17810408Y-15790906D01*
X17824694Y-15819477D01*
X17824694Y-15905191D01*
X17810408Y-15933763D01*
X17796123Y-15948049D01*
X17767551Y-15962334D01*
X17724694Y-15962334D01*
X17996123Y-15962334D02*
X17967551Y-15948049D01*
X17953266Y-15919477D01*
X17953266Y-15662334D01*
X18224694Y-15948049D02*
X18196123Y-15962334D01*
X18138980Y-15962334D01*
X18110408Y-15948049D01*
X18096123Y-15919477D01*
X18096123Y-15805191D01*
X18110408Y-15776620D01*
X18138980Y-15762334D01*
X18196123Y-15762334D01*
X18224694Y-15776620D01*
X18238980Y-15805191D01*
X18238980Y-15833763D01*
X18096123Y-15862334D01*
X18353266Y-15948049D02*
X18381837Y-15962334D01*
X18438980Y-15962334D01*
X18467551Y-15948049D01*
X18481837Y-15919477D01*
X18481837Y-15905191D01*
X18467551Y-15876620D01*
X18438980Y-15862334D01*
X18396123Y-15862334D01*
X18367551Y-15848049D01*
X18353266Y-15819477D01*
X18353266Y-15805191D01*
X18367551Y-15776620D01*
X18396123Y-15762334D01*
X18438980Y-15762334D01*
X18467551Y-15776620D01*
X18581837Y-16076620D02*
X18596123Y-16062334D01*
X18624694Y-16019477D01*
X18638980Y-15990906D01*
X18653266Y-15948049D01*
X18667551Y-15876620D01*
X18667551Y-15819477D01*
X18653266Y-15748049D01*
X18638980Y-15705191D01*
X18624694Y-15676620D01*
X18596123Y-15633763D01*
X18581837Y-15619477D01*
X19124694Y-16076620D02*
X19110408Y-16062334D01*
X19081837Y-16019477D01*
X19067551Y-15990906D01*
X19053266Y-15948049D01*
X19038980Y-15876620D01*
X19038980Y-15819477D01*
X19053266Y-15748049D01*
X19067551Y-15705191D01*
X19081837Y-15676620D01*
X19110408Y-15633763D01*
X19124694Y-15619477D01*
X19238980Y-15762334D02*
X19238980Y-15962334D01*
X19238980Y-15790906D02*
X19253266Y-15776620D01*
X19281837Y-15762334D01*
X19324694Y-15762334D01*
X19353266Y-15776620D01*
X19367551Y-15805191D01*
X19367551Y-15962334D01*
X19553266Y-15962334D02*
X19524694Y-15948049D01*
X19510408Y-15933763D01*
X19496123Y-15905191D01*
X19496123Y-15819477D01*
X19510408Y-15790906D01*
X19524694Y-15776620D01*
X19553266Y-15762334D01*
X19596123Y-15762334D01*
X19624694Y-15776620D01*
X19638980Y-15790906D01*
X19653266Y-15819477D01*
X19653266Y-15905191D01*
X19638980Y-15933763D01*
X19624694Y-15948049D01*
X19596123Y-15962334D01*
X19553266Y-15962334D01*
X19738980Y-15762334D02*
X19853266Y-15762334D01*
X19781837Y-15662334D02*
X19781837Y-15919477D01*
X19796123Y-15948049D01*
X19824694Y-15962334D01*
X19853266Y-15962334D01*
X20181837Y-15762334D02*
X20181837Y-16062334D01*
X20181837Y-15776620D02*
X20210408Y-15762334D01*
X20267551Y-15762334D01*
X20296123Y-15776620D01*
X20310408Y-15790906D01*
X20324694Y-15819477D01*
X20324694Y-15905191D01*
X20310408Y-15933763D01*
X20296123Y-15948049D01*
X20267551Y-15962334D01*
X20210408Y-15962334D01*
X20181837Y-15948049D01*
X20496123Y-15962334D02*
X20467551Y-15948049D01*
X20453266Y-15919477D01*
X20453266Y-15662334D01*
X20738980Y-15962334D02*
X20738980Y-15805191D01*
X20724694Y-15776620D01*
X20696123Y-15762334D01*
X20638980Y-15762334D01*
X20610408Y-15776620D01*
X20738980Y-15948049D02*
X20710408Y-15962334D01*
X20638980Y-15962334D01*
X20610408Y-15948049D01*
X20596123Y-15919477D01*
X20596123Y-15890906D01*
X20610408Y-15862334D01*
X20638980Y-15848049D01*
X20710408Y-15848049D01*
X20738980Y-15833763D01*
X20838980Y-15762334D02*
X20953266Y-15762334D01*
X20881837Y-15662334D02*
X20881837Y-15919477D01*
X20896123Y-15948049D01*
X20924694Y-15962334D01*
X20953266Y-15962334D01*
X21167551Y-15948049D02*
X21138980Y-15962334D01*
X21081837Y-15962334D01*
X21053266Y-15948049D01*
X21038980Y-15919477D01*
X21038980Y-15805191D01*
X21053266Y-15776620D01*
X21081837Y-15762334D01*
X21138980Y-15762334D01*
X21167551Y-15776620D01*
X21181837Y-15805191D01*
X21181837Y-15833763D01*
X21038980Y-15862334D01*
X21438980Y-15962334D02*
X21438980Y-15662334D01*
X21438980Y-15948049D02*
X21410408Y-15962334D01*
X21353266Y-15962334D01*
X21324694Y-15948049D01*
X21310408Y-15933763D01*
X21296123Y-15905191D01*
X21296123Y-15819477D01*
X21310408Y-15790906D01*
X21324694Y-15776620D01*
X21353266Y-15762334D01*
X21410408Y-15762334D01*
X21438980Y-15776620D01*
X21553266Y-16076620D02*
X21567551Y-16062334D01*
X21596123Y-16019477D01*
X21610408Y-15990906D01*
X21624694Y-15948049D01*
X21638980Y-15876620D01*
X21638980Y-15819477D01*
X21624694Y-15748049D01*
X21610408Y-15705191D01*
X21596123Y-15676620D01*
X21567551Y-15633763D01*
X21553266Y-15619477D01*
X11523980Y-16222620D02*
G75*
G03*
X11523980Y-16222620I-165100J0D01*
G01*
X11781837Y-16058334D02*
X11967551Y-16058334D01*
X11867551Y-16172620D01*
X11910408Y-16172620D01*
X11938980Y-16186906D01*
X11953266Y-16201191D01*
X11967551Y-16229763D01*
X11967551Y-16301191D01*
X11953266Y-16329763D01*
X11938980Y-16344049D01*
X11910408Y-16358334D01*
X11824694Y-16358334D01*
X11796123Y-16344049D01*
X11781837Y-16329763D01*
X12096123Y-16329763D02*
X12110408Y-16344049D01*
X12096123Y-16358334D01*
X12081837Y-16344049D01*
X12096123Y-16329763D01*
X12096123Y-16358334D01*
X12210408Y-16058334D02*
X12396123Y-16058334D01*
X12296123Y-16172620D01*
X12338980Y-16172620D01*
X12367551Y-16186906D01*
X12381837Y-16201191D01*
X12396123Y-16229763D01*
X12396123Y-16301191D01*
X12381837Y-16329763D01*
X12367551Y-16344049D01*
X12338980Y-16358334D01*
X12253266Y-16358334D01*
X12224694Y-16344049D01*
X12210408Y-16329763D01*
X12581837Y-16058334D02*
X12610408Y-16058334D01*
X12638980Y-16072620D01*
X12653266Y-16086906D01*
X12667551Y-16115477D01*
X12681837Y-16172620D01*
X12681837Y-16244049D01*
X12667551Y-16301191D01*
X12653266Y-16329763D01*
X12638980Y-16344049D01*
X12610408Y-16358334D01*
X12581837Y-16358334D01*
X12553266Y-16344049D01*
X12538980Y-16329763D01*
X12524694Y-16301191D01*
X12510408Y-16244049D01*
X12510408Y-16172620D01*
X12524694Y-16115477D01*
X12538980Y-16086906D01*
X12553266Y-16072620D01*
X12581837Y-16058334D01*
X12796123Y-16086906D02*
X12810408Y-16072620D01*
X12838980Y-16058334D01*
X12910408Y-16058334D01*
X12938980Y-16072620D01*
X12953266Y-16086906D01*
X12967551Y-16115477D01*
X12967551Y-16144049D01*
X12953266Y-16186906D01*
X12781837Y-16358334D01*
X12967551Y-16358334D01*
X13096123Y-16358334D02*
X13096123Y-16158334D01*
X13096123Y-16186906D02*
X13110408Y-16172620D01*
X13138980Y-16158334D01*
X13181837Y-16158334D01*
X13210408Y-16172620D01*
X13224694Y-16201191D01*
X13224694Y-16358334D01*
X13224694Y-16201191D02*
X13238980Y-16172620D01*
X13267551Y-16158334D01*
X13310408Y-16158334D01*
X13338980Y-16172620D01*
X13353266Y-16201191D01*
X13353266Y-16358334D01*
X13496123Y-16358334D02*
X13496123Y-16158334D01*
X13496123Y-16186906D02*
X13510408Y-16172620D01*
X13538980Y-16158334D01*
X13581837Y-16158334D01*
X13610408Y-16172620D01*
X13624694Y-16201191D01*
X13624694Y-16358334D01*
X13624694Y-16201191D02*
X13638980Y-16172620D01*
X13667551Y-16158334D01*
X13710408Y-16158334D01*
X13738980Y-16172620D01*
X13753266Y-16201191D01*
X13753266Y-16358334D01*
X14338980Y-16044049D02*
X14081837Y-16429763D01*
X14724694Y-16058334D02*
X14753266Y-16058334D01*
X14781837Y-16072620D01*
X14796123Y-16086906D01*
X14810408Y-16115477D01*
X14824694Y-16172620D01*
X14824694Y-16244049D01*
X14810408Y-16301191D01*
X14796123Y-16329763D01*
X14781837Y-16344049D01*
X14753266Y-16358334D01*
X14724694Y-16358334D01*
X14696123Y-16344049D01*
X14681837Y-16329763D01*
X14667551Y-16301191D01*
X14653266Y-16244049D01*
X14653266Y-16172620D01*
X14667551Y-16115477D01*
X14681837Y-16086906D01*
X14696123Y-16072620D01*
X14724694Y-16058334D01*
X14953266Y-16329763D02*
X14967551Y-16344049D01*
X14953266Y-16358334D01*
X14938980Y-16344049D01*
X14953266Y-16329763D01*
X14953266Y-16358334D01*
X15253266Y-16358334D02*
X15081837Y-16358334D01*
X15167551Y-16358334D02*
X15167551Y-16058334D01*
X15138980Y-16101191D01*
X15110408Y-16129763D01*
X15081837Y-16144049D01*
X15353266Y-16058334D02*
X15538980Y-16058334D01*
X15438980Y-16172620D01*
X15481837Y-16172620D01*
X15510408Y-16186906D01*
X15524694Y-16201191D01*
X15538980Y-16229763D01*
X15538980Y-16301191D01*
X15524694Y-16329763D01*
X15510408Y-16344049D01*
X15481837Y-16358334D01*
X15396123Y-16358334D01*
X15367551Y-16344049D01*
X15353266Y-16329763D01*
X15724694Y-16058334D02*
X15753266Y-16058334D01*
X15781837Y-16072620D01*
X15796123Y-16086906D01*
X15810408Y-16115477D01*
X15824694Y-16172620D01*
X15824694Y-16244049D01*
X15810408Y-16301191D01*
X15796123Y-16329763D01*
X15781837Y-16344049D01*
X15753266Y-16358334D01*
X15724694Y-16358334D01*
X15696123Y-16344049D01*
X15681837Y-16329763D01*
X15667551Y-16301191D01*
X15653266Y-16244049D01*
X15653266Y-16172620D01*
X15667551Y-16115477D01*
X15681837Y-16086906D01*
X15696123Y-16072620D01*
X15724694Y-16058334D01*
X16010408Y-16058334D02*
X16038980Y-16058334D01*
X16067551Y-16072620D01*
X16081837Y-16086906D01*
X16096123Y-16115477D01*
X16110408Y-16172620D01*
X16110408Y-16244049D01*
X16096123Y-16301191D01*
X16081837Y-16329763D01*
X16067551Y-16344049D01*
X16038980Y-16358334D01*
X16010408Y-16358334D01*
X15981837Y-16344049D01*
X15967551Y-16329763D01*
X15953266Y-16301191D01*
X15938980Y-16244049D01*
X15938980Y-16172620D01*
X15953266Y-16115477D01*
X15967551Y-16086906D01*
X15981837Y-16072620D01*
X16010408Y-16058334D01*
X16224694Y-16058334D02*
X16224694Y-16115477D01*
X16338980Y-16058334D02*
X16338980Y-16115477D01*
X16781837Y-16472620D02*
X16767551Y-16458334D01*
X16738980Y-16415477D01*
X16724694Y-16386906D01*
X16710408Y-16344049D01*
X16696123Y-16272620D01*
X16696123Y-16215477D01*
X16710408Y-16144049D01*
X16724694Y-16101191D01*
X16738980Y-16072620D01*
X16767551Y-16029763D01*
X16781837Y-16015477D01*
X17053266Y-16358334D02*
X16881837Y-16358334D01*
X16967551Y-16358334D02*
X16967551Y-16058334D01*
X16938980Y-16101191D01*
X16910408Y-16129763D01*
X16881837Y-16144049D01*
X17410408Y-16358334D02*
X17410408Y-16058334D01*
X17538980Y-16358334D02*
X17538980Y-16201191D01*
X17524694Y-16172620D01*
X17496123Y-16158334D01*
X17453266Y-16158334D01*
X17424694Y-16172620D01*
X17410408Y-16186906D01*
X17724694Y-16358334D02*
X17696123Y-16344049D01*
X17681837Y-16329763D01*
X17667551Y-16301191D01*
X17667551Y-16215477D01*
X17681837Y-16186906D01*
X17696123Y-16172620D01*
X17724694Y-16158334D01*
X17767551Y-16158334D01*
X17796123Y-16172620D01*
X17810408Y-16186906D01*
X17824694Y-16215477D01*
X17824694Y-16301191D01*
X17810408Y-16329763D01*
X17796123Y-16344049D01*
X17767551Y-16358334D01*
X17724694Y-16358334D01*
X17996123Y-16358334D02*
X17967551Y-16344049D01*
X17953266Y-16315477D01*
X17953266Y-16058334D01*
X18224694Y-16344049D02*
X18196123Y-16358334D01*
X18138980Y-16358334D01*
X18110408Y-16344049D01*
X18096123Y-16315477D01*
X18096123Y-16201191D01*
X18110408Y-16172620D01*
X18138980Y-16158334D01*
X18196123Y-16158334D01*
X18224694Y-16172620D01*
X18238980Y-16201191D01*
X18238980Y-16229763D01*
X18096123Y-16258334D01*
X18338980Y-16472620D02*
X18353266Y-16458334D01*
X18381837Y-16415477D01*
X18396123Y-16386906D01*
X18410408Y-16344049D01*
X18424694Y-16272620D01*
X18424694Y-16215477D01*
X18410408Y-16144049D01*
X18396123Y-16101191D01*
X18381837Y-16072620D01*
X18353266Y-16029763D01*
X18338980Y-16015477D01*
X18881837Y-16472620D02*
X18867551Y-16458334D01*
X18838980Y-16415477D01*
X18824694Y-16386906D01*
X18810408Y-16344049D01*
X18796123Y-16272620D01*
X18796123Y-16215477D01*
X18810408Y-16144049D01*
X18824694Y-16101191D01*
X18838980Y-16072620D01*
X18867551Y-16029763D01*
X18881837Y-16015477D01*
X18996123Y-16158334D02*
X18996123Y-16358334D01*
X18996123Y-16186906D02*
X19010408Y-16172620D01*
X19038980Y-16158334D01*
X19081837Y-16158334D01*
X19110408Y-16172620D01*
X19124694Y-16201191D01*
X19124694Y-16358334D01*
X19310408Y-16358334D02*
X19281837Y-16344049D01*
X19267551Y-16329763D01*
X19253266Y-16301191D01*
X19253266Y-16215477D01*
X19267551Y-16186906D01*
X19281837Y-16172620D01*
X19310408Y-16158334D01*
X19353266Y-16158334D01*
X19381837Y-16172620D01*
X19396123Y-16186906D01*
X19410408Y-16215477D01*
X19410408Y-16301191D01*
X19396123Y-16329763D01*
X19381837Y-16344049D01*
X19353266Y-16358334D01*
X19310408Y-16358334D01*
X19496123Y-16158334D02*
X19610408Y-16158334D01*
X19538980Y-16058334D02*
X19538980Y-16315477D01*
X19553266Y-16344049D01*
X19581837Y-16358334D01*
X19610408Y-16358334D01*
X19938980Y-16158334D02*
X19938980Y-16458334D01*
X19938980Y-16172620D02*
X19967551Y-16158334D01*
X20024694Y-16158334D01*
X20053266Y-16172620D01*
X20067551Y-16186906D01*
X20081837Y-16215477D01*
X20081837Y-16301191D01*
X20067551Y-16329763D01*
X20053266Y-16344049D01*
X20024694Y-16358334D01*
X19967551Y-16358334D01*
X19938980Y-16344049D01*
X20253266Y-16358334D02*
X20224694Y-16344049D01*
X20210408Y-16315477D01*
X20210408Y-16058334D01*
X20496123Y-16358334D02*
X20496123Y-16201191D01*
X20481837Y-16172620D01*
X20453266Y-16158334D01*
X20396123Y-16158334D01*
X20367551Y-16172620D01*
X20496123Y-16344049D02*
X20467551Y-16358334D01*
X20396123Y-16358334D01*
X20367551Y-16344049D01*
X20353266Y-16315477D01*
X20353266Y-16286906D01*
X20367551Y-16258334D01*
X20396123Y-16244049D01*
X20467551Y-16244049D01*
X20496123Y-16229763D01*
X20596123Y-16158334D02*
X20710408Y-16158334D01*
X20638980Y-16058334D02*
X20638980Y-16315477D01*
X20653266Y-16344049D01*
X20681837Y-16358334D01*
X20710408Y-16358334D01*
X20924694Y-16344049D02*
X20896123Y-16358334D01*
X20838980Y-16358334D01*
X20810408Y-16344049D01*
X20796123Y-16315477D01*
X20796123Y-16201191D01*
X20810408Y-16172620D01*
X20838980Y-16158334D01*
X20896123Y-16158334D01*
X20924694Y-16172620D01*
X20938980Y-16201191D01*
X20938980Y-16229763D01*
X20796123Y-16258334D01*
X21196123Y-16358334D02*
X21196123Y-16058334D01*
X21196123Y-16344049D02*
X21167551Y-16358334D01*
X21110408Y-16358334D01*
X21081837Y-16344049D01*
X21067551Y-16329763D01*
X21053266Y-16301191D01*
X21053266Y-16215477D01*
X21067551Y-16186906D01*
X21081837Y-16172620D01*
X21110408Y-16158334D01*
X21167551Y-16158334D01*
X21196123Y-16172620D01*
X21310408Y-16472620D02*
X21324694Y-16458334D01*
X21353266Y-16415477D01*
X21367551Y-16386906D01*
X21381837Y-16344049D01*
X21396123Y-16272620D01*
X21396123Y-16215477D01*
X21381837Y-16144049D01*
X21367551Y-16101191D01*
X21353266Y-16072620D01*
X21324694Y-16029763D01*
X21310408Y-16015477D01*
M02*
