G04 #@! TF.GenerationSoftware,KiCad,Pcbnew,(5.1.10)-1*
G04 #@! TF.CreationDate,2021-11-03T22:51:16-05:00*
G04 #@! TF.ProjectId,Kitty_Cannon_Schematic,4b697474-795f-4436-916e-6e6f6e5f5363,rev?*
G04 #@! TF.SameCoordinates,Original*
G04 #@! TF.FileFunction,Soldermask,Bot*
G04 #@! TF.FilePolarity,Negative*
%FSLAX46Y46*%
G04 Gerber Fmt 4.6, Leading zero omitted, Abs format (unit mm)*
G04 Created by KiCad (PCBNEW (5.1.10)-1) date 2021-11-03 22:51:16*
%MOMM*%
%LPD*%
G01*
G04 APERTURE LIST*
%ADD10C,0.100000*%
%ADD11C,2.082800*%
%ADD12O,1.473200X2.743200*%
%ADD13C,1.473200*%
%ADD14C,1.981200*%
%ADD15C,1.000000*%
%ADD16C,4.203200*%
%ADD17C,1.803200*%
%ADD18C,3.302000*%
%ADD19O,1.879600X3.556000*%
%ADD20C,1.524000*%
%ADD21C,1.323200*%
%ADD22C,2.235200*%
G04 APERTURE END LIST*
D10*
G36*
X149384950Y-70073800D02*
G01*
X145081100Y-70073800D01*
X145081100Y-71763600D01*
X149384950Y-71763600D01*
X149384950Y-70073800D01*
G37*
G36*
X141581050Y-66069000D02*
G01*
X141581050Y-69963550D01*
X143275700Y-69963550D01*
X143275700Y-66069000D01*
X141581050Y-66069000D01*
G37*
G36*
X149181300Y-63763538D02*
G01*
X145281100Y-63763538D01*
X145281100Y-65463600D01*
X149181300Y-65463600D01*
X149181300Y-63763538D01*
G37*
G36*
X133647250Y-139933400D02*
G01*
X137951100Y-139933400D01*
X137951100Y-138243600D01*
X133647250Y-138243600D01*
X133647250Y-139933400D01*
G37*
G36*
X141451150Y-143938200D02*
G01*
X141451150Y-140043650D01*
X139756500Y-140043650D01*
X139756500Y-143938200D01*
X141451150Y-143938200D01*
G37*
G36*
X133850900Y-146243662D02*
G01*
X137751100Y-146243662D01*
X137751100Y-144543600D01*
X133850900Y-144543600D01*
X133850900Y-146243662D01*
G37*
G36*
X150157250Y-139933400D02*
G01*
X154461100Y-139933400D01*
X154461100Y-138243600D01*
X150157250Y-138243600D01*
X150157250Y-139933400D01*
G37*
G36*
X157961150Y-143938200D02*
G01*
X157961150Y-140043650D01*
X156266500Y-140043650D01*
X156266500Y-143938200D01*
X157961150Y-143938200D01*
G37*
G36*
X150360900Y-146243662D02*
G01*
X154261100Y-146243662D01*
X154261100Y-144543600D01*
X150360900Y-144543600D01*
X150360900Y-146243662D01*
G37*
D11*
X120561100Y-138023600D03*
X123101100Y-138023600D03*
X120561100Y-135483600D03*
X123101100Y-135483600D03*
X120561100Y-132943600D03*
X123101100Y-132943600D03*
X120561100Y-130403600D03*
X123101100Y-130403600D03*
X120561100Y-127863600D03*
X123101100Y-127863600D03*
X120561100Y-125323600D03*
X123101100Y-125323600D03*
X120561100Y-122783600D03*
X123101100Y-122783600D03*
X120561100Y-120243600D03*
X123101100Y-120243600D03*
X120561100Y-117703600D03*
X123101100Y-117703600D03*
X120561100Y-115163600D03*
X123101100Y-115163600D03*
X120561100Y-112623600D03*
X123101100Y-112623600D03*
X120561100Y-110083600D03*
X123101100Y-110083600D03*
X120561100Y-107543600D03*
X123101100Y-107543600D03*
X120561100Y-105003600D03*
X123101100Y-105003600D03*
X120561100Y-102463600D03*
X123101100Y-102463600D03*
X120561100Y-99923600D03*
X123101100Y-99923600D03*
X120561100Y-97383600D03*
X123101100Y-97383600D03*
X120561100Y-94843600D03*
X123101100Y-94843600D03*
X120561100Y-92303600D03*
X123101100Y-92303600D03*
X120561100Y-89763600D03*
X123101100Y-89763600D03*
D12*
X145917920Y-92339160D03*
X143865600Y-92313760D03*
X141745100Y-92303600D03*
X139512040Y-92344240D03*
X137320020Y-92293440D03*
D13*
X159931100Y-77774800D03*
G36*
G01*
X160566100Y-93040200D02*
X159296100Y-93040200D01*
G75*
G02*
X159194500Y-92938600I0J101600D01*
G01*
X159194500Y-91668600D01*
G75*
G02*
X159296100Y-91567000I101600J0D01*
G01*
X160566100Y-91567000D01*
G75*
G02*
X160667700Y-91668600I0J-101600D01*
G01*
X160667700Y-92938600D01*
G75*
G02*
X160566100Y-93040200I-101600J0D01*
G01*
G37*
G36*
G01*
X153860500Y-128752600D02*
X153860500Y-126974600D01*
G75*
G02*
X153962100Y-126873000I101600J0D01*
G01*
X155740100Y-126873000D01*
G75*
G02*
X155841700Y-126974600I0J-101600D01*
G01*
X155841700Y-128752600D01*
G75*
G02*
X155740100Y-128854200I-101600J0D01*
G01*
X153962100Y-128854200D01*
G75*
G02*
X153860500Y-128752600I0J101600D01*
G01*
G37*
D14*
X165011100Y-127863600D03*
D15*
X147231100Y-70913600D03*
X142431100Y-68013600D03*
X147231100Y-64613600D03*
X135801100Y-139093600D03*
X140601100Y-141993600D03*
X135801100Y-145393600D03*
X152311100Y-139093600D03*
X157111100Y-141993600D03*
X152311100Y-145393600D03*
D16*
X119291100Y-79823600D03*
X119291100Y-66683600D03*
D17*
X121691100Y-76753600D03*
X121691100Y-74253600D03*
X121691100Y-72253600D03*
X121691100Y-69753600D03*
G36*
G01*
X180106100Y-130650200D02*
X177856100Y-130650200D01*
G75*
G02*
X177754500Y-130548600I0J101600D01*
G01*
X177754500Y-128298600D01*
G75*
G02*
X177856100Y-128197000I101600J0D01*
G01*
X180106100Y-128197000D01*
G75*
G02*
X180207700Y-128298600I0J-101600D01*
G01*
X180207700Y-130548600D01*
G75*
G02*
X180106100Y-130650200I-101600J0D01*
G01*
G37*
G36*
G01*
X180106100Y-122450200D02*
X177856100Y-122450200D01*
G75*
G02*
X177754500Y-122348600I0J101600D01*
G01*
X177754500Y-120098600D01*
G75*
G02*
X177856100Y-119997000I101600J0D01*
G01*
X180106100Y-119997000D01*
G75*
G02*
X180207700Y-120098600I0J-101600D01*
G01*
X180207700Y-122348600D01*
G75*
G02*
X180106100Y-122450200I-101600J0D01*
G01*
G37*
G36*
G01*
X179635100Y-124079200D02*
X178327100Y-124079200D01*
G75*
G02*
X178225500Y-123977600I0J101600D01*
G01*
X178225500Y-122669600D01*
G75*
G02*
X178327100Y-122568000I101600J0D01*
G01*
X179635100Y-122568000D01*
G75*
G02*
X179736700Y-122669600I0J-101600D01*
G01*
X179736700Y-123977600D01*
G75*
G02*
X179635100Y-124079200I-101600J0D01*
G01*
G37*
G36*
G01*
X179635100Y-128079200D02*
X178327100Y-128079200D01*
G75*
G02*
X178225500Y-127977600I0J101600D01*
G01*
X178225500Y-126669600D01*
G75*
G02*
X178327100Y-126568000I101600J0D01*
G01*
X179635100Y-126568000D01*
G75*
G02*
X179736700Y-126669600I0J-101600D01*
G01*
X179736700Y-127977600D01*
G75*
G02*
X179635100Y-128079200I-101600J0D01*
G01*
G37*
G36*
G01*
X179635100Y-126079200D02*
X178327100Y-126079200D01*
G75*
G02*
X178225500Y-125977600I0J101600D01*
G01*
X178225500Y-124669600D01*
G75*
G02*
X178327100Y-124568000I101600J0D01*
G01*
X179635100Y-124568000D01*
G75*
G02*
X179736700Y-124669600I0J-101600D01*
G01*
X179736700Y-125977600D01*
G75*
G02*
X179635100Y-126079200I-101600J0D01*
G01*
G37*
G36*
G01*
X177856100Y-76817000D02*
X180106100Y-76817000D01*
G75*
G02*
X180207700Y-76918600I0J-101600D01*
G01*
X180207700Y-79168600D01*
G75*
G02*
X180106100Y-79270200I-101600J0D01*
G01*
X177856100Y-79270200D01*
G75*
G02*
X177754500Y-79168600I0J101600D01*
G01*
X177754500Y-76918600D01*
G75*
G02*
X177856100Y-76817000I101600J0D01*
G01*
G37*
G36*
G01*
X177856100Y-85017000D02*
X180106100Y-85017000D01*
G75*
G02*
X180207700Y-85118600I0J-101600D01*
G01*
X180207700Y-87368600D01*
G75*
G02*
X180106100Y-87470200I-101600J0D01*
G01*
X177856100Y-87470200D01*
G75*
G02*
X177754500Y-87368600I0J101600D01*
G01*
X177754500Y-85118600D01*
G75*
G02*
X177856100Y-85017000I101600J0D01*
G01*
G37*
G36*
G01*
X178327100Y-83388000D02*
X179635100Y-83388000D01*
G75*
G02*
X179736700Y-83489600I0J-101600D01*
G01*
X179736700Y-84797600D01*
G75*
G02*
X179635100Y-84899200I-101600J0D01*
G01*
X178327100Y-84899200D01*
G75*
G02*
X178225500Y-84797600I0J101600D01*
G01*
X178225500Y-83489600D01*
G75*
G02*
X178327100Y-83388000I101600J0D01*
G01*
G37*
G36*
G01*
X178327100Y-79388000D02*
X179635100Y-79388000D01*
G75*
G02*
X179736700Y-79489600I0J-101600D01*
G01*
X179736700Y-80797600D01*
G75*
G02*
X179635100Y-80899200I-101600J0D01*
G01*
X178327100Y-80899200D01*
G75*
G02*
X178225500Y-80797600I0J101600D01*
G01*
X178225500Y-79489600D01*
G75*
G02*
X178327100Y-79388000I101600J0D01*
G01*
G37*
G36*
G01*
X178327100Y-81388000D02*
X179635100Y-81388000D01*
G75*
G02*
X179736700Y-81489600I0J-101600D01*
G01*
X179736700Y-82797600D01*
G75*
G02*
X179635100Y-82899200I-101600J0D01*
G01*
X178327100Y-82899200D01*
G75*
G02*
X178225500Y-82797600I0J101600D01*
G01*
X178225500Y-81489600D01*
G75*
G02*
X178327100Y-81388000I101600J0D01*
G01*
G37*
D18*
X139611100Y-106527600D03*
D19*
X142151100Y-124053600D03*
X139611100Y-124053600D03*
X137071100Y-124053600D03*
D20*
X129451100Y-132943600D03*
X129451100Y-127863600D03*
X133261100Y-132943600D03*
X133261100Y-127863600D03*
D21*
X139341100Y-79603600D03*
G36*
G01*
X136679500Y-80163601D02*
X136679500Y-79043599D01*
G75*
G02*
X136781099Y-78942000I101599J0D01*
G01*
X137901101Y-78942000D01*
G75*
G02*
X138002700Y-79043599I0J-101599D01*
G01*
X138002700Y-80163601D01*
G75*
G02*
X137901101Y-80265200I-101599J0D01*
G01*
X136781099Y-80265200D01*
G75*
G02*
X136679500Y-80163601I0J101599D01*
G01*
G37*
X148501100Y-78603600D03*
G36*
G01*
X149061101Y-81265200D02*
X147941099Y-81265200D01*
G75*
G02*
X147839500Y-81163601I0J101599D01*
G01*
X147839500Y-80043599D01*
G75*
G02*
X147941099Y-79942000I101599J0D01*
G01*
X149061101Y-79942000D01*
G75*
G02*
X149162700Y-80043599I0J-101599D01*
G01*
X149162700Y-81163601D01*
G75*
G02*
X149061101Y-81265200I-101599J0D01*
G01*
G37*
D22*
X171894500Y-110083600D03*
X148501100Y-110083600D03*
M02*
