G04 #@! TF.GenerationSoftware,KiCad,Pcbnew,(5.1.10)-1*
G04 #@! TF.CreationDate,2021-11-18T00:00:46-06:00*
G04 #@! TF.ProjectId,Kitty_Cannon_Schematic,4b697474-795f-4436-916e-6e6f6e5f5363,rev?*
G04 #@! TF.SameCoordinates,Original*
G04 #@! TF.FileFunction,Copper,L1,Top*
G04 #@! TF.FilePolarity,Positive*
%FSLAX46Y46*%
G04 Gerber Fmt 4.6, Leading zero omitted, Abs format (unit mm)*
G04 Created by KiCad (PCBNEW (5.1.10)-1) date 2021-11-18 00:00:46*
%MOMM*%
%LPD*%
G01*
G04 APERTURE LIST*
G04 #@! TA.AperFunction,NonConductor*
%ADD10C,0.203200*%
G04 #@! TD*
G04 #@! TA.AperFunction,NonConductor*
%ADD11C,0.142240*%
G04 #@! TD*
G04 #@! TA.AperFunction,EtchedComponent*
%ADD12C,0.100000*%
G04 #@! TD*
G04 #@! TA.AperFunction,ComponentPad*
%ADD13R,2.250000X2.250000*%
G04 #@! TD*
G04 #@! TA.AperFunction,ComponentPad*
%ADD14C,2.250000*%
G04 #@! TD*
G04 #@! TA.AperFunction,SMDPad,CuDef*
%ADD15R,2.500000X0.500000*%
G04 #@! TD*
G04 #@! TA.AperFunction,SMDPad,CuDef*
%ADD16R,0.500000X2.500000*%
G04 #@! TD*
G04 #@! TA.AperFunction,ComponentPad*
%ADD17C,2.032000*%
G04 #@! TD*
G04 #@! TA.AperFunction,ComponentPad*
%ADD18C,1.120000*%
G04 #@! TD*
G04 #@! TA.AperFunction,ComponentPad*
%ADD19R,1.120000X1.120000*%
G04 #@! TD*
G04 #@! TA.AperFunction,ComponentPad*
%ADD20C,1.320800*%
G04 #@! TD*
G04 #@! TA.AperFunction,ComponentPad*
%ADD21O,1.676400X3.352800*%
G04 #@! TD*
G04 #@! TA.AperFunction,ComponentPad*
%ADD22R,1.308000X1.308000*%
G04 #@! TD*
G04 #@! TA.AperFunction,ComponentPad*
%ADD23C,4.000000*%
G04 #@! TD*
G04 #@! TA.AperFunction,ComponentPad*
%ADD24C,1.600000*%
G04 #@! TD*
G04 #@! TA.AperFunction,ComponentPad*
%ADD25C,1.270000*%
G04 #@! TD*
G04 #@! TA.AperFunction,ComponentPad*
%ADD26R,1.270000X1.270000*%
G04 #@! TD*
G04 #@! TA.AperFunction,ComponentPad*
%ADD27O,1.270000X2.540000*%
G04 #@! TD*
G04 #@! TA.AperFunction,ComponentPad*
%ADD28C,1.879600*%
G04 #@! TD*
G04 #@! TA.AperFunction,ViaPad*
%ADD29C,0.756400*%
G04 #@! TD*
G04 #@! TA.AperFunction,ViaPad*
%ADD30C,0.800000*%
G04 #@! TD*
G04 #@! TA.AperFunction,ViaPad*
%ADD31C,1.524000*%
G04 #@! TD*
G04 #@! TA.AperFunction,Conductor*
%ADD32C,1.524000*%
G04 #@! TD*
G04 #@! TA.AperFunction,Conductor*
%ADD33C,0.406400*%
G04 #@! TD*
G04 #@! TA.AperFunction,Conductor*
%ADD34C,0.250000*%
G04 #@! TD*
G04 #@! TA.AperFunction,Conductor*
%ADD35C,0.762000*%
G04 #@! TD*
G04 #@! TA.AperFunction,Conductor*
%ADD36C,0.152400*%
G04 #@! TD*
G04 #@! TA.AperFunction,Conductor*
%ADD37C,1.143000*%
G04 #@! TD*
G04 APERTURE END LIST*
D10*
X184322115Y-138434596D02*
X181909115Y-138434596D01*
X183632686Y-137630262D01*
X181909115Y-136825929D01*
X184322115Y-136825929D01*
X183632686Y-135791786D02*
X183632686Y-134642739D01*
X184322115Y-136021596D02*
X181909115Y-135217262D01*
X184322115Y-134412929D01*
X184322115Y-133608596D02*
X181909115Y-133608596D01*
X184322115Y-132229739D01*
X181909115Y-132229739D01*
X183132306Y-117622440D02*
X183132306Y-116473393D01*
X183821735Y-117852250D02*
X181408735Y-117047917D01*
X183821735Y-116243583D01*
X181408735Y-115439250D02*
X183362116Y-115439250D01*
X183591925Y-115324345D01*
X183706830Y-115209440D01*
X183821735Y-114979631D01*
X183821735Y-114520012D01*
X183706830Y-114290202D01*
X183591925Y-114175298D01*
X183362116Y-114060393D01*
X181408735Y-114060393D01*
X181408735Y-113256060D02*
X181408735Y-111877202D01*
X183821735Y-112566631D02*
X181408735Y-112566631D01*
X181408735Y-110613250D02*
X181408735Y-110153631D01*
X181523640Y-109923821D01*
X181753449Y-109694012D01*
X182213068Y-109579107D01*
X183017401Y-109579107D01*
X183477020Y-109694012D01*
X183706830Y-109923821D01*
X183821735Y-110153631D01*
X183821735Y-110613250D01*
X183706830Y-110843060D01*
X183477020Y-111072869D01*
X183017401Y-111187774D01*
X182213068Y-111187774D01*
X181753449Y-111072869D01*
X181523640Y-110843060D01*
X181408735Y-110613250D01*
D11*
X153919766Y-71953289D02*
X152230666Y-71953289D01*
X152230666Y-71309822D01*
X152311100Y-71148956D01*
X152391533Y-71068522D01*
X152552400Y-70988089D01*
X152793700Y-70988089D01*
X152954566Y-71068522D01*
X153035000Y-71148956D01*
X153115433Y-71309822D01*
X153115433Y-71953289D01*
X152230666Y-70425056D02*
X153919766Y-70022889D01*
X152713266Y-69701156D01*
X153919766Y-69379422D01*
X152230666Y-68977256D01*
X153919766Y-67368589D02*
X153115433Y-67931622D01*
X153919766Y-68333789D02*
X152230666Y-68333789D01*
X152230666Y-67690322D01*
X152311100Y-67529456D01*
X152391533Y-67449022D01*
X152552400Y-67368589D01*
X152793700Y-67368589D01*
X152954566Y-67449022D01*
X153035000Y-67529456D01*
X153115433Y-67690322D01*
X153115433Y-68333789D01*
X153919766Y-65357756D02*
X152230666Y-65357756D01*
X153919766Y-64553422D02*
X152230666Y-64553422D01*
X153919766Y-63588222D01*
X152230666Y-63588222D01*
X160189333Y-146354122D02*
X160269766Y-146112822D01*
X160269766Y-145710656D01*
X160189333Y-145549789D01*
X160108900Y-145469356D01*
X159948033Y-145388922D01*
X159787166Y-145388922D01*
X159626300Y-145469356D01*
X159545866Y-145549789D01*
X159465433Y-145710656D01*
X159385000Y-146032389D01*
X159304566Y-146193256D01*
X159224133Y-146273689D01*
X159063266Y-146354122D01*
X158902400Y-146354122D01*
X158741533Y-146273689D01*
X158661100Y-146193256D01*
X158580666Y-146032389D01*
X158580666Y-145630222D01*
X158661100Y-145388922D01*
X160269766Y-144665022D02*
X158580666Y-144665022D01*
X158580666Y-144021556D01*
X158661100Y-143860689D01*
X158741533Y-143780256D01*
X158902400Y-143699822D01*
X159143700Y-143699822D01*
X159304566Y-143780256D01*
X159385000Y-143860689D01*
X159465433Y-144021556D01*
X159465433Y-144665022D01*
X160269766Y-142010722D02*
X159465433Y-142573756D01*
X160269766Y-142975922D02*
X158580666Y-142975922D01*
X158580666Y-142332456D01*
X158661100Y-142171589D01*
X158741533Y-142091156D01*
X158902400Y-142010722D01*
X159143700Y-142010722D01*
X159304566Y-142091156D01*
X159385000Y-142171589D01*
X159465433Y-142332456D01*
X159465433Y-142975922D01*
X159787166Y-141367256D02*
X159787166Y-140562922D01*
X160269766Y-141528122D02*
X158580666Y-140965089D01*
X160269766Y-140402056D01*
X159465433Y-139517289D02*
X160269766Y-139517289D01*
X158580666Y-140080322D02*
X159465433Y-139517289D01*
X158580666Y-138954256D01*
X159385000Y-138391222D02*
X159385000Y-137828189D01*
X160269766Y-137586889D02*
X160269766Y-138391222D01*
X158580666Y-138391222D01*
X158580666Y-137586889D01*
X160269766Y-135897789D02*
X159465433Y-136460822D01*
X160269766Y-136862989D02*
X158580666Y-136862989D01*
X158580666Y-136219522D01*
X158661100Y-136058656D01*
X158741533Y-135978222D01*
X158902400Y-135897789D01*
X159143700Y-135897789D01*
X159304566Y-135978222D01*
X159385000Y-136058656D01*
X159465433Y-136219522D01*
X159465433Y-136862989D01*
X143759766Y-143826822D02*
X143759766Y-144631156D01*
X142070666Y-144631156D01*
X143759766Y-143263789D02*
X142070666Y-143263789D01*
X142151100Y-141574689D02*
X142070666Y-141735556D01*
X142070666Y-141976856D01*
X142151100Y-142218156D01*
X142311966Y-142379022D01*
X142472833Y-142459456D01*
X142794566Y-142539889D01*
X143035866Y-142539889D01*
X143357600Y-142459456D01*
X143518466Y-142379022D01*
X143679333Y-142218156D01*
X143759766Y-141976856D01*
X143759766Y-141815989D01*
X143679333Y-141574689D01*
X143598900Y-141494256D01*
X143035866Y-141494256D01*
X143035866Y-141815989D01*
X143759766Y-140770356D02*
X142070666Y-140770356D01*
X142875000Y-140770356D02*
X142875000Y-139805156D01*
X143759766Y-139805156D02*
X142070666Y-139805156D01*
X142070666Y-139242122D02*
X142070666Y-138276922D01*
X143759766Y-138759522D02*
X142070666Y-138759522D01*
D12*
G36*
X147231100Y-65113600D02*
G01*
X147231100Y-65363600D01*
X148331100Y-65363600D01*
X148331099Y-65363600D01*
X148525214Y-65338045D01*
X148706100Y-65263119D01*
X148861430Y-65143931D01*
X148980619Y-64988600D01*
X149081100Y-64613600D01*
X149055544Y-64419486D01*
X148980619Y-64238600D01*
X148861430Y-64083270D01*
X148706100Y-63964081D01*
X148331100Y-63863600D01*
X147231100Y-63863600D01*
X147231100Y-64113600D01*
X148331100Y-64113600D01*
X148485608Y-64138072D01*
X148624993Y-64209092D01*
X148735608Y-64319707D01*
X148831100Y-64613600D01*
X148831100Y-64613599D01*
X148806628Y-64768107D01*
X148735608Y-64907492D01*
X148624993Y-65018107D01*
X148331100Y-65113600D01*
X147231100Y-65113600D01*
G37*
G36*
X147231100Y-64113600D02*
G01*
X147231100Y-63863600D01*
X146131100Y-63863600D01*
X145936986Y-63889156D01*
X145756100Y-63964081D01*
X145600770Y-64083270D01*
X145481581Y-64238600D01*
X145406656Y-64419486D01*
X145381100Y-64613600D01*
X145381100Y-64613599D01*
X145406656Y-64807713D01*
X145481581Y-64988599D01*
X145600770Y-65143929D01*
X145756100Y-65263118D01*
X145936986Y-65338043D01*
X146131100Y-65363600D01*
X147231100Y-65363600D01*
X147231100Y-65113600D01*
X146131100Y-65113600D01*
X146131101Y-65113600D01*
X145976592Y-65089129D01*
X145837208Y-65018109D01*
X145726591Y-64907493D01*
X145655571Y-64768109D01*
X145631100Y-64613600D01*
X145655572Y-64459092D01*
X145726592Y-64319707D01*
X145837207Y-64209092D01*
X146131100Y-64113600D01*
X147231100Y-64113600D01*
G37*
G36*
X142931100Y-68013600D02*
G01*
X143181100Y-68013600D01*
X143181100Y-66913600D01*
X143155544Y-66719486D01*
X143080619Y-66538600D01*
X142961430Y-66383270D01*
X142806100Y-66264081D01*
X142431100Y-66163600D01*
X142236986Y-66189156D01*
X142056100Y-66264081D01*
X141900770Y-66383270D01*
X141781581Y-66538600D01*
X141706656Y-66719486D01*
X141681100Y-66913600D01*
X141681100Y-68013600D01*
X141931100Y-68013600D01*
X141931100Y-66913600D01*
X141955572Y-66759092D01*
X142026592Y-66619707D01*
X142137207Y-66509092D01*
X142431100Y-66413600D01*
X142585608Y-66438072D01*
X142724993Y-66509092D01*
X142835608Y-66619707D01*
X142931100Y-66913600D01*
X142931100Y-68013600D01*
G37*
G36*
X141931100Y-68013600D02*
G01*
X141681100Y-68013600D01*
X141681100Y-69113600D01*
X141706656Y-69307714D01*
X141781581Y-69488600D01*
X141900770Y-69643930D01*
X142056100Y-69763119D01*
X142236986Y-69838044D01*
X142431100Y-69863600D01*
X142625214Y-69838044D01*
X142806100Y-69763119D01*
X142961430Y-69643930D01*
X143080619Y-69488600D01*
X143155544Y-69307714D01*
X143181100Y-69113600D01*
X143181100Y-68013600D01*
X142931100Y-68013600D01*
X142931100Y-69113600D01*
X142906628Y-69268108D01*
X142835608Y-69407493D01*
X142724993Y-69518108D01*
X142431100Y-69613600D01*
X142276592Y-69589128D01*
X142137207Y-69518108D01*
X142026592Y-69407493D01*
X141931100Y-69113600D01*
X141931100Y-68013600D01*
G37*
G36*
X147231100Y-71413600D02*
G01*
X147231100Y-71663600D01*
X148531100Y-71663600D01*
X148725214Y-71638044D01*
X148906100Y-71563119D01*
X149061430Y-71443930D01*
X149180619Y-71288600D01*
X149255544Y-71107714D01*
X149281100Y-70913600D01*
X149255544Y-70719486D01*
X149180619Y-70538600D01*
X149061430Y-70383270D01*
X148906100Y-70264081D01*
X148531100Y-70163600D01*
X147231100Y-70163600D01*
X147231100Y-70413600D01*
X148531100Y-70413600D01*
X148685608Y-70438072D01*
X148824993Y-70509092D01*
X148935608Y-70619707D01*
X149031100Y-70913600D01*
X149006628Y-71068108D01*
X148935608Y-71207493D01*
X148824993Y-71318108D01*
X148531100Y-71413600D01*
X147231100Y-71413600D01*
G37*
G36*
X147231100Y-70413600D02*
G01*
X147231100Y-70163600D01*
X145931100Y-70163600D01*
X145736986Y-70189156D01*
X145556100Y-70264081D01*
X145400770Y-70383270D01*
X145281581Y-70538600D01*
X145206656Y-70719486D01*
X145181100Y-70913600D01*
X145206656Y-71107714D01*
X145281581Y-71288600D01*
X145400770Y-71443930D01*
X145556100Y-71563119D01*
X145736986Y-71638044D01*
X145931100Y-71663600D01*
X147231100Y-71663600D01*
X147231100Y-71413600D01*
X145931100Y-71413600D01*
X145776592Y-71389128D01*
X145637207Y-71318108D01*
X145526592Y-71207493D01*
X145431100Y-70913600D01*
X145455572Y-70759092D01*
X145526592Y-70619707D01*
X145637207Y-70509092D01*
X145931100Y-70413600D01*
X147231100Y-70413600D01*
G37*
G36*
X135801100Y-144893600D02*
G01*
X135801100Y-144643600D01*
X134701100Y-144643600D01*
X134701101Y-144643600D01*
X134506986Y-144669155D01*
X134326100Y-144744081D01*
X134170770Y-144863269D01*
X134051581Y-145018600D01*
X133951100Y-145393600D01*
X133976656Y-145587714D01*
X134051581Y-145768600D01*
X134170770Y-145923930D01*
X134326100Y-146043119D01*
X134701100Y-146143600D01*
X135801100Y-146143600D01*
X135801100Y-145893600D01*
X134701100Y-145893600D01*
X134546592Y-145869128D01*
X134407207Y-145798108D01*
X134296592Y-145687493D01*
X134201100Y-145393600D01*
X134201100Y-145393601D01*
X134225572Y-145239093D01*
X134296592Y-145099708D01*
X134407207Y-144989093D01*
X134701100Y-144893600D01*
X135801100Y-144893600D01*
G37*
G36*
X135801100Y-145893600D02*
G01*
X135801100Y-146143600D01*
X136901100Y-146143600D01*
X137095214Y-146118044D01*
X137276100Y-146043119D01*
X137431430Y-145923930D01*
X137550619Y-145768600D01*
X137625544Y-145587714D01*
X137651100Y-145393600D01*
X137651100Y-145393601D01*
X137625544Y-145199487D01*
X137550619Y-145018601D01*
X137431430Y-144863271D01*
X137276100Y-144744082D01*
X137095214Y-144669157D01*
X136901100Y-144643600D01*
X135801100Y-144643600D01*
X135801100Y-144893600D01*
X136901100Y-144893600D01*
X136901099Y-144893600D01*
X137055608Y-144918071D01*
X137194992Y-144989091D01*
X137305609Y-145099707D01*
X137376629Y-145239091D01*
X137401100Y-145393600D01*
X137376628Y-145548108D01*
X137305608Y-145687493D01*
X137194993Y-145798108D01*
X136901100Y-145893600D01*
X135801100Y-145893600D01*
G37*
G36*
X140101100Y-141993600D02*
G01*
X139851100Y-141993600D01*
X139851100Y-143093600D01*
X139876656Y-143287714D01*
X139951581Y-143468600D01*
X140070770Y-143623930D01*
X140226100Y-143743119D01*
X140601100Y-143843600D01*
X140795214Y-143818044D01*
X140976100Y-143743119D01*
X141131430Y-143623930D01*
X141250619Y-143468600D01*
X141325544Y-143287714D01*
X141351100Y-143093600D01*
X141351100Y-141993600D01*
X141101100Y-141993600D01*
X141101100Y-143093600D01*
X141076628Y-143248108D01*
X141005608Y-143387493D01*
X140894993Y-143498108D01*
X140601100Y-143593600D01*
X140446592Y-143569128D01*
X140307207Y-143498108D01*
X140196592Y-143387493D01*
X140101100Y-143093600D01*
X140101100Y-141993600D01*
G37*
G36*
X141101100Y-141993600D02*
G01*
X141351100Y-141993600D01*
X141351100Y-140893600D01*
X141325544Y-140699486D01*
X141250619Y-140518600D01*
X141131430Y-140363270D01*
X140976100Y-140244081D01*
X140795214Y-140169156D01*
X140601100Y-140143600D01*
X140406986Y-140169156D01*
X140226100Y-140244081D01*
X140070770Y-140363270D01*
X139951581Y-140518600D01*
X139876656Y-140699486D01*
X139851100Y-140893600D01*
X139851100Y-141993600D01*
X140101100Y-141993600D01*
X140101100Y-140893600D01*
X140125572Y-140739092D01*
X140196592Y-140599707D01*
X140307207Y-140489092D01*
X140601100Y-140393600D01*
X140755608Y-140418072D01*
X140894993Y-140489092D01*
X141005608Y-140599707D01*
X141101100Y-140893600D01*
X141101100Y-141993600D01*
G37*
G36*
X135801100Y-138593600D02*
G01*
X135801100Y-138343600D01*
X134501100Y-138343600D01*
X134306986Y-138369156D01*
X134126100Y-138444081D01*
X133970770Y-138563270D01*
X133851581Y-138718600D01*
X133776656Y-138899486D01*
X133751100Y-139093600D01*
X133776656Y-139287714D01*
X133851581Y-139468600D01*
X133970770Y-139623930D01*
X134126100Y-139743119D01*
X134501100Y-139843600D01*
X135801100Y-139843600D01*
X135801100Y-139593600D01*
X134501100Y-139593600D01*
X134346592Y-139569128D01*
X134207207Y-139498108D01*
X134096592Y-139387493D01*
X134001100Y-139093600D01*
X134025572Y-138939092D01*
X134096592Y-138799707D01*
X134207207Y-138689092D01*
X134501100Y-138593600D01*
X135801100Y-138593600D01*
G37*
G36*
X135801100Y-139593600D02*
G01*
X135801100Y-139843600D01*
X137101100Y-139843600D01*
X137295214Y-139818044D01*
X137476100Y-139743119D01*
X137631430Y-139623930D01*
X137750619Y-139468600D01*
X137825544Y-139287714D01*
X137851100Y-139093600D01*
X137825544Y-138899486D01*
X137750619Y-138718600D01*
X137631430Y-138563270D01*
X137476100Y-138444081D01*
X137295214Y-138369156D01*
X137101100Y-138343600D01*
X135801100Y-138343600D01*
X135801100Y-138593600D01*
X137101100Y-138593600D01*
X137255608Y-138618072D01*
X137394993Y-138689092D01*
X137505608Y-138799707D01*
X137601100Y-139093600D01*
X137576628Y-139248108D01*
X137505608Y-139387493D01*
X137394993Y-139498108D01*
X137101100Y-139593600D01*
X135801100Y-139593600D01*
G37*
G36*
X152311100Y-144893600D02*
G01*
X152311100Y-144643600D01*
X151211100Y-144643600D01*
X151211101Y-144643600D01*
X151016986Y-144669155D01*
X150836100Y-144744081D01*
X150680770Y-144863269D01*
X150561581Y-145018600D01*
X150461100Y-145393600D01*
X150486656Y-145587714D01*
X150561581Y-145768600D01*
X150680770Y-145923930D01*
X150836100Y-146043119D01*
X151211100Y-146143600D01*
X152311100Y-146143600D01*
X152311100Y-145893600D01*
X151211100Y-145893600D01*
X151056592Y-145869128D01*
X150917207Y-145798108D01*
X150806592Y-145687493D01*
X150711100Y-145393600D01*
X150711100Y-145393601D01*
X150735572Y-145239093D01*
X150806592Y-145099708D01*
X150917207Y-144989093D01*
X151211100Y-144893600D01*
X152311100Y-144893600D01*
G37*
G36*
X152311100Y-145893600D02*
G01*
X152311100Y-146143600D01*
X153411100Y-146143600D01*
X153605214Y-146118044D01*
X153786100Y-146043119D01*
X153941430Y-145923930D01*
X154060619Y-145768600D01*
X154135544Y-145587714D01*
X154161100Y-145393600D01*
X154161100Y-145393601D01*
X154135544Y-145199487D01*
X154060619Y-145018601D01*
X153941430Y-144863271D01*
X153786100Y-144744082D01*
X153605214Y-144669157D01*
X153411100Y-144643600D01*
X152311100Y-144643600D01*
X152311100Y-144893600D01*
X153411100Y-144893600D01*
X153411099Y-144893600D01*
X153565608Y-144918071D01*
X153704992Y-144989091D01*
X153815609Y-145099707D01*
X153886629Y-145239091D01*
X153911100Y-145393600D01*
X153886628Y-145548108D01*
X153815608Y-145687493D01*
X153704993Y-145798108D01*
X153411100Y-145893600D01*
X152311100Y-145893600D01*
G37*
G36*
X156611100Y-141993600D02*
G01*
X156361100Y-141993600D01*
X156361100Y-143093600D01*
X156386656Y-143287714D01*
X156461581Y-143468600D01*
X156580770Y-143623930D01*
X156736100Y-143743119D01*
X157111100Y-143843600D01*
X157305214Y-143818044D01*
X157486100Y-143743119D01*
X157641430Y-143623930D01*
X157760619Y-143468600D01*
X157835544Y-143287714D01*
X157861100Y-143093600D01*
X157861100Y-141993600D01*
X157611100Y-141993600D01*
X157611100Y-143093600D01*
X157586628Y-143248108D01*
X157515608Y-143387493D01*
X157404993Y-143498108D01*
X157111100Y-143593600D01*
X156956592Y-143569128D01*
X156817207Y-143498108D01*
X156706592Y-143387493D01*
X156611100Y-143093600D01*
X156611100Y-141993600D01*
G37*
G36*
X157611100Y-141993600D02*
G01*
X157861100Y-141993600D01*
X157861100Y-140893600D01*
X157835544Y-140699486D01*
X157760619Y-140518600D01*
X157641430Y-140363270D01*
X157486100Y-140244081D01*
X157305214Y-140169156D01*
X157111100Y-140143600D01*
X156916986Y-140169156D01*
X156736100Y-140244081D01*
X156580770Y-140363270D01*
X156461581Y-140518600D01*
X156386656Y-140699486D01*
X156361100Y-140893600D01*
X156361100Y-141993600D01*
X156611100Y-141993600D01*
X156611100Y-140893600D01*
X156635572Y-140739092D01*
X156706592Y-140599707D01*
X156817207Y-140489092D01*
X157111100Y-140393600D01*
X157265608Y-140418072D01*
X157404993Y-140489092D01*
X157515608Y-140599707D01*
X157611100Y-140893600D01*
X157611100Y-141993600D01*
G37*
G36*
X152311100Y-138593600D02*
G01*
X152311100Y-138343600D01*
X151011100Y-138343600D01*
X150816986Y-138369156D01*
X150636100Y-138444081D01*
X150480770Y-138563270D01*
X150361581Y-138718600D01*
X150286656Y-138899486D01*
X150261100Y-139093600D01*
X150286656Y-139287714D01*
X150361581Y-139468600D01*
X150480770Y-139623930D01*
X150636100Y-139743119D01*
X151011100Y-139843600D01*
X152311100Y-139843600D01*
X152311100Y-139593600D01*
X151011100Y-139593600D01*
X150856592Y-139569128D01*
X150717207Y-139498108D01*
X150606592Y-139387493D01*
X150511100Y-139093600D01*
X150535572Y-138939092D01*
X150606592Y-138799707D01*
X150717207Y-138689092D01*
X151011100Y-138593600D01*
X152311100Y-138593600D01*
G37*
G36*
X152311100Y-139593600D02*
G01*
X152311100Y-139843600D01*
X153611100Y-139843600D01*
X153805214Y-139818044D01*
X153986100Y-139743119D01*
X154141430Y-139623930D01*
X154260619Y-139468600D01*
X154335544Y-139287714D01*
X154361100Y-139093600D01*
X154335544Y-138899486D01*
X154260619Y-138718600D01*
X154141430Y-138563270D01*
X153986100Y-138444081D01*
X153805214Y-138369156D01*
X153611100Y-138343600D01*
X152311100Y-138343600D01*
X152311100Y-138593600D01*
X153611100Y-138593600D01*
X153765608Y-138618072D01*
X153904993Y-138689092D01*
X154015608Y-138799707D01*
X154111100Y-139093600D01*
X154086628Y-139248108D01*
X154015608Y-139387493D01*
X153904993Y-139498108D01*
X153611100Y-139593600D01*
X152311100Y-139593600D01*
G37*
D13*
X152311100Y-127863600D03*
D14*
X167551100Y-127863600D03*
D15*
X147231100Y-65363600D03*
D16*
X143181100Y-68013600D03*
D15*
X147231100Y-71713600D03*
X135801100Y-144643600D03*
D16*
X139851100Y-141993600D03*
D15*
X135801100Y-138293600D03*
D17*
X171894500Y-110083600D03*
X148501100Y-110083600D03*
D18*
X148501100Y-78603600D03*
D19*
X148501100Y-80603600D03*
D18*
X139341100Y-79603600D03*
D19*
X137341100Y-79603600D03*
D20*
X133261100Y-132943600D03*
X133261100Y-127863600D03*
X129451100Y-132943600D03*
X129451100Y-127863600D03*
D21*
X142151100Y-124053600D03*
X139611100Y-124053600D03*
X137071100Y-124053600D03*
D13*
X182846980Y-121246460D03*
X182846980Y-129446460D03*
D22*
X182846980Y-127346460D03*
X182846980Y-123346460D03*
X182846980Y-125346460D03*
D23*
X119291100Y-79823600D03*
X119291100Y-66683600D03*
D24*
X121691100Y-76753600D03*
X121691100Y-74253600D03*
X121691100Y-72253600D03*
X121691100Y-69753600D03*
D25*
X159931100Y-77774800D03*
D26*
X159931100Y-92303600D03*
D27*
X145917920Y-92339160D03*
X143865600Y-92313760D03*
X141745100Y-92303600D03*
X139512040Y-92344240D03*
X137320020Y-92293440D03*
D28*
X120561100Y-138023600D03*
X123101100Y-138023600D03*
X120561100Y-135483600D03*
X123101100Y-135483600D03*
X120561100Y-132943600D03*
X123101100Y-132943600D03*
X120561100Y-130403600D03*
X123101100Y-130403600D03*
X120561100Y-127863600D03*
X123101100Y-127863600D03*
X120561100Y-125323600D03*
X123101100Y-125323600D03*
X120561100Y-122783600D03*
X123101100Y-122783600D03*
X120561100Y-120243600D03*
X123101100Y-120243600D03*
X120561100Y-117703600D03*
X123101100Y-117703600D03*
X120561100Y-115163600D03*
X123101100Y-115163600D03*
X120561100Y-112623600D03*
X123101100Y-112623600D03*
X120561100Y-110083600D03*
X123101100Y-110083600D03*
X120561100Y-107543600D03*
X123101100Y-107543600D03*
X120561100Y-105003600D03*
X123101100Y-105003600D03*
X120561100Y-102463600D03*
X123101100Y-102463600D03*
X120561100Y-99923600D03*
X123101100Y-99923600D03*
X120561100Y-97383600D03*
X123101100Y-97383600D03*
X120561100Y-94843600D03*
X123101100Y-94843600D03*
X120561100Y-92303600D03*
X123101100Y-92303600D03*
X120561100Y-89763600D03*
X123101100Y-89763600D03*
G04 #@! TA.AperFunction,ComponentPad*
G36*
G01*
X175575240Y-72049320D02*
X181325240Y-72049320D01*
G75*
G02*
X181950240Y-72674320I0J-625000D01*
G01*
X181950240Y-73924320D01*
G75*
G02*
X181325240Y-74549320I-625000J0D01*
G01*
X175575240Y-74549320D01*
G75*
G02*
X174950240Y-73924320I0J625000D01*
G01*
X174950240Y-72674320D01*
G75*
G02*
X175575240Y-72049320I625000J0D01*
G01*
G37*
G04 #@! TD.AperFunction*
G04 #@! TA.AperFunction,ComponentPad*
G36*
G01*
X175575240Y-79149320D02*
X181325240Y-79149320D01*
G75*
G02*
X181950240Y-79774320I0J-625000D01*
G01*
X181950240Y-81024320D01*
G75*
G02*
X181325240Y-81649320I-625000J0D01*
G01*
X175575240Y-81649320D01*
G75*
G02*
X174950240Y-81024320I0J625000D01*
G01*
X174950240Y-79774320D01*
G75*
G02*
X175575240Y-79149320I625000J0D01*
G01*
G37*
G04 #@! TD.AperFunction*
D15*
X152311100Y-138293600D03*
D16*
X156361100Y-141993600D03*
D15*
X152311100Y-144643600D03*
D29*
X147231100Y-68173600D03*
D30*
X135826500Y-141970760D03*
D31*
X148501100Y-134213600D03*
X139611100Y-134213600D03*
X129451100Y-102463600D03*
D32*
X147231100Y-68173600D02*
X147231100Y-65263600D01*
X147231100Y-68173600D02*
X143191100Y-68173600D01*
D33*
X143031100Y-68013600D02*
X143191100Y-68173600D01*
D34*
X139775850Y-141970760D02*
X139798690Y-141993600D01*
D32*
X135826500Y-141970760D02*
X139775850Y-141970760D01*
D34*
X135826500Y-144565790D02*
X135801100Y-144591190D01*
D32*
X135826500Y-141970760D02*
X135826500Y-144565790D01*
D35*
X129451100Y-132943600D02*
X129451100Y-137708099D01*
X120561100Y-138023600D02*
X120561100Y-139611100D01*
X120561100Y-139611100D02*
X121920000Y-140970000D01*
X126189199Y-140970000D02*
X129451100Y-137708099D01*
X121920000Y-140970000D02*
X126189199Y-140970000D01*
X182824120Y-127323600D02*
X182846980Y-127346460D01*
X170821100Y-127323600D02*
X182824120Y-127323600D01*
X166281100Y-122783600D02*
X170821100Y-127323600D01*
X151041100Y-122783600D02*
X166281100Y-122783600D01*
X144691100Y-116433600D02*
X151041100Y-122783600D01*
X137071100Y-116433600D02*
X144691100Y-116433600D01*
X135801100Y-115163600D02*
X137071100Y-116433600D01*
X132943600Y-115163600D02*
X135801100Y-115163600D01*
X125323600Y-107543600D02*
X132943600Y-115163600D01*
X123101100Y-107543600D02*
X125323600Y-107543600D01*
X182824120Y-125323600D02*
X182846980Y-125346460D01*
X166281100Y-120243600D02*
X171361100Y-125323600D01*
X144691100Y-113893600D02*
X151041100Y-120243600D01*
X137071100Y-113893600D02*
X144691100Y-113893600D01*
X133261100Y-110083600D02*
X137071100Y-113893600D01*
X151041100Y-120243600D02*
X166281100Y-120243600D01*
X130403600Y-110083600D02*
X133261100Y-110083600D01*
X125323600Y-105003600D02*
X130403600Y-110083600D01*
X171361100Y-125323600D02*
X182824120Y-125323600D01*
X123101100Y-105003600D02*
X125323600Y-105003600D01*
X182824120Y-123323600D02*
X182846980Y-123346460D01*
X151041100Y-117703600D02*
X166281100Y-117703600D01*
X166281100Y-117703600D02*
X171901100Y-123323600D01*
X144691100Y-111353600D02*
X151041100Y-117703600D01*
X171901100Y-123323600D02*
X182824120Y-123323600D01*
X137071100Y-111353600D02*
X144691100Y-111353600D01*
X133261100Y-107543600D02*
X137071100Y-111353600D01*
X130403600Y-107543600D02*
X133261100Y-107543600D01*
X125323600Y-102463600D02*
X130403600Y-107543600D01*
X123101100Y-102463600D02*
X125323600Y-102463600D01*
D32*
X178442620Y-73291700D02*
X178450240Y-73299320D01*
X148806790Y-73291700D02*
X178442620Y-73291700D01*
X147231100Y-71716010D02*
X148806790Y-73291700D01*
X137341100Y-79603600D02*
X137341100Y-91303600D01*
X129451100Y-102463600D02*
X129451100Y-99923600D01*
X129451100Y-99923600D02*
X129451100Y-99169220D01*
X136326880Y-92293440D02*
X137320020Y-92293440D01*
X129451100Y-99169220D02*
X136326880Y-92293440D01*
D34*
X152311100Y-138023600D02*
X152311100Y-138291190D01*
X152313510Y-138291190D02*
X152311100Y-138291190D01*
D32*
X135801100Y-138023600D02*
X135801100Y-138291190D01*
X139611100Y-134213600D02*
X135801100Y-138023600D01*
X162840510Y-132574190D02*
X167551100Y-127863600D01*
X152311100Y-137654190D02*
X157391100Y-132574190D01*
X157391100Y-132574190D02*
X162840510Y-132574190D01*
X151941690Y-137654190D02*
X152311100Y-137654190D01*
X148501100Y-134213600D02*
X151941690Y-137654190D01*
D36*
X156511100Y-141993600D02*
X156351100Y-141833600D01*
D32*
X148501100Y-141833600D02*
X145961100Y-139293600D01*
X145961100Y-139293600D02*
X145961100Y-132943600D01*
X145961100Y-132943600D02*
X139611100Y-126593600D01*
X139611100Y-126593600D02*
X139611100Y-124053600D01*
X148501100Y-141833600D02*
X152267920Y-141833600D01*
D34*
X156201100Y-141833600D02*
X156308690Y-141941190D01*
D32*
X152267920Y-141833600D02*
X156201100Y-141833600D01*
X152267920Y-144591190D02*
X152311100Y-144591190D01*
X152267920Y-141833600D02*
X152267920Y-144591190D01*
X145961100Y-132943600D02*
X145961100Y-130268980D01*
X148366480Y-127863600D02*
X152311100Y-127863600D01*
X145961100Y-130268980D02*
X148366480Y-127863600D01*
D37*
X148501100Y-110083600D02*
X148501100Y-101193600D01*
X121691100Y-69753600D02*
X134841100Y-69753600D01*
X145691100Y-80603600D02*
X148501100Y-80603600D01*
X134841100Y-69753600D02*
X145691100Y-80603600D01*
X148501100Y-101193600D02*
X148501100Y-100296980D01*
X143865600Y-95661480D02*
X143865600Y-92313760D01*
X148501100Y-100296980D02*
X143865600Y-95661480D01*
D35*
X129451100Y-127863600D02*
X133261100Y-124053600D01*
X133261100Y-124053600D02*
X137071100Y-124053600D01*
X133261100Y-127863600D02*
X129451100Y-127863600D01*
D37*
X171894500Y-110083600D02*
X159931100Y-98120200D01*
X159931100Y-98120200D02*
X159931100Y-92303600D01*
X140881100Y-85953600D02*
X149771100Y-85953600D01*
X156121100Y-92303600D02*
X159931100Y-92303600D01*
X149771100Y-85953600D02*
X156121100Y-92303600D01*
X140881100Y-85953600D02*
X140553440Y-85953600D01*
X139512040Y-86995000D02*
X139512040Y-92344240D01*
X140553440Y-85953600D02*
X139512040Y-86995000D01*
M02*
