G04 #@! TF.GenerationSoftware,KiCad,Pcbnew,(5.1.10)-1*
G04 #@! TF.CreationDate,2021-11-18T00:00:46-06:00*
G04 #@! TF.ProjectId,Kitty_Cannon_Schematic,4b697474-795f-4436-916e-6e6f6e5f5363,rev?*
G04 #@! TF.SameCoordinates,Original*
G04 #@! TF.FileFunction,Legend,Top*
G04 #@! TF.FilePolarity,Positive*
%FSLAX46Y46*%
G04 Gerber Fmt 4.6, Leading zero omitted, Abs format (unit mm)*
G04 Created by KiCad (PCBNEW (5.1.10)-1) date 2021-11-18 00:00:46*
%MOMM*%
%LPD*%
G01*
G04 APERTURE LIST*
%ADD10C,0.152400*%
%ADD11C,0.200000*%
%ADD12C,0.127000*%
%ADD13C,0.100000*%
%ADD14C,0.050800*%
%ADD15C,0.400000*%
%ADD16C,0.300000*%
%ADD17C,0.203200*%
%ADD18C,0.120000*%
%ADD19C,0.198073*%
%ADD20C,0.251068*%
%ADD21C,0.076200*%
%ADD22C,0.135128*%
%ADD23C,0.094107*%
%ADD24C,0.168910*%
%ADD25C,0.101600*%
%ADD26C,0.096520*%
%ADD27C,0.251324*%
%ADD28C,0.115824*%
%ADD29C,0.150000*%
%ADD30C,2.453200*%
%ADD31R,2.500000X0.500000*%
%ADD32R,0.500000X2.500000*%
%ADD33C,2.235200*%
%ADD34C,1.323200*%
%ADD35C,1.524000*%
%ADD36C,3.302000*%
%ADD37O,1.879600X3.556000*%
%ADD38C,4.203200*%
%ADD39C,1.803200*%
%ADD40C,1.473200*%
%ADD41O,1.473200X2.743200*%
%ADD42C,2.082800*%
G04 APERTURE END LIST*
D10*
X162217100Y-128828800D02*
X162217100Y-126898400D01*
X157645100Y-128828800D02*
X162217100Y-128828800D01*
X157645100Y-126898400D02*
X157645100Y-128828800D01*
X162217100Y-126898400D02*
X157645100Y-126898400D01*
X159372300Y-130606800D02*
X159372300Y-129336800D01*
X160134300Y-129971800D02*
X159372300Y-129844800D01*
X160134300Y-129971800D02*
X159372300Y-129717800D01*
X160134300Y-129971800D02*
X159372300Y-129590800D01*
X160134300Y-129971800D02*
X159372300Y-129463800D01*
X160134300Y-129971800D02*
X159372300Y-129336800D01*
X160134300Y-129971800D02*
X159372300Y-130098800D01*
X160134300Y-129971800D02*
X159372300Y-130225800D01*
X160134300Y-129971800D02*
X159372300Y-130352800D01*
X160134300Y-129971800D02*
X159372300Y-130479800D01*
X160134300Y-129971800D02*
X159372300Y-130606800D01*
X160134300Y-129971800D02*
X160134300Y-129336800D01*
X160134300Y-130606800D02*
X160134300Y-129971800D01*
X160134300Y-129971800D02*
X160388300Y-129971800D01*
X159118300Y-129971800D02*
X160134300Y-129971800D01*
D11*
X149681100Y-71513600D02*
X151731100Y-71513600D01*
X151731100Y-71513600D02*
X151731100Y-57213600D01*
X151731100Y-57213600D02*
X142731100Y-57213600D01*
X142731100Y-57213600D02*
X142731100Y-65763600D01*
X144781100Y-71513600D02*
X142731100Y-71513600D01*
X142731100Y-71513600D02*
X142731100Y-70263600D01*
X133351100Y-138493600D02*
X131301100Y-138493600D01*
X131301100Y-138493600D02*
X131301100Y-152793600D01*
X131301100Y-152793600D02*
X140301100Y-152793600D01*
X140301100Y-152793600D02*
X140301100Y-144243600D01*
X138251100Y-138493600D02*
X140301100Y-138493600D01*
X140301100Y-138493600D02*
X140301100Y-139743600D01*
D10*
X146596100Y-109448600D02*
X146596100Y-110718600D01*
X145961100Y-110083600D02*
X147154900Y-110083600D01*
X147942300Y-111302802D02*
G75*
G03*
X172478700Y-111302800I12268200J1289441D01*
G01*
X163080700Y-110083600D02*
G75*
G03*
X157314900Y-110083600I-2882900J0D01*
G01*
X157314900Y-110083600D02*
G75*
G03*
X163080700Y-110083600I2882900J0D01*
G01*
X172478700Y-108864398D02*
G75*
G03*
X147942300Y-108864400I-12268200J-1289441D01*
G01*
D11*
X148601100Y-82603600D02*
G75*
G03*
X148601100Y-82603600I-100000J0D01*
G01*
D12*
X151001100Y-79603600D02*
G75*
G03*
X151001100Y-79603600I-2500000J0D01*
G01*
D11*
X135441100Y-79603600D02*
G75*
G03*
X135441100Y-79603600I-100000J0D01*
G01*
D12*
X140841100Y-79603600D02*
G75*
G03*
X140841100Y-79603600I-2500000J0D01*
G01*
D10*
X132372100Y-131927600D02*
X132372100Y-131673600D01*
X134150100Y-131927600D02*
X134150100Y-131673600D01*
X132499100Y-131546600D02*
X132499100Y-129260600D01*
X132499100Y-131546600D02*
X132372100Y-131673600D01*
X134023100Y-131546600D02*
X134023100Y-129260600D01*
X134023100Y-131546600D02*
X134150100Y-131673600D01*
X132499100Y-129260600D02*
X132372100Y-129133600D01*
X132372100Y-128879600D02*
X132372100Y-129133600D01*
X134023100Y-129260600D02*
X134150100Y-129133600D01*
X134150100Y-128879600D02*
X134150100Y-129133600D01*
X133896100Y-132181600D02*
G75*
G03*
X134150100Y-131927600I0J254000D01*
G01*
X132626100Y-132181600D02*
G75*
G02*
X132372100Y-131927600I0J254000D01*
G01*
X132372100Y-128879600D02*
G75*
G02*
X132626100Y-128625600I254000J0D01*
G01*
X134150100Y-128879600D02*
G75*
G03*
X133896100Y-128625600I-254000J0D01*
G01*
X128562100Y-131927600D02*
X128562100Y-131673600D01*
X130340100Y-131927600D02*
X130340100Y-131673600D01*
X128689100Y-131546600D02*
X128689100Y-129260600D01*
X128689100Y-131546600D02*
X128562100Y-131673600D01*
X130213100Y-131546600D02*
X130213100Y-129260600D01*
X130213100Y-131546600D02*
X130340100Y-131673600D01*
X128689100Y-129260600D02*
X128562100Y-129133600D01*
X128562100Y-128879600D02*
X128562100Y-129133600D01*
X130213100Y-129260600D02*
X130340100Y-129133600D01*
X130340100Y-128879600D02*
X130340100Y-129133600D01*
X130086100Y-132181600D02*
G75*
G03*
X130340100Y-131927600I0J254000D01*
G01*
X128816100Y-132181600D02*
G75*
G02*
X128562100Y-131927600I0J254000D01*
G01*
X128562100Y-128879600D02*
G75*
G02*
X128816100Y-128625600I254000J0D01*
G01*
X130340100Y-128879600D02*
G75*
G03*
X130086100Y-128625600I-254000J0D01*
G01*
D13*
G36*
X141516100Y-121767600D02*
G01*
X142786100Y-121767600D01*
X142786100Y-118973600D01*
X141516100Y-118973600D01*
X141516100Y-121767600D01*
G37*
G36*
X138976100Y-121767600D02*
G01*
X140246100Y-121767600D01*
X140246100Y-118973600D01*
X138976100Y-118973600D01*
X138976100Y-121767600D01*
G37*
G36*
X136436100Y-121767600D02*
G01*
X137706100Y-121767600D01*
X137706100Y-118973600D01*
X136436100Y-118973600D01*
X136436100Y-121767600D01*
G37*
G36*
X136690100Y-122402600D02*
G01*
X137452100Y-122402600D01*
X137452100Y-121767600D01*
X136690100Y-121767600D01*
X136690100Y-122402600D01*
G37*
G36*
X139230100Y-122402600D02*
G01*
X139992100Y-122402600D01*
X139992100Y-121767600D01*
X139230100Y-121767600D01*
X139230100Y-122402600D01*
G37*
G36*
X141770100Y-122402600D02*
G01*
X142532100Y-122402600D01*
X142532100Y-121767600D01*
X141770100Y-121767600D01*
X141770100Y-122402600D01*
G37*
D10*
X141414500Y-106527600D02*
G75*
G03*
X141414500Y-106527600I-1803400J0D01*
G01*
D14*
X135039100Y-118338600D02*
X135039100Y-110083600D01*
X144183100Y-110083600D02*
X135039100Y-110083600D01*
X144183100Y-110083600D02*
X144183100Y-118338600D01*
X135039100Y-118338600D02*
X144183100Y-118338600D01*
D10*
X134404100Y-105003600D02*
X134404100Y-103098600D01*
X135293100Y-105003600D02*
X134404100Y-105003600D01*
X135293100Y-106527600D02*
X135293100Y-105003600D01*
X134404100Y-106527600D02*
X135293100Y-106527600D01*
X134404100Y-118973600D02*
X134404100Y-106527600D01*
X144818100Y-105003600D02*
X144818100Y-103098600D01*
X143929100Y-105003600D02*
X144818100Y-105003600D01*
X143929100Y-106527600D02*
X143929100Y-105003600D01*
X144818100Y-106527600D02*
X143929100Y-106527600D01*
X144818100Y-118973600D02*
X144818100Y-106527600D01*
X144818100Y-103098600D02*
X134404100Y-103098600D01*
X134404100Y-118973600D02*
X144818100Y-118973600D01*
D12*
X183946980Y-123346460D02*
G75*
G03*
X183946980Y-123346460I-100000J0D01*
G01*
X185046980Y-131646460D02*
X180646980Y-131646460D01*
X185046980Y-119046460D02*
X185046980Y-131646460D01*
X180646980Y-119046460D02*
X185046980Y-119046460D01*
X180646980Y-131646460D02*
X180646980Y-119046460D01*
D11*
X121577100Y-66141600D02*
X124066300Y-66141600D01*
X121577100Y-80365600D02*
X124066300Y-80365600D01*
X124066300Y-66141600D02*
X124066300Y-80365600D01*
X116928900Y-66141600D02*
X117030500Y-66141600D01*
X116928900Y-80365600D02*
X117030500Y-80365600D01*
X116928900Y-66141600D02*
X116928900Y-80365600D01*
D15*
X122989740Y-68630800D02*
G75*
G03*
X122989740Y-68630800I-193440J0D01*
G01*
D10*
X158026100Y-88976200D02*
X161836100Y-88976200D01*
X158026100Y-81102200D02*
X158026100Y-88976200D01*
X161836100Y-81102200D02*
X158026100Y-81102200D01*
X161836100Y-88976200D02*
X161836100Y-81102200D01*
X159296100Y-84861400D02*
X160566100Y-84861400D01*
X159931100Y-85623400D02*
X160058100Y-84861400D01*
X159931100Y-85623400D02*
X160185100Y-84861400D01*
X159931100Y-85623400D02*
X160312100Y-84861400D01*
X159931100Y-85623400D02*
X160439100Y-84861400D01*
X159931100Y-85623400D02*
X160566100Y-84861400D01*
X159931100Y-85623400D02*
X159804100Y-84861400D01*
X159931100Y-85623400D02*
X159677100Y-84861400D01*
X159931100Y-85623400D02*
X159550100Y-84861400D01*
X159931100Y-85623400D02*
X159423100Y-84861400D01*
X159931100Y-85623400D02*
X159296100Y-84861400D01*
X159931100Y-85623400D02*
X160566100Y-85623400D01*
X159296100Y-85623400D02*
X159931100Y-85623400D01*
X159931100Y-85623400D02*
X159931100Y-85877400D01*
X159931100Y-84607400D02*
X159931100Y-85623400D01*
D16*
X138441100Y-89093600D02*
G75*
G03*
X138441100Y-89093600I-100000J0D01*
G01*
D12*
X147071100Y-89553600D02*
X136411100Y-89553600D01*
X147071100Y-94373600D02*
X147071100Y-89553600D01*
X136411100Y-94373600D02*
X147071100Y-94373600D01*
X136411100Y-89553600D02*
X136411100Y-94373600D01*
D17*
X118831100Y-111693600D02*
X118831100Y-116093600D01*
X118831100Y-116093600D02*
X117331100Y-116093600D01*
X117331100Y-111693600D02*
X118831100Y-111693600D01*
X126331100Y-143043600D02*
X117331100Y-143043600D01*
X117331100Y-84743600D02*
X126231100Y-84743600D01*
X117331100Y-143043600D02*
X117331100Y-84743600D01*
X126331100Y-84743600D02*
X126331100Y-143043600D01*
X119056100Y-89128600D02*
X119056100Y-90398600D01*
D18*
X184950240Y-64064320D02*
X184950240Y-82649320D01*
X184950240Y-82649320D02*
X171950240Y-82649320D01*
X171950240Y-63949320D02*
X171950240Y-82649320D01*
X184950240Y-63949320D02*
X171950240Y-63949320D01*
D11*
X149861100Y-138493600D02*
X147811100Y-138493600D01*
X147811100Y-138493600D02*
X147811100Y-152793600D01*
X147811100Y-152793600D02*
X156811100Y-152793600D01*
X156811100Y-152793600D02*
X156811100Y-144243600D01*
X154761100Y-138493600D02*
X156811100Y-138493600D01*
X156811100Y-138493600D02*
X156811100Y-139743600D01*
D19*
X157676813Y-123959279D02*
X157676813Y-121978548D01*
X158148416Y-121978548D01*
X158431377Y-122072869D01*
X158620018Y-122261510D01*
X158714339Y-122450151D01*
X158808659Y-122827433D01*
X158808659Y-123110394D01*
X158714339Y-123487676D01*
X158620018Y-123676317D01*
X158431377Y-123864958D01*
X158148416Y-123959279D01*
X157676813Y-123959279D01*
X160695070Y-123959279D02*
X159563224Y-123959279D01*
X160129147Y-123959279D02*
X160129147Y-121978548D01*
X159940506Y-122261510D01*
X159751865Y-122450151D01*
X159563224Y-122544471D01*
D20*
X144923723Y-72366750D02*
X144923723Y-73746245D01*
X144831757Y-74022144D01*
X144647824Y-74206077D01*
X144371925Y-74298043D01*
X144187993Y-74298043D01*
X146855016Y-74298043D02*
X145751420Y-74298043D01*
X146303218Y-74298043D02*
X146303218Y-72366750D01*
X146119286Y-72642649D01*
X145935353Y-72826582D01*
X145751420Y-72918548D01*
X132223723Y-135866750D02*
X132223723Y-137246245D01*
X132131757Y-137522144D01*
X131947824Y-137706077D01*
X131671925Y-137798043D01*
X131487993Y-137798043D01*
X132959454Y-135866750D02*
X134155016Y-135866750D01*
X133511252Y-136602481D01*
X133787151Y-136602481D01*
X133971084Y-136694447D01*
X134063050Y-136786414D01*
X134155016Y-136970346D01*
X134155016Y-137430178D01*
X134063050Y-137614111D01*
X133971084Y-137706077D01*
X133787151Y-137798043D01*
X133235353Y-137798043D01*
X133051420Y-137706077D01*
X132959454Y-137614111D01*
D21*
X157270691Y-109856814D02*
X158189930Y-110201528D01*
X157270691Y-110546242D01*
X158764453Y-110661147D02*
X158764453Y-109454647D01*
X159453882Y-110661147D01*
X159453882Y-109454647D01*
X160545477Y-110661147D02*
X160545477Y-110029171D01*
X160488025Y-109914266D01*
X160373120Y-109856814D01*
X160143310Y-109856814D01*
X160028406Y-109914266D01*
X160545477Y-110603695D02*
X160430572Y-110661147D01*
X160143310Y-110661147D01*
X160028406Y-110603695D01*
X159970953Y-110488790D01*
X159970953Y-110373885D01*
X160028406Y-110258980D01*
X160143310Y-110201528D01*
X160430572Y-110201528D01*
X160545477Y-110144076D01*
X161120001Y-110661147D02*
X161120001Y-109856814D01*
X161120001Y-109971719D02*
X161177453Y-109914266D01*
X161292358Y-109856814D01*
X161464715Y-109856814D01*
X161579620Y-109914266D01*
X161637072Y-110029171D01*
X161637072Y-110661147D01*
X161637072Y-110029171D02*
X161694525Y-109914266D01*
X161809430Y-109856814D01*
X161981787Y-109856814D01*
X162096691Y-109914266D01*
X162154144Y-110029171D01*
X162154144Y-110661147D01*
X163188287Y-110603695D02*
X163073382Y-110661147D01*
X162843572Y-110661147D01*
X162728668Y-110603695D01*
X162671215Y-110488790D01*
X162671215Y-110029171D01*
X162728668Y-109914266D01*
X162843572Y-109856814D01*
X163073382Y-109856814D01*
X163188287Y-109914266D01*
X163245739Y-110029171D01*
X163245739Y-110144076D01*
X162671215Y-110258980D01*
D22*
X145808700Y-77284800D02*
X145889133Y-77365233D01*
X145969566Y-77606533D01*
X145969566Y-77767400D01*
X145889133Y-78008700D01*
X145728266Y-78169566D01*
X145567400Y-78250000D01*
X145245666Y-78330433D01*
X145004366Y-78330433D01*
X144682633Y-78250000D01*
X144521766Y-78169566D01*
X144360900Y-78008700D01*
X144280466Y-77767400D01*
X144280466Y-77606533D01*
X144360900Y-77365233D01*
X144441333Y-77284800D01*
X144441333Y-76641333D02*
X144360900Y-76560900D01*
X144280466Y-76400033D01*
X144280466Y-75997866D01*
X144360900Y-75837000D01*
X144441333Y-75756566D01*
X144602200Y-75676133D01*
X144763066Y-75676133D01*
X145004366Y-75756566D01*
X145969566Y-76721766D01*
X145969566Y-75676133D01*
X136796299Y-76362300D02*
X136715866Y-76442733D01*
X136474566Y-76523166D01*
X136313699Y-76523166D01*
X136072399Y-76442733D01*
X135911533Y-76281866D01*
X135831099Y-76121000D01*
X135750666Y-75799266D01*
X135750666Y-75557966D01*
X135831099Y-75236233D01*
X135911533Y-75075366D01*
X136072399Y-74914500D01*
X136313699Y-74834066D01*
X136474566Y-74834066D01*
X136715866Y-74914500D01*
X136796299Y-74994933D01*
X138404966Y-76523166D02*
X137439766Y-76523166D01*
X137922366Y-76523166D02*
X137922366Y-74834066D01*
X137761499Y-75075366D01*
X137600633Y-75236233D01*
X137439766Y-75316666D01*
D23*
X133978287Y-130723611D02*
X133530158Y-131037301D01*
X133978287Y-131261366D02*
X133037217Y-131261366D01*
X133037217Y-130902863D01*
X133082030Y-130813237D01*
X133126842Y-130768424D01*
X133216468Y-130723611D01*
X133350907Y-130723611D01*
X133440532Y-130768424D01*
X133485345Y-130813237D01*
X133530158Y-130902863D01*
X133530158Y-131261366D01*
X133126842Y-130365109D02*
X133082030Y-130320296D01*
X133037217Y-130230670D01*
X133037217Y-130006606D01*
X133082030Y-129916980D01*
X133126842Y-129872167D01*
X133216468Y-129827354D01*
X133306094Y-129827354D01*
X133440532Y-129872167D01*
X133978287Y-130409921D01*
X133978287Y-129827354D01*
X130168287Y-130723611D02*
X129720158Y-131037301D01*
X130168287Y-131261366D02*
X129227217Y-131261366D01*
X129227217Y-130902863D01*
X129272030Y-130813237D01*
X129316842Y-130768424D01*
X129406468Y-130723611D01*
X129540907Y-130723611D01*
X129630532Y-130768424D01*
X129675345Y-130813237D01*
X129720158Y-130902863D01*
X129720158Y-131261366D01*
X130168287Y-129827354D02*
X130168287Y-130365109D01*
X130168287Y-130096231D02*
X129227217Y-130096231D01*
X129361655Y-130185857D01*
X129451281Y-130275483D01*
X129496094Y-130365109D01*
D24*
X137439124Y-112577033D02*
X137278258Y-112496600D01*
X137117391Y-112335733D01*
X136876091Y-112094433D01*
X136715224Y-112014000D01*
X136554358Y-112014000D01*
X136634791Y-112416166D02*
X136473924Y-112335733D01*
X136313058Y-112174866D01*
X136232624Y-111853133D01*
X136232624Y-111290100D01*
X136313058Y-110968366D01*
X136473924Y-110807500D01*
X136634791Y-110727066D01*
X136956524Y-110727066D01*
X137117391Y-110807500D01*
X137278258Y-110968366D01*
X137358691Y-111290100D01*
X137358691Y-111853133D01*
X137278258Y-112174866D01*
X137117391Y-112335733D01*
X136956524Y-112416166D01*
X136634791Y-112416166D01*
X138967358Y-112416166D02*
X138002158Y-112416166D01*
X138484758Y-112416166D02*
X138484758Y-110727066D01*
X138323891Y-110968366D01*
X138163024Y-111129233D01*
X138002158Y-111209666D01*
D25*
X135415987Y-109507866D02*
X135875606Y-109507866D01*
X135324063Y-109783638D02*
X135645797Y-108818438D01*
X135967530Y-109783638D01*
X136794844Y-109783638D02*
X136243301Y-109783638D01*
X136519073Y-109783638D02*
X136519073Y-108818438D01*
X136427149Y-108956323D01*
X136335225Y-109048247D01*
X136243301Y-109094209D01*
X137116578Y-108818438D02*
X137760044Y-108818438D01*
X137346387Y-109783638D01*
X138173701Y-109737676D02*
X138173701Y-109783638D01*
X138127740Y-109875561D01*
X138081778Y-109921523D01*
X139046978Y-108818438D02*
X138587359Y-108818438D01*
X138541397Y-109278057D01*
X138587359Y-109232095D01*
X138679282Y-109186133D01*
X138909092Y-109186133D01*
X139001016Y-109232095D01*
X139046978Y-109278057D01*
X139092940Y-109369980D01*
X139092940Y-109599790D01*
X139046978Y-109691714D01*
X139001016Y-109737676D01*
X138909092Y-109783638D01*
X138679282Y-109783638D01*
X138587359Y-109737676D01*
X138541397Y-109691714D01*
X139506597Y-109783638D02*
X139506597Y-109140171D01*
X139506597Y-109232095D02*
X139552559Y-109186133D01*
X139644482Y-109140171D01*
X139782368Y-109140171D01*
X139874292Y-109186133D01*
X139920254Y-109278057D01*
X139920254Y-109783638D01*
X139920254Y-109278057D02*
X139966216Y-109186133D01*
X140058140Y-109140171D01*
X140196025Y-109140171D01*
X140287949Y-109186133D01*
X140333911Y-109278057D01*
X140333911Y-109783638D01*
X140793530Y-109783638D02*
X140793530Y-109140171D01*
X140793530Y-109232095D02*
X140839492Y-109186133D01*
X140931416Y-109140171D01*
X141069301Y-109140171D01*
X141161225Y-109186133D01*
X141207187Y-109278057D01*
X141207187Y-109783638D01*
X141207187Y-109278057D02*
X141253149Y-109186133D01*
X141345073Y-109140171D01*
X141482959Y-109140171D01*
X141574882Y-109186133D01*
X141620844Y-109278057D01*
X141620844Y-109783638D01*
D26*
X180225095Y-122277740D02*
X180282547Y-122105383D01*
X180282547Y-121818121D01*
X180225095Y-121703217D01*
X180167642Y-121645764D01*
X180052738Y-121588312D01*
X179937833Y-121588312D01*
X179822928Y-121645764D01*
X179765476Y-121703217D01*
X179708023Y-121818121D01*
X179650571Y-122047931D01*
X179593119Y-122162836D01*
X179535666Y-122220288D01*
X179420761Y-122277740D01*
X179305857Y-122277740D01*
X179190952Y-122220288D01*
X179133500Y-122162836D01*
X179076047Y-122047931D01*
X179076047Y-121760669D01*
X179133500Y-121588312D01*
X179076047Y-121186145D02*
X180282547Y-120898883D01*
X179420761Y-120669074D01*
X180282547Y-120439264D01*
X179076047Y-120152002D01*
X179190952Y-119749836D02*
X179133500Y-119692383D01*
X179076047Y-119577478D01*
X179076047Y-119290217D01*
X179133500Y-119175312D01*
X179190952Y-119117859D01*
X179305857Y-119060407D01*
X179420761Y-119060407D01*
X179593119Y-119117859D01*
X180282547Y-119807288D01*
X180282547Y-119060407D01*
D27*
X125636024Y-66554672D02*
X125636024Y-67935577D01*
X125543963Y-68211758D01*
X125359843Y-68395879D01*
X125083662Y-68487939D01*
X124899541Y-68487939D01*
X127477230Y-66554672D02*
X126556627Y-66554672D01*
X126464567Y-67475276D01*
X126556627Y-67383215D01*
X126740748Y-67291155D01*
X127201049Y-67291155D01*
X127385170Y-67383215D01*
X127477230Y-67475276D01*
X127569291Y-67659396D01*
X127569291Y-68119698D01*
X127477230Y-68303819D01*
X127385170Y-68395879D01*
X127201049Y-68487939D01*
X126740748Y-68487939D01*
X126556627Y-68395879D01*
X126464567Y-68303819D01*
D21*
X157164314Y-87979008D02*
X157509028Y-87059770D01*
X157853742Y-87979008D01*
X157968647Y-86485246D02*
X156762147Y-86485246D01*
X157968647Y-85795817D01*
X156762147Y-85795817D01*
X157968647Y-84704222D02*
X157336671Y-84704222D01*
X157221766Y-84761674D01*
X157164314Y-84876579D01*
X157164314Y-85106389D01*
X157221766Y-85221293D01*
X157911195Y-84704222D02*
X157968647Y-84819127D01*
X157968647Y-85106389D01*
X157911195Y-85221293D01*
X157796290Y-85278746D01*
X157681385Y-85278746D01*
X157566480Y-85221293D01*
X157509028Y-85106389D01*
X157509028Y-84819127D01*
X157451576Y-84704222D01*
X157968647Y-84129698D02*
X157164314Y-84129698D01*
X157279219Y-84129698D02*
X157221766Y-84072246D01*
X157164314Y-83957341D01*
X157164314Y-83784984D01*
X157221766Y-83670079D01*
X157336671Y-83612627D01*
X157968647Y-83612627D01*
X157336671Y-83612627D02*
X157221766Y-83555174D01*
X157164314Y-83440270D01*
X157164314Y-83267912D01*
X157221766Y-83153008D01*
X157336671Y-83095555D01*
X157968647Y-83095555D01*
X157911195Y-82061412D02*
X157968647Y-82176317D01*
X157968647Y-82406127D01*
X157911195Y-82521031D01*
X157796290Y-82578484D01*
X157336671Y-82578484D01*
X157221766Y-82521031D01*
X157164314Y-82406127D01*
X157164314Y-82176317D01*
X157221766Y-82061412D01*
X157336671Y-82003960D01*
X157451576Y-82003960D01*
X157566480Y-82578484D01*
D26*
X137421099Y-87229647D02*
X137421099Y-88206338D01*
X137478552Y-88321242D01*
X137536004Y-88378695D01*
X137650909Y-88436147D01*
X137880718Y-88436147D01*
X137995623Y-88378695D01*
X138053076Y-88321242D01*
X138110528Y-88206338D01*
X138110528Y-87229647D01*
X138627599Y-88378695D02*
X138799957Y-88436147D01*
X139087218Y-88436147D01*
X139202123Y-88378695D01*
X139259576Y-88321242D01*
X139317028Y-88206338D01*
X139317028Y-88091433D01*
X139259576Y-87976528D01*
X139202123Y-87919076D01*
X139087218Y-87861623D01*
X138857409Y-87804171D01*
X138742504Y-87746719D01*
X138685052Y-87689266D01*
X138627599Y-87574361D01*
X138627599Y-87459457D01*
X138685052Y-87344552D01*
X138742504Y-87287100D01*
X138857409Y-87229647D01*
X139144671Y-87229647D01*
X139317028Y-87287100D01*
X138972314Y-87057290D02*
X138972314Y-88608504D01*
X140466076Y-88436147D02*
X139776647Y-88436147D01*
X140121361Y-88436147D02*
X140121361Y-87229647D01*
X140006457Y-87402004D01*
X139891552Y-87516909D01*
X139776647Y-87574361D01*
D28*
X117764734Y-83822902D02*
X117764734Y-84236560D01*
X117737157Y-84319291D01*
X117682002Y-84374445D01*
X117599271Y-84402022D01*
X117544117Y-84402022D01*
X118012928Y-83878057D02*
X118040505Y-83850480D01*
X118095659Y-83822902D01*
X118233545Y-83822902D01*
X118288699Y-83850480D01*
X118316277Y-83878057D01*
X118343854Y-83933211D01*
X118343854Y-83988365D01*
X118316277Y-84071097D01*
X117985351Y-84402022D01*
X118343854Y-84402022D01*
D29*
X171235001Y-74632653D02*
X171282620Y-74489796D01*
X171282620Y-74251700D01*
X171235001Y-74156462D01*
X171187382Y-74108843D01*
X171092144Y-74061224D01*
X170996906Y-74061224D01*
X170901668Y-74108843D01*
X170854049Y-74156462D01*
X170806430Y-74251700D01*
X170758811Y-74442177D01*
X170711192Y-74537415D01*
X170663573Y-74585034D01*
X170568335Y-74632653D01*
X170473097Y-74632653D01*
X170377859Y-74585034D01*
X170330240Y-74537415D01*
X170282620Y-74442177D01*
X170282620Y-74204081D01*
X170330240Y-74061224D01*
X170282620Y-73727891D02*
X171282620Y-73489796D01*
X170568335Y-73299320D01*
X171282620Y-73108843D01*
X170282620Y-72870748D01*
X171282620Y-71965986D02*
X171282620Y-72537415D01*
X171282620Y-72251700D02*
X170282620Y-72251700D01*
X170425478Y-72346939D01*
X170520716Y-72442177D01*
X170568335Y-72537415D01*
D20*
X156114823Y-135866750D02*
X156114823Y-137246245D01*
X156022857Y-137522144D01*
X155838924Y-137706077D01*
X155563025Y-137798043D01*
X155379093Y-137798043D01*
X157862184Y-136510515D02*
X157862184Y-137798043D01*
X157402352Y-135774784D02*
X156942520Y-137154279D01*
X158138083Y-137154279D01*
%LPC*%
G36*
G01*
X151084500Y-128988600D02*
X151084500Y-126738600D01*
G75*
G02*
X151186100Y-126637000I101600J0D01*
G01*
X153436100Y-126637000D01*
G75*
G02*
X153537700Y-126738600I0J-101600D01*
G01*
X153537700Y-128988600D01*
G75*
G02*
X153436100Y-129090200I-101600J0D01*
G01*
X151186100Y-129090200D01*
G75*
G02*
X151084500Y-128988600I0J101600D01*
G01*
G37*
D30*
X167551100Y-127863600D03*
D31*
X147231100Y-65363600D03*
D32*
X143181100Y-68013600D03*
D31*
X147231100Y-71713600D03*
X135801100Y-144643600D03*
D32*
X139851100Y-141993600D03*
D31*
X135801100Y-138293600D03*
D33*
X171894500Y-110083600D03*
X148501100Y-110083600D03*
D34*
X148501100Y-78603600D03*
G36*
G01*
X149061101Y-81265200D02*
X147941099Y-81265200D01*
G75*
G02*
X147839500Y-81163601I0J101599D01*
G01*
X147839500Y-80043599D01*
G75*
G02*
X147941099Y-79942000I101599J0D01*
G01*
X149061101Y-79942000D01*
G75*
G02*
X149162700Y-80043599I0J-101599D01*
G01*
X149162700Y-81163601D01*
G75*
G02*
X149061101Y-81265200I-101599J0D01*
G01*
G37*
X139341100Y-79603600D03*
G36*
G01*
X136679500Y-80163601D02*
X136679500Y-79043599D01*
G75*
G02*
X136781099Y-78942000I101599J0D01*
G01*
X137901101Y-78942000D01*
G75*
G02*
X138002700Y-79043599I0J-101599D01*
G01*
X138002700Y-80163601D01*
G75*
G02*
X137901101Y-80265200I-101599J0D01*
G01*
X136781099Y-80265200D01*
G75*
G02*
X136679500Y-80163601I0J101599D01*
G01*
G37*
D35*
X133261100Y-132943600D03*
X133261100Y-127863600D03*
X129451100Y-132943600D03*
X129451100Y-127863600D03*
D36*
X139611100Y-106527600D03*
D37*
X142151100Y-124053600D03*
X139611100Y-124053600D03*
X137071100Y-124053600D03*
G36*
G01*
X181721980Y-120019860D02*
X183971980Y-120019860D01*
G75*
G02*
X184073580Y-120121460I0J-101600D01*
G01*
X184073580Y-122371460D01*
G75*
G02*
X183971980Y-122473060I-101600J0D01*
G01*
X181721980Y-122473060D01*
G75*
G02*
X181620380Y-122371460I0J101600D01*
G01*
X181620380Y-120121460D01*
G75*
G02*
X181721980Y-120019860I101600J0D01*
G01*
G37*
G36*
G01*
X181721980Y-128219860D02*
X183971980Y-128219860D01*
G75*
G02*
X184073580Y-128321460I0J-101600D01*
G01*
X184073580Y-130571460D01*
G75*
G02*
X183971980Y-130673060I-101600J0D01*
G01*
X181721980Y-130673060D01*
G75*
G02*
X181620380Y-130571460I0J101600D01*
G01*
X181620380Y-128321460D01*
G75*
G02*
X181721980Y-128219860I101600J0D01*
G01*
G37*
G36*
G01*
X182192980Y-126590860D02*
X183500980Y-126590860D01*
G75*
G02*
X183602580Y-126692460I0J-101600D01*
G01*
X183602580Y-128000460D01*
G75*
G02*
X183500980Y-128102060I-101600J0D01*
G01*
X182192980Y-128102060D01*
G75*
G02*
X182091380Y-128000460I0J101600D01*
G01*
X182091380Y-126692460D01*
G75*
G02*
X182192980Y-126590860I101600J0D01*
G01*
G37*
G36*
G01*
X182192980Y-122590860D02*
X183500980Y-122590860D01*
G75*
G02*
X183602580Y-122692460I0J-101600D01*
G01*
X183602580Y-124000460D01*
G75*
G02*
X183500980Y-124102060I-101600J0D01*
G01*
X182192980Y-124102060D01*
G75*
G02*
X182091380Y-124000460I0J101600D01*
G01*
X182091380Y-122692460D01*
G75*
G02*
X182192980Y-122590860I101600J0D01*
G01*
G37*
G36*
G01*
X182192980Y-124590860D02*
X183500980Y-124590860D01*
G75*
G02*
X183602580Y-124692460I0J-101600D01*
G01*
X183602580Y-126000460D01*
G75*
G02*
X183500980Y-126102060I-101600J0D01*
G01*
X182192980Y-126102060D01*
G75*
G02*
X182091380Y-126000460I0J101600D01*
G01*
X182091380Y-124692460D01*
G75*
G02*
X182192980Y-124590860I101600J0D01*
G01*
G37*
D38*
X119291100Y-79823600D03*
X119291100Y-66683600D03*
D39*
X121691100Y-76753600D03*
X121691100Y-74253600D03*
X121691100Y-72253600D03*
X121691100Y-69753600D03*
D40*
X159931100Y-77774800D03*
G36*
G01*
X160566100Y-93040200D02*
X159296100Y-93040200D01*
G75*
G02*
X159194500Y-92938600I0J101600D01*
G01*
X159194500Y-91668600D01*
G75*
G02*
X159296100Y-91567000I101600J0D01*
G01*
X160566100Y-91567000D01*
G75*
G02*
X160667700Y-91668600I0J-101600D01*
G01*
X160667700Y-92938600D01*
G75*
G02*
X160566100Y-93040200I-101600J0D01*
G01*
G37*
D41*
X145917920Y-92339160D03*
X143865600Y-92313760D03*
X141745100Y-92303600D03*
X139512040Y-92344240D03*
X137320020Y-92293440D03*
D42*
X120561100Y-138023600D03*
X123101100Y-138023600D03*
X120561100Y-135483600D03*
X123101100Y-135483600D03*
X120561100Y-132943600D03*
X123101100Y-132943600D03*
X120561100Y-130403600D03*
X123101100Y-130403600D03*
X120561100Y-127863600D03*
X123101100Y-127863600D03*
X120561100Y-125323600D03*
X123101100Y-125323600D03*
X120561100Y-122783600D03*
X123101100Y-122783600D03*
X120561100Y-120243600D03*
X123101100Y-120243600D03*
X120561100Y-117703600D03*
X123101100Y-117703600D03*
X120561100Y-115163600D03*
X123101100Y-115163600D03*
X120561100Y-112623600D03*
X123101100Y-112623600D03*
X120561100Y-110083600D03*
X123101100Y-110083600D03*
X120561100Y-107543600D03*
X123101100Y-107543600D03*
X120561100Y-105003600D03*
X123101100Y-105003600D03*
X120561100Y-102463600D03*
X123101100Y-102463600D03*
X120561100Y-99923600D03*
X123101100Y-99923600D03*
X120561100Y-97383600D03*
X123101100Y-97383600D03*
X120561100Y-94843600D03*
X123101100Y-94843600D03*
X120561100Y-92303600D03*
X123101100Y-92303600D03*
X120561100Y-89763600D03*
X123101100Y-89763600D03*
G36*
G01*
X175575240Y-72049320D02*
X181325240Y-72049320D01*
G75*
G02*
X181950240Y-72674320I0J-625000D01*
G01*
X181950240Y-73924320D01*
G75*
G02*
X181325240Y-74549320I-625000J0D01*
G01*
X175575240Y-74549320D01*
G75*
G02*
X174950240Y-73924320I0J625000D01*
G01*
X174950240Y-72674320D01*
G75*
G02*
X175575240Y-72049320I625000J0D01*
G01*
G37*
G36*
G01*
X175575240Y-79149320D02*
X181325240Y-79149320D01*
G75*
G02*
X181950240Y-79774320I0J-625000D01*
G01*
X181950240Y-81024320D01*
G75*
G02*
X181325240Y-81649320I-625000J0D01*
G01*
X175575240Y-81649320D01*
G75*
G02*
X174950240Y-81024320I0J625000D01*
G01*
X174950240Y-79774320D01*
G75*
G02*
X175575240Y-79149320I625000J0D01*
G01*
G37*
D31*
X152311100Y-138293600D03*
D32*
X156361100Y-141993600D03*
D31*
X152311100Y-144643600D03*
M02*
