%FSLAX45Y45*%
G04 Gerber Fmt 4.5, Leading zero omitted, Abs format (unit mm)*
G04 Created by KiCad (PCBNEW (5.1.10)-1) date 2021-11-18 00:00:58*
%MOMM*%
%LPD*%
G01*
G04 APERTURE LIST*
%TA.AperFunction,Profile*%
%ADD10C,0.152400*%
%TD*%
%ADD11C,0.200000*%
%ADD12C,0.300000*%
G04 APERTURE END LIST*
D10*
X18542000Y-6172200D02*
X18542000Y-14859000D01*
X11531600Y-6172200D02*
X18542000Y-6172200D01*
X11531600Y-14859000D02*
X11531600Y-6172200D01*
X18542000Y-14859000D02*
X11531600Y-14859000D01*
D11*
X14705610Y-6799860D02*
X14740610Y-6834860D01*
X14740610Y-6799860D02*
X14705610Y-6834860D01*
X13602650Y-14197076D02*
G75*
G03*
X13602650Y-14197076I-20000J0D01*
G01*
X13734110Y-7924360D02*
X13734110Y-7996360D01*
X13698110Y-7960360D02*
X13770110Y-7960360D01*
X13934110Y-7924360D02*
X13934110Y-7996360D01*
X13898110Y-7960360D02*
X13970110Y-7960360D01*
X14850110Y-7824360D02*
X14850110Y-7896360D01*
X14814110Y-7860360D02*
X14886110Y-7860360D01*
X14850110Y-8024360D02*
X14850110Y-8096360D01*
X14814110Y-8060360D02*
X14886110Y-8060360D01*
X12972051Y-10273301D02*
X12972051Y-10219419D01*
X12918169Y-10219419D01*
X12918169Y-10273301D01*
X12972051Y-10273301D01*
X13988051Y-13448301D02*
X13988051Y-13394419D01*
X13934169Y-13394419D01*
X13934169Y-13448301D01*
X13988051Y-13448301D01*
X14877051Y-13448301D02*
X14877051Y-13394419D01*
X14823169Y-13394419D01*
X14823169Y-13448301D01*
X14877051Y-13448301D01*
X16020051Y-7804421D02*
X16020051Y-7750539D01*
X15966169Y-7750539D01*
X15966169Y-7804421D01*
X16020051Y-7804421D01*
X16020051Y-9257301D02*
X16020051Y-9203419D01*
X15966169Y-9203419D01*
X15966169Y-9257301D01*
X16020051Y-9257301D01*
X18284698Y-12374646D02*
X18324698Y-12334646D01*
X18284698Y-12294646D01*
X18244698Y-12334646D01*
X18284698Y-12374646D01*
X18284698Y-12574646D02*
X18324698Y-12534646D01*
X18284698Y-12494646D01*
X18244698Y-12534646D01*
X18284698Y-12574646D01*
X18284698Y-12774646D02*
X18324698Y-12734646D01*
X18284698Y-12694646D01*
X18244698Y-12734646D01*
X18284698Y-12774646D01*
X12904470Y-12745720D02*
X12985750Y-12827000D01*
X12985750Y-12745720D02*
X12904470Y-12827000D01*
X12985750Y-12786360D02*
G75*
G03*
X12985750Y-12786360I-40640J0D01*
G01*
X12904470Y-13253720D02*
X12985750Y-13335000D01*
X12985750Y-13253720D02*
X12904470Y-13335000D01*
X12985750Y-13294360D02*
G75*
G03*
X12985750Y-13294360I-40640J0D01*
G01*
X13285470Y-12745720D02*
X13366750Y-12827000D01*
X13366750Y-12745720D02*
X13285470Y-12827000D01*
X13366750Y-12786360D02*
G75*
G03*
X13366750Y-12786360I-40640J0D01*
G01*
X13285470Y-13253720D02*
X13366750Y-13335000D01*
X13366750Y-13253720D02*
X13285470Y-13335000D01*
X13366750Y-13294360D02*
G75*
G03*
X13366750Y-13294360I-40640J0D01*
G01*
X12124110Y-6930360D02*
X12214110Y-7020360D01*
X12214110Y-6930360D02*
X12124110Y-7020360D01*
X12169110Y-6930360D02*
X12169110Y-7020360D01*
X12124110Y-6975360D02*
X12214110Y-6975360D01*
X12124110Y-7180360D02*
X12214110Y-7270360D01*
X12214110Y-7180360D02*
X12124110Y-7270360D01*
X12169110Y-7180360D02*
X12169110Y-7270360D01*
X12124110Y-7225360D02*
X12214110Y-7225360D01*
X12124110Y-7380360D02*
X12214110Y-7470360D01*
X12214110Y-7380360D02*
X12124110Y-7470360D01*
X12169110Y-7380360D02*
X12169110Y-7470360D01*
X12124110Y-7425360D02*
X12214110Y-7425360D01*
X12124110Y-7630360D02*
X12214110Y-7720360D01*
X12214110Y-7630360D02*
X12124110Y-7720360D01*
X12169110Y-7630360D02*
X12169110Y-7720360D01*
X12124110Y-7675360D02*
X12214110Y-7675360D01*
X17795024Y-7279932D02*
X17895024Y-7379932D01*
X17895024Y-7279932D02*
X17795024Y-7379932D01*
X17880380Y-7365288D02*
X17880380Y-7294576D01*
X17809668Y-7294576D01*
X17809668Y-7365288D01*
X17880380Y-7365288D01*
X18045024Y-7289932D02*
X17645024Y-7289932D01*
X18045024Y-7369932D02*
X17645024Y-7369932D01*
X17645024Y-7289932D02*
G75*
G03*
X17645024Y-7369932I0J-40000D01*
G01*
X18045024Y-7369932D02*
G75*
G03*
X18045024Y-7289932I0J40000D01*
G01*
X17795024Y-7989932D02*
X17895024Y-8089932D01*
X17895024Y-7989932D02*
X17795024Y-8089932D01*
X17880380Y-8075288D02*
X17880380Y-8004576D01*
X17809668Y-8004576D01*
X17809668Y-8075288D01*
X17880380Y-8075288D01*
X18045024Y-7999932D02*
X17645024Y-7999932D01*
X18045024Y-8079932D02*
X17645024Y-8079932D01*
X17645024Y-7999932D02*
G75*
G03*
X17645024Y-8079932I0J-40000D01*
G01*
X18045024Y-8079932D02*
G75*
G03*
X18045024Y-7999932I0J40000D01*
G01*
X12005310Y-8925560D02*
X12106910Y-9027160D01*
X12106910Y-8925560D02*
X12005310Y-9027160D01*
X12056110Y-9027160D02*
X12106910Y-8976360D01*
X12056110Y-8925560D01*
X12005310Y-8976360D01*
X12056110Y-9027160D01*
X12005310Y-9179560D02*
X12106910Y-9281160D01*
X12106910Y-9179560D02*
X12005310Y-9281160D01*
X12056110Y-9281160D02*
X12106910Y-9230360D01*
X12056110Y-9179560D01*
X12005310Y-9230360D01*
X12056110Y-9281160D01*
X12005310Y-9433560D02*
X12106910Y-9535160D01*
X12106910Y-9433560D02*
X12005310Y-9535160D01*
X12056110Y-9535160D02*
X12106910Y-9484360D01*
X12056110Y-9433560D01*
X12005310Y-9484360D01*
X12056110Y-9535160D01*
X12005310Y-9687560D02*
X12106910Y-9789160D01*
X12106910Y-9687560D02*
X12005310Y-9789160D01*
X12056110Y-9789160D02*
X12106910Y-9738360D01*
X12056110Y-9687560D01*
X12005310Y-9738360D01*
X12056110Y-9789160D01*
X12005310Y-9941560D02*
X12106910Y-10043160D01*
X12106910Y-9941560D02*
X12005310Y-10043160D01*
X12056110Y-10043160D02*
X12106910Y-9992360D01*
X12056110Y-9941560D01*
X12005310Y-9992360D01*
X12056110Y-10043160D01*
X12005310Y-10195560D02*
X12106910Y-10297160D01*
X12106910Y-10195560D02*
X12005310Y-10297160D01*
X12056110Y-10297160D02*
X12106910Y-10246360D01*
X12056110Y-10195560D01*
X12005310Y-10246360D01*
X12056110Y-10297160D01*
X12005310Y-10449560D02*
X12106910Y-10551160D01*
X12106910Y-10449560D02*
X12005310Y-10551160D01*
X12056110Y-10551160D02*
X12106910Y-10500360D01*
X12056110Y-10449560D01*
X12005310Y-10500360D01*
X12056110Y-10551160D01*
X12005310Y-10703560D02*
X12106910Y-10805160D01*
X12106910Y-10703560D02*
X12005310Y-10805160D01*
X12056110Y-10805160D02*
X12106910Y-10754360D01*
X12056110Y-10703560D01*
X12005310Y-10754360D01*
X12056110Y-10805160D01*
X12005310Y-10957560D02*
X12106910Y-11059160D01*
X12106910Y-10957560D02*
X12005310Y-11059160D01*
X12056110Y-11059160D02*
X12106910Y-11008360D01*
X12056110Y-10957560D01*
X12005310Y-11008360D01*
X12056110Y-11059160D01*
X12005310Y-11211560D02*
X12106910Y-11313160D01*
X12106910Y-11211560D02*
X12005310Y-11313160D01*
X12056110Y-11313160D02*
X12106910Y-11262360D01*
X12056110Y-11211560D01*
X12005310Y-11262360D01*
X12056110Y-11313160D01*
X12005310Y-11465560D02*
X12106910Y-11567160D01*
X12106910Y-11465560D02*
X12005310Y-11567160D01*
X12056110Y-11567160D02*
X12106910Y-11516360D01*
X12056110Y-11465560D01*
X12005310Y-11516360D01*
X12056110Y-11567160D01*
X12005310Y-11719560D02*
X12106910Y-11821160D01*
X12106910Y-11719560D02*
X12005310Y-11821160D01*
X12056110Y-11821160D02*
X12106910Y-11770360D01*
X12056110Y-11719560D01*
X12005310Y-11770360D01*
X12056110Y-11821160D01*
X12005310Y-11973560D02*
X12106910Y-12075160D01*
X12106910Y-11973560D02*
X12005310Y-12075160D01*
X12056110Y-12075160D02*
X12106910Y-12024360D01*
X12056110Y-11973560D01*
X12005310Y-12024360D01*
X12056110Y-12075160D01*
X12005310Y-12227560D02*
X12106910Y-12329160D01*
X12106910Y-12227560D02*
X12005310Y-12329160D01*
X12056110Y-12329160D02*
X12106910Y-12278360D01*
X12056110Y-12227560D01*
X12005310Y-12278360D01*
X12056110Y-12329160D01*
X12005310Y-12481560D02*
X12106910Y-12583160D01*
X12106910Y-12481560D02*
X12005310Y-12583160D01*
X12056110Y-12583160D02*
X12106910Y-12532360D01*
X12056110Y-12481560D01*
X12005310Y-12532360D01*
X12056110Y-12583160D01*
X12005310Y-12735560D02*
X12106910Y-12837160D01*
X12106910Y-12735560D02*
X12005310Y-12837160D01*
X12056110Y-12837160D02*
X12106910Y-12786360D01*
X12056110Y-12735560D01*
X12005310Y-12786360D01*
X12056110Y-12837160D01*
X12005310Y-12989560D02*
X12106910Y-13091160D01*
X12106910Y-12989560D02*
X12005310Y-13091160D01*
X12056110Y-13091160D02*
X12106910Y-13040360D01*
X12056110Y-12989560D01*
X12005310Y-13040360D01*
X12056110Y-13091160D01*
X12005310Y-13243560D02*
X12106910Y-13345160D01*
X12106910Y-13243560D02*
X12005310Y-13345160D01*
X12056110Y-13345160D02*
X12106910Y-13294360D01*
X12056110Y-13243560D01*
X12005310Y-13294360D01*
X12056110Y-13345160D01*
X12005310Y-13497560D02*
X12106910Y-13599160D01*
X12106910Y-13497560D02*
X12005310Y-13599160D01*
X12056110Y-13599160D02*
X12106910Y-13548360D01*
X12056110Y-13497560D01*
X12005310Y-13548360D01*
X12056110Y-13599160D01*
X12005310Y-13751560D02*
X12106910Y-13853160D01*
X12106910Y-13751560D02*
X12005310Y-13853160D01*
X12056110Y-13853160D02*
X12106910Y-13802360D01*
X12056110Y-13751560D01*
X12005310Y-13802360D01*
X12056110Y-13853160D01*
X12259310Y-8925560D02*
X12360910Y-9027160D01*
X12360910Y-8925560D02*
X12259310Y-9027160D01*
X12310110Y-9027160D02*
X12360910Y-8976360D01*
X12310110Y-8925560D01*
X12259310Y-8976360D01*
X12310110Y-9027160D01*
X12259310Y-9179560D02*
X12360910Y-9281160D01*
X12360910Y-9179560D02*
X12259310Y-9281160D01*
X12310110Y-9281160D02*
X12360910Y-9230360D01*
X12310110Y-9179560D01*
X12259310Y-9230360D01*
X12310110Y-9281160D01*
X12259310Y-9433560D02*
X12360910Y-9535160D01*
X12360910Y-9433560D02*
X12259310Y-9535160D01*
X12310110Y-9535160D02*
X12360910Y-9484360D01*
X12310110Y-9433560D01*
X12259310Y-9484360D01*
X12310110Y-9535160D01*
X12259310Y-9687560D02*
X12360910Y-9789160D01*
X12360910Y-9687560D02*
X12259310Y-9789160D01*
X12310110Y-9789160D02*
X12360910Y-9738360D01*
X12310110Y-9687560D01*
X12259310Y-9738360D01*
X12310110Y-9789160D01*
X12259310Y-9941560D02*
X12360910Y-10043160D01*
X12360910Y-9941560D02*
X12259310Y-10043160D01*
X12310110Y-10043160D02*
X12360910Y-9992360D01*
X12310110Y-9941560D01*
X12259310Y-9992360D01*
X12310110Y-10043160D01*
X12259310Y-10195560D02*
X12360910Y-10297160D01*
X12360910Y-10195560D02*
X12259310Y-10297160D01*
X12310110Y-10297160D02*
X12360910Y-10246360D01*
X12310110Y-10195560D01*
X12259310Y-10246360D01*
X12310110Y-10297160D01*
X12259310Y-10449560D02*
X12360910Y-10551160D01*
X12360910Y-10449560D02*
X12259310Y-10551160D01*
X12310110Y-10551160D02*
X12360910Y-10500360D01*
X12310110Y-10449560D01*
X12259310Y-10500360D01*
X12310110Y-10551160D01*
X12259310Y-10703560D02*
X12360910Y-10805160D01*
X12360910Y-10703560D02*
X12259310Y-10805160D01*
X12310110Y-10805160D02*
X12360910Y-10754360D01*
X12310110Y-10703560D01*
X12259310Y-10754360D01*
X12310110Y-10805160D01*
X12259310Y-10957560D02*
X12360910Y-11059160D01*
X12360910Y-10957560D02*
X12259310Y-11059160D01*
X12310110Y-11059160D02*
X12360910Y-11008360D01*
X12310110Y-10957560D01*
X12259310Y-11008360D01*
X12310110Y-11059160D01*
X12259310Y-11211560D02*
X12360910Y-11313160D01*
X12360910Y-11211560D02*
X12259310Y-11313160D01*
X12310110Y-11313160D02*
X12360910Y-11262360D01*
X12310110Y-11211560D01*
X12259310Y-11262360D01*
X12310110Y-11313160D01*
X12259310Y-11465560D02*
X12360910Y-11567160D01*
X12360910Y-11465560D02*
X12259310Y-11567160D01*
X12310110Y-11567160D02*
X12360910Y-11516360D01*
X12310110Y-11465560D01*
X12259310Y-11516360D01*
X12310110Y-11567160D01*
X12259310Y-11719560D02*
X12360910Y-11821160D01*
X12360910Y-11719560D02*
X12259310Y-11821160D01*
X12310110Y-11821160D02*
X12360910Y-11770360D01*
X12310110Y-11719560D01*
X12259310Y-11770360D01*
X12310110Y-11821160D01*
X12259310Y-11973560D02*
X12360910Y-12075160D01*
X12360910Y-11973560D02*
X12259310Y-12075160D01*
X12310110Y-12075160D02*
X12360910Y-12024360D01*
X12310110Y-11973560D01*
X12259310Y-12024360D01*
X12310110Y-12075160D01*
X12259310Y-12227560D02*
X12360910Y-12329160D01*
X12360910Y-12227560D02*
X12259310Y-12329160D01*
X12310110Y-12329160D02*
X12360910Y-12278360D01*
X12310110Y-12227560D01*
X12259310Y-12278360D01*
X12310110Y-12329160D01*
X12259310Y-12481560D02*
X12360910Y-12583160D01*
X12360910Y-12481560D02*
X12259310Y-12583160D01*
X12310110Y-12583160D02*
X12360910Y-12532360D01*
X12310110Y-12481560D01*
X12259310Y-12532360D01*
X12310110Y-12583160D01*
X12259310Y-12735560D02*
X12360910Y-12837160D01*
X12360910Y-12735560D02*
X12259310Y-12837160D01*
X12310110Y-12837160D02*
X12360910Y-12786360D01*
X12310110Y-12735560D01*
X12259310Y-12786360D01*
X12310110Y-12837160D01*
X12259310Y-12989560D02*
X12360910Y-13091160D01*
X12360910Y-12989560D02*
X12259310Y-13091160D01*
X12310110Y-13091160D02*
X12360910Y-13040360D01*
X12310110Y-12989560D01*
X12259310Y-13040360D01*
X12310110Y-13091160D01*
X12259310Y-13243560D02*
X12360910Y-13345160D01*
X12360910Y-13243560D02*
X12259310Y-13345160D01*
X12310110Y-13345160D02*
X12360910Y-13294360D01*
X12310110Y-13243560D01*
X12259310Y-13294360D01*
X12310110Y-13345160D01*
X12259310Y-13497560D02*
X12360910Y-13599160D01*
X12360910Y-13497560D02*
X12259310Y-13599160D01*
X12310110Y-13599160D02*
X12360910Y-13548360D01*
X12310110Y-13497560D01*
X12259310Y-13548360D01*
X12310110Y-13599160D01*
X12259310Y-13751560D02*
X12360910Y-13853160D01*
X12360910Y-13751560D02*
X12259310Y-13853160D01*
X12310110Y-13853160D02*
X12360910Y-13802360D01*
X12310110Y-13751560D01*
X12259310Y-13802360D01*
X12310110Y-13853160D01*
X13707110Y-12349480D02*
X13707110Y-12461240D01*
X13651230Y-12405360D02*
X13762990Y-12405360D01*
X13762990Y-12405360D02*
G75*
G03*
X13762990Y-12405360I-55880J0D01*
G01*
X13961110Y-12349480D02*
X13961110Y-12461240D01*
X13905230Y-12405360D02*
X14016990Y-12405360D01*
X14016990Y-12405360D02*
G75*
G03*
X14016990Y-12405360I-55880J0D01*
G01*
X14215110Y-12349480D02*
X14215110Y-12461240D01*
X14159230Y-12405360D02*
X14270990Y-12405360D01*
X14270990Y-12405360D02*
G75*
G03*
X14270990Y-12405360I-55880J0D01*
G01*
X15276012Y-12831262D02*
X15276012Y-12741458D01*
X15186208Y-12741458D01*
X15186208Y-12831262D01*
X15276012Y-12831262D01*
X15294610Y-12786360D02*
G75*
G03*
X15294610Y-12786360I-63500J0D01*
G01*
X16800012Y-12831262D02*
X16800012Y-12741458D01*
X16710208Y-12741458D01*
X16710208Y-12831262D01*
X16800012Y-12831262D01*
X16818610Y-12786360D02*
G75*
G03*
X16818610Y-12786360I-63500J0D01*
G01*
X13732002Y-9294844D02*
X13797502Y-9229344D01*
X13732002Y-9163844D01*
X13666502Y-9229344D01*
X13732002Y-9294844D01*
X13797502Y-9229344D02*
G75*
G03*
X13797502Y-9229344I-65500J0D01*
G01*
X13951204Y-9299924D02*
X14016704Y-9234424D01*
X13951204Y-9168924D01*
X13885704Y-9234424D01*
X13951204Y-9299924D01*
X14016704Y-9234424D02*
G75*
G03*
X14016704Y-9234424I-65500J0D01*
G01*
X14174510Y-9295860D02*
X14240010Y-9230360D01*
X14174510Y-9164860D01*
X14109010Y-9230360D01*
X14174510Y-9295860D01*
X14240010Y-9230360D02*
G75*
G03*
X14240010Y-9230360I-65500J0D01*
G01*
X14386560Y-9296876D02*
X14452060Y-9231376D01*
X14386560Y-9165876D01*
X14321060Y-9231376D01*
X14386560Y-9296876D01*
X14452060Y-9231376D02*
G75*
G03*
X14452060Y-9231376I-65500J0D01*
G01*
X14591792Y-9299416D02*
X14657292Y-9233916D01*
X14591792Y-9168416D01*
X14526292Y-9233916D01*
X14591792Y-9299416D01*
X14657292Y-9233916D02*
G75*
G03*
X14657292Y-9233916I-65500J0D01*
G01*
X18284698Y-12049646D02*
X18284698Y-12199646D01*
X18209698Y-12124646D02*
X18359698Y-12124646D01*
X18337732Y-12177679D02*
X18337732Y-12071612D01*
X18231665Y-12071612D01*
X18231665Y-12177679D01*
X18337732Y-12177679D01*
X18284698Y-12869646D02*
X18284698Y-13019646D01*
X18209698Y-12944646D02*
X18359698Y-12944646D01*
X18337732Y-12997679D02*
X18337732Y-12891612D01*
X18231665Y-12891612D01*
X18231665Y-12997679D01*
X18337732Y-12997679D01*
X14850110Y-10932160D02*
X14850110Y-11084560D01*
X14773910Y-11008360D02*
X14926310Y-11008360D01*
X14850110Y-11084560D02*
X14926310Y-11008360D01*
X14850110Y-10932160D01*
X14773910Y-11008360D01*
X14850110Y-11084560D01*
X17189450Y-10932160D02*
X17189450Y-11084560D01*
X17113250Y-11008360D02*
X17265650Y-11008360D01*
X17189450Y-11084560D02*
X17265650Y-11008360D01*
X17189450Y-10932160D01*
X17113250Y-11008360D01*
X17189450Y-11084560D01*
X11929110Y-6783360D02*
X12044110Y-6668360D01*
X11929110Y-6553360D01*
X11814110Y-6668360D01*
X11929110Y-6783360D01*
X12010428Y-6749678D02*
X12010428Y-6587042D01*
X11847792Y-6587042D01*
X11847792Y-6749678D01*
X12010428Y-6749678D01*
X11929110Y-8097360D02*
X12044110Y-7982360D01*
X11929110Y-7867360D01*
X11814110Y-7982360D01*
X11929110Y-8097360D01*
X12010428Y-8063678D02*
X12010428Y-7901042D01*
X11847792Y-7901042D01*
X11847792Y-8063678D01*
X12010428Y-8063678D01*
D12*
X11810408Y-15332334D02*
X11810408Y-15032334D01*
X11881837Y-15032334D01*
X11924694Y-15046620D01*
X11953266Y-15075191D01*
X11967551Y-15103763D01*
X11981837Y-15160906D01*
X11981837Y-15203763D01*
X11967551Y-15260906D01*
X11953266Y-15289477D01*
X11924694Y-15318049D01*
X11881837Y-15332334D01*
X11810408Y-15332334D01*
X12110408Y-15332334D02*
X12110408Y-15132334D01*
X12110408Y-15189477D02*
X12124694Y-15160906D01*
X12138980Y-15146620D01*
X12167551Y-15132334D01*
X12196123Y-15132334D01*
X12296123Y-15332334D02*
X12296123Y-15132334D01*
X12296123Y-15032334D02*
X12281837Y-15046620D01*
X12296123Y-15060906D01*
X12310408Y-15046620D01*
X12296123Y-15032334D01*
X12296123Y-15060906D01*
X12481837Y-15332334D02*
X12453266Y-15318049D01*
X12438980Y-15289477D01*
X12438980Y-15032334D01*
X12638980Y-15332334D02*
X12610408Y-15318049D01*
X12596123Y-15289477D01*
X12596123Y-15032334D01*
X12981837Y-15332334D02*
X12981837Y-15032334D01*
X13081837Y-15246620D01*
X13181837Y-15032334D01*
X13181837Y-15332334D01*
X13453266Y-15332334D02*
X13453266Y-15175191D01*
X13438980Y-15146620D01*
X13410408Y-15132334D01*
X13353266Y-15132334D01*
X13324694Y-15146620D01*
X13453266Y-15318049D02*
X13424694Y-15332334D01*
X13353266Y-15332334D01*
X13324694Y-15318049D01*
X13310408Y-15289477D01*
X13310408Y-15260906D01*
X13324694Y-15232334D01*
X13353266Y-15218049D01*
X13424694Y-15218049D01*
X13453266Y-15203763D01*
X13596123Y-15132334D02*
X13596123Y-15432334D01*
X13596123Y-15146620D02*
X13624694Y-15132334D01*
X13681837Y-15132334D01*
X13710408Y-15146620D01*
X13724694Y-15160906D01*
X13738980Y-15189477D01*
X13738980Y-15275191D01*
X13724694Y-15303763D01*
X13710408Y-15318049D01*
X13681837Y-15332334D01*
X13624694Y-15332334D01*
X13596123Y-15318049D01*
X13867551Y-15303763D02*
X13881837Y-15318049D01*
X13867551Y-15332334D01*
X13853266Y-15318049D01*
X13867551Y-15303763D01*
X13867551Y-15332334D01*
X13867551Y-15146620D02*
X13881837Y-15160906D01*
X13867551Y-15175191D01*
X13853266Y-15160906D01*
X13867551Y-15146620D01*
X13867551Y-15175191D01*
X11488980Y-15809120D02*
X11523980Y-15844120D01*
X11523980Y-15809120D02*
X11488980Y-15844120D01*
X11867551Y-15662334D02*
X11896123Y-15662334D01*
X11924694Y-15676620D01*
X11938980Y-15690906D01*
X11953266Y-15719477D01*
X11967551Y-15776620D01*
X11967551Y-15848049D01*
X11953266Y-15905191D01*
X11938980Y-15933763D01*
X11924694Y-15948049D01*
X11896123Y-15962334D01*
X11867551Y-15962334D01*
X11838980Y-15948049D01*
X11824694Y-15933763D01*
X11810408Y-15905191D01*
X11796123Y-15848049D01*
X11796123Y-15776620D01*
X11810408Y-15719477D01*
X11824694Y-15690906D01*
X11838980Y-15676620D01*
X11867551Y-15662334D01*
X12096123Y-15933763D02*
X12110408Y-15948049D01*
X12096123Y-15962334D01*
X12081837Y-15948049D01*
X12096123Y-15933763D01*
X12096123Y-15962334D01*
X12210408Y-15662334D02*
X12396123Y-15662334D01*
X12296123Y-15776620D01*
X12338980Y-15776620D01*
X12367551Y-15790906D01*
X12381837Y-15805191D01*
X12396123Y-15833763D01*
X12396123Y-15905191D01*
X12381837Y-15933763D01*
X12367551Y-15948049D01*
X12338980Y-15962334D01*
X12253266Y-15962334D01*
X12224694Y-15948049D01*
X12210408Y-15933763D01*
X12667551Y-15662334D02*
X12524694Y-15662334D01*
X12510408Y-15805191D01*
X12524694Y-15790906D01*
X12553266Y-15776620D01*
X12624694Y-15776620D01*
X12653266Y-15790906D01*
X12667551Y-15805191D01*
X12681837Y-15833763D01*
X12681837Y-15905191D01*
X12667551Y-15933763D01*
X12653266Y-15948049D01*
X12624694Y-15962334D01*
X12553266Y-15962334D01*
X12524694Y-15948049D01*
X12510408Y-15933763D01*
X12867551Y-15662334D02*
X12896123Y-15662334D01*
X12924694Y-15676620D01*
X12938980Y-15690906D01*
X12953266Y-15719477D01*
X12967551Y-15776620D01*
X12967551Y-15848049D01*
X12953266Y-15905191D01*
X12938980Y-15933763D01*
X12924694Y-15948049D01*
X12896123Y-15962334D01*
X12867551Y-15962334D01*
X12838980Y-15948049D01*
X12824694Y-15933763D01*
X12810408Y-15905191D01*
X12796123Y-15848049D01*
X12796123Y-15776620D01*
X12810408Y-15719477D01*
X12824694Y-15690906D01*
X12838980Y-15676620D01*
X12867551Y-15662334D01*
X13096123Y-15962334D02*
X13096123Y-15762334D01*
X13096123Y-15790906D02*
X13110408Y-15776620D01*
X13138980Y-15762334D01*
X13181837Y-15762334D01*
X13210408Y-15776620D01*
X13224694Y-15805191D01*
X13224694Y-15962334D01*
X13224694Y-15805191D02*
X13238980Y-15776620D01*
X13267551Y-15762334D01*
X13310408Y-15762334D01*
X13338980Y-15776620D01*
X13353266Y-15805191D01*
X13353266Y-15962334D01*
X13496123Y-15962334D02*
X13496123Y-15762334D01*
X13496123Y-15790906D02*
X13510408Y-15776620D01*
X13538980Y-15762334D01*
X13581837Y-15762334D01*
X13610408Y-15776620D01*
X13624694Y-15805191D01*
X13624694Y-15962334D01*
X13624694Y-15805191D02*
X13638980Y-15776620D01*
X13667551Y-15762334D01*
X13710408Y-15762334D01*
X13738980Y-15776620D01*
X13753266Y-15805191D01*
X13753266Y-15962334D01*
X14338980Y-15648049D02*
X14081837Y-16033763D01*
X14724694Y-15662334D02*
X14753266Y-15662334D01*
X14781837Y-15676620D01*
X14796123Y-15690906D01*
X14810408Y-15719477D01*
X14824694Y-15776620D01*
X14824694Y-15848049D01*
X14810408Y-15905191D01*
X14796123Y-15933763D01*
X14781837Y-15948049D01*
X14753266Y-15962334D01*
X14724694Y-15962334D01*
X14696123Y-15948049D01*
X14681837Y-15933763D01*
X14667551Y-15905191D01*
X14653266Y-15848049D01*
X14653266Y-15776620D01*
X14667551Y-15719477D01*
X14681837Y-15690906D01*
X14696123Y-15676620D01*
X14724694Y-15662334D01*
X14953266Y-15933763D02*
X14967551Y-15948049D01*
X14953266Y-15962334D01*
X14938980Y-15948049D01*
X14953266Y-15933763D01*
X14953266Y-15962334D01*
X15153266Y-15662334D02*
X15181837Y-15662334D01*
X15210408Y-15676620D01*
X15224694Y-15690906D01*
X15238980Y-15719477D01*
X15253266Y-15776620D01*
X15253266Y-15848049D01*
X15238980Y-15905191D01*
X15224694Y-15933763D01*
X15210408Y-15948049D01*
X15181837Y-15962334D01*
X15153266Y-15962334D01*
X15124694Y-15948049D01*
X15110408Y-15933763D01*
X15096123Y-15905191D01*
X15081837Y-15848049D01*
X15081837Y-15776620D01*
X15096123Y-15719477D01*
X15110408Y-15690906D01*
X15124694Y-15676620D01*
X15153266Y-15662334D01*
X15538980Y-15962334D02*
X15367551Y-15962334D01*
X15453266Y-15962334D02*
X15453266Y-15662334D01*
X15424694Y-15705191D01*
X15396123Y-15733763D01*
X15367551Y-15748049D01*
X15638980Y-15662334D02*
X15824694Y-15662334D01*
X15724694Y-15776620D01*
X15767551Y-15776620D01*
X15796123Y-15790906D01*
X15810408Y-15805191D01*
X15824694Y-15833763D01*
X15824694Y-15905191D01*
X15810408Y-15933763D01*
X15796123Y-15948049D01*
X15767551Y-15962334D01*
X15681837Y-15962334D01*
X15653266Y-15948049D01*
X15638980Y-15933763D01*
X15996123Y-15790906D02*
X15967551Y-15776620D01*
X15953266Y-15762334D01*
X15938980Y-15733763D01*
X15938980Y-15719477D01*
X15953266Y-15690906D01*
X15967551Y-15676620D01*
X15996123Y-15662334D01*
X16053266Y-15662334D01*
X16081837Y-15676620D01*
X16096123Y-15690906D01*
X16110408Y-15719477D01*
X16110408Y-15733763D01*
X16096123Y-15762334D01*
X16081837Y-15776620D01*
X16053266Y-15790906D01*
X15996123Y-15790906D01*
X15967551Y-15805191D01*
X15953266Y-15819477D01*
X15938980Y-15848049D01*
X15938980Y-15905191D01*
X15953266Y-15933763D01*
X15967551Y-15948049D01*
X15996123Y-15962334D01*
X16053266Y-15962334D01*
X16081837Y-15948049D01*
X16096123Y-15933763D01*
X16110408Y-15905191D01*
X16110408Y-15848049D01*
X16096123Y-15819477D01*
X16081837Y-15805191D01*
X16053266Y-15790906D01*
X16224694Y-15662334D02*
X16224694Y-15719477D01*
X16338980Y-15662334D02*
X16338980Y-15719477D01*
X16781837Y-16076620D02*
X16767551Y-16062334D01*
X16738980Y-16019477D01*
X16724694Y-15990906D01*
X16710408Y-15948049D01*
X16696123Y-15876620D01*
X16696123Y-15819477D01*
X16710408Y-15748049D01*
X16724694Y-15705191D01*
X16738980Y-15676620D01*
X16767551Y-15633763D01*
X16781837Y-15619477D01*
X17053266Y-15962334D02*
X16881837Y-15962334D01*
X16967551Y-15962334D02*
X16967551Y-15662334D01*
X16938980Y-15705191D01*
X16910408Y-15733763D01*
X16881837Y-15748049D01*
X17410408Y-15962334D02*
X17410408Y-15662334D01*
X17538980Y-15962334D02*
X17538980Y-15805191D01*
X17524694Y-15776620D01*
X17496123Y-15762334D01*
X17453266Y-15762334D01*
X17424694Y-15776620D01*
X17410408Y-15790906D01*
X17724694Y-15962334D02*
X17696123Y-15948049D01*
X17681837Y-15933763D01*
X17667551Y-15905191D01*
X17667551Y-15819477D01*
X17681837Y-15790906D01*
X17696123Y-15776620D01*
X17724694Y-15762334D01*
X17767551Y-15762334D01*
X17796123Y-15776620D01*
X17810408Y-15790906D01*
X17824694Y-15819477D01*
X17824694Y-15905191D01*
X17810408Y-15933763D01*
X17796123Y-15948049D01*
X17767551Y-15962334D01*
X17724694Y-15962334D01*
X17996123Y-15962334D02*
X17967551Y-15948049D01*
X17953266Y-15919477D01*
X17953266Y-15662334D01*
X18224694Y-15948049D02*
X18196123Y-15962334D01*
X18138980Y-15962334D01*
X18110408Y-15948049D01*
X18096123Y-15919477D01*
X18096123Y-15805191D01*
X18110408Y-15776620D01*
X18138980Y-15762334D01*
X18196123Y-15762334D01*
X18224694Y-15776620D01*
X18238980Y-15805191D01*
X18238980Y-15833763D01*
X18096123Y-15862334D01*
X18338980Y-16076620D02*
X18353266Y-16062334D01*
X18381837Y-16019477D01*
X18396123Y-15990906D01*
X18410408Y-15948049D01*
X18424694Y-15876620D01*
X18424694Y-15819477D01*
X18410408Y-15748049D01*
X18396123Y-15705191D01*
X18381837Y-15676620D01*
X18353266Y-15633763D01*
X18338980Y-15619477D01*
X11523980Y-16222620D02*
G75*
G03*
X11523980Y-16222620I-20000J0D01*
G01*
X11867551Y-16058334D02*
X11896123Y-16058334D01*
X11924694Y-16072620D01*
X11938980Y-16086906D01*
X11953266Y-16115477D01*
X11967551Y-16172620D01*
X11967551Y-16244049D01*
X11953266Y-16301191D01*
X11938980Y-16329763D01*
X11924694Y-16344049D01*
X11896123Y-16358334D01*
X11867551Y-16358334D01*
X11838980Y-16344049D01*
X11824694Y-16329763D01*
X11810408Y-16301191D01*
X11796123Y-16244049D01*
X11796123Y-16172620D01*
X11810408Y-16115477D01*
X11824694Y-16086906D01*
X11838980Y-16072620D01*
X11867551Y-16058334D01*
X12096123Y-16329763D02*
X12110408Y-16344049D01*
X12096123Y-16358334D01*
X12081837Y-16344049D01*
X12096123Y-16329763D01*
X12096123Y-16358334D01*
X12367551Y-16158334D02*
X12367551Y-16358334D01*
X12296123Y-16044049D02*
X12224694Y-16258334D01*
X12410408Y-16258334D01*
X12581837Y-16058334D02*
X12610408Y-16058334D01*
X12638980Y-16072620D01*
X12653266Y-16086906D01*
X12667551Y-16115477D01*
X12681837Y-16172620D01*
X12681837Y-16244049D01*
X12667551Y-16301191D01*
X12653266Y-16329763D01*
X12638980Y-16344049D01*
X12610408Y-16358334D01*
X12581837Y-16358334D01*
X12553266Y-16344049D01*
X12538980Y-16329763D01*
X12524694Y-16301191D01*
X12510408Y-16244049D01*
X12510408Y-16172620D01*
X12524694Y-16115477D01*
X12538980Y-16086906D01*
X12553266Y-16072620D01*
X12581837Y-16058334D01*
X12867551Y-16058334D02*
X12896123Y-16058334D01*
X12924694Y-16072620D01*
X12938980Y-16086906D01*
X12953266Y-16115477D01*
X12967551Y-16172620D01*
X12967551Y-16244049D01*
X12953266Y-16301191D01*
X12938980Y-16329763D01*
X12924694Y-16344049D01*
X12896123Y-16358334D01*
X12867551Y-16358334D01*
X12838980Y-16344049D01*
X12824694Y-16329763D01*
X12810408Y-16301191D01*
X12796123Y-16244049D01*
X12796123Y-16172620D01*
X12810408Y-16115477D01*
X12824694Y-16086906D01*
X12838980Y-16072620D01*
X12867551Y-16058334D01*
X13096123Y-16358334D02*
X13096123Y-16158334D01*
X13096123Y-16186906D02*
X13110408Y-16172620D01*
X13138980Y-16158334D01*
X13181837Y-16158334D01*
X13210408Y-16172620D01*
X13224694Y-16201191D01*
X13224694Y-16358334D01*
X13224694Y-16201191D02*
X13238980Y-16172620D01*
X13267551Y-16158334D01*
X13310408Y-16158334D01*
X13338980Y-16172620D01*
X13353266Y-16201191D01*
X13353266Y-16358334D01*
X13496123Y-16358334D02*
X13496123Y-16158334D01*
X13496123Y-16186906D02*
X13510408Y-16172620D01*
X13538980Y-16158334D01*
X13581837Y-16158334D01*
X13610408Y-16172620D01*
X13624694Y-16201191D01*
X13624694Y-16358334D01*
X13624694Y-16201191D02*
X13638980Y-16172620D01*
X13667551Y-16158334D01*
X13710408Y-16158334D01*
X13738980Y-16172620D01*
X13753266Y-16201191D01*
X13753266Y-16358334D01*
X14338980Y-16044049D02*
X14081837Y-16429763D01*
X14724694Y-16058334D02*
X14753266Y-16058334D01*
X14781837Y-16072620D01*
X14796123Y-16086906D01*
X14810408Y-16115477D01*
X14824694Y-16172620D01*
X14824694Y-16244049D01*
X14810408Y-16301191D01*
X14796123Y-16329763D01*
X14781837Y-16344049D01*
X14753266Y-16358334D01*
X14724694Y-16358334D01*
X14696123Y-16344049D01*
X14681837Y-16329763D01*
X14667551Y-16301191D01*
X14653266Y-16244049D01*
X14653266Y-16172620D01*
X14667551Y-16115477D01*
X14681837Y-16086906D01*
X14696123Y-16072620D01*
X14724694Y-16058334D01*
X14953266Y-16329763D02*
X14967551Y-16344049D01*
X14953266Y-16358334D01*
X14938980Y-16344049D01*
X14953266Y-16329763D01*
X14953266Y-16358334D01*
X15153266Y-16058334D02*
X15181837Y-16058334D01*
X15210408Y-16072620D01*
X15224694Y-16086906D01*
X15238980Y-16115477D01*
X15253266Y-16172620D01*
X15253266Y-16244049D01*
X15238980Y-16301191D01*
X15224694Y-16329763D01*
X15210408Y-16344049D01*
X15181837Y-16358334D01*
X15153266Y-16358334D01*
X15124694Y-16344049D01*
X15110408Y-16329763D01*
X15096123Y-16301191D01*
X15081837Y-16244049D01*
X15081837Y-16172620D01*
X15096123Y-16115477D01*
X15110408Y-16086906D01*
X15124694Y-16072620D01*
X15153266Y-16058334D01*
X15538980Y-16358334D02*
X15367551Y-16358334D01*
X15453266Y-16358334D02*
X15453266Y-16058334D01*
X15424694Y-16101191D01*
X15396123Y-16129763D01*
X15367551Y-16144049D01*
X15810408Y-16058334D02*
X15667551Y-16058334D01*
X15653266Y-16201191D01*
X15667551Y-16186906D01*
X15696123Y-16172620D01*
X15767551Y-16172620D01*
X15796123Y-16186906D01*
X15810408Y-16201191D01*
X15824694Y-16229763D01*
X15824694Y-16301191D01*
X15810408Y-16329763D01*
X15796123Y-16344049D01*
X15767551Y-16358334D01*
X15696123Y-16358334D01*
X15667551Y-16344049D01*
X15653266Y-16329763D01*
X15924694Y-16058334D02*
X16124694Y-16058334D01*
X15996123Y-16358334D01*
X16224694Y-16058334D02*
X16224694Y-16115477D01*
X16338980Y-16058334D02*
X16338980Y-16115477D01*
X16781837Y-16472620D02*
X16767551Y-16458334D01*
X16738980Y-16415477D01*
X16724694Y-16386906D01*
X16710408Y-16344049D01*
X16696123Y-16272620D01*
X16696123Y-16215477D01*
X16710408Y-16144049D01*
X16724694Y-16101191D01*
X16738980Y-16072620D01*
X16767551Y-16029763D01*
X16781837Y-16015477D01*
X17053266Y-16358334D02*
X16881837Y-16358334D01*
X16967551Y-16358334D02*
X16967551Y-16058334D01*
X16938980Y-16101191D01*
X16910408Y-16129763D01*
X16881837Y-16144049D01*
X17410408Y-16358334D02*
X17410408Y-16058334D01*
X17538980Y-16358334D02*
X17538980Y-16201191D01*
X17524694Y-16172620D01*
X17496123Y-16158334D01*
X17453266Y-16158334D01*
X17424694Y-16172620D01*
X17410408Y-16186906D01*
X17724694Y-16358334D02*
X17696123Y-16344049D01*
X17681837Y-16329763D01*
X17667551Y-16301191D01*
X17667551Y-16215477D01*
X17681837Y-16186906D01*
X17696123Y-16172620D01*
X17724694Y-16158334D01*
X17767551Y-16158334D01*
X17796123Y-16172620D01*
X17810408Y-16186906D01*
X17824694Y-16215477D01*
X17824694Y-16301191D01*
X17810408Y-16329763D01*
X17796123Y-16344049D01*
X17767551Y-16358334D01*
X17724694Y-16358334D01*
X17996123Y-16358334D02*
X17967551Y-16344049D01*
X17953266Y-16315477D01*
X17953266Y-16058334D01*
X18224694Y-16344049D02*
X18196123Y-16358334D01*
X18138980Y-16358334D01*
X18110408Y-16344049D01*
X18096123Y-16315477D01*
X18096123Y-16201191D01*
X18110408Y-16172620D01*
X18138980Y-16158334D01*
X18196123Y-16158334D01*
X18224694Y-16172620D01*
X18238980Y-16201191D01*
X18238980Y-16229763D01*
X18096123Y-16258334D01*
X18338980Y-16472620D02*
X18353266Y-16458334D01*
X18381837Y-16415477D01*
X18396123Y-16386906D01*
X18410408Y-16344049D01*
X18424694Y-16272620D01*
X18424694Y-16215477D01*
X18410408Y-16144049D01*
X18396123Y-16101191D01*
X18381837Y-16072620D01*
X18353266Y-16029763D01*
X18338980Y-16015477D01*
X11487980Y-16582620D02*
X11487980Y-16654620D01*
X11451980Y-16618620D02*
X11523980Y-16618620D01*
X11867551Y-16454334D02*
X11896123Y-16454334D01*
X11924694Y-16468620D01*
X11938980Y-16482906D01*
X11953266Y-16511477D01*
X11967551Y-16568620D01*
X11967551Y-16640049D01*
X11953266Y-16697191D01*
X11938980Y-16725763D01*
X11924694Y-16740049D01*
X11896123Y-16754334D01*
X11867551Y-16754334D01*
X11838980Y-16740049D01*
X11824694Y-16725763D01*
X11810408Y-16697191D01*
X11796123Y-16640049D01*
X11796123Y-16568620D01*
X11810408Y-16511477D01*
X11824694Y-16482906D01*
X11838980Y-16468620D01*
X11867551Y-16454334D01*
X12096123Y-16725763D02*
X12110408Y-16740049D01*
X12096123Y-16754334D01*
X12081837Y-16740049D01*
X12096123Y-16725763D01*
X12096123Y-16754334D01*
X12210408Y-16454334D02*
X12410408Y-16454334D01*
X12281837Y-16754334D01*
X12510408Y-16482906D02*
X12524694Y-16468620D01*
X12553266Y-16454334D01*
X12624694Y-16454334D01*
X12653266Y-16468620D01*
X12667551Y-16482906D01*
X12681837Y-16511477D01*
X12681837Y-16540049D01*
X12667551Y-16582906D01*
X12496123Y-16754334D01*
X12681837Y-16754334D01*
X12867551Y-16454334D02*
X12896123Y-16454334D01*
X12924694Y-16468620D01*
X12938980Y-16482906D01*
X12953266Y-16511477D01*
X12967551Y-16568620D01*
X12967551Y-16640049D01*
X12953266Y-16697191D01*
X12938980Y-16725763D01*
X12924694Y-16740049D01*
X12896123Y-16754334D01*
X12867551Y-16754334D01*
X12838980Y-16740049D01*
X12824694Y-16725763D01*
X12810408Y-16697191D01*
X12796123Y-16640049D01*
X12796123Y-16568620D01*
X12810408Y-16511477D01*
X12824694Y-16482906D01*
X12838980Y-16468620D01*
X12867551Y-16454334D01*
X13096123Y-16754334D02*
X13096123Y-16554334D01*
X13096123Y-16582906D02*
X13110408Y-16568620D01*
X13138980Y-16554334D01*
X13181837Y-16554334D01*
X13210408Y-16568620D01*
X13224694Y-16597191D01*
X13224694Y-16754334D01*
X13224694Y-16597191D02*
X13238980Y-16568620D01*
X13267551Y-16554334D01*
X13310408Y-16554334D01*
X13338980Y-16568620D01*
X13353266Y-16597191D01*
X13353266Y-16754334D01*
X13496123Y-16754334D02*
X13496123Y-16554334D01*
X13496123Y-16582906D02*
X13510408Y-16568620D01*
X13538980Y-16554334D01*
X13581837Y-16554334D01*
X13610408Y-16568620D01*
X13624694Y-16597191D01*
X13624694Y-16754334D01*
X13624694Y-16597191D02*
X13638980Y-16568620D01*
X13667551Y-16554334D01*
X13710408Y-16554334D01*
X13738980Y-16568620D01*
X13753266Y-16597191D01*
X13753266Y-16754334D01*
X14338980Y-16440049D02*
X14081837Y-16825763D01*
X14724694Y-16454334D02*
X14753266Y-16454334D01*
X14781837Y-16468620D01*
X14796123Y-16482906D01*
X14810408Y-16511477D01*
X14824694Y-16568620D01*
X14824694Y-16640049D01*
X14810408Y-16697191D01*
X14796123Y-16725763D01*
X14781837Y-16740049D01*
X14753266Y-16754334D01*
X14724694Y-16754334D01*
X14696123Y-16740049D01*
X14681837Y-16725763D01*
X14667551Y-16697191D01*
X14653266Y-16640049D01*
X14653266Y-16568620D01*
X14667551Y-16511477D01*
X14681837Y-16482906D01*
X14696123Y-16468620D01*
X14724694Y-16454334D01*
X14953266Y-16725763D02*
X14967551Y-16740049D01*
X14953266Y-16754334D01*
X14938980Y-16740049D01*
X14953266Y-16725763D01*
X14953266Y-16754334D01*
X15153266Y-16454334D02*
X15181837Y-16454334D01*
X15210408Y-16468620D01*
X15224694Y-16482906D01*
X15238980Y-16511477D01*
X15253266Y-16568620D01*
X15253266Y-16640049D01*
X15238980Y-16697191D01*
X15224694Y-16725763D01*
X15210408Y-16740049D01*
X15181837Y-16754334D01*
X15153266Y-16754334D01*
X15124694Y-16740049D01*
X15110408Y-16725763D01*
X15096123Y-16697191D01*
X15081837Y-16640049D01*
X15081837Y-16568620D01*
X15096123Y-16511477D01*
X15110408Y-16482906D01*
X15124694Y-16468620D01*
X15153266Y-16454334D01*
X15367551Y-16482906D02*
X15381837Y-16468620D01*
X15410408Y-16454334D01*
X15481837Y-16454334D01*
X15510408Y-16468620D01*
X15524694Y-16482906D01*
X15538980Y-16511477D01*
X15538980Y-16540049D01*
X15524694Y-16582906D01*
X15353266Y-16754334D01*
X15538980Y-16754334D01*
X15710408Y-16582906D02*
X15681837Y-16568620D01*
X15667551Y-16554334D01*
X15653266Y-16525763D01*
X15653266Y-16511477D01*
X15667551Y-16482906D01*
X15681837Y-16468620D01*
X15710408Y-16454334D01*
X15767551Y-16454334D01*
X15796123Y-16468620D01*
X15810408Y-16482906D01*
X15824694Y-16511477D01*
X15824694Y-16525763D01*
X15810408Y-16554334D01*
X15796123Y-16568620D01*
X15767551Y-16582906D01*
X15710408Y-16582906D01*
X15681837Y-16597191D01*
X15667551Y-16611477D01*
X15653266Y-16640049D01*
X15653266Y-16697191D01*
X15667551Y-16725763D01*
X15681837Y-16740049D01*
X15710408Y-16754334D01*
X15767551Y-16754334D01*
X15796123Y-16740049D01*
X15810408Y-16725763D01*
X15824694Y-16697191D01*
X15824694Y-16640049D01*
X15810408Y-16611477D01*
X15796123Y-16597191D01*
X15767551Y-16582906D01*
X15924694Y-16454334D02*
X16110408Y-16454334D01*
X16010408Y-16568620D01*
X16053266Y-16568620D01*
X16081837Y-16582906D01*
X16096123Y-16597191D01*
X16110408Y-16625763D01*
X16110408Y-16697191D01*
X16096123Y-16725763D01*
X16081837Y-16740049D01*
X16053266Y-16754334D01*
X15967551Y-16754334D01*
X15938980Y-16740049D01*
X15924694Y-16725763D01*
X16224694Y-16454334D02*
X16224694Y-16511477D01*
X16338980Y-16454334D02*
X16338980Y-16511477D01*
X16781837Y-16868620D02*
X16767551Y-16854334D01*
X16738980Y-16811477D01*
X16724694Y-16782906D01*
X16710408Y-16740049D01*
X16696123Y-16668620D01*
X16696123Y-16611477D01*
X16710408Y-16540049D01*
X16724694Y-16497191D01*
X16738980Y-16468620D01*
X16767551Y-16425763D01*
X16781837Y-16411477D01*
X17024694Y-16554334D02*
X17024694Y-16754334D01*
X16953266Y-16440049D02*
X16881837Y-16654334D01*
X17067551Y-16654334D01*
X17410408Y-16754334D02*
X17410408Y-16454334D01*
X17538980Y-16754334D02*
X17538980Y-16597191D01*
X17524694Y-16568620D01*
X17496123Y-16554334D01*
X17453266Y-16554334D01*
X17424694Y-16568620D01*
X17410408Y-16582906D01*
X17724694Y-16754334D02*
X17696123Y-16740049D01*
X17681837Y-16725763D01*
X17667551Y-16697191D01*
X17667551Y-16611477D01*
X17681837Y-16582906D01*
X17696123Y-16568620D01*
X17724694Y-16554334D01*
X17767551Y-16554334D01*
X17796123Y-16568620D01*
X17810408Y-16582906D01*
X17824694Y-16611477D01*
X17824694Y-16697191D01*
X17810408Y-16725763D01*
X17796123Y-16740049D01*
X17767551Y-16754334D01*
X17724694Y-16754334D01*
X17996123Y-16754334D02*
X17967551Y-16740049D01*
X17953266Y-16711477D01*
X17953266Y-16454334D01*
X18224694Y-16740049D02*
X18196123Y-16754334D01*
X18138980Y-16754334D01*
X18110408Y-16740049D01*
X18096123Y-16711477D01*
X18096123Y-16597191D01*
X18110408Y-16568620D01*
X18138980Y-16554334D01*
X18196123Y-16554334D01*
X18224694Y-16568620D01*
X18238980Y-16597191D01*
X18238980Y-16625763D01*
X18096123Y-16654334D01*
X18353266Y-16740049D02*
X18381837Y-16754334D01*
X18438980Y-16754334D01*
X18467551Y-16740049D01*
X18481837Y-16711477D01*
X18481837Y-16697191D01*
X18467551Y-16668620D01*
X18438980Y-16654334D01*
X18396123Y-16654334D01*
X18367551Y-16640049D01*
X18353266Y-16611477D01*
X18353266Y-16597191D01*
X18367551Y-16568620D01*
X18396123Y-16554334D01*
X18438980Y-16554334D01*
X18467551Y-16568620D01*
X18581837Y-16868620D02*
X18596123Y-16854334D01*
X18624694Y-16811477D01*
X18638980Y-16782906D01*
X18653266Y-16740049D01*
X18667551Y-16668620D01*
X18667551Y-16611477D01*
X18653266Y-16540049D01*
X18638980Y-16497191D01*
X18624694Y-16468620D01*
X18596123Y-16425763D01*
X18581837Y-16411477D01*
X11512821Y-17041561D02*
X11512821Y-16987679D01*
X11458939Y-16987679D01*
X11458939Y-17041561D01*
X11512821Y-17041561D01*
X11867551Y-16850334D02*
X11896123Y-16850334D01*
X11924694Y-16864620D01*
X11938980Y-16878906D01*
X11953266Y-16907477D01*
X11967551Y-16964620D01*
X11967551Y-17036049D01*
X11953266Y-17093192D01*
X11938980Y-17121763D01*
X11924694Y-17136049D01*
X11896123Y-17150334D01*
X11867551Y-17150334D01*
X11838980Y-17136049D01*
X11824694Y-17121763D01*
X11810408Y-17093192D01*
X11796123Y-17036049D01*
X11796123Y-16964620D01*
X11810408Y-16907477D01*
X11824694Y-16878906D01*
X11838980Y-16864620D01*
X11867551Y-16850334D01*
X12096123Y-17121763D02*
X12110408Y-17136049D01*
X12096123Y-17150334D01*
X12081837Y-17136049D01*
X12096123Y-17121763D01*
X12096123Y-17150334D01*
X12210408Y-16850334D02*
X12410408Y-16850334D01*
X12281837Y-17150334D01*
X12653266Y-16850334D02*
X12596123Y-16850334D01*
X12567551Y-16864620D01*
X12553266Y-16878906D01*
X12524694Y-16921763D01*
X12510408Y-16978906D01*
X12510408Y-17093192D01*
X12524694Y-17121763D01*
X12538980Y-17136049D01*
X12567551Y-17150334D01*
X12624694Y-17150334D01*
X12653266Y-17136049D01*
X12667551Y-17121763D01*
X12681837Y-17093192D01*
X12681837Y-17021763D01*
X12667551Y-16993192D01*
X12653266Y-16978906D01*
X12624694Y-16964620D01*
X12567551Y-16964620D01*
X12538980Y-16978906D01*
X12524694Y-16993192D01*
X12510408Y-17021763D01*
X12796123Y-16878906D02*
X12810408Y-16864620D01*
X12838980Y-16850334D01*
X12910408Y-16850334D01*
X12938980Y-16864620D01*
X12953266Y-16878906D01*
X12967551Y-16907477D01*
X12967551Y-16936049D01*
X12953266Y-16978906D01*
X12781837Y-17150334D01*
X12967551Y-17150334D01*
X13096123Y-17150334D02*
X13096123Y-16950334D01*
X13096123Y-16978906D02*
X13110408Y-16964620D01*
X13138980Y-16950334D01*
X13181837Y-16950334D01*
X13210408Y-16964620D01*
X13224694Y-16993192D01*
X13224694Y-17150334D01*
X13224694Y-16993192D02*
X13238980Y-16964620D01*
X13267551Y-16950334D01*
X13310408Y-16950334D01*
X13338980Y-16964620D01*
X13353266Y-16993192D01*
X13353266Y-17150334D01*
X13496123Y-17150334D02*
X13496123Y-16950334D01*
X13496123Y-16978906D02*
X13510408Y-16964620D01*
X13538980Y-16950334D01*
X13581837Y-16950334D01*
X13610408Y-16964620D01*
X13624694Y-16993192D01*
X13624694Y-17150334D01*
X13624694Y-16993192D02*
X13638980Y-16964620D01*
X13667551Y-16950334D01*
X13710408Y-16950334D01*
X13738980Y-16964620D01*
X13753266Y-16993192D01*
X13753266Y-17150334D01*
X14338980Y-16836049D02*
X14081837Y-17221763D01*
X14724694Y-16850334D02*
X14753266Y-16850334D01*
X14781837Y-16864620D01*
X14796123Y-16878906D01*
X14810408Y-16907477D01*
X14824694Y-16964620D01*
X14824694Y-17036049D01*
X14810408Y-17093192D01*
X14796123Y-17121763D01*
X14781837Y-17136049D01*
X14753266Y-17150334D01*
X14724694Y-17150334D01*
X14696123Y-17136049D01*
X14681837Y-17121763D01*
X14667551Y-17093192D01*
X14653266Y-17036049D01*
X14653266Y-16964620D01*
X14667551Y-16907477D01*
X14681837Y-16878906D01*
X14696123Y-16864620D01*
X14724694Y-16850334D01*
X14953266Y-17121763D02*
X14967551Y-17136049D01*
X14953266Y-17150334D01*
X14938980Y-17136049D01*
X14953266Y-17121763D01*
X14953266Y-17150334D01*
X15153266Y-16850334D02*
X15181837Y-16850334D01*
X15210408Y-16864620D01*
X15224694Y-16878906D01*
X15238980Y-16907477D01*
X15253266Y-16964620D01*
X15253266Y-17036049D01*
X15238980Y-17093192D01*
X15224694Y-17121763D01*
X15210408Y-17136049D01*
X15181837Y-17150334D01*
X15153266Y-17150334D01*
X15124694Y-17136049D01*
X15110408Y-17121763D01*
X15096123Y-17093192D01*
X15081837Y-17036049D01*
X15081837Y-16964620D01*
X15096123Y-16907477D01*
X15110408Y-16878906D01*
X15124694Y-16864620D01*
X15153266Y-16850334D01*
X15353266Y-16850334D02*
X15538980Y-16850334D01*
X15438980Y-16964620D01*
X15481837Y-16964620D01*
X15510408Y-16978906D01*
X15524694Y-16993192D01*
X15538980Y-17021763D01*
X15538980Y-17093192D01*
X15524694Y-17121763D01*
X15510408Y-17136049D01*
X15481837Y-17150334D01*
X15396123Y-17150334D01*
X15367551Y-17136049D01*
X15353266Y-17121763D01*
X15724694Y-16850334D02*
X15753266Y-16850334D01*
X15781837Y-16864620D01*
X15796123Y-16878906D01*
X15810408Y-16907477D01*
X15824694Y-16964620D01*
X15824694Y-17036049D01*
X15810408Y-17093192D01*
X15796123Y-17121763D01*
X15781837Y-17136049D01*
X15753266Y-17150334D01*
X15724694Y-17150334D01*
X15696123Y-17136049D01*
X15681837Y-17121763D01*
X15667551Y-17093192D01*
X15653266Y-17036049D01*
X15653266Y-16964620D01*
X15667551Y-16907477D01*
X15681837Y-16878906D01*
X15696123Y-16864620D01*
X15724694Y-16850334D01*
X16010408Y-16850334D02*
X16038980Y-16850334D01*
X16067551Y-16864620D01*
X16081837Y-16878906D01*
X16096123Y-16907477D01*
X16110408Y-16964620D01*
X16110408Y-17036049D01*
X16096123Y-17093192D01*
X16081837Y-17121763D01*
X16067551Y-17136049D01*
X16038980Y-17150334D01*
X16010408Y-17150334D01*
X15981837Y-17136049D01*
X15967551Y-17121763D01*
X15953266Y-17093192D01*
X15938980Y-17036049D01*
X15938980Y-16964620D01*
X15953266Y-16907477D01*
X15967551Y-16878906D01*
X15981837Y-16864620D01*
X16010408Y-16850334D01*
X16224694Y-16850334D02*
X16224694Y-16907477D01*
X16338980Y-16850334D02*
X16338980Y-16907477D01*
X16781837Y-17264620D02*
X16767551Y-17250334D01*
X16738980Y-17207477D01*
X16724694Y-17178906D01*
X16710408Y-17136049D01*
X16696123Y-17064620D01*
X16696123Y-17007477D01*
X16710408Y-16936049D01*
X16724694Y-16893192D01*
X16738980Y-16864620D01*
X16767551Y-16821763D01*
X16781837Y-16807477D01*
X17038980Y-16850334D02*
X16896123Y-16850334D01*
X16881837Y-16993192D01*
X16896123Y-16978906D01*
X16924694Y-16964620D01*
X16996123Y-16964620D01*
X17024694Y-16978906D01*
X17038980Y-16993192D01*
X17053266Y-17021763D01*
X17053266Y-17093192D01*
X17038980Y-17121763D01*
X17024694Y-17136049D01*
X16996123Y-17150334D01*
X16924694Y-17150334D01*
X16896123Y-17136049D01*
X16881837Y-17121763D01*
X17410408Y-17150334D02*
X17410408Y-16850334D01*
X17538980Y-17150334D02*
X17538980Y-16993192D01*
X17524694Y-16964620D01*
X17496123Y-16950334D01*
X17453266Y-16950334D01*
X17424694Y-16964620D01*
X17410408Y-16978906D01*
X17724694Y-17150334D02*
X17696123Y-17136049D01*
X17681837Y-17121763D01*
X17667551Y-17093192D01*
X17667551Y-17007477D01*
X17681837Y-16978906D01*
X17696123Y-16964620D01*
X17724694Y-16950334D01*
X17767551Y-16950334D01*
X17796123Y-16964620D01*
X17810408Y-16978906D01*
X17824694Y-17007477D01*
X17824694Y-17093192D01*
X17810408Y-17121763D01*
X17796123Y-17136049D01*
X17767551Y-17150334D01*
X17724694Y-17150334D01*
X17996123Y-17150334D02*
X17967551Y-17136049D01*
X17953266Y-17107477D01*
X17953266Y-16850334D01*
X18224694Y-17136049D02*
X18196123Y-17150334D01*
X18138980Y-17150334D01*
X18110408Y-17136049D01*
X18096123Y-17107477D01*
X18096123Y-16993192D01*
X18110408Y-16964620D01*
X18138980Y-16950334D01*
X18196123Y-16950334D01*
X18224694Y-16964620D01*
X18238980Y-16993192D01*
X18238980Y-17021763D01*
X18096123Y-17050334D01*
X18353266Y-17136049D02*
X18381837Y-17150334D01*
X18438980Y-17150334D01*
X18467551Y-17136049D01*
X18481837Y-17107477D01*
X18481837Y-17093192D01*
X18467551Y-17064620D01*
X18438980Y-17050334D01*
X18396123Y-17050334D01*
X18367551Y-17036049D01*
X18353266Y-17007477D01*
X18353266Y-16993192D01*
X18367551Y-16964620D01*
X18396123Y-16950334D01*
X18438980Y-16950334D01*
X18467551Y-16964620D01*
X18581837Y-17264620D02*
X18596123Y-17250334D01*
X18624694Y-17207477D01*
X18638980Y-17178906D01*
X18653266Y-17136049D01*
X18667551Y-17064620D01*
X18667551Y-17007477D01*
X18653266Y-16936049D01*
X18638980Y-16893192D01*
X18624694Y-16864620D01*
X18596123Y-16821763D01*
X18581837Y-16807477D01*
X11483980Y-17450620D02*
X11523980Y-17410620D01*
X11483980Y-17370620D01*
X11443980Y-17410620D01*
X11483980Y-17450620D01*
X11867551Y-17246334D02*
X11896123Y-17246334D01*
X11924694Y-17260620D01*
X11938980Y-17274906D01*
X11953266Y-17303477D01*
X11967551Y-17360620D01*
X11967551Y-17432049D01*
X11953266Y-17489192D01*
X11938980Y-17517763D01*
X11924694Y-17532049D01*
X11896123Y-17546334D01*
X11867551Y-17546334D01*
X11838980Y-17532049D01*
X11824694Y-17517763D01*
X11810408Y-17489192D01*
X11796123Y-17432049D01*
X11796123Y-17360620D01*
X11810408Y-17303477D01*
X11824694Y-17274906D01*
X11838980Y-17260620D01*
X11867551Y-17246334D01*
X12096123Y-17517763D02*
X12110408Y-17532049D01*
X12096123Y-17546334D01*
X12081837Y-17532049D01*
X12096123Y-17517763D01*
X12096123Y-17546334D01*
X12281837Y-17374906D02*
X12253266Y-17360620D01*
X12238980Y-17346334D01*
X12224694Y-17317763D01*
X12224694Y-17303477D01*
X12238980Y-17274906D01*
X12253266Y-17260620D01*
X12281837Y-17246334D01*
X12338980Y-17246334D01*
X12367551Y-17260620D01*
X12381837Y-17274906D01*
X12396123Y-17303477D01*
X12396123Y-17317763D01*
X12381837Y-17346334D01*
X12367551Y-17360620D01*
X12338980Y-17374906D01*
X12281837Y-17374906D01*
X12253266Y-17389192D01*
X12238980Y-17403477D01*
X12224694Y-17432049D01*
X12224694Y-17489192D01*
X12238980Y-17517763D01*
X12253266Y-17532049D01*
X12281837Y-17546334D01*
X12338980Y-17546334D01*
X12367551Y-17532049D01*
X12381837Y-17517763D01*
X12396123Y-17489192D01*
X12396123Y-17432049D01*
X12381837Y-17403477D01*
X12367551Y-17389192D01*
X12338980Y-17374906D01*
X12581837Y-17246334D02*
X12610408Y-17246334D01*
X12638980Y-17260620D01*
X12653266Y-17274906D01*
X12667551Y-17303477D01*
X12681837Y-17360620D01*
X12681837Y-17432049D01*
X12667551Y-17489192D01*
X12653266Y-17517763D01*
X12638980Y-17532049D01*
X12610408Y-17546334D01*
X12581837Y-17546334D01*
X12553266Y-17532049D01*
X12538980Y-17517763D01*
X12524694Y-17489192D01*
X12510408Y-17432049D01*
X12510408Y-17360620D01*
X12524694Y-17303477D01*
X12538980Y-17274906D01*
X12553266Y-17260620D01*
X12581837Y-17246334D01*
X12867551Y-17246334D02*
X12896123Y-17246334D01*
X12924694Y-17260620D01*
X12938980Y-17274906D01*
X12953266Y-17303477D01*
X12967551Y-17360620D01*
X12967551Y-17432049D01*
X12953266Y-17489192D01*
X12938980Y-17517763D01*
X12924694Y-17532049D01*
X12896123Y-17546334D01*
X12867551Y-17546334D01*
X12838980Y-17532049D01*
X12824694Y-17517763D01*
X12810408Y-17489192D01*
X12796123Y-17432049D01*
X12796123Y-17360620D01*
X12810408Y-17303477D01*
X12824694Y-17274906D01*
X12838980Y-17260620D01*
X12867551Y-17246334D01*
X13096123Y-17546334D02*
X13096123Y-17346334D01*
X13096123Y-17374906D02*
X13110408Y-17360620D01*
X13138980Y-17346334D01*
X13181837Y-17346334D01*
X13210408Y-17360620D01*
X13224694Y-17389192D01*
X13224694Y-17546334D01*
X13224694Y-17389192D02*
X13238980Y-17360620D01*
X13267551Y-17346334D01*
X13310408Y-17346334D01*
X13338980Y-17360620D01*
X13353266Y-17389192D01*
X13353266Y-17546334D01*
X13496123Y-17546334D02*
X13496123Y-17346334D01*
X13496123Y-17374906D02*
X13510408Y-17360620D01*
X13538980Y-17346334D01*
X13581837Y-17346334D01*
X13610408Y-17360620D01*
X13624694Y-17389192D01*
X13624694Y-17546334D01*
X13624694Y-17389192D02*
X13638980Y-17360620D01*
X13667551Y-17346334D01*
X13710408Y-17346334D01*
X13738980Y-17360620D01*
X13753266Y-17389192D01*
X13753266Y-17546334D01*
X14338980Y-17232049D02*
X14081837Y-17617763D01*
X14724694Y-17246334D02*
X14753266Y-17246334D01*
X14781837Y-17260620D01*
X14796123Y-17274906D01*
X14810408Y-17303477D01*
X14824694Y-17360620D01*
X14824694Y-17432049D01*
X14810408Y-17489192D01*
X14796123Y-17517763D01*
X14781837Y-17532049D01*
X14753266Y-17546334D01*
X14724694Y-17546334D01*
X14696123Y-17532049D01*
X14681837Y-17517763D01*
X14667551Y-17489192D01*
X14653266Y-17432049D01*
X14653266Y-17360620D01*
X14667551Y-17303477D01*
X14681837Y-17274906D01*
X14696123Y-17260620D01*
X14724694Y-17246334D01*
X14953266Y-17517763D02*
X14967551Y-17532049D01*
X14953266Y-17546334D01*
X14938980Y-17532049D01*
X14953266Y-17517763D01*
X14953266Y-17546334D01*
X15153266Y-17246334D02*
X15181837Y-17246334D01*
X15210408Y-17260620D01*
X15224694Y-17274906D01*
X15238980Y-17303477D01*
X15253266Y-17360620D01*
X15253266Y-17432049D01*
X15238980Y-17489192D01*
X15224694Y-17517763D01*
X15210408Y-17532049D01*
X15181837Y-17546334D01*
X15153266Y-17546334D01*
X15124694Y-17532049D01*
X15110408Y-17517763D01*
X15096123Y-17489192D01*
X15081837Y-17432049D01*
X15081837Y-17360620D01*
X15096123Y-17303477D01*
X15110408Y-17274906D01*
X15124694Y-17260620D01*
X15153266Y-17246334D01*
X15353266Y-17246334D02*
X15538980Y-17246334D01*
X15438980Y-17360620D01*
X15481837Y-17360620D01*
X15510408Y-17374906D01*
X15524694Y-17389192D01*
X15538980Y-17417763D01*
X15538980Y-17489192D01*
X15524694Y-17517763D01*
X15510408Y-17532049D01*
X15481837Y-17546334D01*
X15396123Y-17546334D01*
X15367551Y-17532049D01*
X15353266Y-17517763D01*
X15824694Y-17546334D02*
X15653266Y-17546334D01*
X15738980Y-17546334D02*
X15738980Y-17246334D01*
X15710408Y-17289192D01*
X15681837Y-17317763D01*
X15653266Y-17332049D01*
X16096123Y-17246334D02*
X15953266Y-17246334D01*
X15938980Y-17389192D01*
X15953266Y-17374906D01*
X15981837Y-17360620D01*
X16053266Y-17360620D01*
X16081837Y-17374906D01*
X16096123Y-17389192D01*
X16110408Y-17417763D01*
X16110408Y-17489192D01*
X16096123Y-17517763D01*
X16081837Y-17532049D01*
X16053266Y-17546334D01*
X15981837Y-17546334D01*
X15953266Y-17532049D01*
X15938980Y-17517763D01*
X16224694Y-17246334D02*
X16224694Y-17303477D01*
X16338980Y-17246334D02*
X16338980Y-17303477D01*
X16781837Y-17660620D02*
X16767551Y-17646334D01*
X16738980Y-17603477D01*
X16724694Y-17574906D01*
X16710408Y-17532049D01*
X16696123Y-17460620D01*
X16696123Y-17403477D01*
X16710408Y-17332049D01*
X16724694Y-17289192D01*
X16738980Y-17260620D01*
X16767551Y-17217763D01*
X16781837Y-17203477D01*
X16867551Y-17246334D02*
X17053266Y-17246334D01*
X16953266Y-17360620D01*
X16996123Y-17360620D01*
X17024694Y-17374906D01*
X17038980Y-17389192D01*
X17053266Y-17417763D01*
X17053266Y-17489192D01*
X17038980Y-17517763D01*
X17024694Y-17532049D01*
X16996123Y-17546334D01*
X16910408Y-17546334D01*
X16881837Y-17532049D01*
X16867551Y-17517763D01*
X17410408Y-17546334D02*
X17410408Y-17246334D01*
X17538980Y-17546334D02*
X17538980Y-17389192D01*
X17524694Y-17360620D01*
X17496123Y-17346334D01*
X17453266Y-17346334D01*
X17424694Y-17360620D01*
X17410408Y-17374906D01*
X17724694Y-17546334D02*
X17696123Y-17532049D01*
X17681837Y-17517763D01*
X17667551Y-17489192D01*
X17667551Y-17403477D01*
X17681837Y-17374906D01*
X17696123Y-17360620D01*
X17724694Y-17346334D01*
X17767551Y-17346334D01*
X17796123Y-17360620D01*
X17810408Y-17374906D01*
X17824694Y-17403477D01*
X17824694Y-17489192D01*
X17810408Y-17517763D01*
X17796123Y-17532049D01*
X17767551Y-17546334D01*
X17724694Y-17546334D01*
X17996123Y-17546334D02*
X17967551Y-17532049D01*
X17953266Y-17503477D01*
X17953266Y-17246334D01*
X18224694Y-17532049D02*
X18196123Y-17546334D01*
X18138980Y-17546334D01*
X18110408Y-17532049D01*
X18096123Y-17503477D01*
X18096123Y-17389192D01*
X18110408Y-17360620D01*
X18138980Y-17346334D01*
X18196123Y-17346334D01*
X18224694Y-17360620D01*
X18238980Y-17389192D01*
X18238980Y-17417763D01*
X18096123Y-17446334D01*
X18353266Y-17532049D02*
X18381837Y-17546334D01*
X18438980Y-17546334D01*
X18467551Y-17532049D01*
X18481837Y-17503477D01*
X18481837Y-17489192D01*
X18467551Y-17460620D01*
X18438980Y-17446334D01*
X18396123Y-17446334D01*
X18367551Y-17432049D01*
X18353266Y-17403477D01*
X18353266Y-17389192D01*
X18367551Y-17360620D01*
X18396123Y-17346334D01*
X18438980Y-17346334D01*
X18467551Y-17360620D01*
X18581837Y-17660620D02*
X18596123Y-17646334D01*
X18624694Y-17603477D01*
X18638980Y-17574906D01*
X18653266Y-17532049D01*
X18667551Y-17460620D01*
X18667551Y-17403477D01*
X18653266Y-17332049D01*
X18638980Y-17289192D01*
X18624694Y-17260620D01*
X18596123Y-17217763D01*
X18581837Y-17203477D01*
X11442700Y-17765980D02*
X11523980Y-17847260D01*
X11523980Y-17765980D02*
X11442700Y-17847260D01*
X11523980Y-17806620D02*
G75*
G03*
X11523980Y-17806620I-40640J0D01*
G01*
X11867551Y-17642334D02*
X11896123Y-17642334D01*
X11924694Y-17656620D01*
X11938980Y-17670906D01*
X11953266Y-17699477D01*
X11967551Y-17756620D01*
X11967551Y-17828049D01*
X11953266Y-17885192D01*
X11938980Y-17913763D01*
X11924694Y-17928049D01*
X11896123Y-17942334D01*
X11867551Y-17942334D01*
X11838980Y-17928049D01*
X11824694Y-17913763D01*
X11810408Y-17885192D01*
X11796123Y-17828049D01*
X11796123Y-17756620D01*
X11810408Y-17699477D01*
X11824694Y-17670906D01*
X11838980Y-17656620D01*
X11867551Y-17642334D01*
X12096123Y-17913763D02*
X12110408Y-17928049D01*
X12096123Y-17942334D01*
X12081837Y-17928049D01*
X12096123Y-17913763D01*
X12096123Y-17942334D01*
X12281837Y-17770906D02*
X12253266Y-17756620D01*
X12238980Y-17742334D01*
X12224694Y-17713763D01*
X12224694Y-17699477D01*
X12238980Y-17670906D01*
X12253266Y-17656620D01*
X12281837Y-17642334D01*
X12338980Y-17642334D01*
X12367551Y-17656620D01*
X12381837Y-17670906D01*
X12396123Y-17699477D01*
X12396123Y-17713763D01*
X12381837Y-17742334D01*
X12367551Y-17756620D01*
X12338980Y-17770906D01*
X12281837Y-17770906D01*
X12253266Y-17785192D01*
X12238980Y-17799477D01*
X12224694Y-17828049D01*
X12224694Y-17885192D01*
X12238980Y-17913763D01*
X12253266Y-17928049D01*
X12281837Y-17942334D01*
X12338980Y-17942334D01*
X12367551Y-17928049D01*
X12381837Y-17913763D01*
X12396123Y-17885192D01*
X12396123Y-17828049D01*
X12381837Y-17799477D01*
X12367551Y-17785192D01*
X12338980Y-17770906D01*
X12681837Y-17942334D02*
X12510408Y-17942334D01*
X12596123Y-17942334D02*
X12596123Y-17642334D01*
X12567551Y-17685192D01*
X12538980Y-17713763D01*
X12510408Y-17728049D01*
X12781837Y-17642334D02*
X12967551Y-17642334D01*
X12867551Y-17756620D01*
X12910408Y-17756620D01*
X12938980Y-17770906D01*
X12953266Y-17785192D01*
X12967551Y-17813763D01*
X12967551Y-17885192D01*
X12953266Y-17913763D01*
X12938980Y-17928049D01*
X12910408Y-17942334D01*
X12824694Y-17942334D01*
X12796123Y-17928049D01*
X12781837Y-17913763D01*
X13096123Y-17942334D02*
X13096123Y-17742334D01*
X13096123Y-17770906D02*
X13110408Y-17756620D01*
X13138980Y-17742334D01*
X13181837Y-17742334D01*
X13210408Y-17756620D01*
X13224694Y-17785192D01*
X13224694Y-17942334D01*
X13224694Y-17785192D02*
X13238980Y-17756620D01*
X13267551Y-17742334D01*
X13310408Y-17742334D01*
X13338980Y-17756620D01*
X13353266Y-17785192D01*
X13353266Y-17942334D01*
X13496123Y-17942334D02*
X13496123Y-17742334D01*
X13496123Y-17770906D02*
X13510408Y-17756620D01*
X13538980Y-17742334D01*
X13581837Y-17742334D01*
X13610408Y-17756620D01*
X13624694Y-17785192D01*
X13624694Y-17942334D01*
X13624694Y-17785192D02*
X13638980Y-17756620D01*
X13667551Y-17742334D01*
X13710408Y-17742334D01*
X13738980Y-17756620D01*
X13753266Y-17785192D01*
X13753266Y-17942334D01*
X14338980Y-17628049D02*
X14081837Y-18013763D01*
X14724694Y-17642334D02*
X14753266Y-17642334D01*
X14781837Y-17656620D01*
X14796123Y-17670906D01*
X14810408Y-17699477D01*
X14824694Y-17756620D01*
X14824694Y-17828049D01*
X14810408Y-17885192D01*
X14796123Y-17913763D01*
X14781837Y-17928049D01*
X14753266Y-17942334D01*
X14724694Y-17942334D01*
X14696123Y-17928049D01*
X14681837Y-17913763D01*
X14667551Y-17885192D01*
X14653266Y-17828049D01*
X14653266Y-17756620D01*
X14667551Y-17699477D01*
X14681837Y-17670906D01*
X14696123Y-17656620D01*
X14724694Y-17642334D01*
X14953266Y-17913763D02*
X14967551Y-17928049D01*
X14953266Y-17942334D01*
X14938980Y-17928049D01*
X14953266Y-17913763D01*
X14953266Y-17942334D01*
X15153266Y-17642334D02*
X15181837Y-17642334D01*
X15210408Y-17656620D01*
X15224694Y-17670906D01*
X15238980Y-17699477D01*
X15253266Y-17756620D01*
X15253266Y-17828049D01*
X15238980Y-17885192D01*
X15224694Y-17913763D01*
X15210408Y-17928049D01*
X15181837Y-17942334D01*
X15153266Y-17942334D01*
X15124694Y-17928049D01*
X15110408Y-17913763D01*
X15096123Y-17885192D01*
X15081837Y-17828049D01*
X15081837Y-17756620D01*
X15096123Y-17699477D01*
X15110408Y-17670906D01*
X15124694Y-17656620D01*
X15153266Y-17642334D01*
X15353266Y-17642334D02*
X15538980Y-17642334D01*
X15438980Y-17756620D01*
X15481837Y-17756620D01*
X15510408Y-17770906D01*
X15524694Y-17785192D01*
X15538980Y-17813763D01*
X15538980Y-17885192D01*
X15524694Y-17913763D01*
X15510408Y-17928049D01*
X15481837Y-17942334D01*
X15396123Y-17942334D01*
X15367551Y-17928049D01*
X15353266Y-17913763D01*
X15653266Y-17670906D02*
X15667551Y-17656620D01*
X15696123Y-17642334D01*
X15767551Y-17642334D01*
X15796123Y-17656620D01*
X15810408Y-17670906D01*
X15824694Y-17699477D01*
X15824694Y-17728049D01*
X15810408Y-17770906D01*
X15638980Y-17942334D01*
X15824694Y-17942334D01*
X16010408Y-17642334D02*
X16038980Y-17642334D01*
X16067551Y-17656620D01*
X16081837Y-17670906D01*
X16096123Y-17699477D01*
X16110408Y-17756620D01*
X16110408Y-17828049D01*
X16096123Y-17885192D01*
X16081837Y-17913763D01*
X16067551Y-17928049D01*
X16038980Y-17942334D01*
X16010408Y-17942334D01*
X15981837Y-17928049D01*
X15967551Y-17913763D01*
X15953266Y-17885192D01*
X15938980Y-17828049D01*
X15938980Y-17756620D01*
X15953266Y-17699477D01*
X15967551Y-17670906D01*
X15981837Y-17656620D01*
X16010408Y-17642334D01*
X16224694Y-17642334D02*
X16224694Y-17699477D01*
X16338980Y-17642334D02*
X16338980Y-17699477D01*
X16781837Y-18056620D02*
X16767551Y-18042334D01*
X16738980Y-17999477D01*
X16724694Y-17970906D01*
X16710408Y-17928049D01*
X16696123Y-17856620D01*
X16696123Y-17799477D01*
X16710408Y-17728049D01*
X16724694Y-17685192D01*
X16738980Y-17656620D01*
X16767551Y-17613763D01*
X16781837Y-17599477D01*
X17024694Y-17742334D02*
X17024694Y-17942334D01*
X16953266Y-17628049D02*
X16881837Y-17842334D01*
X17067551Y-17842334D01*
X17410408Y-17942334D02*
X17410408Y-17642334D01*
X17538980Y-17942334D02*
X17538980Y-17785192D01*
X17524694Y-17756620D01*
X17496123Y-17742334D01*
X17453266Y-17742334D01*
X17424694Y-17756620D01*
X17410408Y-17770906D01*
X17724694Y-17942334D02*
X17696123Y-17928049D01*
X17681837Y-17913763D01*
X17667551Y-17885192D01*
X17667551Y-17799477D01*
X17681837Y-17770906D01*
X17696123Y-17756620D01*
X17724694Y-17742334D01*
X17767551Y-17742334D01*
X17796123Y-17756620D01*
X17810408Y-17770906D01*
X17824694Y-17799477D01*
X17824694Y-17885192D01*
X17810408Y-17913763D01*
X17796123Y-17928049D01*
X17767551Y-17942334D01*
X17724694Y-17942334D01*
X17996123Y-17942334D02*
X17967551Y-17928049D01*
X17953266Y-17899477D01*
X17953266Y-17642334D01*
X18224694Y-17928049D02*
X18196123Y-17942334D01*
X18138980Y-17942334D01*
X18110408Y-17928049D01*
X18096123Y-17899477D01*
X18096123Y-17785192D01*
X18110408Y-17756620D01*
X18138980Y-17742334D01*
X18196123Y-17742334D01*
X18224694Y-17756620D01*
X18238980Y-17785192D01*
X18238980Y-17813763D01*
X18096123Y-17842334D01*
X18353266Y-17928049D02*
X18381837Y-17942334D01*
X18438980Y-17942334D01*
X18467551Y-17928049D01*
X18481837Y-17899477D01*
X18481837Y-17885192D01*
X18467551Y-17856620D01*
X18438980Y-17842334D01*
X18396123Y-17842334D01*
X18367551Y-17828049D01*
X18353266Y-17799477D01*
X18353266Y-17785192D01*
X18367551Y-17756620D01*
X18396123Y-17742334D01*
X18438980Y-17742334D01*
X18467551Y-17756620D01*
X18581837Y-18056620D02*
X18596123Y-18042334D01*
X18624694Y-17999477D01*
X18638980Y-17970906D01*
X18653266Y-17928049D01*
X18667551Y-17856620D01*
X18667551Y-17799477D01*
X18653266Y-17728049D01*
X18638980Y-17685192D01*
X18624694Y-17656620D01*
X18596123Y-17613763D01*
X18581837Y-17599477D01*
X11433980Y-18157620D02*
X11523980Y-18247620D01*
X11523980Y-18157620D02*
X11433980Y-18247620D01*
X11478980Y-18157620D02*
X11478980Y-18247620D01*
X11433980Y-18202620D02*
X11523980Y-18202620D01*
X11867551Y-18038334D02*
X11896123Y-18038334D01*
X11924694Y-18052620D01*
X11938980Y-18066906D01*
X11953266Y-18095477D01*
X11967551Y-18152620D01*
X11967551Y-18224049D01*
X11953266Y-18281192D01*
X11938980Y-18309763D01*
X11924694Y-18324049D01*
X11896123Y-18338334D01*
X11867551Y-18338334D01*
X11838980Y-18324049D01*
X11824694Y-18309763D01*
X11810408Y-18281192D01*
X11796123Y-18224049D01*
X11796123Y-18152620D01*
X11810408Y-18095477D01*
X11824694Y-18066906D01*
X11838980Y-18052620D01*
X11867551Y-18038334D01*
X12096123Y-18309763D02*
X12110408Y-18324049D01*
X12096123Y-18338334D01*
X12081837Y-18324049D01*
X12096123Y-18309763D01*
X12096123Y-18338334D01*
X12253266Y-18338334D02*
X12310408Y-18338334D01*
X12338980Y-18324049D01*
X12353266Y-18309763D01*
X12381837Y-18266906D01*
X12396123Y-18209763D01*
X12396123Y-18095477D01*
X12381837Y-18066906D01*
X12367551Y-18052620D01*
X12338980Y-18038334D01*
X12281837Y-18038334D01*
X12253266Y-18052620D01*
X12238980Y-18066906D01*
X12224694Y-18095477D01*
X12224694Y-18166906D01*
X12238980Y-18195477D01*
X12253266Y-18209763D01*
X12281837Y-18224049D01*
X12338980Y-18224049D01*
X12367551Y-18209763D01*
X12381837Y-18195477D01*
X12396123Y-18166906D01*
X12581837Y-18038334D02*
X12610408Y-18038334D01*
X12638980Y-18052620D01*
X12653266Y-18066906D01*
X12667551Y-18095477D01*
X12681837Y-18152620D01*
X12681837Y-18224049D01*
X12667551Y-18281192D01*
X12653266Y-18309763D01*
X12638980Y-18324049D01*
X12610408Y-18338334D01*
X12581837Y-18338334D01*
X12553266Y-18324049D01*
X12538980Y-18309763D01*
X12524694Y-18281192D01*
X12510408Y-18224049D01*
X12510408Y-18152620D01*
X12524694Y-18095477D01*
X12538980Y-18066906D01*
X12553266Y-18052620D01*
X12581837Y-18038334D01*
X12867551Y-18038334D02*
X12896123Y-18038334D01*
X12924694Y-18052620D01*
X12938980Y-18066906D01*
X12953266Y-18095477D01*
X12967551Y-18152620D01*
X12967551Y-18224049D01*
X12953266Y-18281192D01*
X12938980Y-18309763D01*
X12924694Y-18324049D01*
X12896123Y-18338334D01*
X12867551Y-18338334D01*
X12838980Y-18324049D01*
X12824694Y-18309763D01*
X12810408Y-18281192D01*
X12796123Y-18224049D01*
X12796123Y-18152620D01*
X12810408Y-18095477D01*
X12824694Y-18066906D01*
X12838980Y-18052620D01*
X12867551Y-18038334D01*
X13096123Y-18338334D02*
X13096123Y-18138334D01*
X13096123Y-18166906D02*
X13110408Y-18152620D01*
X13138980Y-18138334D01*
X13181837Y-18138334D01*
X13210408Y-18152620D01*
X13224694Y-18181192D01*
X13224694Y-18338334D01*
X13224694Y-18181192D02*
X13238980Y-18152620D01*
X13267551Y-18138334D01*
X13310408Y-18138334D01*
X13338980Y-18152620D01*
X13353266Y-18181192D01*
X13353266Y-18338334D01*
X13496123Y-18338334D02*
X13496123Y-18138334D01*
X13496123Y-18166906D02*
X13510408Y-18152620D01*
X13538980Y-18138334D01*
X13581837Y-18138334D01*
X13610408Y-18152620D01*
X13624694Y-18181192D01*
X13624694Y-18338334D01*
X13624694Y-18181192D02*
X13638980Y-18152620D01*
X13667551Y-18138334D01*
X13710408Y-18138334D01*
X13738980Y-18152620D01*
X13753266Y-18181192D01*
X13753266Y-18338334D01*
X14338980Y-18024049D02*
X14081837Y-18409763D01*
X14724694Y-18038334D02*
X14753266Y-18038334D01*
X14781837Y-18052620D01*
X14796123Y-18066906D01*
X14810408Y-18095477D01*
X14824694Y-18152620D01*
X14824694Y-18224049D01*
X14810408Y-18281192D01*
X14796123Y-18309763D01*
X14781837Y-18324049D01*
X14753266Y-18338334D01*
X14724694Y-18338334D01*
X14696123Y-18324049D01*
X14681837Y-18309763D01*
X14667551Y-18281192D01*
X14653266Y-18224049D01*
X14653266Y-18152620D01*
X14667551Y-18095477D01*
X14681837Y-18066906D01*
X14696123Y-18052620D01*
X14724694Y-18038334D01*
X14953266Y-18309763D02*
X14967551Y-18324049D01*
X14953266Y-18338334D01*
X14938980Y-18324049D01*
X14953266Y-18309763D01*
X14953266Y-18338334D01*
X15153266Y-18038334D02*
X15181837Y-18038334D01*
X15210408Y-18052620D01*
X15224694Y-18066906D01*
X15238980Y-18095477D01*
X15253266Y-18152620D01*
X15253266Y-18224049D01*
X15238980Y-18281192D01*
X15224694Y-18309763D01*
X15210408Y-18324049D01*
X15181837Y-18338334D01*
X15153266Y-18338334D01*
X15124694Y-18324049D01*
X15110408Y-18309763D01*
X15096123Y-18281192D01*
X15081837Y-18224049D01*
X15081837Y-18152620D01*
X15096123Y-18095477D01*
X15110408Y-18066906D01*
X15124694Y-18052620D01*
X15153266Y-18038334D01*
X15353266Y-18038334D02*
X15538980Y-18038334D01*
X15438980Y-18152620D01*
X15481837Y-18152620D01*
X15510408Y-18166906D01*
X15524694Y-18181192D01*
X15538980Y-18209763D01*
X15538980Y-18281192D01*
X15524694Y-18309763D01*
X15510408Y-18324049D01*
X15481837Y-18338334D01*
X15396123Y-18338334D01*
X15367551Y-18324049D01*
X15353266Y-18309763D01*
X15810408Y-18038334D02*
X15667551Y-18038334D01*
X15653266Y-18181192D01*
X15667551Y-18166906D01*
X15696123Y-18152620D01*
X15767551Y-18152620D01*
X15796123Y-18166906D01*
X15810408Y-18181192D01*
X15824694Y-18209763D01*
X15824694Y-18281192D01*
X15810408Y-18309763D01*
X15796123Y-18324049D01*
X15767551Y-18338334D01*
X15696123Y-18338334D01*
X15667551Y-18324049D01*
X15653266Y-18309763D01*
X16081837Y-18138334D02*
X16081837Y-18338334D01*
X16010408Y-18024049D02*
X15938980Y-18238334D01*
X16124694Y-18238334D01*
X16224694Y-18038334D02*
X16224694Y-18095477D01*
X16338980Y-18038334D02*
X16338980Y-18095477D01*
X16781837Y-18452620D02*
X16767551Y-18438334D01*
X16738980Y-18395477D01*
X16724694Y-18366906D01*
X16710408Y-18324049D01*
X16696123Y-18252620D01*
X16696123Y-18195477D01*
X16710408Y-18124049D01*
X16724694Y-18081192D01*
X16738980Y-18052620D01*
X16767551Y-18009763D01*
X16781837Y-17995477D01*
X17024694Y-18138334D02*
X17024694Y-18338334D01*
X16953266Y-18024049D02*
X16881837Y-18238334D01*
X17067551Y-18238334D01*
X17410408Y-18338334D02*
X17410408Y-18038334D01*
X17538980Y-18338334D02*
X17538980Y-18181192D01*
X17524694Y-18152620D01*
X17496123Y-18138334D01*
X17453266Y-18138334D01*
X17424694Y-18152620D01*
X17410408Y-18166906D01*
X17724694Y-18338334D02*
X17696123Y-18324049D01*
X17681837Y-18309763D01*
X17667551Y-18281192D01*
X17667551Y-18195477D01*
X17681837Y-18166906D01*
X17696123Y-18152620D01*
X17724694Y-18138334D01*
X17767551Y-18138334D01*
X17796123Y-18152620D01*
X17810408Y-18166906D01*
X17824694Y-18195477D01*
X17824694Y-18281192D01*
X17810408Y-18309763D01*
X17796123Y-18324049D01*
X17767551Y-18338334D01*
X17724694Y-18338334D01*
X17996123Y-18338334D02*
X17967551Y-18324049D01*
X17953266Y-18295477D01*
X17953266Y-18038334D01*
X18224694Y-18324049D02*
X18196123Y-18338334D01*
X18138980Y-18338334D01*
X18110408Y-18324049D01*
X18096123Y-18295477D01*
X18096123Y-18181192D01*
X18110408Y-18152620D01*
X18138980Y-18138334D01*
X18196123Y-18138334D01*
X18224694Y-18152620D01*
X18238980Y-18181192D01*
X18238980Y-18209763D01*
X18096123Y-18238334D01*
X18353266Y-18324049D02*
X18381837Y-18338334D01*
X18438980Y-18338334D01*
X18467551Y-18324049D01*
X18481837Y-18295477D01*
X18481837Y-18281192D01*
X18467551Y-18252620D01*
X18438980Y-18238334D01*
X18396123Y-18238334D01*
X18367551Y-18224049D01*
X18353266Y-18195477D01*
X18353266Y-18181192D01*
X18367551Y-18152620D01*
X18396123Y-18138334D01*
X18438980Y-18138334D01*
X18467551Y-18152620D01*
X18581837Y-18452620D02*
X18596123Y-18438334D01*
X18624694Y-18395477D01*
X18638980Y-18366906D01*
X18653266Y-18324049D01*
X18667551Y-18252620D01*
X18667551Y-18195477D01*
X18653266Y-18124049D01*
X18638980Y-18081192D01*
X18624694Y-18052620D01*
X18596123Y-18009763D01*
X18581837Y-17995477D01*
X11423980Y-18548620D02*
X11523980Y-18648620D01*
X11523980Y-18548620D02*
X11423980Y-18648620D01*
X11509336Y-18633976D02*
X11509336Y-18563264D01*
X11438624Y-18563264D01*
X11438624Y-18633976D01*
X11509336Y-18633976D01*
X11967551Y-18734334D02*
X11796123Y-18734334D01*
X11881837Y-18734334D02*
X11881837Y-18434334D01*
X11853266Y-18477192D01*
X11824694Y-18505763D01*
X11796123Y-18520049D01*
X12096123Y-18705763D02*
X12110408Y-18720049D01*
X12096123Y-18734334D01*
X12081837Y-18720049D01*
X12096123Y-18705763D01*
X12096123Y-18734334D01*
X12296123Y-18434334D02*
X12324694Y-18434334D01*
X12353266Y-18448620D01*
X12367551Y-18462906D01*
X12381837Y-18491477D01*
X12396123Y-18548620D01*
X12396123Y-18620049D01*
X12381837Y-18677192D01*
X12367551Y-18705763D01*
X12353266Y-18720049D01*
X12324694Y-18734334D01*
X12296123Y-18734334D01*
X12267551Y-18720049D01*
X12253266Y-18705763D01*
X12238980Y-18677192D01*
X12224694Y-18620049D01*
X12224694Y-18548620D01*
X12238980Y-18491477D01*
X12253266Y-18462906D01*
X12267551Y-18448620D01*
X12296123Y-18434334D01*
X12581837Y-18434334D02*
X12610408Y-18434334D01*
X12638980Y-18448620D01*
X12653266Y-18462906D01*
X12667551Y-18491477D01*
X12681837Y-18548620D01*
X12681837Y-18620049D01*
X12667551Y-18677192D01*
X12653266Y-18705763D01*
X12638980Y-18720049D01*
X12610408Y-18734334D01*
X12581837Y-18734334D01*
X12553266Y-18720049D01*
X12538980Y-18705763D01*
X12524694Y-18677192D01*
X12510408Y-18620049D01*
X12510408Y-18548620D01*
X12524694Y-18491477D01*
X12538980Y-18462906D01*
X12553266Y-18448620D01*
X12581837Y-18434334D01*
X12867551Y-18434334D02*
X12896123Y-18434334D01*
X12924694Y-18448620D01*
X12938980Y-18462906D01*
X12953266Y-18491477D01*
X12967551Y-18548620D01*
X12967551Y-18620049D01*
X12953266Y-18677192D01*
X12938980Y-18705763D01*
X12924694Y-18720049D01*
X12896123Y-18734334D01*
X12867551Y-18734334D01*
X12838980Y-18720049D01*
X12824694Y-18705763D01*
X12810408Y-18677192D01*
X12796123Y-18620049D01*
X12796123Y-18548620D01*
X12810408Y-18491477D01*
X12824694Y-18462906D01*
X12838980Y-18448620D01*
X12867551Y-18434334D01*
X13096123Y-18734334D02*
X13096123Y-18534334D01*
X13096123Y-18562906D02*
X13110408Y-18548620D01*
X13138980Y-18534334D01*
X13181837Y-18534334D01*
X13210408Y-18548620D01*
X13224694Y-18577192D01*
X13224694Y-18734334D01*
X13224694Y-18577192D02*
X13238980Y-18548620D01*
X13267551Y-18534334D01*
X13310408Y-18534334D01*
X13338980Y-18548620D01*
X13353266Y-18577192D01*
X13353266Y-18734334D01*
X13496123Y-18734334D02*
X13496123Y-18534334D01*
X13496123Y-18562906D02*
X13510408Y-18548620D01*
X13538980Y-18534334D01*
X13581837Y-18534334D01*
X13610408Y-18548620D01*
X13624694Y-18577192D01*
X13624694Y-18734334D01*
X13624694Y-18577192D02*
X13638980Y-18548620D01*
X13667551Y-18534334D01*
X13710408Y-18534334D01*
X13738980Y-18548620D01*
X13753266Y-18577192D01*
X13753266Y-18734334D01*
X14338980Y-18420049D02*
X14081837Y-18805763D01*
X14724694Y-18434334D02*
X14753266Y-18434334D01*
X14781837Y-18448620D01*
X14796123Y-18462906D01*
X14810408Y-18491477D01*
X14824694Y-18548620D01*
X14824694Y-18620049D01*
X14810408Y-18677192D01*
X14796123Y-18705763D01*
X14781837Y-18720049D01*
X14753266Y-18734334D01*
X14724694Y-18734334D01*
X14696123Y-18720049D01*
X14681837Y-18705763D01*
X14667551Y-18677192D01*
X14653266Y-18620049D01*
X14653266Y-18548620D01*
X14667551Y-18491477D01*
X14681837Y-18462906D01*
X14696123Y-18448620D01*
X14724694Y-18434334D01*
X14953266Y-18705763D02*
X14967551Y-18720049D01*
X14953266Y-18734334D01*
X14938980Y-18720049D01*
X14953266Y-18705763D01*
X14953266Y-18734334D01*
X15153266Y-18434334D02*
X15181837Y-18434334D01*
X15210408Y-18448620D01*
X15224694Y-18462906D01*
X15238980Y-18491477D01*
X15253266Y-18548620D01*
X15253266Y-18620049D01*
X15238980Y-18677192D01*
X15224694Y-18705763D01*
X15210408Y-18720049D01*
X15181837Y-18734334D01*
X15153266Y-18734334D01*
X15124694Y-18720049D01*
X15110408Y-18705763D01*
X15096123Y-18677192D01*
X15081837Y-18620049D01*
X15081837Y-18548620D01*
X15096123Y-18491477D01*
X15110408Y-18462906D01*
X15124694Y-18448620D01*
X15153266Y-18434334D01*
X15353266Y-18434334D02*
X15538980Y-18434334D01*
X15438980Y-18548620D01*
X15481837Y-18548620D01*
X15510408Y-18562906D01*
X15524694Y-18577192D01*
X15538980Y-18605763D01*
X15538980Y-18677192D01*
X15524694Y-18705763D01*
X15510408Y-18720049D01*
X15481837Y-18734334D01*
X15396123Y-18734334D01*
X15367551Y-18720049D01*
X15353266Y-18705763D01*
X15681837Y-18734334D02*
X15738980Y-18734334D01*
X15767551Y-18720049D01*
X15781837Y-18705763D01*
X15810408Y-18662906D01*
X15824694Y-18605763D01*
X15824694Y-18491477D01*
X15810408Y-18462906D01*
X15796123Y-18448620D01*
X15767551Y-18434334D01*
X15710408Y-18434334D01*
X15681837Y-18448620D01*
X15667551Y-18462906D01*
X15653266Y-18491477D01*
X15653266Y-18562906D01*
X15667551Y-18591477D01*
X15681837Y-18605763D01*
X15710408Y-18620049D01*
X15767551Y-18620049D01*
X15796123Y-18605763D01*
X15810408Y-18591477D01*
X15824694Y-18562906D01*
X16081837Y-18534334D02*
X16081837Y-18734334D01*
X16010408Y-18420049D02*
X15938980Y-18634334D01*
X16124694Y-18634334D01*
X16224694Y-18434334D02*
X16224694Y-18491477D01*
X16338980Y-18434334D02*
X16338980Y-18491477D01*
X16781837Y-18848620D02*
X16767551Y-18834334D01*
X16738980Y-18791477D01*
X16724694Y-18762906D01*
X16710408Y-18720049D01*
X16696123Y-18648620D01*
X16696123Y-18591477D01*
X16710408Y-18520049D01*
X16724694Y-18477192D01*
X16738980Y-18448620D01*
X16767551Y-18405763D01*
X16781837Y-18391477D01*
X16953266Y-18434334D02*
X16981837Y-18434334D01*
X17010408Y-18448620D01*
X17024694Y-18462906D01*
X17038980Y-18491477D01*
X17053266Y-18548620D01*
X17053266Y-18620049D01*
X17038980Y-18677192D01*
X17024694Y-18705763D01*
X17010408Y-18720049D01*
X16981837Y-18734334D01*
X16953266Y-18734334D01*
X16924694Y-18720049D01*
X16910408Y-18705763D01*
X16896123Y-18677192D01*
X16881837Y-18620049D01*
X16881837Y-18548620D01*
X16896123Y-18491477D01*
X16910408Y-18462906D01*
X16924694Y-18448620D01*
X16953266Y-18434334D01*
X17410408Y-18734334D02*
X17410408Y-18434334D01*
X17538980Y-18734334D02*
X17538980Y-18577192D01*
X17524694Y-18548620D01*
X17496123Y-18534334D01*
X17453266Y-18534334D01*
X17424694Y-18548620D01*
X17410408Y-18562906D01*
X17724694Y-18734334D02*
X17696123Y-18720049D01*
X17681837Y-18705763D01*
X17667551Y-18677192D01*
X17667551Y-18591477D01*
X17681837Y-18562906D01*
X17696123Y-18548620D01*
X17724694Y-18534334D01*
X17767551Y-18534334D01*
X17796123Y-18548620D01*
X17810408Y-18562906D01*
X17824694Y-18591477D01*
X17824694Y-18677192D01*
X17810408Y-18705763D01*
X17796123Y-18720049D01*
X17767551Y-18734334D01*
X17724694Y-18734334D01*
X17996123Y-18734334D02*
X17967551Y-18720049D01*
X17953266Y-18691477D01*
X17953266Y-18434334D01*
X18224694Y-18720049D02*
X18196123Y-18734334D01*
X18138980Y-18734334D01*
X18110408Y-18720049D01*
X18096123Y-18691477D01*
X18096123Y-18577192D01*
X18110408Y-18548620D01*
X18138980Y-18534334D01*
X18196123Y-18534334D01*
X18224694Y-18548620D01*
X18238980Y-18577192D01*
X18238980Y-18605763D01*
X18096123Y-18634334D01*
X18353266Y-18720049D02*
X18381837Y-18734334D01*
X18438980Y-18734334D01*
X18467551Y-18720049D01*
X18481837Y-18691477D01*
X18481837Y-18677192D01*
X18467551Y-18648620D01*
X18438980Y-18634334D01*
X18396123Y-18634334D01*
X18367551Y-18620049D01*
X18353266Y-18591477D01*
X18353266Y-18577192D01*
X18367551Y-18548620D01*
X18396123Y-18534334D01*
X18438980Y-18534334D01*
X18467551Y-18548620D01*
X18838980Y-18620049D02*
X19067551Y-18620049D01*
X18953266Y-18734334D02*
X18953266Y-18505763D01*
X19424694Y-18462906D02*
X19438980Y-18448620D01*
X19467551Y-18434334D01*
X19538980Y-18434334D01*
X19567551Y-18448620D01*
X19581837Y-18462906D01*
X19596123Y-18491477D01*
X19596123Y-18520049D01*
X19581837Y-18562906D01*
X19410408Y-18734334D01*
X19596123Y-18734334D01*
X19938980Y-18720049D02*
X19967551Y-18734334D01*
X20024694Y-18734334D01*
X20053266Y-18720049D01*
X20067551Y-18691477D01*
X20067551Y-18677192D01*
X20053266Y-18648620D01*
X20024694Y-18634334D01*
X19981837Y-18634334D01*
X19953266Y-18620049D01*
X19938980Y-18591477D01*
X19938980Y-18577192D01*
X19953266Y-18548620D01*
X19981837Y-18534334D01*
X20024694Y-18534334D01*
X20053266Y-18548620D01*
X20238980Y-18734334D02*
X20210408Y-18720049D01*
X20196123Y-18691477D01*
X20196123Y-18434334D01*
X20396123Y-18734334D02*
X20367551Y-18720049D01*
X20353266Y-18705763D01*
X20338980Y-18677192D01*
X20338980Y-18591477D01*
X20353266Y-18562906D01*
X20367551Y-18548620D01*
X20396123Y-18534334D01*
X20438980Y-18534334D01*
X20467551Y-18548620D01*
X20481837Y-18562906D01*
X20496123Y-18591477D01*
X20496123Y-18677192D01*
X20481837Y-18705763D01*
X20467551Y-18720049D01*
X20438980Y-18734334D01*
X20396123Y-18734334D01*
X20581837Y-18534334D02*
X20696123Y-18534334D01*
X20624694Y-18434334D02*
X20624694Y-18691477D01*
X20638980Y-18720049D01*
X20667551Y-18734334D01*
X20696123Y-18734334D01*
X20781837Y-18720049D02*
X20810408Y-18734334D01*
X20867551Y-18734334D01*
X20896123Y-18720049D01*
X20910408Y-18691477D01*
X20910408Y-18677192D01*
X20896123Y-18648620D01*
X20867551Y-18634334D01*
X20824694Y-18634334D01*
X20796123Y-18620049D01*
X20781837Y-18591477D01*
X20781837Y-18577192D01*
X20796123Y-18548620D01*
X20824694Y-18534334D01*
X20867551Y-18534334D01*
X20896123Y-18548620D01*
X21010408Y-18848620D02*
X21024694Y-18834334D01*
X21053266Y-18791477D01*
X21067551Y-18762906D01*
X21081837Y-18720049D01*
X21096123Y-18648620D01*
X21096123Y-18591477D01*
X21081837Y-18520049D01*
X21067551Y-18477192D01*
X21053266Y-18448620D01*
X21024694Y-18405763D01*
X21010408Y-18391477D01*
X11422380Y-18943820D02*
X11523980Y-19045420D01*
X11523980Y-18943820D02*
X11422380Y-19045420D01*
X11473180Y-19045420D02*
X11523980Y-18994620D01*
X11473180Y-18943820D01*
X11422380Y-18994620D01*
X11473180Y-19045420D01*
X11967551Y-19130334D02*
X11796123Y-19130334D01*
X11881837Y-19130334D02*
X11881837Y-18830334D01*
X11853266Y-18873192D01*
X11824694Y-18901763D01*
X11796123Y-18916049D01*
X12096123Y-19101763D02*
X12110408Y-19116049D01*
X12096123Y-19130334D01*
X12081837Y-19116049D01*
X12096123Y-19101763D01*
X12096123Y-19130334D01*
X12296123Y-18830334D02*
X12324694Y-18830334D01*
X12353266Y-18844620D01*
X12367551Y-18858906D01*
X12381837Y-18887477D01*
X12396123Y-18944620D01*
X12396123Y-19016049D01*
X12381837Y-19073192D01*
X12367551Y-19101763D01*
X12353266Y-19116049D01*
X12324694Y-19130334D01*
X12296123Y-19130334D01*
X12267551Y-19116049D01*
X12253266Y-19101763D01*
X12238980Y-19073192D01*
X12224694Y-19016049D01*
X12224694Y-18944620D01*
X12238980Y-18887477D01*
X12253266Y-18858906D01*
X12267551Y-18844620D01*
X12296123Y-18830334D01*
X12681837Y-19130334D02*
X12510408Y-19130334D01*
X12596123Y-19130334D02*
X12596123Y-18830334D01*
X12567551Y-18873192D01*
X12538980Y-18901763D01*
X12510408Y-18916049D01*
X12938980Y-18830334D02*
X12881837Y-18830334D01*
X12853266Y-18844620D01*
X12838980Y-18858906D01*
X12810408Y-18901763D01*
X12796123Y-18958906D01*
X12796123Y-19073192D01*
X12810408Y-19101763D01*
X12824694Y-19116049D01*
X12853266Y-19130334D01*
X12910408Y-19130334D01*
X12938980Y-19116049D01*
X12953266Y-19101763D01*
X12967551Y-19073192D01*
X12967551Y-19001763D01*
X12953266Y-18973192D01*
X12938980Y-18958906D01*
X12910408Y-18944620D01*
X12853266Y-18944620D01*
X12824694Y-18958906D01*
X12810408Y-18973192D01*
X12796123Y-19001763D01*
X13096123Y-19130334D02*
X13096123Y-18930334D01*
X13096123Y-18958906D02*
X13110408Y-18944620D01*
X13138980Y-18930334D01*
X13181837Y-18930334D01*
X13210408Y-18944620D01*
X13224694Y-18973192D01*
X13224694Y-19130334D01*
X13224694Y-18973192D02*
X13238980Y-18944620D01*
X13267551Y-18930334D01*
X13310408Y-18930334D01*
X13338980Y-18944620D01*
X13353266Y-18973192D01*
X13353266Y-19130334D01*
X13496123Y-19130334D02*
X13496123Y-18930334D01*
X13496123Y-18958906D02*
X13510408Y-18944620D01*
X13538980Y-18930334D01*
X13581837Y-18930334D01*
X13610408Y-18944620D01*
X13624694Y-18973192D01*
X13624694Y-19130334D01*
X13624694Y-18973192D02*
X13638980Y-18944620D01*
X13667551Y-18930334D01*
X13710408Y-18930334D01*
X13738980Y-18944620D01*
X13753266Y-18973192D01*
X13753266Y-19130334D01*
X14338980Y-18816049D02*
X14081837Y-19201763D01*
X14724694Y-18830334D02*
X14753266Y-18830334D01*
X14781837Y-18844620D01*
X14796123Y-18858906D01*
X14810408Y-18887477D01*
X14824694Y-18944620D01*
X14824694Y-19016049D01*
X14810408Y-19073192D01*
X14796123Y-19101763D01*
X14781837Y-19116049D01*
X14753266Y-19130334D01*
X14724694Y-19130334D01*
X14696123Y-19116049D01*
X14681837Y-19101763D01*
X14667551Y-19073192D01*
X14653266Y-19016049D01*
X14653266Y-18944620D01*
X14667551Y-18887477D01*
X14681837Y-18858906D01*
X14696123Y-18844620D01*
X14724694Y-18830334D01*
X14953266Y-19101763D02*
X14967551Y-19116049D01*
X14953266Y-19130334D01*
X14938980Y-19116049D01*
X14953266Y-19101763D01*
X14953266Y-19130334D01*
X15153266Y-18830334D02*
X15181837Y-18830334D01*
X15210408Y-18844620D01*
X15224694Y-18858906D01*
X15238980Y-18887477D01*
X15253266Y-18944620D01*
X15253266Y-19016049D01*
X15238980Y-19073192D01*
X15224694Y-19101763D01*
X15210408Y-19116049D01*
X15181837Y-19130334D01*
X15153266Y-19130334D01*
X15124694Y-19116049D01*
X15110408Y-19101763D01*
X15096123Y-19073192D01*
X15081837Y-19016049D01*
X15081837Y-18944620D01*
X15096123Y-18887477D01*
X15110408Y-18858906D01*
X15124694Y-18844620D01*
X15153266Y-18830334D01*
X15510408Y-18930334D02*
X15510408Y-19130334D01*
X15438980Y-18816049D02*
X15367551Y-19030334D01*
X15553266Y-19030334D01*
X15724694Y-18830334D02*
X15753266Y-18830334D01*
X15781837Y-18844620D01*
X15796123Y-18858906D01*
X15810408Y-18887477D01*
X15824694Y-18944620D01*
X15824694Y-19016049D01*
X15810408Y-19073192D01*
X15796123Y-19101763D01*
X15781837Y-19116049D01*
X15753266Y-19130334D01*
X15724694Y-19130334D01*
X15696123Y-19116049D01*
X15681837Y-19101763D01*
X15667551Y-19073192D01*
X15653266Y-19016049D01*
X15653266Y-18944620D01*
X15667551Y-18887477D01*
X15681837Y-18858906D01*
X15696123Y-18844620D01*
X15724694Y-18830334D01*
X16010408Y-18830334D02*
X16038980Y-18830334D01*
X16067551Y-18844620D01*
X16081837Y-18858906D01*
X16096123Y-18887477D01*
X16110408Y-18944620D01*
X16110408Y-19016049D01*
X16096123Y-19073192D01*
X16081837Y-19101763D01*
X16067551Y-19116049D01*
X16038980Y-19130334D01*
X16010408Y-19130334D01*
X15981837Y-19116049D01*
X15967551Y-19101763D01*
X15953266Y-19073192D01*
X15938980Y-19016049D01*
X15938980Y-18944620D01*
X15953266Y-18887477D01*
X15967551Y-18858906D01*
X15981837Y-18844620D01*
X16010408Y-18830334D01*
X16224694Y-18830334D02*
X16224694Y-18887477D01*
X16338980Y-18830334D02*
X16338980Y-18887477D01*
X16781837Y-19244620D02*
X16767551Y-19230334D01*
X16738980Y-19187477D01*
X16724694Y-19158906D01*
X16710408Y-19116049D01*
X16696123Y-19044620D01*
X16696123Y-18987477D01*
X16710408Y-18916049D01*
X16724694Y-18873192D01*
X16738980Y-18844620D01*
X16767551Y-18801763D01*
X16781837Y-18787477D01*
X17024694Y-18930334D02*
X17024694Y-19130334D01*
X16953266Y-18816049D02*
X16881837Y-19030334D01*
X17067551Y-19030334D01*
X17238980Y-18830334D02*
X17267551Y-18830334D01*
X17296123Y-18844620D01*
X17310408Y-18858906D01*
X17324694Y-18887477D01*
X17338980Y-18944620D01*
X17338980Y-19016049D01*
X17324694Y-19073192D01*
X17310408Y-19101763D01*
X17296123Y-19116049D01*
X17267551Y-19130334D01*
X17238980Y-19130334D01*
X17210408Y-19116049D01*
X17196123Y-19101763D01*
X17181837Y-19073192D01*
X17167551Y-19016049D01*
X17167551Y-18944620D01*
X17181837Y-18887477D01*
X17196123Y-18858906D01*
X17210408Y-18844620D01*
X17238980Y-18830334D01*
X17696123Y-19130334D02*
X17696123Y-18830334D01*
X17824694Y-19130334D02*
X17824694Y-18973192D01*
X17810408Y-18944620D01*
X17781837Y-18930334D01*
X17738980Y-18930334D01*
X17710408Y-18944620D01*
X17696123Y-18958906D01*
X18010408Y-19130334D02*
X17981837Y-19116049D01*
X17967551Y-19101763D01*
X17953266Y-19073192D01*
X17953266Y-18987477D01*
X17967551Y-18958906D01*
X17981837Y-18944620D01*
X18010408Y-18930334D01*
X18053266Y-18930334D01*
X18081837Y-18944620D01*
X18096123Y-18958906D01*
X18110408Y-18987477D01*
X18110408Y-19073192D01*
X18096123Y-19101763D01*
X18081837Y-19116049D01*
X18053266Y-19130334D01*
X18010408Y-19130334D01*
X18281837Y-19130334D02*
X18253266Y-19116049D01*
X18238980Y-19087477D01*
X18238980Y-18830334D01*
X18510408Y-19116049D02*
X18481837Y-19130334D01*
X18424694Y-19130334D01*
X18396123Y-19116049D01*
X18381837Y-19087477D01*
X18381837Y-18973192D01*
X18396123Y-18944620D01*
X18424694Y-18930334D01*
X18481837Y-18930334D01*
X18510408Y-18944620D01*
X18524694Y-18973192D01*
X18524694Y-19001763D01*
X18381837Y-19030334D01*
X18638980Y-19116049D02*
X18667551Y-19130334D01*
X18724694Y-19130334D01*
X18753266Y-19116049D01*
X18767551Y-19087477D01*
X18767551Y-19073192D01*
X18753266Y-19044620D01*
X18724694Y-19030334D01*
X18681837Y-19030334D01*
X18653266Y-19016049D01*
X18638980Y-18987477D01*
X18638980Y-18973192D01*
X18653266Y-18944620D01*
X18681837Y-18930334D01*
X18724694Y-18930334D01*
X18753266Y-18944620D01*
X18867551Y-19244620D02*
X18881837Y-19230334D01*
X18910408Y-19187477D01*
X18924694Y-19158906D01*
X18938980Y-19116049D01*
X18953266Y-19044620D01*
X18953266Y-18987477D01*
X18938980Y-18916049D01*
X18924694Y-18873192D01*
X18910408Y-18844620D01*
X18881837Y-18801763D01*
X18867551Y-18787477D01*
X11468100Y-19334740D02*
X11468100Y-19446500D01*
X11412220Y-19390620D02*
X11523980Y-19390620D01*
X11523980Y-19390620D02*
G75*
G03*
X11523980Y-19390620I-55880J0D01*
G01*
X11967551Y-19526334D02*
X11796123Y-19526334D01*
X11881837Y-19526334D02*
X11881837Y-19226334D01*
X11853266Y-19269192D01*
X11824694Y-19297763D01*
X11796123Y-19312049D01*
X12096123Y-19497763D02*
X12110408Y-19512049D01*
X12096123Y-19526334D01*
X12081837Y-19512049D01*
X12096123Y-19497763D01*
X12096123Y-19526334D01*
X12396123Y-19526334D02*
X12224694Y-19526334D01*
X12310408Y-19526334D02*
X12310408Y-19226334D01*
X12281837Y-19269192D01*
X12253266Y-19297763D01*
X12224694Y-19312049D01*
X12681837Y-19526334D02*
X12510408Y-19526334D01*
X12596123Y-19526334D02*
X12596123Y-19226334D01*
X12567551Y-19269192D01*
X12538980Y-19297763D01*
X12510408Y-19312049D01*
X12853266Y-19354906D02*
X12824694Y-19340620D01*
X12810408Y-19326334D01*
X12796123Y-19297763D01*
X12796123Y-19283477D01*
X12810408Y-19254906D01*
X12824694Y-19240620D01*
X12853266Y-19226334D01*
X12910408Y-19226334D01*
X12938980Y-19240620D01*
X12953266Y-19254906D01*
X12967551Y-19283477D01*
X12967551Y-19297763D01*
X12953266Y-19326334D01*
X12938980Y-19340620D01*
X12910408Y-19354906D01*
X12853266Y-19354906D01*
X12824694Y-19369192D01*
X12810408Y-19383477D01*
X12796123Y-19412049D01*
X12796123Y-19469192D01*
X12810408Y-19497763D01*
X12824694Y-19512049D01*
X12853266Y-19526334D01*
X12910408Y-19526334D01*
X12938980Y-19512049D01*
X12953266Y-19497763D01*
X12967551Y-19469192D01*
X12967551Y-19412049D01*
X12953266Y-19383477D01*
X12938980Y-19369192D01*
X12910408Y-19354906D01*
X13096123Y-19526334D02*
X13096123Y-19326334D01*
X13096123Y-19354906D02*
X13110408Y-19340620D01*
X13138980Y-19326334D01*
X13181837Y-19326334D01*
X13210408Y-19340620D01*
X13224694Y-19369192D01*
X13224694Y-19526334D01*
X13224694Y-19369192D02*
X13238980Y-19340620D01*
X13267551Y-19326334D01*
X13310408Y-19326334D01*
X13338980Y-19340620D01*
X13353266Y-19369192D01*
X13353266Y-19526334D01*
X13496123Y-19526334D02*
X13496123Y-19326334D01*
X13496123Y-19354906D02*
X13510408Y-19340620D01*
X13538980Y-19326334D01*
X13581837Y-19326334D01*
X13610408Y-19340620D01*
X13624694Y-19369192D01*
X13624694Y-19526334D01*
X13624694Y-19369192D02*
X13638980Y-19340620D01*
X13667551Y-19326334D01*
X13710408Y-19326334D01*
X13738980Y-19340620D01*
X13753266Y-19369192D01*
X13753266Y-19526334D01*
X14338980Y-19212049D02*
X14081837Y-19597763D01*
X14724694Y-19226334D02*
X14753266Y-19226334D01*
X14781837Y-19240620D01*
X14796123Y-19254906D01*
X14810408Y-19283477D01*
X14824694Y-19340620D01*
X14824694Y-19412049D01*
X14810408Y-19469192D01*
X14796123Y-19497763D01*
X14781837Y-19512049D01*
X14753266Y-19526334D01*
X14724694Y-19526334D01*
X14696123Y-19512049D01*
X14681837Y-19497763D01*
X14667551Y-19469192D01*
X14653266Y-19412049D01*
X14653266Y-19340620D01*
X14667551Y-19283477D01*
X14681837Y-19254906D01*
X14696123Y-19240620D01*
X14724694Y-19226334D01*
X14953266Y-19497763D02*
X14967551Y-19512049D01*
X14953266Y-19526334D01*
X14938980Y-19512049D01*
X14953266Y-19497763D01*
X14953266Y-19526334D01*
X15153266Y-19226334D02*
X15181837Y-19226334D01*
X15210408Y-19240620D01*
X15224694Y-19254906D01*
X15238980Y-19283477D01*
X15253266Y-19340620D01*
X15253266Y-19412049D01*
X15238980Y-19469192D01*
X15224694Y-19497763D01*
X15210408Y-19512049D01*
X15181837Y-19526334D01*
X15153266Y-19526334D01*
X15124694Y-19512049D01*
X15110408Y-19497763D01*
X15096123Y-19469192D01*
X15081837Y-19412049D01*
X15081837Y-19340620D01*
X15096123Y-19283477D01*
X15110408Y-19254906D01*
X15124694Y-19240620D01*
X15153266Y-19226334D01*
X15510408Y-19326334D02*
X15510408Y-19526334D01*
X15438980Y-19212049D02*
X15367551Y-19426334D01*
X15553266Y-19426334D01*
X15796123Y-19326334D02*
X15796123Y-19526334D01*
X15724694Y-19212049D02*
X15653266Y-19426334D01*
X15838980Y-19426334D01*
X16010408Y-19226334D02*
X16038980Y-19226334D01*
X16067551Y-19240620D01*
X16081837Y-19254906D01*
X16096123Y-19283477D01*
X16110408Y-19340620D01*
X16110408Y-19412049D01*
X16096123Y-19469192D01*
X16081837Y-19497763D01*
X16067551Y-19512049D01*
X16038980Y-19526334D01*
X16010408Y-19526334D01*
X15981837Y-19512049D01*
X15967551Y-19497763D01*
X15953266Y-19469192D01*
X15938980Y-19412049D01*
X15938980Y-19340620D01*
X15953266Y-19283477D01*
X15967551Y-19254906D01*
X15981837Y-19240620D01*
X16010408Y-19226334D01*
X16224694Y-19226334D02*
X16224694Y-19283477D01*
X16338980Y-19226334D02*
X16338980Y-19283477D01*
X16781837Y-19640620D02*
X16767551Y-19626334D01*
X16738980Y-19583477D01*
X16724694Y-19554906D01*
X16710408Y-19512049D01*
X16696123Y-19440620D01*
X16696123Y-19383477D01*
X16710408Y-19312049D01*
X16724694Y-19269192D01*
X16738980Y-19240620D01*
X16767551Y-19197763D01*
X16781837Y-19183477D01*
X16867551Y-19226334D02*
X17053266Y-19226334D01*
X16953266Y-19340620D01*
X16996123Y-19340620D01*
X17024694Y-19354906D01*
X17038980Y-19369192D01*
X17053266Y-19397763D01*
X17053266Y-19469192D01*
X17038980Y-19497763D01*
X17024694Y-19512049D01*
X16996123Y-19526334D01*
X16910408Y-19526334D01*
X16881837Y-19512049D01*
X16867551Y-19497763D01*
X17410408Y-19526334D02*
X17410408Y-19226334D01*
X17538980Y-19526334D02*
X17538980Y-19369192D01*
X17524694Y-19340620D01*
X17496123Y-19326334D01*
X17453266Y-19326334D01*
X17424694Y-19340620D01*
X17410408Y-19354906D01*
X17724694Y-19526334D02*
X17696123Y-19512049D01*
X17681837Y-19497763D01*
X17667551Y-19469192D01*
X17667551Y-19383477D01*
X17681837Y-19354906D01*
X17696123Y-19340620D01*
X17724694Y-19326334D01*
X17767551Y-19326334D01*
X17796123Y-19340620D01*
X17810408Y-19354906D01*
X17824694Y-19383477D01*
X17824694Y-19469192D01*
X17810408Y-19497763D01*
X17796123Y-19512049D01*
X17767551Y-19526334D01*
X17724694Y-19526334D01*
X17996123Y-19526334D02*
X17967551Y-19512049D01*
X17953266Y-19483477D01*
X17953266Y-19226334D01*
X18224694Y-19512049D02*
X18196123Y-19526334D01*
X18138980Y-19526334D01*
X18110408Y-19512049D01*
X18096123Y-19483477D01*
X18096123Y-19369192D01*
X18110408Y-19340620D01*
X18138980Y-19326334D01*
X18196123Y-19326334D01*
X18224694Y-19340620D01*
X18238980Y-19369192D01*
X18238980Y-19397763D01*
X18096123Y-19426334D01*
X18353266Y-19512049D02*
X18381837Y-19526334D01*
X18438980Y-19526334D01*
X18467551Y-19512049D01*
X18481837Y-19483477D01*
X18481837Y-19469192D01*
X18467551Y-19440620D01*
X18438980Y-19426334D01*
X18396123Y-19426334D01*
X18367551Y-19412049D01*
X18353266Y-19383477D01*
X18353266Y-19369192D01*
X18367551Y-19340620D01*
X18396123Y-19326334D01*
X18438980Y-19326334D01*
X18467551Y-19340620D01*
X18581837Y-19640620D02*
X18596123Y-19626334D01*
X18624694Y-19583477D01*
X18638980Y-19554906D01*
X18653266Y-19512049D01*
X18667551Y-19440620D01*
X18667551Y-19383477D01*
X18653266Y-19312049D01*
X18638980Y-19269192D01*
X18624694Y-19240620D01*
X18596123Y-19197763D01*
X18581837Y-19183477D01*
X11505382Y-19831522D02*
X11505382Y-19741718D01*
X11415578Y-19741718D01*
X11415578Y-19831522D01*
X11505382Y-19831522D01*
X11523980Y-19786620D02*
G75*
G03*
X11523980Y-19786620I-63500J0D01*
G01*
X11967551Y-19922334D02*
X11796123Y-19922334D01*
X11881837Y-19922334D02*
X11881837Y-19622334D01*
X11853266Y-19665192D01*
X11824694Y-19693763D01*
X11796123Y-19708049D01*
X12096123Y-19893763D02*
X12110408Y-19908049D01*
X12096123Y-19922334D01*
X12081837Y-19908049D01*
X12096123Y-19893763D01*
X12096123Y-19922334D01*
X12224694Y-19650906D02*
X12238980Y-19636620D01*
X12267551Y-19622334D01*
X12338980Y-19622334D01*
X12367551Y-19636620D01*
X12381837Y-19650906D01*
X12396123Y-19679477D01*
X12396123Y-19708049D01*
X12381837Y-19750906D01*
X12210408Y-19922334D01*
X12396123Y-19922334D01*
X12496123Y-19622334D02*
X12696123Y-19622334D01*
X12567551Y-19922334D01*
X12867551Y-19622334D02*
X12896123Y-19622334D01*
X12924694Y-19636620D01*
X12938980Y-19650906D01*
X12953266Y-19679477D01*
X12967551Y-19736620D01*
X12967551Y-19808049D01*
X12953266Y-19865192D01*
X12938980Y-19893763D01*
X12924694Y-19908049D01*
X12896123Y-19922334D01*
X12867551Y-19922334D01*
X12838980Y-19908049D01*
X12824694Y-19893763D01*
X12810408Y-19865192D01*
X12796123Y-19808049D01*
X12796123Y-19736620D01*
X12810408Y-19679477D01*
X12824694Y-19650906D01*
X12838980Y-19636620D01*
X12867551Y-19622334D01*
X13096123Y-19922334D02*
X13096123Y-19722334D01*
X13096123Y-19750906D02*
X13110408Y-19736620D01*
X13138980Y-19722334D01*
X13181837Y-19722334D01*
X13210408Y-19736620D01*
X13224694Y-19765192D01*
X13224694Y-19922334D01*
X13224694Y-19765192D02*
X13238980Y-19736620D01*
X13267551Y-19722334D01*
X13310408Y-19722334D01*
X13338980Y-19736620D01*
X13353266Y-19765192D01*
X13353266Y-19922334D01*
X13496123Y-19922334D02*
X13496123Y-19722334D01*
X13496123Y-19750906D02*
X13510408Y-19736620D01*
X13538980Y-19722334D01*
X13581837Y-19722334D01*
X13610408Y-19736620D01*
X13624694Y-19765192D01*
X13624694Y-19922334D01*
X13624694Y-19765192D02*
X13638980Y-19736620D01*
X13667551Y-19722334D01*
X13710408Y-19722334D01*
X13738980Y-19736620D01*
X13753266Y-19765192D01*
X13753266Y-19922334D01*
X14338980Y-19608049D02*
X14081837Y-19993763D01*
X14724694Y-19622334D02*
X14753266Y-19622334D01*
X14781837Y-19636620D01*
X14796123Y-19650906D01*
X14810408Y-19679477D01*
X14824694Y-19736620D01*
X14824694Y-19808049D01*
X14810408Y-19865192D01*
X14796123Y-19893763D01*
X14781837Y-19908049D01*
X14753266Y-19922334D01*
X14724694Y-19922334D01*
X14696123Y-19908049D01*
X14681837Y-19893763D01*
X14667551Y-19865192D01*
X14653266Y-19808049D01*
X14653266Y-19736620D01*
X14667551Y-19679477D01*
X14681837Y-19650906D01*
X14696123Y-19636620D01*
X14724694Y-19622334D01*
X14953266Y-19893763D02*
X14967551Y-19908049D01*
X14953266Y-19922334D01*
X14938980Y-19908049D01*
X14953266Y-19893763D01*
X14953266Y-19922334D01*
X15153266Y-19622334D02*
X15181837Y-19622334D01*
X15210408Y-19636620D01*
X15224694Y-19650906D01*
X15238980Y-19679477D01*
X15253266Y-19736620D01*
X15253266Y-19808049D01*
X15238980Y-19865192D01*
X15224694Y-19893763D01*
X15210408Y-19908049D01*
X15181837Y-19922334D01*
X15153266Y-19922334D01*
X15124694Y-19908049D01*
X15110408Y-19893763D01*
X15096123Y-19865192D01*
X15081837Y-19808049D01*
X15081837Y-19736620D01*
X15096123Y-19679477D01*
X15110408Y-19650906D01*
X15124694Y-19636620D01*
X15153266Y-19622334D01*
X15524694Y-19622334D02*
X15381837Y-19622334D01*
X15367551Y-19765192D01*
X15381837Y-19750906D01*
X15410408Y-19736620D01*
X15481837Y-19736620D01*
X15510408Y-19750906D01*
X15524694Y-19765192D01*
X15538980Y-19793763D01*
X15538980Y-19865192D01*
X15524694Y-19893763D01*
X15510408Y-19908049D01*
X15481837Y-19922334D01*
X15410408Y-19922334D01*
X15381837Y-19908049D01*
X15367551Y-19893763D01*
X15724694Y-19622334D02*
X15753266Y-19622334D01*
X15781837Y-19636620D01*
X15796123Y-19650906D01*
X15810408Y-19679477D01*
X15824694Y-19736620D01*
X15824694Y-19808049D01*
X15810408Y-19865192D01*
X15796123Y-19893763D01*
X15781837Y-19908049D01*
X15753266Y-19922334D01*
X15724694Y-19922334D01*
X15696123Y-19908049D01*
X15681837Y-19893763D01*
X15667551Y-19865192D01*
X15653266Y-19808049D01*
X15653266Y-19736620D01*
X15667551Y-19679477D01*
X15681837Y-19650906D01*
X15696123Y-19636620D01*
X15724694Y-19622334D01*
X16010408Y-19622334D02*
X16038980Y-19622334D01*
X16067551Y-19636620D01*
X16081837Y-19650906D01*
X16096123Y-19679477D01*
X16110408Y-19736620D01*
X16110408Y-19808049D01*
X16096123Y-19865192D01*
X16081837Y-19893763D01*
X16067551Y-19908049D01*
X16038980Y-19922334D01*
X16010408Y-19922334D01*
X15981837Y-19908049D01*
X15967551Y-19893763D01*
X15953266Y-19865192D01*
X15938980Y-19808049D01*
X15938980Y-19736620D01*
X15953266Y-19679477D01*
X15967551Y-19650906D01*
X15981837Y-19636620D01*
X16010408Y-19622334D01*
X16224694Y-19622334D02*
X16224694Y-19679477D01*
X16338980Y-19622334D02*
X16338980Y-19679477D01*
X16781837Y-20036620D02*
X16767551Y-20022334D01*
X16738980Y-19979477D01*
X16724694Y-19950906D01*
X16710408Y-19908049D01*
X16696123Y-19836620D01*
X16696123Y-19779477D01*
X16710408Y-19708049D01*
X16724694Y-19665192D01*
X16738980Y-19636620D01*
X16767551Y-19593763D01*
X16781837Y-19579477D01*
X16881837Y-19650906D02*
X16896123Y-19636620D01*
X16924694Y-19622334D01*
X16996123Y-19622334D01*
X17024694Y-19636620D01*
X17038980Y-19650906D01*
X17053266Y-19679477D01*
X17053266Y-19708049D01*
X17038980Y-19750906D01*
X16867551Y-19922334D01*
X17053266Y-19922334D01*
X17410408Y-19922334D02*
X17410408Y-19622334D01*
X17538980Y-19922334D02*
X17538980Y-19765192D01*
X17524694Y-19736620D01*
X17496123Y-19722334D01*
X17453266Y-19722334D01*
X17424694Y-19736620D01*
X17410408Y-19750906D01*
X17724694Y-19922334D02*
X17696123Y-19908049D01*
X17681837Y-19893763D01*
X17667551Y-19865192D01*
X17667551Y-19779477D01*
X17681837Y-19750906D01*
X17696123Y-19736620D01*
X17724694Y-19722334D01*
X17767551Y-19722334D01*
X17796123Y-19736620D01*
X17810408Y-19750906D01*
X17824694Y-19779477D01*
X17824694Y-19865192D01*
X17810408Y-19893763D01*
X17796123Y-19908049D01*
X17767551Y-19922334D01*
X17724694Y-19922334D01*
X17996123Y-19922334D02*
X17967551Y-19908049D01*
X17953266Y-19879477D01*
X17953266Y-19622334D01*
X18224694Y-19908049D02*
X18196123Y-19922334D01*
X18138980Y-19922334D01*
X18110408Y-19908049D01*
X18096123Y-19879477D01*
X18096123Y-19765192D01*
X18110408Y-19736620D01*
X18138980Y-19722334D01*
X18196123Y-19722334D01*
X18224694Y-19736620D01*
X18238980Y-19765192D01*
X18238980Y-19793763D01*
X18096123Y-19822334D01*
X18353266Y-19908049D02*
X18381837Y-19922334D01*
X18438980Y-19922334D01*
X18467551Y-19908049D01*
X18481837Y-19879477D01*
X18481837Y-19865192D01*
X18467551Y-19836620D01*
X18438980Y-19822334D01*
X18396123Y-19822334D01*
X18367551Y-19808049D01*
X18353266Y-19779477D01*
X18353266Y-19765192D01*
X18367551Y-19736620D01*
X18396123Y-19722334D01*
X18438980Y-19722334D01*
X18467551Y-19736620D01*
X18581837Y-20036620D02*
X18596123Y-20022334D01*
X18624694Y-19979477D01*
X18638980Y-19950906D01*
X18653266Y-19908049D01*
X18667551Y-19836620D01*
X18667551Y-19779477D01*
X18653266Y-19708049D01*
X18638980Y-19665192D01*
X18624694Y-19636620D01*
X18596123Y-19593763D01*
X18581837Y-19579477D01*
X11458480Y-20248120D02*
X11523980Y-20182620D01*
X11458480Y-20117120D01*
X11392980Y-20182620D01*
X11458480Y-20248120D01*
X11523980Y-20182620D02*
G75*
G03*
X11523980Y-20182620I-65500J0D01*
G01*
X11967551Y-20318334D02*
X11796123Y-20318334D01*
X11881837Y-20318334D02*
X11881837Y-20018334D01*
X11853266Y-20061192D01*
X11824694Y-20089763D01*
X11796123Y-20104049D01*
X12096123Y-20289763D02*
X12110408Y-20304049D01*
X12096123Y-20318334D01*
X12081837Y-20304049D01*
X12096123Y-20289763D01*
X12096123Y-20318334D01*
X12210408Y-20018334D02*
X12396123Y-20018334D01*
X12296123Y-20132620D01*
X12338980Y-20132620D01*
X12367551Y-20146906D01*
X12381837Y-20161192D01*
X12396123Y-20189763D01*
X12396123Y-20261192D01*
X12381837Y-20289763D01*
X12367551Y-20304049D01*
X12338980Y-20318334D01*
X12253266Y-20318334D01*
X12224694Y-20304049D01*
X12210408Y-20289763D01*
X12681837Y-20318334D02*
X12510408Y-20318334D01*
X12596123Y-20318334D02*
X12596123Y-20018334D01*
X12567551Y-20061192D01*
X12538980Y-20089763D01*
X12510408Y-20104049D01*
X12867551Y-20018334D02*
X12896123Y-20018334D01*
X12924694Y-20032620D01*
X12938980Y-20046906D01*
X12953266Y-20075477D01*
X12967551Y-20132620D01*
X12967551Y-20204049D01*
X12953266Y-20261192D01*
X12938980Y-20289763D01*
X12924694Y-20304049D01*
X12896123Y-20318334D01*
X12867551Y-20318334D01*
X12838980Y-20304049D01*
X12824694Y-20289763D01*
X12810408Y-20261192D01*
X12796123Y-20204049D01*
X12796123Y-20132620D01*
X12810408Y-20075477D01*
X12824694Y-20046906D01*
X12838980Y-20032620D01*
X12867551Y-20018334D01*
X13096123Y-20318334D02*
X13096123Y-20118334D01*
X13096123Y-20146906D02*
X13110408Y-20132620D01*
X13138980Y-20118334D01*
X13181837Y-20118334D01*
X13210408Y-20132620D01*
X13224694Y-20161192D01*
X13224694Y-20318334D01*
X13224694Y-20161192D02*
X13238980Y-20132620D01*
X13267551Y-20118334D01*
X13310408Y-20118334D01*
X13338980Y-20132620D01*
X13353266Y-20161192D01*
X13353266Y-20318334D01*
X13496123Y-20318334D02*
X13496123Y-20118334D01*
X13496123Y-20146906D02*
X13510408Y-20132620D01*
X13538980Y-20118334D01*
X13581837Y-20118334D01*
X13610408Y-20132620D01*
X13624694Y-20161192D01*
X13624694Y-20318334D01*
X13624694Y-20161192D02*
X13638980Y-20132620D01*
X13667551Y-20118334D01*
X13710408Y-20118334D01*
X13738980Y-20132620D01*
X13753266Y-20161192D01*
X13753266Y-20318334D01*
X14338980Y-20004049D02*
X14081837Y-20389763D01*
X14724694Y-20018334D02*
X14753266Y-20018334D01*
X14781837Y-20032620D01*
X14796123Y-20046906D01*
X14810408Y-20075477D01*
X14824694Y-20132620D01*
X14824694Y-20204049D01*
X14810408Y-20261192D01*
X14796123Y-20289763D01*
X14781837Y-20304049D01*
X14753266Y-20318334D01*
X14724694Y-20318334D01*
X14696123Y-20304049D01*
X14681837Y-20289763D01*
X14667551Y-20261192D01*
X14653266Y-20204049D01*
X14653266Y-20132620D01*
X14667551Y-20075477D01*
X14681837Y-20046906D01*
X14696123Y-20032620D01*
X14724694Y-20018334D01*
X14953266Y-20289763D02*
X14967551Y-20304049D01*
X14953266Y-20318334D01*
X14938980Y-20304049D01*
X14953266Y-20289763D01*
X14953266Y-20318334D01*
X15153266Y-20018334D02*
X15181837Y-20018334D01*
X15210408Y-20032620D01*
X15224694Y-20046906D01*
X15238980Y-20075477D01*
X15253266Y-20132620D01*
X15253266Y-20204049D01*
X15238980Y-20261192D01*
X15224694Y-20289763D01*
X15210408Y-20304049D01*
X15181837Y-20318334D01*
X15153266Y-20318334D01*
X15124694Y-20304049D01*
X15110408Y-20289763D01*
X15096123Y-20261192D01*
X15081837Y-20204049D01*
X15081837Y-20132620D01*
X15096123Y-20075477D01*
X15110408Y-20046906D01*
X15124694Y-20032620D01*
X15153266Y-20018334D01*
X15524694Y-20018334D02*
X15381837Y-20018334D01*
X15367551Y-20161192D01*
X15381837Y-20146906D01*
X15410408Y-20132620D01*
X15481837Y-20132620D01*
X15510408Y-20146906D01*
X15524694Y-20161192D01*
X15538980Y-20189763D01*
X15538980Y-20261192D01*
X15524694Y-20289763D01*
X15510408Y-20304049D01*
X15481837Y-20318334D01*
X15410408Y-20318334D01*
X15381837Y-20304049D01*
X15367551Y-20289763D01*
X15824694Y-20318334D02*
X15653266Y-20318334D01*
X15738980Y-20318334D02*
X15738980Y-20018334D01*
X15710408Y-20061192D01*
X15681837Y-20089763D01*
X15653266Y-20104049D01*
X16081837Y-20018334D02*
X16024694Y-20018334D01*
X15996123Y-20032620D01*
X15981837Y-20046906D01*
X15953266Y-20089763D01*
X15938980Y-20146906D01*
X15938980Y-20261192D01*
X15953266Y-20289763D01*
X15967551Y-20304049D01*
X15996123Y-20318334D01*
X16053266Y-20318334D01*
X16081837Y-20304049D01*
X16096123Y-20289763D01*
X16110408Y-20261192D01*
X16110408Y-20189763D01*
X16096123Y-20161192D01*
X16081837Y-20146906D01*
X16053266Y-20132620D01*
X15996123Y-20132620D01*
X15967551Y-20146906D01*
X15953266Y-20161192D01*
X15938980Y-20189763D01*
X16224694Y-20018334D02*
X16224694Y-20075477D01*
X16338980Y-20018334D02*
X16338980Y-20075477D01*
X16781837Y-20432620D02*
X16767551Y-20418334D01*
X16738980Y-20375477D01*
X16724694Y-20346906D01*
X16710408Y-20304049D01*
X16696123Y-20232620D01*
X16696123Y-20175477D01*
X16710408Y-20104049D01*
X16724694Y-20061192D01*
X16738980Y-20032620D01*
X16767551Y-19989763D01*
X16781837Y-19975477D01*
X17038980Y-20018334D02*
X16896123Y-20018334D01*
X16881837Y-20161192D01*
X16896123Y-20146906D01*
X16924694Y-20132620D01*
X16996123Y-20132620D01*
X17024694Y-20146906D01*
X17038980Y-20161192D01*
X17053266Y-20189763D01*
X17053266Y-20261192D01*
X17038980Y-20289763D01*
X17024694Y-20304049D01*
X16996123Y-20318334D01*
X16924694Y-20318334D01*
X16896123Y-20304049D01*
X16881837Y-20289763D01*
X17410408Y-20318334D02*
X17410408Y-20018334D01*
X17538980Y-20318334D02*
X17538980Y-20161192D01*
X17524694Y-20132620D01*
X17496123Y-20118334D01*
X17453266Y-20118334D01*
X17424694Y-20132620D01*
X17410408Y-20146906D01*
X17724694Y-20318334D02*
X17696123Y-20304049D01*
X17681837Y-20289763D01*
X17667551Y-20261192D01*
X17667551Y-20175477D01*
X17681837Y-20146906D01*
X17696123Y-20132620D01*
X17724694Y-20118334D01*
X17767551Y-20118334D01*
X17796123Y-20132620D01*
X17810408Y-20146906D01*
X17824694Y-20175477D01*
X17824694Y-20261192D01*
X17810408Y-20289763D01*
X17796123Y-20304049D01*
X17767551Y-20318334D01*
X17724694Y-20318334D01*
X17996123Y-20318334D02*
X17967551Y-20304049D01*
X17953266Y-20275477D01*
X17953266Y-20018334D01*
X18224694Y-20304049D02*
X18196123Y-20318334D01*
X18138980Y-20318334D01*
X18110408Y-20304049D01*
X18096123Y-20275477D01*
X18096123Y-20161192D01*
X18110408Y-20132620D01*
X18138980Y-20118334D01*
X18196123Y-20118334D01*
X18224694Y-20132620D01*
X18238980Y-20161192D01*
X18238980Y-20189763D01*
X18096123Y-20218334D01*
X18353266Y-20304049D02*
X18381837Y-20318334D01*
X18438980Y-20318334D01*
X18467551Y-20304049D01*
X18481837Y-20275477D01*
X18481837Y-20261192D01*
X18467551Y-20232620D01*
X18438980Y-20218334D01*
X18396123Y-20218334D01*
X18367551Y-20204049D01*
X18353266Y-20175477D01*
X18353266Y-20161192D01*
X18367551Y-20132620D01*
X18396123Y-20118334D01*
X18438980Y-20118334D01*
X18467551Y-20132620D01*
X18581837Y-20432620D02*
X18596123Y-20418334D01*
X18624694Y-20375477D01*
X18638980Y-20346906D01*
X18653266Y-20304049D01*
X18667551Y-20232620D01*
X18667551Y-20175477D01*
X18653266Y-20104049D01*
X18638980Y-20061192D01*
X18624694Y-20032620D01*
X18596123Y-19989763D01*
X18581837Y-19975477D01*
X11448980Y-20503620D02*
X11448980Y-20653620D01*
X11373980Y-20578620D02*
X11523980Y-20578620D01*
X11502013Y-20631654D02*
X11502013Y-20525587D01*
X11395946Y-20525587D01*
X11395946Y-20631654D01*
X11502013Y-20631654D01*
X11967551Y-20714334D02*
X11796123Y-20714334D01*
X11881837Y-20714334D02*
X11881837Y-20414334D01*
X11853266Y-20457192D01*
X11824694Y-20485763D01*
X11796123Y-20500049D01*
X12096123Y-20685763D02*
X12110408Y-20700049D01*
X12096123Y-20714334D01*
X12081837Y-20700049D01*
X12096123Y-20685763D01*
X12096123Y-20714334D01*
X12381837Y-20414334D02*
X12238980Y-20414334D01*
X12224694Y-20557192D01*
X12238980Y-20542906D01*
X12267551Y-20528620D01*
X12338980Y-20528620D01*
X12367551Y-20542906D01*
X12381837Y-20557192D01*
X12396123Y-20585763D01*
X12396123Y-20657192D01*
X12381837Y-20685763D01*
X12367551Y-20700049D01*
X12338980Y-20714334D01*
X12267551Y-20714334D01*
X12238980Y-20700049D01*
X12224694Y-20685763D01*
X12581837Y-20414334D02*
X12610408Y-20414334D01*
X12638980Y-20428620D01*
X12653266Y-20442906D01*
X12667551Y-20471477D01*
X12681837Y-20528620D01*
X12681837Y-20600049D01*
X12667551Y-20657192D01*
X12653266Y-20685763D01*
X12638980Y-20700049D01*
X12610408Y-20714334D01*
X12581837Y-20714334D01*
X12553266Y-20700049D01*
X12538980Y-20685763D01*
X12524694Y-20657192D01*
X12510408Y-20600049D01*
X12510408Y-20528620D01*
X12524694Y-20471477D01*
X12538980Y-20442906D01*
X12553266Y-20428620D01*
X12581837Y-20414334D01*
X12867551Y-20414334D02*
X12896123Y-20414334D01*
X12924694Y-20428620D01*
X12938980Y-20442906D01*
X12953266Y-20471477D01*
X12967551Y-20528620D01*
X12967551Y-20600049D01*
X12953266Y-20657192D01*
X12938980Y-20685763D01*
X12924694Y-20700049D01*
X12896123Y-20714334D01*
X12867551Y-20714334D01*
X12838980Y-20700049D01*
X12824694Y-20685763D01*
X12810408Y-20657192D01*
X12796123Y-20600049D01*
X12796123Y-20528620D01*
X12810408Y-20471477D01*
X12824694Y-20442906D01*
X12838980Y-20428620D01*
X12867551Y-20414334D01*
X13096123Y-20714334D02*
X13096123Y-20514334D01*
X13096123Y-20542906D02*
X13110408Y-20528620D01*
X13138980Y-20514334D01*
X13181837Y-20514334D01*
X13210408Y-20528620D01*
X13224694Y-20557192D01*
X13224694Y-20714334D01*
X13224694Y-20557192D02*
X13238980Y-20528620D01*
X13267551Y-20514334D01*
X13310408Y-20514334D01*
X13338980Y-20528620D01*
X13353266Y-20557192D01*
X13353266Y-20714334D01*
X13496123Y-20714334D02*
X13496123Y-20514334D01*
X13496123Y-20542906D02*
X13510408Y-20528620D01*
X13538980Y-20514334D01*
X13581837Y-20514334D01*
X13610408Y-20528620D01*
X13624694Y-20557192D01*
X13624694Y-20714334D01*
X13624694Y-20557192D02*
X13638980Y-20528620D01*
X13667551Y-20514334D01*
X13710408Y-20514334D01*
X13738980Y-20528620D01*
X13753266Y-20557192D01*
X13753266Y-20714334D01*
X14338980Y-20400049D02*
X14081837Y-20785763D01*
X14724694Y-20414334D02*
X14753266Y-20414334D01*
X14781837Y-20428620D01*
X14796123Y-20442906D01*
X14810408Y-20471477D01*
X14824694Y-20528620D01*
X14824694Y-20600049D01*
X14810408Y-20657192D01*
X14796123Y-20685763D01*
X14781837Y-20700049D01*
X14753266Y-20714334D01*
X14724694Y-20714334D01*
X14696123Y-20700049D01*
X14681837Y-20685763D01*
X14667551Y-20657192D01*
X14653266Y-20600049D01*
X14653266Y-20528620D01*
X14667551Y-20471477D01*
X14681837Y-20442906D01*
X14696123Y-20428620D01*
X14724694Y-20414334D01*
X14953266Y-20685763D02*
X14967551Y-20700049D01*
X14953266Y-20714334D01*
X14938980Y-20700049D01*
X14953266Y-20685763D01*
X14953266Y-20714334D01*
X15153266Y-20414334D02*
X15181837Y-20414334D01*
X15210408Y-20428620D01*
X15224694Y-20442906D01*
X15238980Y-20471477D01*
X15253266Y-20528620D01*
X15253266Y-20600049D01*
X15238980Y-20657192D01*
X15224694Y-20685763D01*
X15210408Y-20700049D01*
X15181837Y-20714334D01*
X15153266Y-20714334D01*
X15124694Y-20700049D01*
X15110408Y-20685763D01*
X15096123Y-20657192D01*
X15081837Y-20600049D01*
X15081837Y-20528620D01*
X15096123Y-20471477D01*
X15110408Y-20442906D01*
X15124694Y-20428620D01*
X15153266Y-20414334D01*
X15524694Y-20414334D02*
X15381837Y-20414334D01*
X15367551Y-20557192D01*
X15381837Y-20542906D01*
X15410408Y-20528620D01*
X15481837Y-20528620D01*
X15510408Y-20542906D01*
X15524694Y-20557192D01*
X15538980Y-20585763D01*
X15538980Y-20657192D01*
X15524694Y-20685763D01*
X15510408Y-20700049D01*
X15481837Y-20714334D01*
X15410408Y-20714334D01*
X15381837Y-20700049D01*
X15367551Y-20685763D01*
X15681837Y-20714334D02*
X15738980Y-20714334D01*
X15767551Y-20700049D01*
X15781837Y-20685763D01*
X15810408Y-20642906D01*
X15824694Y-20585763D01*
X15824694Y-20471477D01*
X15810408Y-20442906D01*
X15796123Y-20428620D01*
X15767551Y-20414334D01*
X15710408Y-20414334D01*
X15681837Y-20428620D01*
X15667551Y-20442906D01*
X15653266Y-20471477D01*
X15653266Y-20542906D01*
X15667551Y-20571477D01*
X15681837Y-20585763D01*
X15710408Y-20600049D01*
X15767551Y-20600049D01*
X15796123Y-20585763D01*
X15810408Y-20571477D01*
X15824694Y-20542906D01*
X16110408Y-20714334D02*
X15938980Y-20714334D01*
X16024694Y-20714334D02*
X16024694Y-20414334D01*
X15996123Y-20457192D01*
X15967551Y-20485763D01*
X15938980Y-20500049D01*
X16224694Y-20414334D02*
X16224694Y-20471477D01*
X16338980Y-20414334D02*
X16338980Y-20471477D01*
X16781837Y-20828620D02*
X16767551Y-20814334D01*
X16738980Y-20771477D01*
X16724694Y-20742906D01*
X16710408Y-20700049D01*
X16696123Y-20628620D01*
X16696123Y-20571477D01*
X16710408Y-20500049D01*
X16724694Y-20457192D01*
X16738980Y-20428620D01*
X16767551Y-20385763D01*
X16781837Y-20371477D01*
X16881837Y-20442906D02*
X16896123Y-20428620D01*
X16924694Y-20414334D01*
X16996123Y-20414334D01*
X17024694Y-20428620D01*
X17038980Y-20442906D01*
X17053266Y-20471477D01*
X17053266Y-20500049D01*
X17038980Y-20542906D01*
X16867551Y-20714334D01*
X17053266Y-20714334D01*
X17410408Y-20714334D02*
X17410408Y-20414334D01*
X17538980Y-20714334D02*
X17538980Y-20557192D01*
X17524694Y-20528620D01*
X17496123Y-20514334D01*
X17453266Y-20514334D01*
X17424694Y-20528620D01*
X17410408Y-20542906D01*
X17724694Y-20714334D02*
X17696123Y-20700049D01*
X17681837Y-20685763D01*
X17667551Y-20657192D01*
X17667551Y-20571477D01*
X17681837Y-20542906D01*
X17696123Y-20528620D01*
X17724694Y-20514334D01*
X17767551Y-20514334D01*
X17796123Y-20528620D01*
X17810408Y-20542906D01*
X17824694Y-20571477D01*
X17824694Y-20657192D01*
X17810408Y-20685763D01*
X17796123Y-20700049D01*
X17767551Y-20714334D01*
X17724694Y-20714334D01*
X17996123Y-20714334D02*
X17967551Y-20700049D01*
X17953266Y-20671477D01*
X17953266Y-20414334D01*
X18224694Y-20700049D02*
X18196123Y-20714334D01*
X18138980Y-20714334D01*
X18110408Y-20700049D01*
X18096123Y-20671477D01*
X18096123Y-20557192D01*
X18110408Y-20528620D01*
X18138980Y-20514334D01*
X18196123Y-20514334D01*
X18224694Y-20528620D01*
X18238980Y-20557192D01*
X18238980Y-20585763D01*
X18096123Y-20614334D01*
X18353266Y-20700049D02*
X18381837Y-20714334D01*
X18438980Y-20714334D01*
X18467551Y-20700049D01*
X18481837Y-20671477D01*
X18481837Y-20657192D01*
X18467551Y-20628620D01*
X18438980Y-20614334D01*
X18396123Y-20614334D01*
X18367551Y-20600049D01*
X18353266Y-20571477D01*
X18353266Y-20557192D01*
X18367551Y-20528620D01*
X18396123Y-20514334D01*
X18438980Y-20514334D01*
X18467551Y-20528620D01*
X18581837Y-20828620D02*
X18596123Y-20814334D01*
X18624694Y-20771477D01*
X18638980Y-20742906D01*
X18653266Y-20700049D01*
X18667551Y-20628620D01*
X18667551Y-20571477D01*
X18653266Y-20500049D01*
X18638980Y-20457192D01*
X18624694Y-20428620D01*
X18596123Y-20385763D01*
X18581837Y-20371477D01*
X11447780Y-20898420D02*
X11447780Y-21050820D01*
X11371580Y-20974620D02*
X11523980Y-20974620D01*
X11447780Y-21050820D02*
X11523980Y-20974620D01*
X11447780Y-20898420D01*
X11371580Y-20974620D01*
X11447780Y-21050820D01*
X11967551Y-21110334D02*
X11796123Y-21110334D01*
X11881837Y-21110334D02*
X11881837Y-20810334D01*
X11853266Y-20853192D01*
X11824694Y-20881763D01*
X11796123Y-20896049D01*
X12096123Y-21081763D02*
X12110408Y-21096049D01*
X12096123Y-21110334D01*
X12081837Y-21096049D01*
X12096123Y-21081763D01*
X12096123Y-21110334D01*
X12381837Y-20810334D02*
X12238980Y-20810334D01*
X12224694Y-20953192D01*
X12238980Y-20938906D01*
X12267551Y-20924620D01*
X12338980Y-20924620D01*
X12367551Y-20938906D01*
X12381837Y-20953192D01*
X12396123Y-20981763D01*
X12396123Y-21053192D01*
X12381837Y-21081763D01*
X12367551Y-21096049D01*
X12338980Y-21110334D01*
X12267551Y-21110334D01*
X12238980Y-21096049D01*
X12224694Y-21081763D01*
X12510408Y-20838906D02*
X12524694Y-20824620D01*
X12553266Y-20810334D01*
X12624694Y-20810334D01*
X12653266Y-20824620D01*
X12667551Y-20838906D01*
X12681837Y-20867477D01*
X12681837Y-20896049D01*
X12667551Y-20938906D01*
X12496123Y-21110334D01*
X12681837Y-21110334D01*
X12938980Y-20910334D02*
X12938980Y-21110334D01*
X12867551Y-20796049D02*
X12796123Y-21010334D01*
X12981837Y-21010334D01*
X13096123Y-21110334D02*
X13096123Y-20910334D01*
X13096123Y-20938906D02*
X13110408Y-20924620D01*
X13138980Y-20910334D01*
X13181837Y-20910334D01*
X13210408Y-20924620D01*
X13224694Y-20953192D01*
X13224694Y-21110334D01*
X13224694Y-20953192D02*
X13238980Y-20924620D01*
X13267551Y-20910334D01*
X13310408Y-20910334D01*
X13338980Y-20924620D01*
X13353266Y-20953192D01*
X13353266Y-21110334D01*
X13496123Y-21110334D02*
X13496123Y-20910334D01*
X13496123Y-20938906D02*
X13510408Y-20924620D01*
X13538980Y-20910334D01*
X13581837Y-20910334D01*
X13610408Y-20924620D01*
X13624694Y-20953192D01*
X13624694Y-21110334D01*
X13624694Y-20953192D02*
X13638980Y-20924620D01*
X13667551Y-20910334D01*
X13710408Y-20910334D01*
X13738980Y-20924620D01*
X13753266Y-20953192D01*
X13753266Y-21110334D01*
X14338980Y-20796049D02*
X14081837Y-21181763D01*
X14724694Y-20810334D02*
X14753266Y-20810334D01*
X14781837Y-20824620D01*
X14796123Y-20838906D01*
X14810408Y-20867477D01*
X14824694Y-20924620D01*
X14824694Y-20996049D01*
X14810408Y-21053192D01*
X14796123Y-21081763D01*
X14781837Y-21096049D01*
X14753266Y-21110334D01*
X14724694Y-21110334D01*
X14696123Y-21096049D01*
X14681837Y-21081763D01*
X14667551Y-21053192D01*
X14653266Y-20996049D01*
X14653266Y-20924620D01*
X14667551Y-20867477D01*
X14681837Y-20838906D01*
X14696123Y-20824620D01*
X14724694Y-20810334D01*
X14953266Y-21081763D02*
X14967551Y-21096049D01*
X14953266Y-21110334D01*
X14938980Y-21096049D01*
X14953266Y-21081763D01*
X14953266Y-21110334D01*
X15153266Y-20810334D02*
X15181837Y-20810334D01*
X15210408Y-20824620D01*
X15224694Y-20838906D01*
X15238980Y-20867477D01*
X15253266Y-20924620D01*
X15253266Y-20996049D01*
X15238980Y-21053192D01*
X15224694Y-21081763D01*
X15210408Y-21096049D01*
X15181837Y-21110334D01*
X15153266Y-21110334D01*
X15124694Y-21096049D01*
X15110408Y-21081763D01*
X15096123Y-21053192D01*
X15081837Y-20996049D01*
X15081837Y-20924620D01*
X15096123Y-20867477D01*
X15110408Y-20838906D01*
X15124694Y-20824620D01*
X15153266Y-20810334D01*
X15510408Y-20810334D02*
X15453266Y-20810334D01*
X15424694Y-20824620D01*
X15410408Y-20838906D01*
X15381837Y-20881763D01*
X15367551Y-20938906D01*
X15367551Y-21053192D01*
X15381837Y-21081763D01*
X15396123Y-21096049D01*
X15424694Y-21110334D01*
X15481837Y-21110334D01*
X15510408Y-21096049D01*
X15524694Y-21081763D01*
X15538980Y-21053192D01*
X15538980Y-20981763D01*
X15524694Y-20953192D01*
X15510408Y-20938906D01*
X15481837Y-20924620D01*
X15424694Y-20924620D01*
X15396123Y-20938906D01*
X15381837Y-20953192D01*
X15367551Y-20981763D01*
X15724694Y-20810334D02*
X15753266Y-20810334D01*
X15781837Y-20824620D01*
X15796123Y-20838906D01*
X15810408Y-20867477D01*
X15824694Y-20924620D01*
X15824694Y-20996049D01*
X15810408Y-21053192D01*
X15796123Y-21081763D01*
X15781837Y-21096049D01*
X15753266Y-21110334D01*
X15724694Y-21110334D01*
X15696123Y-21096049D01*
X15681837Y-21081763D01*
X15667551Y-21053192D01*
X15653266Y-20996049D01*
X15653266Y-20924620D01*
X15667551Y-20867477D01*
X15681837Y-20838906D01*
X15696123Y-20824620D01*
X15724694Y-20810334D01*
X16010408Y-20810334D02*
X16038980Y-20810334D01*
X16067551Y-20824620D01*
X16081837Y-20838906D01*
X16096123Y-20867477D01*
X16110408Y-20924620D01*
X16110408Y-20996049D01*
X16096123Y-21053192D01*
X16081837Y-21081763D01*
X16067551Y-21096049D01*
X16038980Y-21110334D01*
X16010408Y-21110334D01*
X15981837Y-21096049D01*
X15967551Y-21081763D01*
X15953266Y-21053192D01*
X15938980Y-20996049D01*
X15938980Y-20924620D01*
X15953266Y-20867477D01*
X15967551Y-20838906D01*
X15981837Y-20824620D01*
X16010408Y-20810334D01*
X16224694Y-20810334D02*
X16224694Y-20867477D01*
X16338980Y-20810334D02*
X16338980Y-20867477D01*
X16781837Y-21224620D02*
X16767551Y-21210334D01*
X16738980Y-21167477D01*
X16724694Y-21138906D01*
X16710408Y-21096049D01*
X16696123Y-21024620D01*
X16696123Y-20967477D01*
X16710408Y-20896049D01*
X16724694Y-20853192D01*
X16738980Y-20824620D01*
X16767551Y-20781763D01*
X16781837Y-20767477D01*
X16881837Y-20838906D02*
X16896123Y-20824620D01*
X16924694Y-20810334D01*
X16996123Y-20810334D01*
X17024694Y-20824620D01*
X17038980Y-20838906D01*
X17053266Y-20867477D01*
X17053266Y-20896049D01*
X17038980Y-20938906D01*
X16867551Y-21110334D01*
X17053266Y-21110334D01*
X17410408Y-21110334D02*
X17410408Y-20810334D01*
X17538980Y-21110334D02*
X17538980Y-20953192D01*
X17524694Y-20924620D01*
X17496123Y-20910334D01*
X17453266Y-20910334D01*
X17424694Y-20924620D01*
X17410408Y-20938906D01*
X17724694Y-21110334D02*
X17696123Y-21096049D01*
X17681837Y-21081763D01*
X17667551Y-21053192D01*
X17667551Y-20967477D01*
X17681837Y-20938906D01*
X17696123Y-20924620D01*
X17724694Y-20910334D01*
X17767551Y-20910334D01*
X17796123Y-20924620D01*
X17810408Y-20938906D01*
X17824694Y-20967477D01*
X17824694Y-21053192D01*
X17810408Y-21081763D01*
X17796123Y-21096049D01*
X17767551Y-21110334D01*
X17724694Y-21110334D01*
X17996123Y-21110334D02*
X17967551Y-21096049D01*
X17953266Y-21067477D01*
X17953266Y-20810334D01*
X18224694Y-21096049D02*
X18196123Y-21110334D01*
X18138980Y-21110334D01*
X18110408Y-21096049D01*
X18096123Y-21067477D01*
X18096123Y-20953192D01*
X18110408Y-20924620D01*
X18138980Y-20910334D01*
X18196123Y-20910334D01*
X18224694Y-20924620D01*
X18238980Y-20953192D01*
X18238980Y-20981763D01*
X18096123Y-21010334D01*
X18353266Y-21096049D02*
X18381837Y-21110334D01*
X18438980Y-21110334D01*
X18467551Y-21096049D01*
X18481837Y-21067477D01*
X18481837Y-21053192D01*
X18467551Y-21024620D01*
X18438980Y-21010334D01*
X18396123Y-21010334D01*
X18367551Y-20996049D01*
X18353266Y-20967477D01*
X18353266Y-20953192D01*
X18367551Y-20924620D01*
X18396123Y-20910334D01*
X18438980Y-20910334D01*
X18467551Y-20924620D01*
X18581837Y-21224620D02*
X18596123Y-21210334D01*
X18624694Y-21167477D01*
X18638980Y-21138906D01*
X18653266Y-21096049D01*
X18667551Y-21024620D01*
X18667551Y-20967477D01*
X18653266Y-20896049D01*
X18638980Y-20853192D01*
X18624694Y-20824620D01*
X18596123Y-20781763D01*
X18581837Y-20767477D01*
X11408980Y-21485620D02*
X11523980Y-21370620D01*
X11408980Y-21255620D01*
X11293980Y-21370620D01*
X11408980Y-21485620D01*
X11490298Y-21451938D02*
X11490298Y-21289302D01*
X11327662Y-21289302D01*
X11327662Y-21451938D01*
X11490298Y-21451938D01*
X11796123Y-21234906D02*
X11810408Y-21220620D01*
X11838980Y-21206334D01*
X11910408Y-21206334D01*
X11938980Y-21220620D01*
X11953266Y-21234906D01*
X11967551Y-21263477D01*
X11967551Y-21292049D01*
X11953266Y-21334906D01*
X11781837Y-21506334D01*
X11967551Y-21506334D01*
X12096123Y-21477763D02*
X12110408Y-21492049D01*
X12096123Y-21506334D01*
X12081837Y-21492049D01*
X12096123Y-21477763D01*
X12096123Y-21506334D01*
X12210408Y-21206334D02*
X12396123Y-21206334D01*
X12296123Y-21320620D01*
X12338980Y-21320620D01*
X12367551Y-21334906D01*
X12381837Y-21349192D01*
X12396123Y-21377763D01*
X12396123Y-21449192D01*
X12381837Y-21477763D01*
X12367551Y-21492049D01*
X12338980Y-21506334D01*
X12253266Y-21506334D01*
X12224694Y-21492049D01*
X12210408Y-21477763D01*
X12581837Y-21206334D02*
X12610408Y-21206334D01*
X12638980Y-21220620D01*
X12653266Y-21234906D01*
X12667551Y-21263477D01*
X12681837Y-21320620D01*
X12681837Y-21392049D01*
X12667551Y-21449192D01*
X12653266Y-21477763D01*
X12638980Y-21492049D01*
X12610408Y-21506334D01*
X12581837Y-21506334D01*
X12553266Y-21492049D01*
X12538980Y-21477763D01*
X12524694Y-21449192D01*
X12510408Y-21392049D01*
X12510408Y-21320620D01*
X12524694Y-21263477D01*
X12538980Y-21234906D01*
X12553266Y-21220620D01*
X12581837Y-21206334D01*
X12867551Y-21206334D02*
X12896123Y-21206334D01*
X12924694Y-21220620D01*
X12938980Y-21234906D01*
X12953266Y-21263477D01*
X12967551Y-21320620D01*
X12967551Y-21392049D01*
X12953266Y-21449192D01*
X12938980Y-21477763D01*
X12924694Y-21492049D01*
X12896123Y-21506334D01*
X12867551Y-21506334D01*
X12838980Y-21492049D01*
X12824694Y-21477763D01*
X12810408Y-21449192D01*
X12796123Y-21392049D01*
X12796123Y-21320620D01*
X12810408Y-21263477D01*
X12824694Y-21234906D01*
X12838980Y-21220620D01*
X12867551Y-21206334D01*
X13096123Y-21506334D02*
X13096123Y-21306334D01*
X13096123Y-21334906D02*
X13110408Y-21320620D01*
X13138980Y-21306334D01*
X13181837Y-21306334D01*
X13210408Y-21320620D01*
X13224694Y-21349192D01*
X13224694Y-21506334D01*
X13224694Y-21349192D02*
X13238980Y-21320620D01*
X13267551Y-21306334D01*
X13310408Y-21306334D01*
X13338980Y-21320620D01*
X13353266Y-21349192D01*
X13353266Y-21506334D01*
X13496123Y-21506334D02*
X13496123Y-21306334D01*
X13496123Y-21334906D02*
X13510408Y-21320620D01*
X13538980Y-21306334D01*
X13581837Y-21306334D01*
X13610408Y-21320620D01*
X13624694Y-21349192D01*
X13624694Y-21506334D01*
X13624694Y-21349192D02*
X13638980Y-21320620D01*
X13667551Y-21306334D01*
X13710408Y-21306334D01*
X13738980Y-21320620D01*
X13753266Y-21349192D01*
X13753266Y-21506334D01*
X14338980Y-21192049D02*
X14081837Y-21577763D01*
X14724694Y-21206334D02*
X14753266Y-21206334D01*
X14781837Y-21220620D01*
X14796123Y-21234906D01*
X14810408Y-21263477D01*
X14824694Y-21320620D01*
X14824694Y-21392049D01*
X14810408Y-21449192D01*
X14796123Y-21477763D01*
X14781837Y-21492049D01*
X14753266Y-21506334D01*
X14724694Y-21506334D01*
X14696123Y-21492049D01*
X14681837Y-21477763D01*
X14667551Y-21449192D01*
X14653266Y-21392049D01*
X14653266Y-21320620D01*
X14667551Y-21263477D01*
X14681837Y-21234906D01*
X14696123Y-21220620D01*
X14724694Y-21206334D01*
X14953266Y-21477763D02*
X14967551Y-21492049D01*
X14953266Y-21506334D01*
X14938980Y-21492049D01*
X14953266Y-21477763D01*
X14953266Y-21506334D01*
X15153266Y-21206334D02*
X15181837Y-21206334D01*
X15210408Y-21220620D01*
X15224694Y-21234906D01*
X15238980Y-21263477D01*
X15253266Y-21320620D01*
X15253266Y-21392049D01*
X15238980Y-21449192D01*
X15224694Y-21477763D01*
X15210408Y-21492049D01*
X15181837Y-21506334D01*
X15153266Y-21506334D01*
X15124694Y-21492049D01*
X15110408Y-21477763D01*
X15096123Y-21449192D01*
X15081837Y-21392049D01*
X15081837Y-21320620D01*
X15096123Y-21263477D01*
X15110408Y-21234906D01*
X15124694Y-21220620D01*
X15153266Y-21206334D01*
X15396123Y-21506334D02*
X15453266Y-21506334D01*
X15481837Y-21492049D01*
X15496123Y-21477763D01*
X15524694Y-21434906D01*
X15538980Y-21377763D01*
X15538980Y-21263477D01*
X15524694Y-21234906D01*
X15510408Y-21220620D01*
X15481837Y-21206334D01*
X15424694Y-21206334D01*
X15396123Y-21220620D01*
X15381837Y-21234906D01*
X15367551Y-21263477D01*
X15367551Y-21334906D01*
X15381837Y-21363477D01*
X15396123Y-21377763D01*
X15424694Y-21392049D01*
X15481837Y-21392049D01*
X15510408Y-21377763D01*
X15524694Y-21363477D01*
X15538980Y-21334906D01*
X15724694Y-21206334D02*
X15753266Y-21206334D01*
X15781837Y-21220620D01*
X15796123Y-21234906D01*
X15810408Y-21263477D01*
X15824694Y-21320620D01*
X15824694Y-21392049D01*
X15810408Y-21449192D01*
X15796123Y-21477763D01*
X15781837Y-21492049D01*
X15753266Y-21506334D01*
X15724694Y-21506334D01*
X15696123Y-21492049D01*
X15681837Y-21477763D01*
X15667551Y-21449192D01*
X15653266Y-21392049D01*
X15653266Y-21320620D01*
X15667551Y-21263477D01*
X15681837Y-21234906D01*
X15696123Y-21220620D01*
X15724694Y-21206334D01*
X16081837Y-21206334D02*
X16024694Y-21206334D01*
X15996123Y-21220620D01*
X15981837Y-21234906D01*
X15953266Y-21277763D01*
X15938980Y-21334906D01*
X15938980Y-21449192D01*
X15953266Y-21477763D01*
X15967551Y-21492049D01*
X15996123Y-21506334D01*
X16053266Y-21506334D01*
X16081837Y-21492049D01*
X16096123Y-21477763D01*
X16110408Y-21449192D01*
X16110408Y-21377763D01*
X16096123Y-21349192D01*
X16081837Y-21334906D01*
X16053266Y-21320620D01*
X15996123Y-21320620D01*
X15967551Y-21334906D01*
X15953266Y-21349192D01*
X15938980Y-21377763D01*
X16224694Y-21206334D02*
X16224694Y-21263477D01*
X16338980Y-21206334D02*
X16338980Y-21263477D01*
X16781837Y-21620620D02*
X16767551Y-21606334D01*
X16738980Y-21563477D01*
X16724694Y-21534906D01*
X16710408Y-21492049D01*
X16696123Y-21420620D01*
X16696123Y-21363477D01*
X16710408Y-21292049D01*
X16724694Y-21249192D01*
X16738980Y-21220620D01*
X16767551Y-21177763D01*
X16781837Y-21163477D01*
X16881837Y-21234906D02*
X16896123Y-21220620D01*
X16924694Y-21206334D01*
X16996123Y-21206334D01*
X17024694Y-21220620D01*
X17038980Y-21234906D01*
X17053266Y-21263477D01*
X17053266Y-21292049D01*
X17038980Y-21334906D01*
X16867551Y-21506334D01*
X17053266Y-21506334D01*
X17410408Y-21506334D02*
X17410408Y-21206334D01*
X17538980Y-21506334D02*
X17538980Y-21349192D01*
X17524694Y-21320620D01*
X17496123Y-21306334D01*
X17453266Y-21306334D01*
X17424694Y-21320620D01*
X17410408Y-21334906D01*
X17724694Y-21506334D02*
X17696123Y-21492049D01*
X17681837Y-21477763D01*
X17667551Y-21449192D01*
X17667551Y-21363477D01*
X17681837Y-21334906D01*
X17696123Y-21320620D01*
X17724694Y-21306334D01*
X17767551Y-21306334D01*
X17796123Y-21320620D01*
X17810408Y-21334906D01*
X17824694Y-21363477D01*
X17824694Y-21449192D01*
X17810408Y-21477763D01*
X17796123Y-21492049D01*
X17767551Y-21506334D01*
X17724694Y-21506334D01*
X17996123Y-21506334D02*
X17967551Y-21492049D01*
X17953266Y-21463477D01*
X17953266Y-21206334D01*
X18224694Y-21492049D02*
X18196123Y-21506334D01*
X18138980Y-21506334D01*
X18110408Y-21492049D01*
X18096123Y-21463477D01*
X18096123Y-21349192D01*
X18110408Y-21320620D01*
X18138980Y-21306334D01*
X18196123Y-21306334D01*
X18224694Y-21320620D01*
X18238980Y-21349192D01*
X18238980Y-21377763D01*
X18096123Y-21406334D01*
X18353266Y-21492049D02*
X18381837Y-21506334D01*
X18438980Y-21506334D01*
X18467551Y-21492049D01*
X18481837Y-21463477D01*
X18481837Y-21449192D01*
X18467551Y-21420620D01*
X18438980Y-21406334D01*
X18396123Y-21406334D01*
X18367551Y-21392049D01*
X18353266Y-21363477D01*
X18353266Y-21349192D01*
X18367551Y-21320620D01*
X18396123Y-21306334D01*
X18438980Y-21306334D01*
X18467551Y-21320620D01*
X18581837Y-21620620D02*
X18596123Y-21606334D01*
X18624694Y-21563477D01*
X18638980Y-21534906D01*
X18653266Y-21492049D01*
X18667551Y-21420620D01*
X18667551Y-21363477D01*
X18653266Y-21292049D01*
X18638980Y-21249192D01*
X18624694Y-21220620D01*
X18596123Y-21177763D01*
X18581837Y-21163477D01*
M02*
