G04 #@! TF.GenerationSoftware,KiCad,Pcbnew,(5.1.10)-1*
G04 #@! TF.CreationDate,2021-11-18T00:00:46-06:00*
G04 #@! TF.ProjectId,Kitty_Cannon_Schematic,4b697474-795f-4436-916e-6e6f6e5f5363,rev?*
G04 #@! TF.SameCoordinates,Original*
G04 #@! TF.FileFunction,Profile,NP*
%FSLAX46Y46*%
G04 Gerber Fmt 4.6, Leading zero omitted, Abs format (unit mm)*
G04 Created by KiCad (PCBNEW (5.1.10)-1) date 2021-11-18 00:00:46*
%MOMM*%
%LPD*%
G01*
G04 APERTURE LIST*
G04 #@! TA.AperFunction,Profile*
%ADD10C,0.152400*%
G04 #@! TD*
G04 #@! TA.AperFunction,Profile*
%ADD11C,0.050000*%
G04 #@! TD*
G04 APERTURE END LIST*
D10*
X185420000Y-61722000D02*
X185420000Y-148590000D01*
X115316000Y-61722000D02*
X185420000Y-61722000D01*
X115316000Y-148590000D02*
X115316000Y-61722000D01*
X185420000Y-148590000D02*
X115316000Y-148590000D01*
D11*
X145881100Y-71413600D02*
G75*
G02*
X145431100Y-70963600I0J450000D01*
G01*
X145431100Y-70963600D02*
G75*
G02*
X145981100Y-70413600I550000J0D01*
G01*
X148531100Y-70413600D02*
G75*
G02*
X149031100Y-70913600I0J-500000D01*
G01*
X149031100Y-70913600D02*
G75*
G02*
X148531100Y-71413600I-500000J0D01*
G01*
X142931100Y-69113600D02*
G75*
G02*
X142431100Y-69613600I-500000J0D01*
G01*
X142431100Y-69613600D02*
G75*
G02*
X141931100Y-69113600I0J500000D01*
G01*
X141931100Y-66913600D02*
G75*
G02*
X142431100Y-66413600I500000J0D01*
G01*
X142431100Y-66413600D02*
G75*
G02*
X142931100Y-66913600I0J-500000D01*
G01*
X146131101Y-65113599D02*
G75*
G02*
X145631100Y-64613600I-1J500000D01*
G01*
X145631100Y-64613600D02*
G75*
G02*
X146131100Y-64113600I500000J0D01*
G01*
X148331100Y-64113600D02*
G75*
G02*
X148831100Y-64613600I0J-500000D01*
G01*
X148831101Y-64613599D02*
G75*
G02*
X148331100Y-65113600I-500001J0D01*
G01*
X148331100Y-64113600D02*
X146131100Y-64113600D01*
X146131100Y-65113600D02*
X148331100Y-65113600D01*
X141931100Y-66913600D02*
X141931100Y-69113600D01*
X142931100Y-69113600D02*
X142931100Y-66913600D01*
X148531100Y-70413600D02*
X145981100Y-70413600D01*
X145881100Y-71413600D02*
X148531100Y-71413600D01*
X137151100Y-138593600D02*
G75*
G02*
X137601100Y-139043600I0J-450000D01*
G01*
X137601100Y-139043600D02*
G75*
G02*
X137051100Y-139593600I-550000J0D01*
G01*
X134501100Y-139593600D02*
G75*
G02*
X134001100Y-139093600I0J500000D01*
G01*
X134001100Y-139093600D02*
G75*
G02*
X134501100Y-138593600I500000J0D01*
G01*
X140101100Y-140893600D02*
G75*
G02*
X140601100Y-140393600I500000J0D01*
G01*
X140601100Y-140393600D02*
G75*
G02*
X141101100Y-140893600I0J-500000D01*
G01*
X141101100Y-143093600D02*
G75*
G02*
X140601100Y-143593600I-500000J0D01*
G01*
X140601100Y-143593600D02*
G75*
G02*
X140101100Y-143093600I0J500000D01*
G01*
X136901099Y-144893601D02*
G75*
G02*
X137401100Y-145393600I1J-500000D01*
G01*
X137401100Y-145393600D02*
G75*
G02*
X136901100Y-145893600I-500000J0D01*
G01*
X134701100Y-145893600D02*
G75*
G02*
X134201100Y-145393600I0J500000D01*
G01*
X134201099Y-145393601D02*
G75*
G02*
X134701100Y-144893600I500001J0D01*
G01*
X134701100Y-145893600D02*
X136901100Y-145893600D01*
X136901100Y-144893600D02*
X134701100Y-144893600D01*
X141101100Y-143093600D02*
X141101100Y-140893600D01*
X140101100Y-140893600D02*
X140101100Y-143093600D01*
X134501100Y-139593600D02*
X137051100Y-139593600D01*
X137151100Y-138593600D02*
X134501100Y-138593600D01*
X150711099Y-145393601D02*
G75*
G02*
X151211100Y-144893600I500001J0D01*
G01*
X151211100Y-145893600D02*
G75*
G02*
X150711100Y-145393600I0J500000D01*
G01*
X153911100Y-145393600D02*
G75*
G02*
X153411100Y-145893600I-500000J0D01*
G01*
X153411099Y-144893601D02*
G75*
G02*
X153911100Y-145393600I1J-500000D01*
G01*
X157111100Y-143593600D02*
G75*
G02*
X156611100Y-143093600I0J500000D01*
G01*
X157611100Y-143093600D02*
G75*
G02*
X157111100Y-143593600I-500000J0D01*
G01*
X157111100Y-140393600D02*
G75*
G02*
X157611100Y-140893600I0J-500000D01*
G01*
X156611100Y-140893600D02*
G75*
G02*
X157111100Y-140393600I500000J0D01*
G01*
X150511100Y-139093600D02*
G75*
G02*
X151011100Y-138593600I500000J0D01*
G01*
X151011100Y-139593600D02*
G75*
G02*
X150511100Y-139093600I0J500000D01*
G01*
X154111100Y-139043600D02*
G75*
G02*
X153561100Y-139593600I-550000J0D01*
G01*
X153661100Y-138593600D02*
G75*
G02*
X154111100Y-139043600I0J-450000D01*
G01*
X151211100Y-145893600D02*
X153411100Y-145893600D01*
X153411100Y-144893600D02*
X151211100Y-144893600D01*
X157611100Y-143093600D02*
X157611100Y-140893600D01*
X156611100Y-140893600D02*
X156611100Y-143093600D01*
X151011100Y-139593600D02*
X153561100Y-139593600D01*
X153661100Y-138593600D02*
X151011100Y-138593600D01*
M02*
