M48
; DRILL file {KiCad (5.1.10)-1} date 11/18/21 00:00:57
; FORMAT={-:-/ absolute / metric / decimal}
; #@! TF.CreationDate,2021-11-18T00:00:57-06:00
; #@! TF.GenerationSoftware,Kicad,Pcbnew,(5.1.10)-1
; #@! TF.FileFunction,Plated,1,2,PTH
FMAT,2
METRIC
T1C0.350
T2C0.400
T3C0.720
T4C0.762
T5C0.800
T6C0.813
T7C0.900
T8C1.000
T9C1.016
T10C1.118
T11C1.270
T12C1.310
T13C1.500
T14C1.524
T15C2.300
%
G90
G05
T1
X147.231Y-68.174
T2
X135.826Y-141.971
T3
X137.341Y-79.604
X139.341Y-79.604
X148.501Y-78.604
X148.501Y-80.604
T4
X129.451Y-102.464
X139.611Y-134.214
X148.501Y-134.214
X159.931Y-77.775
X159.931Y-92.304
T5
X182.847Y-123.346
X182.847Y-125.346
X182.847Y-127.346
T6
X129.451Y-127.864
X129.451Y-132.944
X133.261Y-127.864
X133.261Y-132.944
T7
X121.691Y-69.754
X121.691Y-72.254
X121.691Y-74.254
X121.691Y-76.754
T9
X120.561Y-89.764
X120.561Y-92.304
X120.561Y-94.844
X120.561Y-97.384
X120.561Y-99.924
X120.561Y-102.464
X120.561Y-105.004
X120.561Y-107.544
X120.561Y-110.084
X120.561Y-112.624
X120.561Y-115.164
X120.561Y-117.704
X120.561Y-120.244
X120.561Y-122.784
X120.561Y-125.324
X120.561Y-127.864
X120.561Y-130.404
X120.561Y-132.944
X120.561Y-135.484
X120.561Y-138.024
X123.101Y-89.764
X123.101Y-92.304
X123.101Y-94.844
X123.101Y-97.384
X123.101Y-99.924
X123.101Y-102.464
X123.101Y-105.004
X123.101Y-107.544
X123.101Y-110.084
X123.101Y-112.624
X123.101Y-115.164
X123.101Y-117.704
X123.101Y-120.244
X123.101Y-122.784
X123.101Y-125.324
X123.101Y-127.864
X123.101Y-130.404
X123.101Y-132.944
X123.101Y-135.484
X123.101Y-138.024
T10
X137.071Y-124.054
X139.611Y-124.054
X142.151Y-124.054
T11
X152.311Y-127.864
X167.551Y-127.864
T12
X137.32Y-92.293
X139.512Y-92.344
X141.745Y-92.304
X143.866Y-92.314
X145.918Y-92.339
T13
X182.847Y-121.246
X182.847Y-129.446
T14
X148.501Y-110.084
X171.894Y-110.084
T15
X119.291Y-66.684
X119.291Y-79.824
T8
X180.45Y-73.299G85X176.45Y-73.299
G05
X180.45Y-80.399G85X176.45Y-80.399
G05
T0
M30
